<svg width="244" height="70" viewBox="0 0 244 70" fill="none" xmlns="http://www.w3.org/2000/svg">
<path d="M42.8092 66.2617C54.4202 64.2106 64.0101 62.5134 64.1203 62.49L64.3205 62.4475L53.3587 49.4087C47.3296 42.2374 42.3968 36.3421 42.3968 36.3081C42.3968 36.2438 53.7159 5.07352 53.7795 4.96255C53.8008 4.92555 61.5037 18.2245 72.452 37.2002C82.7019 54.9656 91.1525 69.6132 91.2311 69.7504L91.3739 70L56.5361 69.9955L21.6984 69.991L42.8092 66.2617ZM176.408 63.1084C171.105 62.7684 168.021 59.7487 167.203 54.0967C166.986 52.5931 166.985 52.5541 166.963 42.7931L166.941 33.3461H169.288H171.635L171.654 42.4838C171.67 50.7193 171.681 51.6849 171.76 52.2643C172.079 54.6155 172.715 56.1967 173.798 57.3316C174.665 58.2399 175.68 58.7717 177.085 59.0539C177.747 59.1871 179.632 59.1873 180.237 59.0545C181.661 58.7411 182.802 58.1214 183.809 57.1149C184.957 55.9677 185.805 54.3402 186.216 52.4997L186.355 51.8794L186.37 42.6643L186.386 33.4493H188.782H191.178V47.9356V62.4219H188.806H186.435V60.1235C186.435 58.5618 186.418 57.8308 186.382 57.8429C186.352 57.8527 186.23 58.039 186.111 58.2569C185.294 59.7473 183.932 61.1102 182.44 61.9314C180.652 62.9156 178.858 63.2655 176.408 63.1084ZM230.234 63.085C228.362 62.9443 226.391 62.3007 224.78 61.3041C221.384 59.2037 219.375 55.7416 218.787 50.9771C218.583 49.3284 218.559 47.1137 218.729 45.7128C219.108 42.5825 220.338 39.5095 222.09 37.3156C222.539 36.7532 223.558 35.7345 224.12 35.2855C225.639 34.073 227.415 33.2251 229.301 32.8125C230.4 32.5721 232.335 32.4593 233.502 32.5675C236.435 32.8393 239.123 34.2202 240.95 36.3936C242.806 38.6017 243.827 41.6873 243.957 45.4867C243.977 46.0821 243.982 47.1261 243.968 47.8066L243.942 49.0438L233.67 49.0569L223.398 49.0699V49.5282C223.398 50.9237 223.737 52.513 224.324 53.8652C224.83 55.0313 225.7 56.3047 226.413 56.9209C227.875 58.1844 229.663 58.9406 231.621 59.1226C232.347 59.1901 234.196 59.1191 235.023 58.992C237.383 58.6294 239.626 57.7038 241.438 56.3456C241.651 56.1857 241.855 56.0364 241.891 56.0138C241.944 55.9806 241.957 56.3981 241.955 58.1532L241.954 60.3339L241.468 60.6341C239.419 61.9016 237.071 62.7155 234.585 63.0202C233.843 63.1111 231.121 63.1517 230.234 63.085ZM239.173 44.6931C239.173 42.3557 238.188 39.7591 236.794 38.4221C235.8 37.4679 234.597 36.8847 233.167 36.6633C232.491 36.5585 231.066 36.5989 230.352 36.743C228.845 37.0476 227.598 37.7103 226.511 38.7849C225.366 39.9158 224.508 41.2895 223.968 42.8545C223.774 43.4173 223.547 44.3412 223.477 44.8552L223.443 45.1001H231.308H239.173V44.6931ZM99.8373 62.3573C99.8493 62.3219 103.337 53.1585 107.589 41.9942L115.318 21.6952H117.802H120.285L120.491 22.2236C121.121 23.8384 135.965 62.3777 135.965 62.3978C135.965 62.411 134.776 62.4214 133.323 62.4214L130.681 62.4208L128.541 56.7248L126.402 51.0287L117.787 51.0286L109.173 51.0285L109.098 51.2218C109.057 51.3281 108.143 53.8912 107.067 56.9175L105.111 62.4198L102.463 62.4207C100.367 62.4214 99.82 62.4083 99.8373 62.3573ZM124.829 46.6818C124.829 46.6728 123.39 42.7696 121.63 38.008C118.338 29.1001 118.154 28.5641 117.894 27.134C117.772 26.4634 117.71 26.4447 117.638 27.0566C117.586 27.494 117.361 28.4728 117.188 29.0156C117.103 29.285 115.62 33.3539 113.894 38.0577C112.168 42.7615 110.756 46.6298 110.756 46.6541C110.756 46.6784 113.922 46.6982 117.793 46.6982C121.663 46.6982 124.829 46.6908 124.829 46.6818ZM137.563 61.6799V60.938L146.146 49.1397L154.728 37.3414L146.957 37.3156L139.187 37.2898L139.173 35.318L139.16 33.3461H150.399H161.638V34.0121V34.6781L153.055 46.5408C148.334 53.0652 144.471 58.4144 144.471 58.4278C144.471 58.4412 148.287 58.4522 152.951 58.4522H161.432V60.437V62.4218H149.497H137.563V61.6799ZM200.543 62.3874C200.524 62.3685 200.509 55.8265 200.509 47.8495V33.3461H202.854H205.2V36.3361C205.2 37.9806 205.22 39.3262 205.245 39.3262C205.269 39.3262 205.383 39.057 205.498 38.728C206.026 37.2203 206.94 35.8116 208.118 34.6919C209.18 33.6833 210.393 33.0801 211.825 32.8493C212.227 32.7845 212.567 32.7721 213.371 32.793C214.381 32.8193 214.909 32.8932 215.523 33.094L215.717 33.1572V35.5919V38.0267L215.163 37.7492C214.184 37.2592 213.218 37.0653 212.057 37.1257C211.301 37.165 210.805 37.262 210.201 37.4888C208.958 37.9553 207.949 38.7787 207.245 39.9028C206.225 41.53 205.497 43.6217 205.283 45.5441C205.244 45.8891 205.222 48.6988 205.212 54.2378L205.199 62.4218H202.888C201.617 62.4218 200.562 62.4063 200.543 62.3874ZM1 62.2855C1 62.2672 6.16518 53.3008 12.4782 42.3603L23.9564 22.4684L37.3329 11.2429C44.6899 5.06878 50.7292 0.00972018 50.7534 0.000240068C50.7776 -0.008731 50.6808 0.234854 50.5383 0.541796C50.3958 0.848738 43.8596 14.8683 36.0133 31.6964L21.7474 62.2929L11.3737 62.3059C5.66817 62.313 1 62.3039 1 62.2855Z" fill="black"/>
</svg>
