<svg width="71" height="70" viewBox="0 0 71 70" fill="none" xmlns="http://www.w3.org/2000/svg">
<path d="M27.8712 6.3262V9.34238H20.1586V0H27.8712V3.3055H23.4641V6.3262H27.8712ZM35.7996 3.3055H38.8807V0H31.1672C31.1672 0 31.1672 1.65919 31.1672 3.3055C32.1992 4.33742 32.7373 4.8314 34.2297 6.32387C33.3573 6.32387 31.1672 6.32675 31.1672 6.32675V9.34238H38.8807V6.3262L35.7996 3.3055ZM46.7319 3.3055H49.8127V0H42.0995C42.0995 0 42.0995 1.65919 42.0995 3.3055C43.1312 4.33742 43.6695 4.8314 45.1618 6.32387C44.2899 6.32387 42.0995 6.32675 42.0995 6.32675V9.34238H49.8128V6.3262L46.7319 3.3055ZM59.9715 13.7824L55.2862 64.5342L34.9856 70L14.6847 64.5342L10 13.7824H59.9715ZM50.5306 24.1019H34.9673H19.1288L19.8862 30.2306H34.9673H35.8144L34.9673 30.5832L20.4375 36.6349L20.9194 42.6253L34.9673 42.6709L42.4965 42.6949L42.0142 50.6828L34.9673 52.6669V52.6606L34.9095 52.6765L28.1034 50.9584L27.6904 46.0001H27.6679H21.3549H21.3327L22.159 55.5722L34.9673 59.3598V59.3529L34.9903 59.3598L47.7301 55.6411L49.3831 36.635H34.9673H34.9317L34.9673 36.6197L49.9106 30.2307L50.5306 24.1019Z" fill="black"/>
</svg>
