<svg width="79" height="70" viewBox="0 0 79 70" fill="none" xmlns="http://www.w3.org/2000/svg">
<g clip-path="url(#clip0_956_227)">
<path fill-rule="evenodd" clip-rule="evenodd" d="M22.3448 14.7988C22.0735 12.4488 24.1884 13.4449 23.9182 14.8617C23.5213 15.2393 22.7882 14.9296 22.3448 14.7988ZM24.8622 14.3581C25.3949 14.3037 25.9027 14.2238 26.0583 13.7918C25.3215 13.3376 24.2205 14.4582 24.6735 14.9878C24.9249 14.9665 24.7025 14.4714 24.8622 14.3581ZM17.8128 15.8058C18.2564 15.5995 18.9852 15.6774 19.1976 15.2394C17.8773 14.7796 15.4996 15.119 15.1061 15.9947C16.1126 15.9325 16.9543 15.1338 17.8128 15.8058ZM14.8543 16.0578C14.5683 15.9978 14.458 16.3226 14.6027 16.4982C14.8262 16.4908 14.856 16.2899 14.8543 16.0578ZM14.1619 17.3167C14.1216 16.7163 12.6692 16.2369 12.5256 17.065C12.6512 17.5351 13.8227 17.8376 14.1619 17.3167ZM11.7074 16.7504C11.4074 16.7644 11.2532 16.9258 11.0778 17.065C11.306 17.198 11.8117 17.1504 11.7074 16.7504ZM10.9523 18.4495C12.0609 18.3716 12.3984 19.3911 13.3437 19.2677C13.5198 18.1704 11.2647 16.661 10.9523 18.4495ZM25.9322 23.9252C25.6017 22.8282 26.6139 21.8866 25.995 21.0297C25.1383 21.098 24.3973 25.0746 25.6175 25.0586C26.4936 25.0465 26.8025 22.6413 26.8761 21.8487C26.2347 22.2133 26.5141 23.5002 25.9322 23.9252ZM15.4209 23.4851C15.44 23.3188 15.3337 23.2782 15.1692 23.2957C15.1733 23.4656 15.313 23.5985 15.4209 23.4851ZM18.5052 25.3104C18.5174 24.9204 18.502 24.5582 18.1906 24.4921C17.9536 24.4652 17.9678 24.6889 17.8128 24.7442C17.8993 25.0769 18.075 25.3213 18.5052 25.3104ZM15.4839 27.3247C16.6907 27.4604 17.4988 28.331 18.631 28.3313C17.7282 27.7236 16.7901 27.1512 15.358 27.0728C15.3123 27.2445 15.483 27.1995 15.4839 27.3247ZM24.9882 28.2687C24.8944 27.8378 24.7074 27.4999 24.4849 27.1984C24.5667 27.6408 24.6796 28.0523 24.9882 28.2687ZM18.0644 29.6532C17.2744 28.5962 16.0158 27.675 14.6027 27.4501C14.8022 29.1387 16.6792 29.1508 18.0644 29.6532ZM15.9246 30.0306C15.3852 29.1227 14.4603 28.5995 13.3437 28.2687C13.9713 29.0487 14.5462 30.2111 15.9246 30.0306ZM13.0291 29.1499C13.244 29.523 13.7842 29.9044 13.6587 30.4086C13.1068 30.2473 12.8385 29.8021 12.2738 29.6534C12.5737 30.0698 13.718 31.9157 14.4136 31.8568C14.8577 31.8184 15.0584 31.3282 14.9801 30.5349C14.6399 29.8045 13.5569 29.4823 13.0291 29.1499ZM16.2392 30.7863C16.3791 31.1711 16.4282 31.6462 16.9317 31.6672C16.846 31.2287 16.5898 30.9601 16.2392 30.7863ZM15.7985 30.9754C15.5638 30.9498 15.4294 31.0252 15.4211 31.2267C15.4916 31.2405 15.5191 31.2964 15.5467 31.3525C15.748 31.3447 15.8241 31.2101 15.7985 30.9754ZM26.5617 32.4228C26.6273 32.067 26.6939 31.3817 26.5617 31.0379C26.4809 31.3915 26.1769 32.1869 26.5617 32.4228ZM22.1558 31.1009C22.2039 31.4729 22.024 32.0721 22.3446 32.1715C22.3586 31.8961 22.4228 31.2759 22.1558 31.1009ZM25.114 32.5487C24.9314 32.3868 24.6693 32.6315 24.5475 32.4861C24.4188 32.0693 24.4721 31.4708 24.107 31.29C24.0654 31.29 24.0231 31.29 23.9814 31.29C23.463 32.3636 23.5141 34.6702 24.4217 35.255C24.5931 35.5455 24.6099 35.9903 25.0512 36.0107C25.414 35.7227 25.5031 35.1622 25.5548 34.5626C24.767 34.3971 25.5009 33.0392 25.114 32.5487ZM27.0025 33.2407C27.0801 32.6834 27.5565 31.8729 27.1913 31.29C27.0707 31.8416 26.8425 32.6189 27.0025 33.2407ZM15.9246 33.745C16.0249 33.4573 15.9461 32.9693 15.7357 32.8006C15.5888 33.0762 15.5034 33.7109 15.9246 33.745ZM17.0574 33.9964C17.3116 34.1618 17.3311 34.5617 17.687 34.6259C18.1298 34.0606 17.2898 33.0644 17.0574 33.9964ZM27.8206 35.255C27.821 35.4479 27.5682 35.7118 27.7578 35.8843C27.7942 35.7284 27.9857 35.404 27.8206 35.255ZM28.3869 37.7098C28.3843 37.4192 28.4224 37.0878 28.2613 36.9549C28.233 37.179 28.0669 37.6753 28.3869 37.7098ZM20.3934 40.2909C20.4307 40.5253 20.469 40.7605 20.708 40.7943C20.8624 40.5783 20.7484 40.1958 20.3934 40.2909ZM23.2258 40.6058C23.3133 40.772 23.5649 41.1021 23.7291 40.9827C23.5835 40.8754 23.4155 40.4603 23.2258 40.6058ZM29.2051 41.2982C29.0283 42.0476 29.4469 42.7304 29.7718 43.1864C29.9048 42.4558 29.8923 41.4094 29.2051 41.2982ZM30.7791 46.1438C30.8741 45.9535 30.9078 45.3671 30.7161 45.2637C30.5503 45.491 30.4026 46.0352 30.7791 46.1438ZM33.6108 49.1658C33.5197 48.7033 33.1574 48.2038 32.7929 48.2211C32.9204 48.6808 32.9425 49.2469 33.6108 49.1658ZM34.1779 50.0466C34.1805 50.3379 34.1427 50.6701 34.3036 50.8016C34.3117 50.5007 34.3074 50.2107 34.1779 50.0466ZM13.4066 50.1098C13.4076 50.3403 13.5309 50.4471 13.6587 50.5504C13.6335 50.3442 13.604 50.1437 13.4066 50.1098ZM36.4438 53.5711C36.2888 52.3843 35.6646 51.6659 34.8703 51.1171C34.984 52.3454 35.586 53.087 36.4438 53.5711ZM46.5777 59.8028C46.5395 59.7672 46.2788 59.656 46.2628 59.8028C46.3574 59.8756 46.5279 60.0239 46.5777 59.8028ZM78.4897 64.4606C78.4897 64.6919 78.4897 64.9218 78.4897 65.153C78.3874 65.3657 78.3542 65.6468 78.3006 65.9081C76.5504 67.0322 73.2621 66.6184 71.8173 68.0485C69.2834 66.6835 66.9284 68.8336 64.2648 69.056C63.8248 69.0922 63.3354 69.019 62.8792 69.056C61.3054 69.183 59.7685 69.551 58.159 69.6851C56.5085 69.8226 54.8547 69.9234 53.1238 70C52.4939 70 51.8649 70 51.2356 70C43.4289 69.59 35.7102 68.5399 29.9608 65.9714C27.0945 64.6907 24.4561 63.1195 22.0302 61.2505C19.6694 59.4327 17.246 57.4116 15.5467 55.1454C13.7376 52.7322 11.9276 50.3855 10.3225 47.7185C8.77407 45.1444 7.3267 42.4329 6.04261 39.4097C4.77587 36.4287 3.87332 33.4788 3.021 29.8425C2.46389 27.4641 1.87591 24.7714 0.881047 22.5413C0.493669 21.6728 0.0427007 20.9619 0 20.1491C0 19.9606 0 19.7712 0 19.5828C0.310425 16.939 2.36651 15.4044 4.78355 14.673C5.38873 14.49 5.97718 14.3152 6.54595 13.9805C6.58297 13.9592 6.94562 13.9222 6.79801 13.7289C5.72112 13.4698 4.83516 15.0553 3.65091 14.6101C2.59952 14.2148 3.20486 12.5869 4.34334 12.0925C4.87479 11.8616 5.93002 11.8016 6.42016 11.526C7.26526 11.0511 7.6488 10.0476 7.49044 9.13416C7.39659 8.59441 6.83641 8.31025 6.86099 7.87526C6.89539 7.26869 7.97996 6.74123 8.49728 6.36461C9.13027 5.90396 9.87953 5.32858 9.81916 4.60221C9.75557 3.84342 8.86316 3.60166 8.43431 3.02873C7.76108 2.12956 7.65433 0.785563 8.74888 0.25887C9.89642 -0.293321 12.0344 0.00758143 12.2738 1.45495C12.4849 2.7306 11.5793 3.21658 11.9588 4.16138C12.666 5.91948 18.1656 3.13656 16.8058 6.80513C18.0152 8.70101 22.7417 7.07915 22.8483 10.0782C24.8195 10.1178 25.7255 11.6137 27.3171 12.2183C27.7436 12.3802 28.2516 12.3802 28.7019 12.5329C31.3862 13.4452 34.7126 14.424 35.8144 17.0018C34.8187 17.6726 33.46 17.2235 32.2899 16.8131C31.272 16.4556 29.7882 15.7479 28.7649 16.1835C27.7504 16.6155 27.8046 18.3489 27.9467 20.0857C28.3245 24.7093 28.5462 29.4784 29.2053 33.6184C30.1258 39.3973 32.0934 44.0257 34.8705 47.6549C37.5569 51.1661 40.713 54.8428 44.815 57.4113C48.2764 59.5778 52.1652 61.2872 57.0891 62.3833C57.8193 62.5463 58.7021 62.902 59.1031 62.824C59.6977 62.7097 60.9772 60.9806 61.4326 60.5584C62.5153 59.5517 63.9722 58.1432 65.5231 59.362C65.3124 61.0401 63.8088 61.4253 63.446 62.9504C64.3785 63.5438 65.3674 63.0066 66.5306 63.0756C67.8841 63.1561 68.922 63.9322 70.0559 63.768C70.7795 63.6632 71.1417 63.1243 71.6922 62.7613C72.9428 64.5896 77.7646 62.2096 78.4897 64.4606ZM64.8306 59.8028C64.8038 59.5998 64.9137 59.2586 64.7049 59.237C64.5234 59.329 64.3439 59.9076 64.8306 59.8028ZM33.1711 15.4912C33.7876 15.8604 34.3304 16.304 34.8703 16.7506C35.1954 15.7935 34.2625 15.1812 33.1711 15.2396C33.1711 15.3232 33.1711 15.4072 33.1711 15.4912ZM50.1025 61.88C50.3426 61.9305 50.5163 61.9784 50.5432 61.6915C50.3189 61.6769 50.1664 61.7331 50.1025 61.88ZM41.4161 56.3407C41.3949 56.6371 41.9929 56.6428 42.1092 56.5924C42.0107 56.3957 41.7124 56.1402 41.4161 56.3407ZM39.9055 55.1451C40.0102 55.2511 40.2752 55.1948 40.472 55.2082C40.493 54.9777 40.4016 54.8583 40.3462 54.7042C40.0153 54.668 39.9239 54.8697 39.9055 55.1451ZM27.8206 29.4012C27.6498 29.2565 27.5258 29.5216 27.4429 29.4012C27.6479 27.8397 27.9774 25.4355 27.3171 24.1146C27.1538 23.972 26.8954 24.1646 26.8137 24.0513C27.2532 23.0022 27.5499 20.8142 27.3801 19.5195C27.3203 19.0631 27.0833 18.2515 26.8137 18.0718C26.1364 17.6208 25.52 18.3139 25.051 18.4495C24.756 18.5355 24.4279 18.4741 24.107 18.5122C22.8378 18.6652 21.491 19.0436 20.6453 19.4562C21.0862 19.75 21.711 19.8593 21.9039 20.4002C20.8072 20.3227 19.9517 20.0035 19.0084 19.7711C19.109 21.1911 17.3675 20.7461 16.3021 20.8414C16.6702 20.8494 16.7291 21.0272 16.7428 21.2817C16.7866 22.1172 14.0375 23.1073 13.0921 22.4781C11.7436 23.5653 13.6854 24.6758 13.5956 26.0659C13.3304 26.2624 13.208 26.6012 12.9661 26.8205C11.626 26.8531 10.2164 27.1227 10.448 28.5203C10.2669 28.4146 9.98121 28.3441 9.75557 28.457C9.41304 29.3394 9.98812 30.2973 10.763 30.4716C10.9583 30.4148 11.0037 30.2088 11.2665 30.2199C13.017 30.5545 13.6332 31.7155 13.5326 33.933C13.5151 34.3148 13.553 34.8131 13.2808 35.0664C12.2875 34.9983 11.3665 32.5466 12.966 32.4859C12.5824 31.9216 12.292 31.0797 11.5811 31.1007C10.7663 31.125 10.4005 32.4128 9.8187 32.8633C10.6574 33.3267 12.627 34.6056 11.0145 35.4439C11.8127 35.5636 12.2582 35.8802 12.5879 36.3247C13.1375 37.0669 13.12 38.1789 13.5323 38.78C14.3665 39.9968 14.8068 37.6885 15.7979 38.6535C16.032 38.734 15.6948 38.4262 15.6721 38.4024C14.8219 37.4845 13.5252 36.7322 13.0286 35.6329C13.4103 35.4579 13.922 35.6488 14.2872 35.6955C14.4316 34.9561 13.9178 34.1193 14.0984 33.555C14.2285 33.1504 14.4686 33.3286 14.7281 33.1777C14.8806 33.0889 14.7612 32.7584 15.0429 32.8632C15.0412 33.7273 14.5205 35.1816 15.1054 35.8213C15.9596 35.9746 16.2063 34.5057 16.9311 34.4996C17.336 34.4961 17.7186 35.2088 18.001 35.5696C18.3401 36.0026 18.8011 36.5346 18.6934 37.0169C18.4667 38.0338 16.7589 37.2596 16.1757 36.828C16.5312 38.239 18.7183 38.458 18.8192 40.2906C18.8307 40.4951 18.7275 40.7562 18.7564 40.9824C18.88 41.9495 19.7818 42.6682 20.7074 42.053C20.8435 42.3998 20.8613 42.8648 21.2113 42.997C21.5179 42.7378 21.409 42.0618 21.5887 41.6749C22.687 41.9048 23.2604 42.4336 23.6027 43.3113C23.7723 43.7455 23.7285 44.5504 24.421 44.5702C24.5269 43.4972 23.6861 42.8322 23.5401 41.8007C24.1042 42.7109 26.1393 43.6958 26.0579 45.1368C26.0038 46.0873 24.8742 46.1907 23.7918 46.3326C24.8234 46.6871 25.2555 47.8425 26.3724 48.2207C26.6726 48.3229 27.0581 48.2354 27.3794 48.3471C28.1967 48.6314 29.5036 50.3068 29.1421 51.3684C27.4006 52.246 26.0419 49.8738 24.1065 49.921C24.9226 50.9615 26.2575 51.3077 27.3796 51.8092C28.5872 52.3483 29.7963 52.9007 30.9674 53.4455C33.7279 54.7294 35.644 56.4094 37.4507 58.5439C36.1971 59.2274 32.3977 58.0905 34.6811 57.2844C33.8868 57.2575 33.0462 56.7594 32.3519 57.0334C32.7199 59.4351 35.8798 59.0448 38.2689 59.4248C38.0514 59.8368 37.7448 60.16 37.5133 60.5579C37.6975 60.6665 37.952 60.7062 38.2689 60.6837C38.1159 60.929 37.7176 60.9296 37.7021 61.3129C38.0081 61.7204 38.6137 61.8283 39.024 62.1311C40.6415 60.9711 40.8229 63.6027 41.8564 63.6417C42.8329 63.6782 43.0202 62.2749 43.9969 62.1311C43.7515 62.6415 43.2712 62.9161 43.0529 63.4533C44.0092 63.2221 44.2818 62.7072 45.0661 62.5086C47.8767 61.7976 50.1807 64.1386 52.4934 64.3975C53.325 64.4901 54.1517 64.957 54.8854 65.0899C55.8341 65.261 56.4173 64.9487 57.1512 64.5865C56.0334 63.5428 53.4669 63.9493 52.5567 62.6977C52.5919 62.4813 52.74 62.3778 52.8716 62.2577C49.9256 62.9048 48.0707 61.1393 46.829 59.4881C43.1945 58.5493 40.0059 57.1637 38.4572 54.1381C38.3829 53.8531 38.7363 53.9975 38.6466 53.6972C37.3688 52.2754 36.0916 50.8318 35.0588 49.1653C34.7018 48.5899 34.4575 47.8668 34.0515 47.403C33.7944 47.1092 33.3629 46.9475 33.1075 46.6473C32.8278 46.3183 32.7897 45.9064 32.3518 45.7666C32.1834 46.0176 32.2963 46.5496 32.1633 46.8364C31.8606 45.621 31.1861 44.4667 29.8974 44.4444C29.8734 43.5604 30.5875 43.4148 30.9672 42.9338C30.4674 42.3327 30.347 41.5758 30.0862 40.6682C29.4521 38.4626 28.9282 36.1586 28.3864 34.1217C27.6685 34.3898 27.4782 35.1856 27.1278 35.8213C27.1624 34.912 27.2049 34.0101 27.6945 33.555C27.9183 33.5831 27.9428 33.8106 28.0719 33.9328C28.1901 33.504 28.5959 33.104 28.3864 32.5483C28.2239 32.2973 27.7488 32.4143 27.6315 32.4225C27.9421 31.6623 28.2029 30.2827 27.8206 29.4012ZM53.1237 66.727C53.6679 66.4944 54.1577 66.2082 54.3819 65.6564C53.7904 65.8046 52.9564 66.0281 53.1237 66.727ZM53.1863 65.4679C52.8223 65.6696 52.4128 65.8275 52.1796 66.1603C52.7014 66.1915 53.3127 65.6677 53.1863 65.4679ZM51.2355 66.4119C51.5918 66.3168 51.9732 65.9488 51.9279 65.6564C51.5141 65.6978 50.874 65.9929 51.2355 66.4119ZM51.4872 64.9639C50.9207 64.785 50.4582 65.2284 50.4166 65.7828C50.9213 65.6576 51.2629 65.3696 51.4872 64.9639ZM49.7243 65.0903C49.1711 65.1868 48.7573 65.4224 48.5912 65.908C49.2675 66.1763 49.6138 65.5951 49.7243 65.0903ZM48.8434 66.727C48.9994 66.7359 49.1486 66.7383 49.1583 66.6005C49.0639 66.5007 48.7994 66.5084 48.8434 66.727ZM49.8508 64.0199C48.97 63.9523 47.9166 64.5239 48.4659 65.2788C49.0523 64.9837 49.6463 64.697 49.8508 64.0199ZM45.5073 65.2163C46.0573 65.2936 46.2011 64.6644 46.5779 64.7748C46.7964 64.9128 46.6636 65.4028 47.0179 65.4048C47.8412 65.2373 48.1377 64.1139 47.6472 63.3276C46.5376 63.5229 45.5225 64.1336 45.5073 65.2163ZM45.7589 63.5797C45.4248 63.749 45.069 63.896 44.8781 64.2088C45.2899 64.191 45.9032 63.7368 45.7589 63.5797ZM43.9972 63.8946C44.0324 64.062 43.7379 64.2147 43.9333 64.3346C43.9857 64.2555 44.3167 63.9443 43.9972 63.8946ZM42.8641 65.4046C42.8443 65.4903 42.7741 65.5247 42.8016 65.6564C42.8847 65.6564 42.969 65.6564 43.0534 65.6564C43.0704 65.4915 43.0295 65.386 42.8641 65.4046ZM41.9201 65.0903C41.602 65.1082 41.4817 65.3235 41.4793 65.6564C41.7533 65.5955 42.003 65.5094 41.9201 65.0903ZM35.5621 61.88C35.1743 61.8629 35.056 61.9228 35.4996 62.0065C35.9222 62.0844 36.6676 62.1253 36.9475 62.0065C36.6152 62.0027 35.7568 61.889 35.5621 61.88ZM37.451 60.8733C37.1216 60.6229 36.4596 60.8043 36.1292 60.9359C36.3199 61.4597 37.2559 61.2272 37.451 60.8733ZM35.4371 65.5937C37.0069 66.4164 39.1684 67.3145 41.4161 67.0412C39.7828 66.2414 37.3537 65.9003 35.4371 65.5937ZM33.1079 64.9013C33.2583 65.1077 33.6134 65.1089 33.8629 65.2163C34.3275 64.7672 33.3062 64.5142 33.1079 64.9013ZM27.1911 59.8028C26.7663 59.8398 26.3039 59.8386 26.1841 60.181C26.5889 60.3311 27.1745 60.2378 27.1911 59.8028ZM25.995 61.4393C26.143 61.5734 26.415 61.7331 26.4987 61.4393C26.4336 61.3728 26.0494 61.3096 25.995 61.4393ZM26.7504 56.0891C26.8076 55.826 26.3064 55.7265 26.2471 55.9635C26.385 56.0347 26.5045 56.1255 26.7504 56.0891ZM27.569 58.2289C27.5659 58.1426 27.5986 58.091 27.6318 58.0404C27.4443 57.8467 27.065 57.8123 26.7504 57.9146C26.8008 58.2174 27.3049 58.3438 27.569 58.2289ZM27.632 62.2581C27.7124 62.3438 27.929 62.3438 28.0095 62.2581C28.0391 62.0601 27.9309 62.0007 27.8207 61.9426C27.7642 62.0544 27.6687 62.1265 27.632 62.2581ZM29.5833 55.0193C29.3782 54.4265 28.7096 54.5829 28.2613 54.39C27.5407 54.0796 26.9256 53.3386 25.9952 53.3202C25.9534 53.3202 25.9112 53.3202 25.8697 53.3202C26.6789 54.2737 27.7498 55.2984 29.5833 55.0193ZM26.3099 52.691C25.7224 52.2918 25.0788 51.9488 24.2328 51.8097C24.5017 52.4847 25.5487 52.7173 26.3099 52.691ZM28.2611 55.6484C28.7024 56.1097 29.2563 56.4584 30.2124 56.4035C29.8449 55.9103 28.9666 55.594 28.2611 55.6484ZM30.653 58.4813C30.0049 58.0321 28.9856 57.3035 28.1353 57.4738C28.6271 58.1152 29.6158 58.5955 30.653 58.4813ZM28.2611 60.8733C28.2459 60.9628 28.1576 60.9788 28.1353 61.0611C28.2904 61.2636 28.5239 60.9155 28.2611 60.8733ZM29.7088 62.7615C29.7622 63.0015 29.9934 63.0642 30.2124 63.139C30.2977 62.9934 30.4653 62.9301 30.4012 62.6357C30.2482 62.5437 29.698 62.4907 29.7088 62.7615ZM30.9049 59.9919C30.7099 59.8726 29.9991 59.7391 29.8346 59.9919C30.1399 60.1159 30.7397 60.4366 30.9049 59.9919ZM31.0936 57.8513C31.1566 57.3832 30.627 57.3812 30.4012 57.5365C30.4224 57.8513 30.839 57.771 31.0936 57.8513ZM31.7859 54.4526C31.5016 54.0233 30.7119 54.1 30.1495 53.9493C29.7375 53.432 28.7525 53.2441 27.8836 53.3828C28.8787 54.0458 30.0106 54.5708 31.7859 54.4526ZM31.6601 60.4951C31.9304 60.7284 32.3542 60.8081 32.7301 60.9359C32.7502 60.7877 32.8293 60.6995 32.7929 60.4951C32.6097 60.2837 31.8145 60.1745 31.6601 60.4951ZM26.3099 50.2982C26.3729 50.0046 26.2001 49.947 25.9322 49.984C25.8373 50.3098 26.1513 50.226 26.3099 50.2982ZM27.8206 51.054C27.6367 51.0073 27.6986 50.7148 27.4429 50.7391C27.2109 50.9518 27.6287 51.2756 27.8206 51.054ZM23.4775 51.4946C23.2687 51.0328 22.7979 50.8317 22.4705 50.4873C23.0843 49.5981 21.7148 49.2341 21.4634 48.5991C21.4605 48.4076 21.5963 48.3544 21.6522 48.221C21.1233 47.9112 20.5126 47.6826 20.2043 47.1518C20.4478 46.9756 21.0968 47.2041 21.3371 47.0253C20.9559 46.8611 20.5443 46.7277 20.3931 46.3329C20.6138 45.8193 21.5112 45.9829 21.7148 45.452C20.6306 45.2126 19.5534 44.6364 18.3787 44.6965C18.392 45.1448 18.7911 45.2073 18.9451 45.5147C18.5969 45.36 18.3152 45.1371 17.8123 45.1371C17.7747 45.4476 17.9758 45.5191 17.9384 45.8296C17.5951 45.8577 17.4211 45.7173 17.0569 45.7671C17.3165 46.3463 17.9822 46.52 18.1902 47.1519C17.9328 47.217 17.5833 47.0496 17.4978 47.1519C18.1622 47.7038 19.1327 48.2856 19.5116 48.9135C18.8934 48.7986 18.5395 48.4179 17.9384 48.2844C18.4416 49.2808 19.6669 49.4885 20.5819 49.984C21.5185 50.491 22.3578 51.3088 23.4775 51.4946ZM22.0927 52.2497C22.3558 52.3935 22.8796 52.85 23.2258 52.5021C22.934 52.3728 22.4748 52.0791 22.0927 52.2497ZM21.5893 51.9347C21.4122 51.6479 20.5086 51.4952 20.2678 51.6829C20.6785 51.8012 21.0656 52.1199 21.5893 51.9347ZM20.4562 52.1238C20.4364 52.2093 20.3668 52.2437 20.3934 52.3761C20.5042 52.3397 20.7631 52.4514 20.7711 52.3129C20.6734 52.2427 20.6398 52.1084 20.4562 52.1238ZM19.638 43.7523C19.4663 43.1608 19.237 42.5126 18.757 42.0532C18.4985 41.8054 18.2481 41.8105 18.0645 41.4859C17.5781 40.6301 17.8113 39.4217 17.1833 38.5285C17.0348 38.4801 16.7483 38.4039 16.6169 38.5285C16.6287 38.9412 17.5865 39.9198 16.9319 40.4167C15.4844 40.4742 14.9271 39.3219 13.533 39.5352C13.2191 40.3484 14.329 40.7662 14.0362 41.3609C16.0386 42.0036 17.6288 43.3959 19.638 43.7523ZM15.1061 45.6405C15.4759 45.9222 16.0106 46.3725 16.4909 46.3329C16.1104 46.0633 15.7604 45.4285 15.1061 45.6405ZM14.4136 45.0746C14.2504 44.5667 13.9673 44.1784 13.3437 44.1306C13.4705 44.6747 14.0617 44.7553 14.4136 45.0746ZM13.3437 46.7111C13.6807 46.9416 14.0153 47.5069 14.3508 47.5293C14.1055 47.208 13.8066 46.6057 13.3437 46.7111ZM13.7845 42.3676C13.8171 42.2744 13.8773 42.2092 13.9103 42.1158C13.7489 41.8936 13.3509 42.0149 13.281 42.2422C13.4048 42.328 13.6404 42.3025 13.7845 42.3676ZM23.5407 44.8854C23.5318 44.3438 22.9301 44.0295 22.4705 44.3194C22.6162 44.7194 23.055 44.8255 23.5407 44.8854ZM17.6236 36.6406C17.6342 36.5365 17.236 36.5365 17.2462 36.6406C17.3325 36.6597 17.6259 36.9248 17.6236 36.6406ZM15.1693 36.3883C15.0853 36.3883 15.0013 36.3883 14.9173 36.3883C14.8308 36.4692 14.8551 36.6623 14.8543 36.8283C14.9694 36.8455 15.2073 37.0557 15.2951 36.8921C15.1394 36.8372 15.3133 36.454 15.1693 36.3883ZM10.4482 36.325C10.6567 36.7996 11.5011 36.7644 11.6442 36.2625C11.286 36.1238 10.7584 36.2202 10.4482 36.325ZM10.6374 34.5626C10.3939 34.5504 10.1734 34.5606 10.0075 34.6259C10.0565 34.9005 10.6357 34.8517 10.6374 34.5626ZM11.2036 24.4291C10.8801 24.5786 10.2055 24.2794 9.88198 24.4291C10.1684 25.5632 12.2917 24.9526 12.148 24.0513C12.0261 23.2867 10.007 23.4761 9.31551 23.5479C9.85142 23.935 10.7033 24.0063 11.2036 24.4291ZM8.68606 25.6249C8.80448 25.8003 9.12996 25.7684 9.31551 25.8767C9.35191 25.7455 9.47172 25.6973 9.44131 25.4991C9.27619 25.4119 8.68206 25.3432 8.68606 25.6249ZM11.8963 25.3733C11.8623 25.5106 11.7436 25.7805 11.9588 25.814C12.1087 25.7083 12.0774 25.4646 11.8963 25.3733ZM13.6587 21.5966C13.6421 21.4126 13.8008 21.4037 13.7845 21.2191C13.5286 21.194 13.3457 21.242 13.3437 21.4707C13.4635 21.498 13.5017 21.6063 13.6587 21.5966ZM13.5957 7.62336C13.345 9.15935 14.729 11.0174 16.365 10.4556C16.4413 9.8759 16.1768 9.63705 16.1762 9.13401C16.5937 9.03279 16.8394 9.43368 17.0572 9.32278C16.445 8.21487 14.8164 8.12317 13.5957 7.62336ZM12.903 6.17568C13.4562 6.2852 14.3245 6.22975 14.5397 5.79798C14.1218 5.51874 12.8678 5.44393 12.903 6.17568ZM11.3923 1.76952C11.5134 0.547023 10.0195 -0.128508 9.12673 0.699701C8.56871 1.21702 8.32633 2.4664 9.18956 2.90278C9.09156 2.58084 8.8054 2.44766 8.87498 1.95876C9.53101 1.58367 10.7338 2.14169 11.3923 1.76952ZM10.9523 5.79783C11.1123 5.70643 11.3527 5.69553 11.3298 5.42028C11.1363 5.43979 10.8065 5.64837 10.9523 5.79783ZM9.63008 10.4556C10.415 10.4742 11.0068 10.0315 11.7702 10.0152C12.431 10.0012 13.0607 10.1978 13.8473 10.141C13.2856 8.49242 10.5563 9.93211 9.63008 10.4556ZM8.43431 13.3511C9.91946 13.1623 11.9886 12.1851 13.9733 12.4071C14.7219 12.4906 15.3776 12.9119 15.7985 13.2253C15.5839 12.9963 15.3297 12.0564 15.7985 11.9037C16.8314 12.1005 16.8659 14.0521 18.1274 13.7919C18.77 13.6594 18.9657 12.4127 18.631 11.6518C19.1113 11.9897 19.3588 12.5605 20.0159 12.7219C19.866 12.1165 19.4302 11.7968 19.1348 11.3371C19.3204 11.1033 19.5634 10.9264 19.5122 10.4556C17.711 10.2825 16.1121 11.2548 14.4138 11.5887C13.0957 11.8483 12.1149 12.1054 10.9524 12.4069C10.0784 12.6335 9.106 12.7924 8.43431 13.3511ZM3.1471 26.3805C3.06063 26.4607 3.03743 26.7565 3.20992 26.758C3.26169 26.7124 3.37888 26.3224 3.1471 26.3805ZM5.34972 18.8903C2.58969 19.3283 5.53158 22.2635 7.17541 21.5341C7.38353 21.2145 7.31887 20.9215 7.3012 20.4635C8.2589 20.5574 8.97943 20.0909 9.81916 20.275C9.95464 20.5677 9.69843 20.8154 9.63023 21.093C12.4861 20.9119 13.9002 18.6679 16.9943 18.3237C17.3787 18.2809 17.8169 18.3489 18.2535 18.3237C19.5565 18.2477 20.9998 18.0062 22.3448 17.7571C23.6643 17.5132 24.8708 17.028 25.9952 16.7504C27.4063 16.4016 29.553 15.48 29.2686 13.603C29.236 13.3893 29.0878 13.1973 28.9537 12.9735C21.4528 12.2482 15.8446 15.1888 9.94511 16.3725C9.23641 16.5146 8.37471 16.4202 7.80486 17.0017C8.01099 17.5089 8.73536 17.498 9.06345 17.8829C8.89941 18.0752 8.49375 18.026 8.43431 18.3237C8.57316 18.8561 9.36236 18.7375 9.44131 19.331C8.18839 20.2142 5.56123 19.0877 6.16825 17.3167C4.27514 17.7316 1.51879 18.1439 1.51065 20.275C1.50681 21.2143 2.06668 22.0831 2.70627 22.6039C2.27297 20.621 3.00948 17.6887 5.34972 18.8903ZM7.67891 30.6605C7.7362 30.2343 7.03563 29.9359 6.79786 30.2202C7.02979 30.4286 7.3929 30.5055 7.67891 30.6605ZM5.47583 31.4788C5.92096 33.0264 6.0658 34.8753 7.23823 35.696C7.06174 33.8792 6.41708 32.5308 5.47583 31.4788ZM8.11943 29.8423C8.31542 28.9537 7.01182 28.6057 6.92366 29.2127C6.8467 29.7414 7.68029 29.68 8.11943 29.8423ZM8.37133 28.1426C8.08717 27.8318 7.37401 27.6392 6.86083 27.765C7.04193 28.2106 8.15614 28.87 8.37133 28.1426ZM7.61608 25.3733C7.9004 25.1961 8.20207 25.0357 8.24523 24.6176C7.87997 24.3442 7.00552 24.3057 6.92366 24.7442C6.86176 25.0757 7.30596 25.21 7.61608 25.3733ZM8.43431 26.4431C8.4618 26.2269 8.40942 26.0906 8.37133 25.9395C8.04847 25.9315 7.89778 26.0954 7.86783 26.3805C8.0245 26.4333 8.20498 26.4627 8.43431 26.4431ZM4.0283 26.1286C3.97977 25.9673 3.96533 25.7718 3.83953 25.6881C3.68301 25.8575 3.67702 26.1618 4.0283 26.1286ZM4.65775 21.8487C4.37528 21.7385 3.95719 21.856 3.83953 22.1003C3.97162 22.2195 4.16178 22.2817 4.34303 22.3517C4.40662 22.1434 4.69124 22.155 4.65775 21.8487ZM5.34972 29.9681C5.1869 29.6065 5.16648 29.1026 4.84653 28.8983C3.98468 29.0209 4.83854 30.259 5.34972 29.9681ZM6.5458 36.7657C7.16035 38.2514 7.809 39.8573 9.12673 40.5421C8.14139 39.4458 7.90884 37.632 7.23823 36.325C7.00629 35.874 6.63627 35.5233 6.42 35.0665C5.91113 33.9909 5.67658 32.7358 4.65775 32.234C5.05926 33.8168 5.91927 35.2493 6.5458 36.7657ZM23.8554 60.3695C23.4745 59.0722 22.452 58.4154 21.0229 58.1664C20.6696 57.3239 19.65 57.1482 19.4494 56.1524C19.4168 55.9479 19.8392 55.8758 19.7015 55.7748C17.7858 56.1376 17.7182 54.1072 16.8059 53.2569C14.504 53.2985 14.9322 50.4503 13.6588 48.9773C13.2951 48.5558 12.9345 48.4586 12.5257 48.0333C11.8967 46.0839 10.2552 45.0951 9.31566 43.3757C8.48116 41.8478 8.30559 40.1244 6.92396 39.0322C8.01713 42.7332 10.3591 45.8617 12.4629 48.9774C14.147 51.4704 15.2922 53.8447 17.1835 55.8377C17.8262 56.514 18.5518 56.9669 19.3238 57.5999C20.6369 58.6766 21.5411 60.674 23.8554 60.3695ZM23.6033 56.0891C23.5356 55.8195 23.0501 55.6377 22.7851 55.7748C23.0292 55.9091 23.2974 56.0177 23.6033 56.0891ZM25.9322 54.4526C25.5058 53.9558 24.6131 53.7665 23.7923 53.4458C22.7741 53.0472 21.3213 52.6698 20.5823 53.1309C20.6567 53.7485 21.1487 53.9492 21.4634 54.3267C22.3378 54.4614 22.8383 54.8881 23.6662 54.9558C24.642 55.0365 25.5533 54.993 25.9322 54.4526ZM55.9559 68.8041C54.0512 67.9355 51.2579 68.9127 49.2208 68.4259C48.8364 68.3339 48.4965 68.0696 48.151 68.0484C47.8074 68.0273 47.4074 68.2087 47.081 68.2374C45.3366 68.3926 43.7441 68.2202 42.109 67.9851C40.9618 67.8203 39.7399 67.7558 38.7096 67.4817C37.7227 67.2198 36.702 66.6156 35.6883 66.2228C34.6596 65.8249 33.5887 65.4283 32.6041 65.0271C30.6617 64.2357 28.5973 62.8662 26.5615 62.3208C27.9349 63.7797 30.2992 64.2485 31.912 65.4679C29.6329 64.8305 27.9132 63.6341 25.8694 62.7615C27.4618 64.1872 29.6837 65.0507 31.912 65.9711C34.1311 66.8884 36.5424 67.6644 39.1499 68.0482C44.3295 68.8111 50.4045 69.9442 55.9559 68.8041ZM57.5923 68.615C57.2692 68.6279 56.8666 68.5606 56.8374 68.8667C57.1113 69.1018 57.5719 69.0773 57.5923 68.615ZM60.9912 61.1875C61.0806 61.6526 61.7558 61.5139 61.6842 60.9986C61.3411 60.9499 61.1924 61.0957 60.9912 61.1875ZM66.2154 64.4606C64.5234 64.4197 62.4361 63.8353 60.6761 63.8946C60.0009 63.917 59.1802 64.0786 58.977 64.7747C59.4963 64.9854 60.0527 64.859 60.6761 64.8386C62.7176 64.7696 65.2121 65.6869 66.2154 64.4606ZM67.9151 64.3346C67.6207 64.334 67.5339 64.5417 67.4745 64.7747C67.5554 64.8615 67.7477 64.838 67.9151 64.8386C67.8852 64.5601 68.0015 64.5251 67.9151 64.3346ZM71.6289 64.0832C71.3217 64.0365 71.2072 64.4185 71.314 64.587C71.512 64.617 71.5599 64.497 71.692 64.4606C71.7375 64.2683 71.5834 64.2753 71.6289 64.0832ZM76.8526 64.4606C75.5641 64.3233 74.0593 64.4082 72.8878 64.587C73.5776 65.2366 76.0553 64.822 76.8526 64.4606ZM16.3021 26.1911C16.923 26.5361 17.4959 27.2629 18.3164 27.1984C18.0948 26.8957 17.7805 26.6852 17.5607 26.3805C17.7945 26.362 17.9931 26.3094 18.0644 26.1286C17.2988 25.593 16.317 24.9388 15.9244 24.2398C16.1836 24.7419 16.5802 25.5418 16.3021 26.1911ZM24.3589 26.6952C24.2242 26.5573 24.2849 26.2232 24.1068 26.1287C24.0668 26.4026 24.244 26.7855 24.3589 26.6952ZM18.568 32.1715C18.6645 33.2078 19.3268 33.6777 19.3863 34.752C18.6505 33.9142 18.2398 32.751 17.7498 31.6672C17.7017 32.9782 18.098 33.7904 18.4422 34.6891C18.7072 35.3797 18.9556 36.1903 19.638 36.3884C19.9567 36.329 19.9389 35.9328 20.2679 35.8845C20.6178 35.9348 20.8 36.4841 21.0229 36.4515C20.8548 36.2626 20.8025 35.9585 20.7711 35.6333C20.8319 35.4002 21.1653 35.4398 21.2745 35.2552C20.6415 33.9583 19.7342 32.935 18.568 32.1715Z" fill="black"/>
</g>
<defs>
<clipPath id="clip0_956_227">
<rect width="79" height="70" fill="white"/>
</clipPath>
</defs>
</svg>
