<svg width="88" height="70" viewBox="0 0 88 70" fill="none" xmlns="http://www.w3.org/2000/svg">
<g clip-path="url(#clip0_953_194)">
<path fill-rule="evenodd" clip-rule="evenodd" d="M66.3253 8.54361L66.3136 8.52611C61.9188 4.69451 56.6275 2.03478 50.9305 0.793602C45.2335 -0.447574 39.3154 -0.230003 33.7249 1.42614C28.1484 3.11088 23.0917 6.1857 19.03 10.3617C14.9683 14.5377 12.035 19.6777 10.5056 25.2988C7.33708 27.5076 4.7347 30.4332 2.9102 33.8375C1.0857 37.2418 0.090615 41.0288 0.0059032 44.8903C-0.0788086 48.7518 0.749244 52.5787 2.42269 56.0598C4.09615 59.5409 6.56773 62.5777 9.63636 64.9233C13.9273 68.1916 19.1659 69.9733 24.5597 69.9989H62.5974C67.8904 70.0487 73.0595 68.3969 77.3429 65.2868C81.6262 62.1767 84.7971 57.7729 86.3884 52.7244C87.9591 47.6812 87.858 42.2654 86.1002 37.2843C84.3424 32.3032 81.022 28.0234 76.6339 25.083C74.883 18.683 71.2999 12.9343 66.3253 8.54361ZM20.6568 53.9321C21.8819 54.4863 23.2121 54.8655 24.5655 54.8655L62.5915 54.8772C67.8421 54.8772 72.1009 50.6475 72.1009 45.432C72.1009 40.2164 67.8421 35.9867 62.5915 35.9867V34.1023C62.6442 31.2509 62.0483 28.4248 60.8486 25.8375C59.6489 23.2502 57.877 20.9694 55.6666 19.1673H55.6549C47.8432 12.8783 36.3736 13.8467 29.6061 21.2325L29.5244 21.3201C35.3351 22.4869 40.5915 25.7014 44.2553 30.4678L33.2349 41.424C32.3851 39.5533 30.9523 38.0082 29.1509 37.0199C27.3496 36.0317 25.2766 35.6534 23.2423 35.9417C21.208 36.2301 19.3218 37.1696 17.8661 38.6196C16.4104 40.0695 15.4634 41.952 15.167 43.9851C14.8788 46.0142 15.2593 48.0819 16.2508 49.8756C17.2424 51.6692 18.7911 53.0911 20.6626 53.9263L20.6568 53.9321Z" fill="black"/>
</g>
<defs>
<clipPath id="clip0_953_194">
<rect width="88" height="70" fill="white"/>
</clipPath>
</defs>
</svg>
