<svg width="173" height="70" viewBox="0 0 173 70" fill="none" xmlns="http://www.w3.org/2000/svg">
<g clip-path="url(#clip0_952_163)">
<path fill-rule="evenodd" clip-rule="evenodd" d="M97.5585 21.7768C95.529 22.3449 93.471 22.9205 91.0888 23.5677C89.9252 23.8973 89.6602 23.9721 88.5774 22.6556C87.2786 21.1048 86.326 20.1016 84.5071 19.1889C79.0513 16.3608 73.7684 17.182 68.8322 20.5577C62.9435 24.5714 59.9125 30.5011 59.9991 37.8905C60.0853 45.1889 64.8486 51.2101 71.6904 52.2133C77.5791 53.0344 82.5153 50.845 86.4122 46.1926C87.1914 45.1895 87.8849 44.0937 88.7508 42.817H72.0366C70.2177 42.817 69.7848 41.6312 70.3911 40.0799C71.517 37.2519 73.5955 32.5085 74.8076 30.1365C75.0677 29.5889 75.674 28.6767 76.9728 28.6767H104.841C106.093 24.4982 108.124 20.5501 110.834 16.8142C117.156 8.05602 124.777 3.49463 135.082 1.5793C143.916 -0.0630375 152.229 0.849133 159.764 6.23168C166.605 11.1581 170.849 17.8174 171.975 26.5756C173.447 38.891 170.069 48.9264 162.016 57.5016C156.3 63.6137 149.285 67.4455 141.231 69.1788C139.695 69.4782 138.159 69.6204 136.647 69.7604C135.858 69.8336 135.075 69.9058 134.303 70C126.422 69.8175 119.235 67.4455 113.172 61.972C108.909 58.0896 105.973 53.3187 104.513 47.765C103.5 49.9199 102.289 51.9833 100.875 53.9466C94.6395 62.6133 86.4989 67.9958 76.1936 69.4556C67.7063 70.6413 59.8258 68.908 52.8976 63.4344C46.4891 58.3254 42.8518 51.5746 41.8992 43.182C40.7734 33.2381 43.5446 24.2979 49.2603 16.4524C55.4092 7.96825 63.5498 2.5857 73.5088 0.669823C81.6494 -0.880971 89.4432 0.122738 96.4584 5.1402C101.048 8.33279 104.339 12.7122 106.504 18.0032C107.024 18.8243 106.677 19.2804 105.638 19.554C102.603 20.366 100.103 21.0655 97.5585 21.7768ZM154.854 32.1682C154.871 32.4746 154.889 32.7976 154.914 33.1439C154.481 40.9894 150.757 46.828 143.916 50.5682C139.326 53.0312 134.563 53.3053 129.8 51.1159C123.564 48.1963 120.273 40.9894 121.832 33.8735C123.738 25.2984 128.934 19.9158 136.987 17.9999C145.215 15.9931 153.096 21.1015 154.655 30.1333C154.777 30.7795 154.813 31.4251 154.854 32.1682Z" fill="black"/>
<path d="M13.1638 20.7394C12.9905 21.0129 13.0771 21.1954 13.4235 21.1954L39.2149 21.287C39.4747 21.287 39.9077 21.0129 40.0809 20.7394L41.5532 18.3674C41.7263 18.0939 41.6397 17.8203 41.2933 17.8203H15.935C15.5886 17.8203 15.1556 18.0029 14.9824 18.2764L13.1638 20.7394Z" fill="black"/>
<path d="M0.0866016 29.1319C-0.0866016 29.4055 4.01192e-08 29.588 0.346406 29.588L35.7505 29.497C36.0969 29.497 36.4433 29.3145 36.5299 28.9494L37.2228 26.76C37.3094 26.4864 37.1361 26.2129 36.7897 26.2129H2.85785C2.51145 26.2129 2.07844 26.3949 1.90523 26.669L0.0866016 29.1319Z" fill="black"/>
<path d="M21.0437 37.4355C20.8704 37.709 20.957 37.9825 21.3035 37.9825L34.6242 38.0741C34.884 38.0741 35.2304 37.8005 35.2304 37.4355L35.4036 35.246C35.4036 34.881 35.2304 34.6074 34.8839 34.6074H23.1221C22.7756 34.6074 22.4292 34.881 22.2561 35.1545L21.0437 37.4355Z" fill="black"/>
</g>
<defs>
<clipPath id="clip0_952_163">
<rect width="173" height="70" fill="white"/>
</clipPath>
</defs>
</svg>
