<svg width="71" height="70" viewBox="0 0 71 70" fill="none" xmlns="http://www.w3.org/2000/svg">
<g clip-path="url(#clip0_948_34)">
<path d="M66.7918 0.48125C66.5147 0.175 66.121 0 65.7097 0H4.45971C4.04559 0 3.65471 0.175 3.37758 0.48125C3.10046 0.784629 2.96633 1.19287 3.00721 1.60412L8.84059 59.9375C8.89596 60.5062 9.28397 60.9934 9.82934 61.1741L36.0793 69.9241C36.2281 69.9766 36.3856 70 36.5402 70C36.7152 70 36.8873 69.9679 37.0565 69.9066L60.3898 61.1566C60.909 60.9641 61.2736 60.4888 61.329 59.9375L67.1624 1.60412C67.2031 1.19588 67.0688 0.784629 66.7918 0.48125ZM58.5113 58.7446L36.511 66.9959L11.6463 58.7066L6.06684 2.91662H64.094L58.5113 58.7446Z" fill="black"/>
<path d="M55.1899 15.142C54.9128 14.7892 54.4899 14.582 54.0408 14.582H39.4574C38.6524 14.582 37.999 15.2354 37.999 16.0404V33.5404C37.999 34.3454 38.6524 34.9988 39.4574 34.9988H49.377L46.927 48.4709L38.9967 51.1163C38.2325 51.37 37.8213 52.1954 38.075 52.9597C38.2792 53.5722 38.8479 53.9572 39.4575 53.9572C39.6092 53.9572 39.7638 53.9338 39.9213 53.8843L48.6713 50.9677C49.1759 50.7986 49.5492 50.3698 49.6425 49.8448L52.5592 33.8032C52.6379 33.3773 52.5213 32.9398 52.2442 32.6073C51.967 32.2748 51.5558 32.0823 51.1242 32.0823H40.9158V17.4987H52.1712L51.1678 21.5208C50.9724 22.3024 51.4478 23.0929 52.2294 23.2883C53.0023 23.4808 53.8015 23.0083 53.9969 22.2267L55.4553 16.3933C55.5631 15.9558 55.4669 15.4949 55.1899 15.142Z" fill="black"/>
<path d="M33.6205 14.582H16.1205C15.3155 14.582 14.6621 15.2354 14.6621 16.0404C14.6621 16.8454 15.3155 17.4987 16.1205 17.4987H32.1621V50.5649L24.6692 48.424L23.3859 42.0044C23.2284 41.2169 22.473 40.7006 21.6709 40.861C20.8834 41.0185 20.37 41.7856 20.5275 42.576L21.9859 49.8676C22.0937 50.4043 22.4905 50.833 23.0155 50.9848L33.2239 53.9014C33.3551 53.9393 33.4892 53.9568 33.6235 53.9568C33.9356 53.9568 34.2447 53.8546 34.4985 53.6621C34.8631 53.388 35.0789 52.9562 35.0789 52.4984V16.0403C35.0787 15.2353 34.4255 14.582 33.6205 14.582Z" fill="black"/>
</g>
<defs>
<clipPath id="clip0_948_34">
<rect width="70.6162" height="70" fill="white"/>
</clipPath>
</defs>
</svg>
