<svg width="70" height="70" viewBox="0 0 70 70" fill="none" xmlns="http://www.w3.org/2000/svg">
<g clip-path="url(#clip0_950_80)">
<path d="M35 70C54.33 70 70 54.33 70 35C70 15.67 54.33 0 35 0C15.67 0 0 15.67 0 35C0 54.33 15.67 70 35 70Z" fill="black"/>
<path d="M44.356 30.7234C42.1453 20.9665 36.9206 17.7584 36.358 16.5327C35.7427 15.668 35.1193 14.1299 35.1193 14.1299C35.1091 14.1039 35.0927 14.0581 35.0735 14.0137C35.0099 14.8784 34.9771 15.212 34.1595 16.0843C32.8935 17.0741 26.398 22.5244 25.8696 33.6096C25.3767 43.9482 33.3379 50.1088 34.4145 50.8942L34.5369 50.9811V50.9735C34.5437 51.0255 34.8787 53.4345 35.1138 55.987H35.9574C36.1553 54.1827 36.452 52.3906 36.8461 50.6187L36.9144 50.5743C37.396 50.229 37.8552 49.8534 38.2891 49.4498L38.3384 49.4054C40.627 47.291 44.7416 42.4006 44.7012 34.6035C44.6927 33.3029 44.5773 32.0051 44.356 30.7234ZM35.0243 45.057C35.0243 45.057 35.0243 30.5566 35.5028 30.5594C35.876 30.5594 36.3593 49.2632 36.3593 49.2632C35.6949 49.1832 35.0243 46.185 35.0243 45.057Z" fill="white"/>
</g>
<defs>
<clipPath id="clip0_950_80">
<rect width="70" height="70" fill="white"/>
</clipPath>
</defs>
</svg>
