<svg width="176" height="70" viewBox="0 0 176 70" fill="none" xmlns="http://www.w3.org/2000/svg">
<g clip-path="url(#clip0_948_65)">
<path d="M43.7117 3.3268C43.9553 3.21392 44.2048 3.10699 44.4543 3.01194C44.2107 3.10699 43.9612 3.21986 43.7117 3.3268ZM7.5744 69.9696H8.32293C10.5329 69.9696 11.1566 69.9696 13.6993 69.9696H15.7013C15.8557 69.9696 16.0102 69.9696 16.1647 69.9696C16.3369 69.9696 16.5211 69.9696 16.7053 69.9696C16.7053 69.9696 16.735 69.9696 16.7409 69.9696C16.8181 69.9696 16.8954 69.9696 16.9667 69.9696C16.9964 69.9696 16.9964 69.9696 17.0201 69.9696C17.0498 69.9696 17.0855 70.0053 17.1211 69.9993C31.2481 69.2746 37.7948 61.9675 41.0859 51.4406C43.6464 43.2721 45.7434 36.3987 47.585 30.6243V30.6303C47.6088 30.559 47.6266 30.4936 47.6504 30.4224C52.0881 24.1965 56.6743 18.8202 60.8091 14.4597H60.9041C67.231 33.8086 69.6726 68.33 88.1779 68.33C88.9264 68.33 89.7046 68.3478 90.4591 68.2706C89.7046 68.3478 88.9739 68.4488 88.2254 68.4488H102.923C101.883 68.4488 100.897 68.2943 99.9464 68.0983C99.3464 67.9735 98.7642 67.7894 98.1939 67.5933C98.7642 67.7834 99.3464 67.932 99.9524 68.0508C100.903 68.2468 101.889 68.3359 102.923 68.3359C105.649 68.3359 107.925 68.128 109.909 67.4805C107.925 68.128 105.649 68.4488 102.923 68.4488L117.299 68.4429C117.424 68.4429 117.549 68.4429 117.668 68.4429C117.668 68.4429 117.673 68.4429 117.679 68.4429L117.685 68.4132L123.109 68.3597C122.414 68.3597 121.767 68.2349 121.143 68.027C121.149 68.0151 121.161 68.0092 121.167 67.9973C121.779 68.1815 122.414 68.2171 123.097 68.2171C137.373 68.2171 151.767 42.583 175.583 0H166.233L166.239 0.380206H164.498C155.718 15.9686 149.581 29.2877 144.377 39.9334C149.587 29.2758 155.724 15.9686 164.498 0.380206H151.654C151.411 0.380206 151.167 0.380206 150.924 0.380206C150.692 0.380206 150.46 0.380206 150.234 0.380206H150.205C149.73 0.380206 149.272 0.314861 148.815 0.344564C148.815 0.350505 148.809 0.302979 148.809 0.31486C135.02 1.14656 128.569 8.14471 125.325 18.535C119.646 36.6898 116.206 48.4405 112.897 55.9436C112.897 55.9614 112.885 55.9614 112.885 55.9674V55.9496C111.364 57.4347 109.784 58.7892 108.24 60.0189C107.432 60.6605 106.624 61.2665 105.81 61.8368C106.487 62.6507 107.182 63.4111 107.913 64.1061C109.018 65.1814 110.2 66.0844 111.489 66.7795H111.483C110.194 66.0844 109.012 65.1814 107.901 64.1061C107.17 63.4111 106.481 62.6507 105.798 61.8368C106.612 61.2665 107.414 60.6546 108.222 60.013C109.766 58.7833 111.311 57.4288 112.862 55.9436C106.434 36.6838 104.129 1.66934 85.4986 1.66934C84.1857 1.66934 82.8609 1.79409 81.5421 2.03172C82.8609 1.78815 84.1857 1.6634 85.4986 1.6634L78.1737 1.56241C79.3381 1.56241 80.4371 1.88914 81.4827 1.88914C80.4371 1.88914 79.3322 1.56241 78.1737 1.56241C78.0727 1.56241 77.9777 1.53864 77.8767 1.54458C77.9777 1.54458 78.0787 1.50894 78.1797 1.50894H48.7138C48.5474 1.50894 48.3811 1.48518 48.2088 1.48518C32.1333 1.48518 9.98038 31.5392 0 69.9459C0 69.9459 0.724766 69.9459 1.91885 69.9459C3.29709 69.9459 7.56252 69.9459 7.56252 69.9459L7.5744 69.9696ZM148.161 1.65746C143.367 3.1664 139.838 5.7803 137.218 9.24374C139.838 5.7803 143.361 3.1664 148.161 1.65746ZM125.634 66.2092C125.586 66.2329 125.545 66.2567 125.497 66.2804C125.432 66.3161 125.361 66.3458 125.295 66.3814C125.289 66.3814 125.284 66.3874 125.284 66.3874C125.402 66.328 125.515 66.2626 125.634 66.2092ZM123.68 67.0765C123.709 67.0527 123.739 67.0527 123.775 67.0409C123.745 67.0587 123.709 67.0646 123.68 67.0765ZM121.963 67.6706C122.076 67.6349 122.177 67.6052 122.283 67.5755C122.337 67.5518 122.39 67.5339 122.444 67.522C122.509 67.4983 122.569 67.4805 122.622 67.4567C122.687 67.4329 122.753 67.4211 122.806 67.3973C122.86 67.3735 122.907 67.3617 122.961 67.3379C123.085 67.2904 123.21 67.2547 123.341 67.2072C123.359 67.2072 123.377 67.2012 123.388 67.1894C123.377 67.1953 123.353 67.2012 123.341 67.2072C123.216 67.2547 123.097 67.2904 122.973 67.3379C122.919 67.3617 122.866 67.3735 122.818 67.3914C122.765 67.4151 122.699 67.4329 122.634 67.4508C122.58 67.4745 122.515 67.4864 122.45 67.5161C122.396 67.5399 122.343 67.5458 122.289 67.5696C122.177 67.5993 122.076 67.629 121.969 67.6646C121.963 67.6646 121.951 67.6706 121.945 67.6706C121.951 67.6706 121.957 67.6646 121.963 67.6646V67.6706ZM44.4543 3.05352V3.01194C44.4543 3.01194 44.4899 3.05352 44.4959 3.05352C44.181 3.05352 43.8721 3.27333 43.5632 3.40402C43.6107 3.38026 43.6642 3.34462 43.7117 3.3268C43.4622 3.43373 43.2127 3.55254 42.9632 3.67136C42.8325 3.7367 42.6958 3.79611 42.5652 3.8674L44.4543 3.05352ZM47.3474 2.03172C47.3058 2.05548 47.2761 2.14459 47.2405 2.14459C46.9791 2.20994 46.7177 2.28123 46.4563 2.35252C46.4266 2.35252 46.4028 2.37628 46.3672 2.38222C46.2959 2.40004 46.2246 2.42381 46.1474 2.44757C46.2246 2.42381 46.2959 2.38222 46.3672 2.37034C46.4028 2.37034 46.4326 2.34064 46.4563 2.34064C46.7177 2.26935 46.9791 2.19806 47.2405 2.13271C47.2761 2.13271 47.3058 2.03172 47.3474 2.03172C47.4187 2.00796 47.49 1.90696 47.5672 1.90102C47.49 1.90696 47.4187 2.02578 47.3474 2.03766V2.03172ZM47.692 1.99608C47.6563 2.01984 47.6147 2.0436 47.5791 2.05548C47.6147 2.03172 47.6504 1.99014 47.692 1.97826C47.7692 1.95449 47.8405 1.89509 47.9237 1.89509C47.8405 1.89509 47.7692 1.9842 47.692 1.99608ZM50.5613 1.90102C50.4188 1.87726 50.2821 1.88914 50.1455 1.88914C50.1395 1.88914 50.1336 1.88914 50.1336 1.88914C50.2702 1.88914 50.4069 1.87132 50.5495 1.88914C50.5673 1.88914 50.5792 1.88321 50.597 1.88321C50.5851 1.88915 50.5792 1.90102 50.5613 1.90102ZM50.9297 1.71687C50.5851 1.71687 50.2465 1.78815 49.896 1.81192C49.9435 1.81192 49.991 1.87132 50.0386 1.88321C49.9494 1.87132 49.8603 1.81786 49.7712 1.81192C49.8128 1.80598 49.8544 1.78221 49.896 1.78221C49.8722 1.78221 49.8722 1.77033 49.8485 1.77033C49.8188 1.74657 49.7772 1.73468 49.7772 1.73468V1.76439C49.397 1.78815 49.4207 1.79409 49.2544 1.81192L49.2306 1.78221C49.1831 1.78221 49.1475 1.80597 49.1059 1.80597C49.0405 1.82974 48.9633 1.82974 48.892 1.83568C48.8504 1.83568 48.8088 1.83568 48.7673 1.85944C48.69 1.8832 48.6187 1.89509 48.5474 1.90697C48.5415 1.90697 48.5356 1.91291 48.5296 1.91291C48.5356 1.91291 48.5415 1.91291 48.5474 1.91291C48.6247 1.91291 48.69 1.87726 48.7673 1.85944C48.8088 1.85944 48.8504 1.83568 48.892 1.83568C48.9633 1.83568 49.0346 1.80597 49.1059 1.79409C49.1415 1.79409 49.1772 1.79409 49.2247 1.77033C49.3673 1.75251 49.5098 1.74063 49.6524 1.72875C49.6821 1.72875 49.7059 1.73468 49.7356 1.73468C50.1396 1.69904 50.5316 1.68716 50.9297 1.68716V1.71687ZM51.8861 2.13271C51.6188 2.06143 51.3455 2.00796 51.0722 1.96043C51.0485 1.96043 51.0247 1.94855 51.0009 1.94261C51.0188 1.94855 51.0425 1.95449 51.0663 1.95449C51.3396 2.00796 51.6188 2.06143 51.8861 2.13271C51.8921 2.13271 51.898 2.13865 51.9039 2.13865C51.898 2.13865 51.898 2.13865 51.8921 2.13865L51.8861 2.13271ZM57.7021 6.77834C57.7021 6.77834 57.7021 6.78429 57.6961 6.78429C56.8585 5.3704 55.9377 4.18226 54.9159 3.31492C54.9278 3.32086 54.9456 3.33274 54.9575 3.33868C55.9614 4.21196 56.8644 5.38228 57.6961 6.78429L57.7021 6.77834ZM73.9261 2.06737C74.9955 1.86538 76.0707 1.73469 77.1282 1.68716C76.0648 1.74063 74.9955 1.86538 73.9202 2.07331L73.9261 2.06737ZM77.1579 3.27333C78.3104 2.8456 79.4569 2.50698 80.6035 2.25153C79.451 2.50698 78.3044 2.8456 77.1579 3.27333ZM94.3562 67.4983C95.0513 67.3141 95.7523 67.0943 96.4473 66.8508C95.7463 67.0943 95.0513 67.3082 94.3562 67.4983ZM112.368 66.328C112.327 66.3517 112.285 66.3696 112.244 66.3933C112.285 66.3696 112.333 66.3458 112.374 66.322L112.368 66.328ZM115.968 63.2032L115.974 63.1735C115.974 63.1735 115.974 63.1675 115.98 63.1675C116.913 64.7537 117.947 66.0606 119.111 66.9636C117.947 66.0785 116.901 64.8012 115.968 63.2032ZM118.618 68.3122C118.571 68.3359 118.529 68.3359 118.481 68.3359C118.475 68.3359 118.475 68.3359 118.47 68.3359C118.517 68.3359 118.565 68.3359 118.606 68.3122C118.695 68.3122 118.784 68.3122 118.879 68.2884C118.885 68.2884 118.891 68.2884 118.891 68.2884C118.796 68.3122 118.707 68.3122 118.618 68.3122ZM119.741 68.1874C119.64 68.2052 119.533 68.2112 119.426 68.2349C119.396 68.2349 119.367 68.2587 119.337 68.2587H119.313C119.218 68.2706 119.117 68.2884 119.022 68.2884C119.016 68.2884 119.01 68.2884 119.01 68.2884C119.105 68.2884 119.206 68.2646 119.301 68.2587H119.325C119.355 68.2587 119.384 68.2349 119.414 68.2349C119.521 68.2112 119.628 68.1993 119.729 68.1874C119.741 68.1874 119.747 68.1874 119.753 68.1874C119.747 68.1874 119.747 68.1874 119.741 68.1874Z" fill="black"/>
</g>
<defs>
<clipPath id="clip0_948_65">
<rect width="176" height="70" fill="white"/>
</clipPath>
</defs>
</svg>
