<svg width="115" height="70" viewBox="0 0 115 70" fill="none" xmlns="http://www.w3.org/2000/svg">
<g clip-path="url(#clip0_951_103)">
<path d="M56.5373 69.9997C56.1497 69.9997 55.7879 69.8963 55.452 69.7154L52.0153 67.6741C51.4985 67.3899 51.7569 67.2865 51.9119 67.2348C52.6096 67.0022 52.7388 66.9506 53.4623 66.5371C53.5398 66.4855 53.6432 66.5113 53.7207 66.563L56.3564 68.1392C56.4597 68.1909 56.5889 68.1909 56.6665 68.1392L66.9765 62.1702C67.0799 62.1185 67.1316 62.0152 67.1316 61.886V49.9738C67.1316 49.8446 67.0799 49.7413 66.9765 49.6896L56.6665 43.7464C56.5631 43.6948 56.4339 43.6948 56.3564 43.7464L46.0463 49.6896C45.9429 49.7413 45.8913 49.8705 45.8913 49.9738V61.886C45.8913 61.9893 45.9429 62.1185 46.0463 62.1702L48.8628 63.7981C50.3874 64.5733 51.3435 63.6689 51.3435 62.7645V51.0074C51.3435 50.8524 51.4727 50.6973 51.6535 50.6973H52.9714C53.1264 50.6973 53.2814 50.8265 53.2814 51.0074V62.7645C53.2814 64.8059 52.1703 65.9945 50.2324 65.9945C49.638 65.9945 49.1729 65.9945 47.8551 65.3485L45.1419 63.7981C44.4701 63.4105 44.0566 62.687 44.0566 61.9118V49.9997C44.0566 49.2245 44.4701 48.501 45.1419 48.1134L55.452 42.1444C56.098 41.7826 56.9765 41.7826 57.6225 42.1444L67.9326 48.1134C68.6044 48.501 69.0179 49.2245 69.0179 49.9997V61.9118C69.0179 62.687 68.6044 63.4105 67.9326 63.7981L57.6225 69.7671C57.2866 69.9221 56.899 69.9997 56.5373 69.9997ZM59.7156 61.8084C55.1936 61.8084 54.2634 59.7413 54.2634 57.9842C54.2634 57.8291 54.3926 57.6741 54.5734 57.6741H55.9171C56.0721 57.6741 56.2013 57.7774 56.2013 57.9325C56.4081 59.302 57.0024 59.9738 59.7414 59.9738C61.9119 59.9738 62.8422 59.4829 62.8422 58.3201C62.8422 57.6482 62.5838 57.1573 59.1988 56.8214C56.3822 56.5371 54.6251 55.917 54.6251 53.6689C54.6251 51.5759 56.3822 50.3356 59.328 50.3356C62.6355 50.3356 64.2634 51.4725 64.4701 53.9532C64.4701 54.0307 64.4442 54.1082 64.3926 54.1857C64.3409 54.2374 64.2634 54.2891 64.1858 54.2891H62.8422C62.713 54.2891 62.5838 54.1857 62.5579 54.0565C62.2479 52.6353 61.4468 52.1702 59.328 52.1702C56.9507 52.1702 56.6665 52.9971 56.6665 53.6172C56.6665 54.3666 57.0024 54.5991 60.2065 55.0126C63.3848 55.426 64.8835 56.0203 64.8835 58.2426C64.8577 60.5165 62.9972 61.8084 59.7156 61.8084Z" fill="black"/>
<path d="M24.5478 23.4098C24.5478 22.9447 24.2894 22.5055 23.876 22.2729L12.9199 15.968C12.739 15.8646 12.5323 15.8129 12.3256 15.7871H12.2222C12.0155 15.7871 11.8088 15.8646 11.6279 15.968L0.671835 22.2729C0.258398 22.5055 0 22.9447 0 23.4098L0.0258398 40.3607C0.0258398 40.5933 0.155039 40.8259 0.361757 40.9292C0.568475 41.0584 0.826873 41.0584 1.00775 40.9292L7.51938 37.2083C7.93282 36.9757 8.19121 36.5365 8.19121 36.0713V28.1385C8.19121 27.6734 8.44961 27.2341 8.86305 27.0016L11.6279 25.3995C11.8346 25.2703 12.0672 25.2186 12.2997 25.2186C12.5323 25.2186 12.7649 25.2703 12.9457 25.3995L15.7106 27.0016C16.124 27.2341 16.3824 27.6734 16.3824 28.1385V36.0713C16.3824 36.5365 16.6408 36.9757 17.0543 37.2083L23.5659 40.9292C23.7726 41.0584 24.031 41.0584 24.2377 40.9292C24.4444 40.8259 24.5736 40.5933 24.5736 40.3607L24.5478 23.4098Z" fill="black"/>
<path d="M77.2091 0.0775194C77.0023 -0.0258398 76.7439 -0.0258398 76.5631 0.0775194C76.3563 0.206718 76.2272 0.413437 76.2272 0.645995V17.4419C76.2272 17.5969 76.1496 17.7519 75.9946 17.8553C75.8396 17.9328 75.6845 17.9328 75.5295 17.8553L72.7905 16.2791C72.377 16.0465 71.8861 16.0465 71.4726 16.2791L60.5166 22.6098C60.1031 22.8424 59.8447 23.2817 59.8447 23.7468V36.3824C59.8447 36.8475 60.1031 37.2868 60.5166 37.5194L71.4726 43.8501C71.8861 44.0827 72.377 44.0827 72.7905 43.8501L83.7465 37.5194C84.16 37.2868 84.4184 36.8475 84.4184 36.3824V4.88372C84.4184 4.39276 84.16 3.95349 83.7465 3.72093L77.2091 0.0775194ZM76.2013 32.2222C76.2013 32.3514 76.1496 32.4548 76.0463 32.5065L72.2995 34.677C72.1961 34.7287 72.0669 34.7287 71.9636 34.677L68.2168 32.5065C68.1135 32.4548 68.0618 32.3256 68.0618 32.2222V27.8811C68.0618 27.7519 68.1135 27.6486 68.2168 27.5969L71.9636 25.4264C72.0669 25.3747 72.1961 25.3747 72.2995 25.4264L76.0463 27.5969C76.1496 27.6486 76.2013 27.7778 76.2013 27.8811V32.2222Z" fill="black"/>
<path d="M113.669 27.7774C114.082 27.5448 114.315 27.1055 114.315 26.6404V23.5655C114.315 23.1004 114.057 22.6611 113.669 22.4285L102.79 16.1236C102.377 15.8911 101.886 15.8911 101.473 16.1236L90.5166 22.4544C90.1031 22.6869 89.8447 23.1262 89.8447 23.5913V36.227C89.8447 36.6921 90.1031 37.1314 90.5166 37.3639L101.395 43.5655C101.809 43.7981 102.3 43.7981 102.687 43.5655L109.276 39.8962C109.483 39.7929 109.612 39.5603 109.612 39.3278C109.612 39.0952 109.483 38.8627 109.276 38.7593L98.2685 32.4285C98.0618 32.2993 97.9326 32.0926 97.9326 31.8601V27.9066C97.9326 27.674 98.0618 27.4415 98.2685 27.3381L101.705 25.3743C101.912 25.2451 102.17 25.2451 102.377 25.3743L105.814 27.3381C106.02 27.4673 106.15 27.674 106.15 27.9066V31.0074C106.15 31.2399 106.279 31.4725 106.486 31.5758C106.692 31.705 106.951 31.705 107.157 31.5758L113.669 27.7774Z" fill="black"/>
<path d="M101.963 27.1833C102.041 27.1316 102.144 27.1316 102.222 27.1833L104.315 28.3978C104.392 28.4494 104.444 28.527 104.444 28.6303V31.0593C104.444 31.1626 104.392 31.2401 104.315 31.2918L102.222 32.5063C102.144 32.558 102.041 32.558 101.963 32.5063L99.8704 31.2918C99.7929 31.2401 99.7412 31.1626 99.7412 31.0593V28.6303C99.7412 28.527 99.7929 28.4494 99.8704 28.3978L101.963 27.1833Z" fill="black"/>
<path d="M42.8687 16.1764C42.4553 15.9438 41.9644 15.9438 41.5509 16.1764L30.6724 22.4554C30.2589 22.688 30.0264 23.1273 30.0264 23.5924V36.1764C30.0264 36.6415 30.2848 37.0808 30.6724 37.3133L41.5509 43.5924C41.9644 43.8249 42.4553 43.8249 42.8687 43.5924L53.7473 37.3133C54.1607 37.0808 54.3933 36.6415 54.3933 36.1764V23.5924C54.3933 23.1273 54.1349 22.688 53.7473 22.4554L42.8687 16.1764Z" fill="black"/>
<mask id="mask0_951_103" style="mask-type:luminance" maskUnits="userSpaceOnUse" x="30" y="16" width="25" height="28">
<path d="M42.8697 16.1744C42.4563 15.9419 41.9653 15.9419 41.5519 16.1744L30.6733 22.4535C30.2599 22.686 30.0273 23.1253 30.0273 23.5904V36.1744C30.0273 36.6395 30.2857 37.0788 30.6733 37.3114L41.5519 43.5904C41.9653 43.823 42.4563 43.823 42.8697 43.5904L53.7483 37.3114C54.1617 37.0788 54.3943 36.6395 54.3943 36.1744V23.5904C54.3943 23.1253 54.1359 22.686 53.7483 22.4535L42.8697 16.1744Z" fill="white"/>
</mask>
<g mask="url(#mask0_951_103)">
<path d="M53.773 22.4551L42.8428 16.1761C42.7394 16.1244 42.6102 16.0727 42.5069 16.0469L30.2588 37.0288C30.3621 37.158 30.4913 37.2613 30.6205 37.3389L41.5508 43.6179C41.8609 43.7988 42.2226 43.8505 42.5585 43.7471L54.0572 22.7135C53.9797 22.6102 53.8764 22.5327 53.773 22.4551Z" fill="black"/>
</g>
<mask id="mask1_951_103" style="mask-type:luminance" maskUnits="userSpaceOnUse" x="30" y="16" width="25" height="28">
<path d="M42.8697 16.1744C42.4563 15.9419 41.9653 15.9419 41.5519 16.1744L30.6733 22.4535C30.2599 22.686 30.0273 23.1253 30.0273 23.5904V36.1744C30.0273 36.6395 30.2857 37.0788 30.6733 37.3114L41.5519 43.5904C41.9653 43.823 42.4563 43.823 42.8697 43.5904L53.7483 37.3114C54.1617 37.0788 54.3943 36.6395 54.3943 36.1744V23.5904C54.3943 23.1253 54.1359 22.686 53.7483 22.4535L42.8697 16.1744Z" fill="white"/>
</mask>
<g mask="url(#mask1_951_103)">
<path fill-rule="evenodd" clip-rule="evenodd" d="M53.7985 37.3135C54.1086 37.1327 54.3411 36.8226 54.4445 36.4867L42.4548 16.0216C42.1447 15.9699 41.8088 15.9957 41.5246 16.1766L30.6719 22.4298L42.3773 43.7735C42.5323 43.7477 42.7132 43.696 42.8683 43.6185L53.7985 37.3135Z" fill="black"/>
<path fill-rule="evenodd" clip-rule="evenodd" d="M53.7987 37.3137L42.8943 43.5927C42.7392 43.6702 42.5842 43.7219 42.4033 43.7478L42.61 44.1354L54.7031 37.1328V36.9777L54.393 36.4609C54.3413 36.8227 54.1087 37.1328 53.7987 37.3137Z" fill="black"/>
<path fill-rule="evenodd" clip-rule="evenodd" d="M53.7987 37.3137L42.8943 43.5927C42.7392 43.6702 42.5842 43.7219 42.4033 43.7478L42.61 44.1354L54.7031 37.1328V36.9777L54.393 36.4609C54.3413 36.8227 54.1087 37.1328 53.7987 37.3137Z" fill="black"/>
</g>
</g>
<defs>
<clipPath id="clip0_951_103">
<rect width="115" height="70" fill="white"/>
</clipPath>
</defs>
</svg>
