<svg width="70" height="70" viewBox="0 0 70 70" fill="none" xmlns="http://www.w3.org/2000/svg">
<g clip-path="url(#clip0_948_61)">
<path d="M42.4553 59.3927L41.7886 60.3545L41.5563 61.5497L41.7886 62.7449L42.4553 63.7066L43.4123 64.3766L44.6016 64.61L45.7909 64.3766L46.748 63.7066L47.4146 62.7449L47.6469 61.5497L47.4146 60.3545L46.748 59.3927L45.7909 58.7228L44.6016 58.4893L43.4123 58.7228L42.4553 59.3927ZM61.2358 17.8251L62.0488 18.0001L62.9779 18.3503L63.993 18.8755L65.0383 19.6622L66.0836 20.6823L67.0987 22.0526L68.0279 23.773L68.8409 25.9019L69.4495 28.4697L69.856 31.5043L70 35.0922L69.8258 38.6801L69.3612 41.7147L68.6643 44.2242L67.7352 46.2947L66.6899 47.9568L65.5285 49.2687L64.3089 50.2304L63.0894 50.9307L61.928 51.3976L60.8827 51.6591L59.9535 51.8038L59.2567 51.8621L58.7921 51.8341H34.9315V54.2268H51.8839L51.9117 62.278L51.9698 63.3284L51.8258 64.3205L51.5075 65.2239L51.0151 66.069L50.2904 66.7973L49.3914 67.4976L48.288 68.0812L47.0105 68.576L45.5308 69.0126L43.8467 69.3907L41.9884 69.6522L39.928 69.8553L37.6934 69.972L35.2544 70L31.5679 69.8833L28.4622 69.4748L25.849 68.8912L23.7305 68.1629L22.0186 67.2875L20.7131 66.3257L19.7259 65.3336L19.0012 64.3415L18.5366 63.3798L18.2462 62.5044L18.1301 61.7761L18.072 61.1925L18.0999 60.8144V45.2373L18.2462 43.3698L18.6225 41.7941L19.2311 40.4519L19.9861 39.343L20.8571 38.4093L21.8142 37.709L22.8293 37.1254L23.8444 36.7169L24.8014 36.4251L25.6725 36.25L26.4274 36.1333L27.036 36.075L27.4123 36.047H44.3647L46.367 35.9022L48.079 35.4937L49.5308 34.8821L50.7201 34.0651L51.6771 33.1314L52.4599 32.1112L53.0406 31.0608L53.475 30.0103L53.7654 28.9902L53.9675 28.0565L54.0836 27.2395L54.1417 26.6279V17.7013H60.2091L60.6156 17.7293L61.2358 17.8251ZM23.2381 6.30273L22.5714 7.26448L22.3391 8.45967L22.5714 9.65485L23.2381 10.6469L24.1951 11.2889L25.3844 11.5503L26.5737 11.2866L27.5308 10.6446L28.1974 9.65252L28.4297 8.45733L28.1974 7.26215L27.5308 6.3004L26.5737 5.65845L25.3844 5.39701L24.1951 5.65845L23.2381 6.30273ZM41.5261 0.525228L44.1394 1.10881L46.2578 1.86748L47.9698 2.74286L49.2753 3.67659L50.2625 4.66869L50.9872 5.66079L51.4518 6.62254L51.7422 7.49792L51.8583 8.25658L51.9164 8.84016L51.8885 9.21833V24.7954L51.7445 26.6325L51.3682 28.2362L50.7596 29.5785L50.0046 30.6873L49.1336 31.5907L48.1765 32.319L47.1614 32.8722L46.1463 33.2808L45.1893 33.5725L44.3182 33.7756L43.5633 33.8924L42.9524 33.9507H25.6237L23.6214 34.0954L21.9094 34.504L20.4576 35.1459L19.2683 35.9326L18.3113 36.8663L17.5285 37.8864L16.9477 38.9369L16.5134 40.0153L16.223 41.0354L16.0209 41.9692L15.9048 42.7559L15.8467 43.3675V52.294H9.37282L8.76423 52.2076L7.95122 52.0045L7.02207 51.6544L6.00697 51.1292L4.96167 50.3705L3.91638 49.32L2.90128 47.9778L1.97213 46.2574L1.15912 44.1285L0.550523 41.5607L0.144019 38.498L0 34.9101L0.174216 31.3526L0.638792 28.3179L1.33566 25.7805L2.26481 23.7099L3.3101 22.0479L4.47154 20.764L5.69106 19.8022L6.91057 19.1019L8.07201 18.6351L9.11731 18.3433L10.0465 18.1986L10.7433 18.1705H11.2079L11.3821 18.1986H35.0685V15.7778H18.1161L18.0883 7.75703L18.0302 6.67856L18.1742 5.68646L18.4924 4.78307L18.9849 3.96605L19.7096 3.20739L20.6086 2.53743L21.712 1.95385L22.9895 1.42862L24.4692 0.992097L26.1533 0.641945L28.0116 0.350152L30.072 0.175076L32.3066 0.0583588L34.7456 0L38.4321 0.147064L41.5261 0.525228Z" fill="black"/>
</g>
<defs>
<clipPath id="clip0_948_61">
<rect width="70" height="70" fill="white"/>
</clipPath>
</defs>
</svg>
