<svg width="71" height="70" viewBox="0 0 71 70" fill="none" xmlns="http://www.w3.org/2000/svg">
<path d="M31.3429 69.8765C28.1204 69.2355 25.3382 67.0317 23.9856 64.0486C23.3906 62.7362 23.1374 61.4964 23.1418 59.9154C23.1538 55.3716 26.011 51.5774 30.4497 50.2096C31.2674 49.9577 31.807 49.8911 33.0607 49.8878C33.9299 49.8858 34.8884 49.9315 35.1908 49.99L35.7405 50.0965L36.417 48.7829C37.7985 46.1005 39.9515 43.9931 42.7348 42.5991C45.0309 41.4491 46.4738 41.1147 49.1391 41.1147C51.0059 41.1147 51.439 41.1597 52.6434 41.4788C57.8445 42.8569 61.8984 46.9388 63.1743 52.0823C63.4938 53.3702 63.6532 56.258 63.4673 57.3908L63.3404 58.1643L64.0688 58.3274C65.8944 58.7359 67.4699 60.0113 68.2754 61.7327C69.072 63.435 68.9262 65.6376 67.9103 67.2468C67.3918 68.0682 66.3753 68.9811 65.5271 69.3871C65.0923 69.5953 64.6292 69.8219 64.4979 69.8907C64.2032 70.0454 32.1228 70.0317 31.3429 69.8765ZM64.6939 67.9777C65.5965 67.5289 66.4892 66.5256 66.8601 65.5428C67.6298 63.5039 66.603 61.1348 64.5546 60.2234C64.0373 59.9933 63.6509 59.94 62.5722 59.9502C61.8352 59.9572 61.2323 59.9107 61.2323 59.8469C61.2323 59.7831 61.3692 59.185 61.5365 58.5177C61.9645 56.8105 61.9602 54.0884 61.5265 52.4259C60.5709 48.76 58.0933 45.7023 54.7044 44.0067C53.2152 43.2616 51.7988 42.9208 49.8634 42.8418C46.9995 42.7249 45.0001 43.1762 42.7968 44.4368C40.2275 45.9068 38.0128 48.5707 37.1543 51.2234C36.9892 51.7336 36.789 52.1502 36.7094 52.1493C36.6294 52.1483 36.1627 52.0152 35.6714 51.8535C34.3046 51.4036 31.9736 51.4309 30.6095 51.9129C29.2364 52.398 28.2479 53.0198 27.2187 54.0458C25.676 55.5837 24.8191 57.6797 24.8191 59.9154C24.8191 63.2355 26.6479 66.146 29.6232 67.5611C31.3332 68.3745 30.7415 68.35 48.1081 68.323L64.0491 68.2982L64.6939 67.9777ZM18.7001 61.552C12.933 60.7704 8.494 59.3223 5.2105 57.1514C3.8557 56.2556 2.9203 55.2537 2.3929 54.1335L2 53.2989L2.036 30.703L2.072 8.10718L2.4001 7.49155C3.2295 5.93536 4.8466 4.60746 7.4212 3.36865C10.6766 1.80219 14.4307 0.822882 19.662 0.175382C21.8163 -0.0912584 29.132 -0.0441115 31.3429 0.250669C39.4844 1.33613 45.8023 3.9962 47.8163 7.18646C48.6099 8.44363 48.5894 7.98794 48.5894 24.4144V39.4957L48.1428 39.5649C47.8972 39.6029 47.3407 39.672 46.9062 39.7184C42.4228 40.1972 37.7733 43.2966 35.39 47.3954L34.902 48.2345L32.9851 48.3251C30.7201 48.432 29.566 48.7221 27.844 49.6175C24.8873 51.1547 22.7741 53.8198 21.9124 57.0982C21.6744 58.0038 21.604 58.6602 21.5992 60.0185L21.5892 61.7706L20.8298 61.7544C20.4122 61.7454 19.4521 61.6544 18.6963 61.552H18.7001ZM30.424 40.7249C29.3422 39.8068 28.4066 39.0112 28.3449 38.9568C28.2829 38.9024 28.508 38.6966 28.8443 38.4994C29.5901 38.0623 30.5504 37.0163 30.9582 36.1967C31.9547 34.1938 31.9325 31.7027 30.9002 29.7203C29.7652 27.5401 27.3899 26.3964 24.6988 26.7343C23.2253 26.9194 22.3022 27.3327 21.3287 28.2434C19.7921 29.6807 19.2599 31.0911 19.3407 33.5117C19.3867 34.8879 19.4357 35.1354 19.8293 35.9707C20.6764 37.7686 22.4475 39.1123 24.2518 39.326C24.9306 39.4064 24.9895 39.4509 26.3383 40.9014L27.7264 42.3941H30.0585H32.3907L30.424 40.7249ZM24.539 36.0383C23.5939 35.5588 23.235 34.7372 23.235 33.053C23.235 31.9571 23.288 31.6371 23.5574 31.0891C23.9883 30.2141 24.8474 29.6881 25.6902 29.7831C26.5192 29.8765 26.9501 30.2118 27.3886 31.1046C27.7213 31.7822 27.7694 32.039 27.7655 33.118C27.7655 34.4491 27.5252 35.1316 26.8557 35.7542C26.1563 36.4048 25.4357 36.4932 24.539 36.0383ZM15.0297 39.228C17.5147 38.6548 18.8645 36.5737 18.1489 34.4191C17.7886 33.3342 17.027 32.6566 15.167 31.7658C14.308 31.3545 13.5398 30.9338 13.4599 30.8312C13.1471 30.4293 13.1478 30.1633 13.4599 29.7976C13.9439 29.235 15.0457 29.208 16.5375 29.7224L17.6755 30.1149L17.6365 28.5961L17.5975 27.0773L16.8417 26.8977C15.6987 26.626 13.2281 26.6393 12.2561 26.9224C10.3071 27.49 9.2801 28.7639 9.2865 30.6056C9.2965 32.501 10.147 33.3995 13.1541 34.6754C14.4263 35.2153 14.572 36.2241 13.4348 36.6191C12.9085 36.8018 12.7587 36.7983 11.9259 36.5833C11.4173 36.4519 10.6457 36.1601 10.2111 35.9348L9.4209 35.525V37.1692V38.8134L10.2111 39.0334C10.6457 39.1543 11.0631 39.2749 11.1387 39.3012C11.4528 39.4106 14.4822 39.3536 15.0266 39.228H15.0297ZM41.5809 37.7904V36.3474H39.3821H37.1834V31.6064V26.8653H35.3969H33.6104V33.0493V39.2333H37.5957H41.5809V37.7904ZM30.9994 13.0489C34.5829 12.6336 37.5235 11.8824 39.3821 10.9076C40.6032 10.2671 40.896 10.0364 41.3654 9.34473C42.8169 7.20579 39.5667 5.05514 33.2668 3.98596C27.3481 2.98146 19.5482 3.20867 14.556 4.53103C4.2555 7.25954 8.3161 12.2716 21.6277 13.2597C23.8124 13.4219 28.7367 13.3111 30.9994 13.0489Z" fill="black"/>
</svg>
