<svg width="70" height="70" viewBox="0 0 70 70" fill="none" xmlns="http://www.w3.org/2000/svg">
<g clip-path="url(#clip0_948_48)">
<path d="M0 35V70H70V0H0V35ZM56.4069 32.2088C58.1853 32.6528 59.5394 33.4513 60.7928 34.7375C61.4316 35.42 62.3875 36.6734 62.4684 36.9819C62.4903 37.0737 59.4497 39.1125 57.6034 40.2522C57.5356 40.2981 57.2622 40.0137 56.9647 39.5675C56.0656 38.2572 55.1184 37.6884 53.6725 37.5856C51.5528 37.4478 50.1856 38.5547 50.1966 40.4119C50.1856 40.8669 50.2884 41.3241 50.4919 41.7222C50.96 42.6912 51.8372 43.2709 54.5475 44.4456C59.5613 46.5981 61.7028 48.0222 63.035 50.0391C64.5269 52.2944 64.8572 55.895 63.8553 58.5834C62.7397 61.4884 59.9813 63.4703 56.1072 64.12C54.9106 64.3366 52.0625 64.3016 50.7741 64.0631C47.9609 63.5622 45.2944 62.1709 43.6537 60.3487C43.0041 59.6422 41.7506 57.785 41.8316 57.6603C41.8666 57.6144 42.1509 57.4328 42.4703 57.2491C42.7897 57.0653 43.9622 56.3828 45.0691 55.7441L47.0859 54.5716L47.5081 55.1972C48.1009 56.0962 49.3872 57.3278 50.1637 57.7369C52.3972 58.9225 55.4619 58.7519 56.9778 57.3956C57.5925 56.8838 57.9359 56.0963 57.89 55.3C57.89 54.4906 57.7872 54.1275 57.365 53.5216C56.8181 52.7472 55.7134 52.0866 52.5569 50.7194C48.9453 49.1575 47.3834 48.2016 45.9725 46.6637C45.0844 45.6488 44.4237 44.4544 44.0475 43.1659C43.785 42.175 43.7172 39.69 43.9228 38.6991C44.6644 35.2012 47.3069 32.7753 51.1 32.0578C52.3316 31.8194 55.2016 31.9091 56.4091 32.2066L56.4069 32.2088ZM39.9787 35.1378L40.0006 37.9969H30.8853V63.8947H24.4366V37.9969H15.3344V35.1947C15.3344 33.6328 15.3694 32.3356 15.4131 32.3006C15.4481 32.2547 20.9847 32.2328 27.7069 32.2437L39.9438 32.2787L39.9787 35.1378Z" fill="black"/>
</g>
<defs>
<clipPath id="clip0_948_48">
<rect width="70" height="70" fill="white"/>
</clipPath>
</defs>
</svg>
