<?xml version="1.0" standalone="no"?>
<!DOCTYPE svg PUBLIC "-//W3C//DTD SVG 20010904//EN"
 "http://www.w3.org/TR/2001/REC-SVG-20010904/DTD/svg10.dtd">
<svg version="1.0" xmlns="http://www.w3.org/2000/svg"
 width="153.000000pt" height="153.000000pt" viewBox="0 0 153.000000 153.000000"
 preserveAspectRatio="xMidYMid meet">
<metadata>
Created by potrace 1.14, written by Peter Selinger 2001-2017
</metadata>
<g transform="translate(0.000000,153.000000) scale(0.100000,-0.100000)"
fill="#000000" stroke="none">
<path d="M740 1424 c-140 -37 -255 -127 -313 -248 -31 -63 -34 -72 -47 -159
-8 -55 -8 -72 5 -159 13 -84 68 -191 129 -249 32 -30 32 -33 0 -105 -14 -32
-50 -118 -80 -191 -93 -230 -113 -259 -186 -267 -18 -2 -33 -7 -33 -12 0 -10
285 -17 324 -8 32 7 19 17 -26 21 -45 3 -55 17 -49 63 5 31 59 191 86 255 5
11 25 64 46 117 l38 97 41 -25 c23 -13 48 -24 56 -24 10 0 15 -10 15 -27 -1
-32 20 -42 29 -14 7 25 22 19 74 -28 38 -34 37 -52 -2 -26 -23 15 -25 14 -31
-2 -4 -11 -1 -22 8 -29 21 -15 20 -25 -1 -17 -12 5 -14 3 -8 -8 5 -8 5 -11 -1
-6 -5 5 -9 14 -9 20 0 7 -9 11 -19 9 -12 -2 -16 1 -10 9 5 9 2 10 -9 6 -10 -4
-17 -2 -17 4 0 6 -7 9 -15 5 -8 -3 -15 -1 -15 5 0 6 -7 9 -15 5 -8 -3 -15 -1
-15 4 0 12 -69 64 -76 57 -3 -3 8 -13 23 -22 16 -9 38 -30 48 -45 21 -31 69
-63 79 -53 3 3 6 2 6 -3 0 -5 12 -10 28 -11 33 -2 90 39 98 71 3 14 24 33 56
50 27 15 52 26 53 24 2 -2 31 -77 64 -168 34 -91 66 -174 71 -185 31 -69 18
-105 -40 -108 -16 -1 -31 -6 -33 -12 -1 -6 74 -11 206 -12 160 -2 207 1 204
10 -2 7 -15 12 -30 12 -14 0 -29 3 -33 8 -4 4 -15 7 -24 7 -20 0 -60 43 -82
90 -9 19 -78 190 -153 380 -75 190 -143 359 -150 375 -7 17 -39 95 -70 175
-60 151 -70 170 -89 170 -17 0 -79 -135 -207 -442 -40 -98 -76 -178 -79 -178
-13 0 -70 102 -90 161 -77 226 74 477 305 507 71 9 125 1 194 -29 57 -24 61
-33 30 -58 -22 -17 -21 -18 32 -40 29 -13 89 -41 133 -62 43 -22 81 -39 84
-39 5 0 -12 203 -23 255 -2 11 -4 25 -4 32 -1 14 -32 6 -43 -11 -4 -6 -38 5
-90 31 -46 23 -96 45 -113 49 -59 13 -180 12 -235 -2z m135 -559 c31 -83 57
-154 59 -160 4 -14 16 -45 27 -73 13 -34 12 -37 -27 -55 -19 -10 -33 -21 -30
-26 3 -5 -26 -8 -65 -7 -39 1 -73 -2 -75 -6 -3 -5 -13 -4 -22 1 -9 5 -20 9
-25 10 -14 1 -66 31 -72 41 -3 5 19 74 50 152 72 179 72 181 75 193 4 18 41
87 45 83 2 -2 29 -71 60 -153z m-24 -452 c13 -15 12 -15 -8 -4 -24 12 -29 21
-14 21 5 0 15 -7 22 -17z"/>
<path d="M1267 1313 c-17 -16 -6 -79 18 -101 46 -44 45 -129 -3 -175 -38 -36
-72 -47 -117 -37 -50 11 -84 46 -98 99 -14 53 -27 59 -61 28 -34 -32 -33 -56
4 -68 34 -12 34 -12 18 -39 -17 -26 1 -44 45 -45 27 0 32 -3 29 -22 -4 -28 36
-43 53 -19 16 21 30 20 46 -3 18 -25 59 -12 59 19 0 19 4 21 30 15 38 -8 64 9
50 34 -11 22 2 43 26 39 25 -4 31 37 9 62 -15 17 -15 19 5 33 26 18 23 50 -5
56 -27 5 -35 21 -22 42 17 27 -8 52 -45 44 -28 -7 -33 -1 -29 33 2 13 -2 15
-12 5z"/>
</g>
</svg>
