<svg width="59" height="52" viewBox="0 0 59 52" fill="none" xmlns="http://www.w3.org/2000/svg">
<g clip-path="url(#clip0_506_247)">
<path d="M4.1148 42.8389C2.08605 42.8389 0 44.4645 0 47.3101C0 49.9114 1.83418 51.7488 4.1148 51.7488C5.99738 51.7488 6.8364 50.4852 6.8364 50.4852V51.036C6.8364 51.2964 7.0825 51.5868 7.38722 51.5868H8.74799V43.0333H6.8364V44.1187C6.8364 44.1187 5.99029 42.8389 4.1148 42.8389ZM4.4553 44.5879C6.12538 44.5879 7.00143 46.0566 7.00143 47.3094C7.00143 48.7048 5.96129 50.03 4.45889 50.03C3.20297 50.03 1.94487 49.0129 1.94487 47.291C1.94479 45.7367 3.0275 44.5879 4.4553 44.5879Z" fill="black"/>
<path d="M11.4048 51.5875C11.1111 51.5875 10.854 51.3769 10.854 51.0367V43.034H12.7656V44.0924C13.1988 43.4414 14.045 42.8369 15.344 42.8369C17.4671 42.8369 18.5976 44.5294 18.5976 46.1119V51.5875H17.2691C16.9208 51.5875 16.686 51.2958 16.686 51.0043V46.5331C16.686 45.6559 16.1485 44.5905 14.9055 44.5905C13.5642 44.5905 12.7656 45.8581 12.7656 47.0515V51.5875L11.4048 51.5875Z" fill="black"/>
<path d="M24.1705 42.8392C22.1418 42.8392 20.0557 44.4649 20.0557 47.3104C20.0557 49.9117 21.8898 51.7492 24.1705 51.7492C26.053 51.7492 26.8921 50.4855 26.8921 50.4855V51.0364C26.8921 51.2967 27.1382 51.5872 27.4429 51.5872H28.8036V38.7568H26.8921V44.119C26.8921 44.119 26.046 42.8392 24.1705 42.8392ZM24.511 44.5883C26.181 44.5883 27.0571 46.057 27.0571 47.3098C27.0571 48.7052 26.017 50.0304 24.5145 50.0304C23.2586 50.0304 22.0005 49.0132 22.0005 47.2914C22.0005 45.7371 23.0832 44.5883 24.511 44.5883Z" fill="black"/>
<path d="M31.46 51.5872C31.1663 51.5872 30.9092 51.3766 30.9092 51.0364V43.0337H32.8208V44.4593C33.1498 43.6606 33.8598 42.9365 35.1212 42.9365C35.4728 42.9365 35.8016 43.0013 35.8016 43.0013V44.9777C35.8016 44.9777 35.3911 44.8157 34.8943 44.8157C33.5531 44.8157 32.8208 46.0833 32.8208 47.2767V51.5873L31.46 51.5872Z" fill="black"/>
<path d="M47.4009 51.5868C47.1072 51.5868 46.8501 51.3761 46.8501 51.036V43.0332H48.7617V51.5868H47.4009Z" fill="black"/>
<path d="M54.3667 42.8392C52.338 42.8392 50.252 44.4649 50.252 47.3104C50.252 49.9117 52.0861 51.7492 54.3667 51.7492C56.2493 51.7492 57.0884 50.4855 57.0884 50.4855V51.0364C57.0884 51.2967 57.3345 51.5872 57.6392 51.5872H58.9999V38.7568H57.0884V44.119C57.0884 44.119 56.2423 42.8392 54.3667 42.8392ZM54.7073 44.5883C56.3773 44.5883 57.2534 46.057 57.2534 47.3098C57.2534 48.7052 56.2132 50.0304 54.7108 50.0304C53.4549 50.0304 52.1968 49.0132 52.1968 47.2914C52.1968 45.7371 53.2794 44.5883 54.7073 44.5883Z" fill="black"/>
<path d="M47.7907 41.1888C48.489 41.1888 49.055 40.6228 49.055 39.9245C49.055 39.2262 48.489 38.6602 47.7907 38.6602C47.0924 38.6602 46.5264 39.2262 46.5264 39.9245C46.5264 40.6228 47.0924 41.1888 47.7907 41.1888Z" fill="black"/>
<path d="M40.8431 42.8369C38.7185 42.8369 36.3843 44.4228 36.3843 47.2957C36.3843 49.9137 38.3725 51.75 40.8385 51.75C43.8776 51.75 45.3615 49.3069 45.3615 47.3123C45.3615 44.8647 43.4506 42.8369 40.8431 42.8369ZM40.85 44.6221C42.3192 44.6221 43.4152 45.8062 43.4152 47.3011C43.4152 48.8219 42.2518 49.9955 40.8544 49.9955C39.5572 49.9955 38.2962 48.9398 38.2962 47.3267C38.2963 45.6866 39.4956 44.6221 40.85 44.6221Z" fill="black"/>
<path d="M43.8994 10.2118L48.7903 1.73932C49.0663 1.26437 48.8994 0.660974 48.4309 0.385031C47.9623 0.109029 47.3526 0.269509 47.083 0.744459L42.1279 9.32601C38.3474 7.59943 34.0919 6.63667 29.5155 6.63667C24.9391 6.63667 20.6836 7.59943 16.903 9.32601L11.9479 0.744459C11.6719 0.269509 11.0686 0.109029 10.5936 0.385031C10.1187 0.661033 9.95819 1.26437 10.2342 1.73932L15.1251 10.2118C6.69118 14.7818 0.978684 23.3184 0.0351562 33.312H58.9957C58.0523 23.3184 52.3398 14.7817 43.8994 10.2118ZM15.9788 25.0322C14.6117 25.0322 13.5077 23.9218 13.5077 22.561C13.5077 21.1939 14.6181 20.0899 15.9788 20.0899C17.346 20.0899 18.45 21.2002 18.45 22.561C18.4564 23.9217 17.346 25.0322 15.9788 25.0322ZM43.0457 25.0322C41.6786 25.0322 40.5746 23.9218 40.5746 22.561C40.5746 21.1939 41.685 20.0899 43.0457 20.0899C44.4129 20.0899 45.5169 21.2002 45.5169 22.561C45.5233 23.9217 44.4129 25.0322 43.0457 25.0322Z" fill="black"/>
</g>
<defs>
<clipPath id="clip0_506_247">
<rect width="59" height="52" fill="white"/>
</clipPath>
</defs>
</svg>
