<svg width="157" height="40" viewBox="0 0 157 40" fill="none" xmlns="http://www.w3.org/2000/svg">
<g clip-path="url(#clip0_506_105)">
<path d="M40.5981 12.9697V29.1049H42.5434V15.9248L52.4157 29.1049H54.5073V12.9697H52.5621V25.9436L42.7107 12.9697H40.5981Z" fill="#B3B3B3"/>
<path d="M70.5161 15.2753V13.5449C63.7834 11.7831 57.0147 13.2887 57.5855 21.7249C58.0975 29.0056 64.4755 30.3139 70.5161 28.4576V21.7249H68.4082V27.2306C64.4126 28.1745 59.8822 27.0041 59.6304 21.7249C59.2903 14.2443 64.6329 13.7337 70.5161 15.2753Z" fill="#B3B3B3"/>
<path d="M85.0502 12.9697V23.6139C84.822 26.1575 83.2127 27.5268 80.486 27.527C77.7592 27.5268 76.1499 26.1575 75.9217 23.6139V12.9697H73.8228V23.6139C74.2487 28.1403 76.5966 29.1812 79.6344 29.2455L79.6343 29.2458C83.3598 29.4529 86.6569 28.846 87.1492 23.614V12.9697H85.0502Z" fill="#B3B3B3"/>
<path d="M93.0353 27.39V12.9697H90.9766C90.9766 13.6562 90.9766 28.4166 90.9766 29.1049C91.103 29.1049 101.396 29.1049 101.503 29.1049V27.3899H93.0353V27.39Z" fill="#B3B3B3"/>
<path d="M110.347 10.8604L102.402 29.105H104.578L110.347 14.9905L113.345 22.3232H109.201L108.613 23.9692H114.018L116.117 29.105H118.293L110.347 10.8604Z" fill="#B3B3B3"/>
<path d="M127.511 21.475C130.466 20.5234 132.014 19.0661 132.003 16.7841C131.978 14.0611 130.326 12.9159 127.439 12.9696C126.707 12.9696 121.367 12.9696 120.52 12.9696V14.6831V29.1047H122.675V14.6831H127.439C129.268 14.8098 129.739 15.643 129.739 16.8927C129.739 18.4456 128.947 19.3788 127.264 19.9767C126.621 20.193 125.93 20.3698 125.175 20.4969V21.8191L130.3 29.1047H133.09L127.511 21.475Z" fill="#B3B3B3"/>
<path d="M135.38 27.3513V29.1049C138.698 29.0095 140.954 27.8521 140.863 24.3476V12.9697H138.766V24.6026C138.865 26.3029 137.647 27.299 135.38 27.3513Z" fill="#B3B3B3"/>
<path d="M155.752 13.5032V15.4166C150.885 13.8145 146.115 14.3927 146.098 17.3582C146.152 19.4888 147.196 20.1526 150.779 20.0179C154.842 19.8466 156.333 21.655 156.284 24.6458C156.177 29.3094 151.571 29.9895 144.608 28.5178V26.5608C149.009 27.88 154.287 28.1582 154.156 24.6721C154.174 22.5456 153.305 21.6935 149.342 21.8797C145.731 21.8282 143.857 20.3825 144.05 17.2784C144.39 12.7985 148.814 11.9348 155.752 13.5032Z" fill="#B3B3B3"/>
<path d="M0.279297 6.60285L19.1628 0L38.1422 6.60285L35.1437 31.1962L19.2107 40L3.2458 31.1962L0.279297 6.60285Z" fill="black"/>
<path d="M19.1646 2.05078V37.817L33.3415 29.98L36.0312 7.91861L19.1646 2.05078Z" fill="black"/>
<path d="M19.1645 2.05078V37.817L4.98752 29.98L2.29785 7.91861L19.1645 2.05078Z" fill="black"/>
<path d="M19.1682 3.875L7.56348 29.6437H11.8267L14.2746 23.8302C14.6516 23.8302 23.65 23.8302 24.062 23.8302L26.5099 29.6437H30.7732L19.1682 3.875ZM15.7462 20.3351L19.1682 12.2081L22.5902 20.3351C17.178 20.3474 18.6854 20.3481 15.7462 20.3351Z" fill="white"/>
<path d="M19.1685 3.875V12.2082L22.5905 20.3352C20.8752 20.3391 19.8555 20.3418 19.1685 20.3433V23.8303C21.5123 23.8303 23.8565 23.8303 24.0622 23.8303L26.51 29.6438H30.7733L19.1685 3.875Z" fill="white"/>
<path d="M41.0811 12.4248V28.56H43.0262V15.3799L52.8986 28.56H54.9902V12.4248H53.0451V25.3987L43.1936 12.4248H41.0811Z" fill="black"/>
<path d="M70.999 14.7304V13C64.2663 11.2382 57.4976 12.7438 58.0684 21.18C58.5804 28.4607 64.9585 29.769 70.999 27.9127V21.18H68.8911V26.6857C64.8955 27.6295 60.3651 26.4592 60.1133 21.18C59.7731 13.6993 65.1158 13.1888 70.999 14.7304Z" fill="black"/>
<path d="M85.5331 12.4248V23.069C85.305 25.6126 83.6956 26.9818 80.9689 26.9821C78.2421 26.9818 76.6328 25.6126 76.4046 23.069V12.4248H74.3057V23.069C74.7316 27.5954 77.0795 28.6362 80.1173 28.7006L80.1173 28.7009C83.8427 28.908 87.1398 28.301 87.6321 23.069V12.4248H85.5331Z" fill="black"/>
<path d="M93.5177 26.845V12.4248H91.459C91.459 13.1113 91.459 27.8716 91.459 28.56C91.5854 28.56 101.878 28.56 101.986 28.56V26.845H93.5177Z" fill="black"/>
<path d="M110.83 10.3154L102.885 28.5601H105.061L110.83 14.4455L113.828 21.7783H109.684L109.096 23.4242H114.501L116.6 28.5601H118.776L110.83 10.3154Z" fill="black"/>
<path d="M127.994 20.9301C130.949 19.9785 132.497 18.5212 132.486 16.2392C132.461 13.5161 130.809 12.371 127.922 12.4246C127.19 12.4246 121.85 12.4246 121.003 12.4246V14.1382V28.5598H123.158V14.1382H127.922C129.751 14.265 130.222 15.0982 130.222 16.3479C130.222 17.9007 129.43 18.834 127.747 19.4319C127.104 19.6481 126.413 19.825 125.658 19.9521V21.2742L130.783 28.5598H133.573L127.994 20.9301Z" fill="black"/>
<path d="M135.863 26.8063V28.5599C139.181 28.4645 141.437 27.3071 141.346 23.8026V12.4248H139.249V24.0577C139.348 25.7579 138.13 26.754 135.863 26.8063Z" fill="black"/>
<path d="M156.235 12.9583V14.8717C151.368 13.2696 146.598 13.8478 146.581 16.8133C146.635 18.9439 147.679 19.6077 151.262 19.473C155.325 19.3017 156.816 21.1101 156.767 24.1009C156.66 28.7645 152.054 29.4445 145.091 27.9728V26.0159C149.492 27.335 154.77 27.6133 154.639 24.1272C154.657 22.0007 153.788 21.1486 149.825 21.3348C146.214 21.2833 144.34 19.8375 144.533 16.7335C144.873 12.2535 149.297 11.3899 156.235 12.9583Z" fill="black"/>
<path d="M123.158 34.7176C122.661 34.7176 122.343 34.9108 122.154 35.2127V33.7295H121.696V37.6301H122.154V37.2136C122.341 37.5424 122.657 37.7619 123.158 37.7445C123.757 37.7237 124.245 37.0476 124.245 36.2519C124.245 35.3625 123.758 34.7176 123.158 34.7176ZM123.028 37.3317C122.57 37.3317 122.154 37.1099 122.154 36.2315C122.154 35.4768 122.476 35.1313 123.028 35.1313C123.527 35.1313 123.735 35.6239 123.735 36.2315C123.735 36.8392 123.506 37.3317 123.028 37.3317Z" fill="black"/>
<path d="M126.484 34.8545L125.746 37.1321L124.982 34.8545H124.403C124.403 34.8545 125.428 37.6955 125.476 37.8287C125.45 37.9275 125.427 37.9715 125.358 38.1564C125.226 38.5078 125.06 38.5591 124.702 38.4172V38.8752C125.22 38.9597 125.501 38.9195 125.733 38.3154C125.843 38.0297 127.063 34.8545 127.063 34.8545H126.484Z" fill="black"/>
<path d="M135.587 34.1263H132.438V35.0526H134.68C134.57 36.3517 133.489 36.9056 132.469 36.9056C131.164 36.9056 130.025 35.8787 130.025 34.4393C130.025 33.0372 131.111 31.9573 132.472 31.9573C133.522 31.9573 134.141 32.6268 134.141 32.6268L134.79 31.9551C134.79 31.9551 133.957 31.0283 132.439 31.0283C130.506 31.0283 129.01 32.6602 129.01 34.4228C129.01 36.15 130.417 37.8341 132.488 37.8341C134.31 37.8341 135.644 36.586 135.644 34.7404C135.644 34.3511 135.587 34.126 135.587 34.126L135.587 34.1263Z" fill="black"/>
<path d="M138.253 33.4551C136.972 33.4551 136.054 34.4566 136.054 35.6245C136.054 36.8099 136.944 37.8299 138.268 37.8299C139.466 37.8299 140.448 36.9141 140.448 35.65C140.448 34.2012 139.306 33.4551 138.253 33.4551ZM138.265 34.3143C138.895 34.3143 139.492 34.8236 139.492 35.6442C139.492 36.4474 138.898 36.9713 138.263 36.9713C137.564 36.9713 137.014 36.4122 137.014 35.6378C137.014 34.8802 137.558 34.3143 138.265 34.3143Z" fill="black"/>
<path d="M143.008 33.4551C141.727 33.4551 140.809 34.4566 140.809 35.6245C140.809 36.8099 141.7 37.8299 143.023 37.8299C144.221 37.8299 145.203 36.9141 145.203 35.65C145.203 34.2012 144.061 33.4551 143.008 33.4551ZM143.021 34.3143C143.651 34.3143 144.248 34.8236 144.248 35.6442C144.248 36.4474 143.653 36.9713 143.018 36.9713C142.32 36.9713 141.769 36.4122 141.769 35.6378C141.769 34.8802 142.313 34.3143 143.021 34.3143Z" fill="black"/>
<path d="M147.699 33.458C146.523 33.458 145.599 34.4878 145.599 35.6437C145.599 36.9603 146.671 37.8334 147.679 37.8334C148.302 37.8334 148.634 37.5859 148.879 37.3019V37.7332C148.879 38.4879 148.42 38.9398 147.729 38.9398C147.06 38.9398 146.725 38.443 146.609 38.161L145.768 38.5124C146.066 39.1431 146.667 39.8006 147.736 39.8006C148.905 39.8006 149.796 39.0643 149.796 37.52V33.5354H148.879V33.96C148.597 33.6562 148.211 33.4581 147.699 33.458ZM147.784 34.3155C148.361 34.3155 148.953 34.8077 148.953 35.6483C148.953 36.5027 148.362 36.9736 147.772 36.9736C147.145 36.9736 146.561 36.4646 146.561 35.6564C146.561 34.8166 147.167 34.3155 147.784 34.3155Z" fill="black"/>
<path d="M153.792 33.4521C152.683 33.4521 151.752 34.3346 151.752 35.6366C151.752 37.0145 152.79 37.8316 153.899 37.8316C154.824 37.8316 155.392 37.3253 155.731 36.8716L154.975 36.3685C154.779 36.673 154.451 36.9706 153.904 36.9706C153.289 36.9706 153.006 36.6339 152.831 36.3077L155.764 35.0907L155.612 34.734C155.328 34.0355 154.667 33.4523 153.793 33.4523L153.792 33.4521ZM153.831 34.2934C154.23 34.2934 154.518 34.5058 154.64 34.7606L152.681 35.5793C152.597 34.9455 153.197 34.2934 153.831 34.2934Z" fill="black"/>
<path d="M151.306 31.2549H150.408V37.7024H151.306V31.2549Z" fill="black"/>
</g>
<defs>
<clipPath id="clip0_506_105">
<rect width="157" height="40" fill="white"/>
</clipPath>
</defs>
</svg>
