<svg width="44" height="53" viewBox="0 0 44 53" fill="none" xmlns="http://www.w3.org/2000/svg">
<g clip-path="url(#clip0_506_5)">
<path d="M36.4642 28.1572C36.5387 36.1778 43.5003 38.8468 43.5775 38.8809C43.5187 39.0692 42.4651 42.6846 39.9098 46.419C37.7008 49.6477 35.4082 52.8645 31.7965 52.9311C28.2477 52.9965 27.1066 50.8266 23.0493 50.8266C18.9933 50.8266 17.7254 52.8643 14.3661 52.9965C10.8799 53.1285 8.22522 49.5051 5.99785 46.2884C1.4465 39.7082 -2.03169 27.6946 2.63866 19.5852C4.95875 15.5579 9.10501 13.0079 13.6053 12.9425C17.0285 12.8772 20.2598 15.2455 22.3524 15.2455C24.4438 15.2455 28.3704 12.3973 32.4983 12.8157C34.2263 12.8877 39.0771 13.5138 42.1918 18.073C41.941 18.2283 36.404 21.4516 36.4642 28.1572ZM29.7947 8.46227C31.6455 6.22192 32.8912 3.10312 32.5514 0C29.8835 0.107213 26.6577 1.77779 24.744 4.01679C23.0291 5.99957 21.5273 9.17332 21.9325 12.2149C24.906 12.4452 27.9437 10.704 29.7947 8.46227Z" fill="black"/>
</g>
<defs>
<clipPath id="clip0_506_5">
<rect width="44" height="53" fill="white"/>
</clipPath>
</defs>
</svg>
