<svg width="99" height="36" viewBox="0 0 99 36" fill="none" xmlns="http://www.w3.org/2000/svg">
<g clip-path="url(#clip0_506_40)">
<mask id="mask0_506_40" style="mask-type:luminance" maskUnits="userSpaceOnUse" x="0" y="0" width="30" height="36">
<path d="M29.0072 16.6152L19.3381 26.2878L29.0072 35.9604H17.9583L13.8119 31.814L8.28577 26.2878L17.9583 16.6152H29.0072ZM17.9583 0.0400391L0 17.9985L5.52616 23.5247L29.0072 0.0400391C29.0072 0.0400391 17.9583 0.0400391 17.9583 0.0400391Z" fill="white"/>
</mask>
<g mask="url(#mask0_506_40)">
<path d="M13.8117 31.814L29.007 16.6152H17.9581L8.28906 26.2879L13.8117 31.814Z" fill="black"/>
</g>
<mask id="mask1_506_40" style="mask-type:luminance" maskUnits="userSpaceOnUse" x="0" y="0" width="30" height="36">
<path d="M29.0072 16.6152L19.3381 26.2878L29.0072 35.9604H17.9583L13.8119 31.814L8.28577 26.2878L17.9583 16.6152H29.0072ZM17.9583 0.0400391L0 17.9985L5.52616 23.5247L29.0072 0.0400391C29.0072 0.0400391 17.9583 0.0400391 17.9583 0.0400391Z" fill="white"/>
</mask>
<g mask="url(#mask1_506_40)">
<path d="M0 17.9985L17.9583 0.0400391H29.0072L5.52616 23.5247L0 17.9985Z" fill="black"/>
</g>
<mask id="mask2_506_40" style="mask-type:luminance" maskUnits="userSpaceOnUse" x="0" y="0" width="30" height="36">
<path d="M29.0072 16.6152L19.3381 26.2878L29.0072 35.9604H17.9583L13.8119 31.814L8.28577 26.2878L17.9583 16.6152H29.0072ZM17.9583 0.0400391L0 17.9985L5.52616 23.5247L29.0072 0.0400391C29.0072 0.0400391 17.9583 0.0400391 17.9583 0.0400391Z" fill="white"/>
</mask>
<g mask="url(#mask2_506_40)">
<path d="M17.9584 35.9572H29.0073L19.3382 26.2881L13.812 31.8143L17.9584 35.9572Z" fill="black"/>
</g>
<mask id="mask3_506_40" style="mask-type:luminance" maskUnits="userSpaceOnUse" x="0" y="0" width="30" height="36">
<path d="M29.0072 16.6152L19.3381 26.2878L29.0072 35.9604H17.9583L13.8119 31.814L8.28577 26.2878L17.9583 16.6152H29.0072ZM17.9583 0.0400391L0 17.9985L5.52616 23.5247L29.0072 0.0400391C29.0072 0.0400391 17.9583 0.0400391 17.9583 0.0400391Z" fill="white"/>
</mask>
<g mask="url(#mask3_506_40)">
<path d="M19.3382 26.2881L13.812 31.8143L22.0079 28.9751L19.3382 26.2881Z" fill="url(#paint0_linear_506_40)"/>
</g>
<mask id="mask4_506_40" style="mask-type:luminance" maskUnits="userSpaceOnUse" x="0" y="0" width="30" height="36">
<path d="M29.0072 16.6152L19.3381 26.2878L29.0072 35.9604H17.9583L13.8119 31.814L8.28577 26.2878L17.9583 16.6152H29.0072ZM17.9583 0.0400391L0 17.9985L5.52616 23.5247L29.0072 0.0400391C29.0072 0.0400391 17.9583 0.0400391 17.9583 0.0400391Z" fill="white"/>
</mask>
<g mask="url(#mask4_506_40)">
<path d="M8.28906 26.284L13.8152 20.7578L19.3414 26.284L13.8152 31.8137L8.28906 26.284Z" fill="black"/>
</g>
<path d="M29.0072 16.6152L19.3381 26.2878L29.0072 35.9604H17.9583L13.8119 31.814L8.28577 26.2878L17.9583 16.6152H29.0072ZM17.9583 0.0400391L0 17.9985L5.52616 23.5247L29.0072 0.0400391H17.9583Z" fill="url(#paint1_radial_506_40)"/>
<path d="M32.5054 9.66699H42.1894V11.5119H34.5352V17.2293H41.4519V19.0742H34.5352V26.2678H32.5983V9.66699H32.5054Z" fill="black"/>
<path d="M44.4951 9.66699H46.4319V26.3597H44.4951V9.66699Z" fill="black"/>
<path d="M53.7173 26.7284C52.2412 26.7284 51.2268 26.2677 50.3973 25.4372C49.6598 24.6067 49.291 23.4084 49.291 21.9323V14.4619H51.2278V21.6555C51.2278 22.7618 51.5047 23.5923 51.9654 24.146C52.519 24.6996 53.1646 24.9765 54.086 24.9765C54.7317 24.9765 55.3773 24.7916 55.838 24.4228C56.3916 24.054 56.7604 23.5923 57.0372 23.0397C57.3141 22.486 57.4979 21.8404 57.4979 21.1948V14.4619H59.4347V26.3596H57.5899V24.6077H57.4979C57.1292 25.1614 56.6674 25.714 55.9299 26.0838C55.2853 26.5445 54.5478 26.7284 53.7173 26.7284Z" fill="black"/>
<path d="M67.182 26.545C66.7213 26.545 66.2595 26.4531 65.7988 26.2682C65.4301 26.0833 65.0613 25.8994 64.7845 25.6226C64.5076 25.3458 64.2308 24.977 64.0469 24.6082C63.862 24.2395 63.7701 23.7777 63.7701 23.2251V16.2164H61.6494V14.4645H63.7701V11.1445H65.7069V14.4645H68.5662V16.2164H65.7069V22.6724C65.7069 23.318 65.7988 23.7787 66.0757 24.1486C66.3525 24.5173 66.8132 24.7022 67.3669 24.7022C67.8276 24.7022 68.2893 24.6103 68.6581 24.3335V26.2703C68.3813 26.3622 68.1974 26.4552 67.9206 26.5471C67.9195 26.545 67.5508 26.545 67.182 26.545Z" fill="black"/>
<path d="M75.5748 26.545C75.1141 26.545 74.6524 26.4531 74.1917 26.2682C73.8229 26.0833 73.4541 25.8994 73.1773 25.6226C72.9005 25.3458 72.6236 24.977 72.4387 24.6082C72.2538 24.2395 72.1619 23.7777 72.1619 23.2251V16.2164H70.2251V14.4645H72.3458V11.1445H74.2826V14.4645H77.1418V16.2164H74.2826V22.6724C74.2826 23.318 74.3745 23.7787 74.6514 24.1486C74.9282 24.5173 75.3889 24.7022 75.9426 24.7022C76.4033 24.7022 76.865 24.6103 77.2338 24.3335V26.2703C76.9569 26.3622 76.7731 26.4552 76.4962 26.5471C76.3124 26.545 75.9436 26.545 75.5748 26.545Z" fill="black"/>
<path d="M84.3364 26.7289C83.2301 26.7289 82.2157 26.4521 81.2933 25.8984C80.3708 25.3447 79.7252 24.6072 79.1726 23.6848C78.7119 22.7623 78.4351 21.656 78.4351 20.4567C78.4351 19.3504 78.7119 18.2431 79.1726 17.3207C79.6333 16.3982 80.3719 15.5687 81.2013 15.0151C82.0308 14.4614 83.0462 14.1846 84.2445 14.1846C85.4427 14.1846 86.4581 14.4614 87.2876 15.0151C88.1181 15.5687 88.7637 16.2143 89.2244 17.1358C89.6851 18.0582 89.9619 19.0726 89.9619 20.2718C89.9619 20.5487 89.9619 20.7325 89.87 20.9174H80.3708C80.4628 21.8399 80.6477 22.5774 81.0164 23.223C81.3852 23.8686 81.9389 24.3293 82.4926 24.6062C83.1382 24.883 83.6918 25.0669 84.3374 25.0669C85.9055 25.0669 87.0118 24.3293 87.8423 22.9462L89.5023 23.7767C88.9486 24.6991 88.303 25.5286 87.3816 26.0823C86.642 26.4531 85.6266 26.7289 84.3364 26.7289ZM87.7483 19.1666C87.7483 18.7059 87.5634 18.1522 87.2876 17.6905C87.0118 17.2287 86.642 16.768 86.0883 16.3993C85.5346 16.0305 84.889 15.8456 84.0596 15.8456C83.1371 15.8456 82.3077 16.1224 81.662 16.768C81.0164 17.3217 80.6477 18.1512 80.3708 19.1655H87.7483V19.1666Z" fill="black"/>
<path d="M92.1749 14.4634H94.0197V16.4002H94.1117C94.3885 15.7546 94.7573 15.2009 95.4948 14.8321C96.1404 14.3714 96.878 14.1865 97.6155 14.1865C98.1692 14.1865 98.6299 14.2785 98.9986 14.4634V16.584C98.5379 16.3072 97.9843 16.2153 97.3387 16.2153C96.785 16.2153 96.2323 16.4002 95.7706 16.676C95.3099 17.0447 94.9401 17.4135 94.5713 17.9672C94.2945 18.5209 94.1106 19.0735 94.1106 19.7191V26.359H92.1738L92.1749 14.4634Z" fill="black"/>
</g>
<defs>
<linearGradient id="paint0_linear_506_40" x1="-8098.77" y1="-3443.7" x2="-8098.77" y2="-3443.7" gradientUnits="userSpaceOnUse">
<stop offset="1"/>
</linearGradient>
<radialGradient id="paint1_radial_506_40" cx="0" cy="0" r="1" gradientUnits="userSpaceOnUse" gradientTransform="translate(-8098.77 -3443.7) scale(1.2603e-07)">
<stop stop-color="white" stop-opacity="0.1"/>
<stop offset="1" stop-color="white" stop-opacity="0"/>
</radialGradient>
<clipPath id="clip0_506_40">
<rect width="99" height="36" fill="white"/>
</clipPath>
</defs>
</svg>
