<svg width="34" height="62" viewBox="0 0 34 62" fill="none" xmlns="http://www.w3.org/2000/svg">
<g clip-path="url(#clip0_506_143)">
<path d="M21.2791 0.0166016C22.252 1.12426 22.5731 2.70811 22.2935 4.13668C21.9933 5.74123 21.103 7.15945 20.0575 8.38098C19.219 9.36441 18.2563 10.234 17.2521 11.0414C16.0824 11.9835 14.9333 12.9979 14.1982 14.323C13.5771 15.3996 13.4321 16.7246 13.8566 17.8944C14.5502 19.9027 16.1651 21.3934 17.045 23.2878C16.0719 22.4286 15.1195 21.5383 14.2292 20.5963C13.2976 19.6025 12.4177 18.5466 11.8379 17.3044C11.4446 16.4348 11.2686 15.4203 11.5688 14.499C11.869 13.557 12.5419 12.8013 13.2148 12.0973C15.0885 10.2236 17.397 8.84681 19.2292 6.94206C20.2438 5.89651 21.0822 4.64392 21.372 3.205C21.6103 2.1491 21.4964 1.06215 21.2791 0.0166016Z" fill="black" stroke="black" stroke-width="0.00971013" stroke-miterlimit="10"/>
<path d="M19.7467 11.8077C21.7549 10.3274 24.1048 9.38538 26.4858 8.70215C24.6018 9.90297 22.635 11.0003 21.0096 12.5427C20.4196 13.1121 19.8605 13.7643 19.6017 14.5614C19.405 15.1514 19.4879 15.8036 19.7261 16.3626C20.1607 17.3564 20.8957 18.1638 21.4547 19.0748C21.9309 19.8512 22.0137 20.845 21.6514 21.6835C21.1027 22.9154 20.0261 23.816 18.9082 24.5303C18.7632 24.6131 18.639 24.7684 18.4629 24.7891C19.2084 24.1162 19.7881 23.1638 19.7673 22.139C19.7467 21.3729 19.3222 20.7001 18.8252 20.1514C17.8004 18.9299 16.9412 17.3771 17.1173 15.7311C17.2934 14.0852 18.4733 12.76 19.7467 11.8077Z" fill="black" stroke="black" stroke-width="0.00971013" stroke-miterlimit="10"/>
<path d="M26.8691 23.7744C27.3038 23.2464 27.9972 23.1119 28.6289 23.029C29.7262 22.8841 30.8958 23.1636 31.7239 23.9193C32.4074 24.5301 32.7903 25.4825 32.6453 26.4038C32.49 27.47 31.7757 28.3603 30.9684 29.0332C29.5087 30.203 27.7075 30.8862 25.9062 31.3418C26.0098 31.2277 26.1236 31.1242 26.2582 31.0416C27.6246 30.3065 28.9807 29.4474 29.9849 28.2465C30.5957 27.5012 31.0719 26.5281 30.8752 25.5447C30.6681 24.406 29.5606 23.5778 28.4321 23.5157C27.8937 23.4638 27.3867 23.6709 26.8691 23.7744Z" fill="black" stroke="black" stroke-width="0.00971013" stroke-miterlimit="10"/>
<path d="M6.06142 24.7164C7.96618 23.8986 10.0366 23.3706 12.1173 23.4017C10.9061 23.7537 9.6639 24.0539 8.52518 24.5922C8.25603 24.7371 7.94547 24.8717 7.7902 25.1512C7.70738 25.3686 7.93512 25.5135 8.10075 25.586C8.80469 25.8758 9.58108 25.9172 10.3368 25.9897C12.9869 26.1657 15.6473 26.0621 18.2871 25.8965C20.8957 25.7309 23.4836 25.3789 26.0614 24.9648C25.492 25.234 24.9123 25.5031 24.3845 25.8447C24.1151 26.0311 23.784 26.0828 23.4838 26.1553C20.3161 26.8592 17.0656 27.0766 13.8357 27.1284C12.5831 27.1387 11.3409 27.118 10.0987 27.0352C8.71152 26.9421 7.31401 26.8385 5.9579 26.4762C5.56453 26.3623 5.15045 26.2381 4.83989 25.9586C4.68461 25.8344 4.68461 25.586 4.81919 25.441C5.1608 25.0892 5.63699 24.9234 6.06142 24.7164Z" fill="black" stroke="black" stroke-width="0.00971013" stroke-miterlimit="10"/>
<path d="M8.5044 29.1373C9.0427 28.7129 9.68453 28.4748 10.3263 28.2471C10.1193 28.4955 9.82945 28.7336 9.80875 29.0752C9.7984 29.2926 9.97438 29.4582 10.1504 29.5618C10.492 29.7378 10.875 29.7999 11.258 29.8516C13.2456 30.0587 15.2539 30.1725 17.2622 30.038C19.0943 29.9448 20.9165 29.6446 22.7281 29.3237C23.2249 29.7895 23.815 30.1104 24.4362 30.3899C22.2517 31.0317 20.0054 31.4044 17.7486 31.5804C15.6162 31.7253 13.4525 31.7151 11.3304 31.3734C10.4919 31.2181 9.63266 31.0422 8.86662 30.6487C8.55606 30.4831 8.20409 30.2657 8.11093 29.9034C8.04892 29.5928 8.27666 29.3132 8.5044 29.1373Z" fill="black" stroke="black" stroke-width="0.00971013" stroke-miterlimit="10"/>
<path d="M9.70529 33.6505C10.1815 33.2676 10.7715 33.0708 11.3512 32.9053C11.1649 33.0812 10.8337 33.2985 10.9786 33.5988C11.2581 33.9611 11.7757 34.0025 12.1898 34.0957C13.9392 34.3131 15.7094 34.4581 17.4589 34.3234C18.7838 34.2407 20.0883 34.0025 21.3823 33.7748C22.1275 34.2095 22.9039 34.5822 23.7009 34.9136C22.4795 35.4621 21.1647 35.8141 19.8501 36.0626C17.6348 36.4559 15.347 36.5076 13.1213 36.1558C12.1379 35.9797 11.1338 35.7521 10.2435 35.2653C9.90187 35.0688 9.53955 34.8409 9.39463 34.458C9.28086 34.1579 9.46719 33.8369 9.70529 33.6505Z" fill="black" stroke="black" stroke-width="0.00971013" stroke-miterlimit="10"/>
<path d="M3.96036 36.5807C4.91274 36.2598 5.89617 36.001 6.90031 35.9699C7.30404 35.9595 7.71812 35.9802 8.07008 36.1873C6.86926 36.2599 5.66843 36.56 4.59183 37.1086C4.35373 37.2433 4.08458 37.3986 3.99141 37.678C3.99141 37.9989 4.35373 38.1024 4.59183 38.2059C6.09286 38.7649 7.69741 38.9409 9.27091 39.1066C13.9603 39.4999 18.6807 39.3964 23.3703 38.972C25.1404 38.7753 26.9211 38.5785 28.6394 38.092C29.188 37.9056 29.8091 37.7194 30.1714 37.2327C30.389 36.943 30.244 36.5807 30.0267 36.3322C30.3784 36.5289 30.8754 36.7775 30.8031 37.2535C30.6684 37.7503 30.1611 38.0091 29.7471 38.2473C28.4221 38.9202 26.9624 39.2619 25.5131 39.5619C21.3 40.3901 16.9832 40.5765 12.6975 40.4524C9.4677 40.3383 6.23789 40.0278 3.04949 39.4793C2.48013 39.3446 1.83831 39.2309 1.42423 38.7856C1.15508 38.4751 1.39318 38.0404 1.65198 37.8128C2.30405 37.2121 3.14255 36.8809 3.96036 36.5807Z" fill="black" stroke="black" stroke-width="0.00971013" stroke-miterlimit="10"/>
<path d="M29.757 40.1203C30.8028 39.758 31.9206 39.375 32.697 38.5469C32.5625 39.4474 31.7861 40.0685 31.02 40.4723C29.55 41.2384 27.9041 41.5905 26.2685 41.8802C22.8109 42.429 19.3015 42.5634 15.7923 42.5013C13.401 42.429 10.989 42.3357 8.63912 41.8388C8.08012 41.6835 7.47971 41.58 6.99316 41.2488C9.08426 41.6008 11.2064 41.7458 13.3286 41.8285C16.8172 41.9321 20.3161 41.7976 23.784 41.3627C25.7923 41.0831 27.8109 40.7414 29.757 40.1203Z" fill="black" stroke="black" stroke-width="0.00971013" stroke-miterlimit="10"/>
<path d="M2.47986 55.473C2.49022 52.0775 2.46951 48.6822 2.49022 45.2764C3.19415 45.297 3.89808 45.2764 4.60201 45.297C4.59166 49.0962 4.60201 52.9057 4.59166 56.7153C4.57096 57.7814 4.55025 58.8995 4.03266 59.8518C3.4633 60.8664 2.44881 61.5807 1.37221 61.9948C1.03059 61.6221 0.720032 61.2287 0.378418 60.8561C1.24798 60.3488 2.11755 59.6242 2.32458 58.5786C2.52127 57.5538 2.45916 56.5082 2.47986 55.473Z" fill="black" stroke="black" stroke-width="0.00971013" stroke-miterlimit="10"/>
<path d="M6.5585 49.3649C7.95601 48.7644 9.50881 48.4538 11.0305 48.6194C11.8173 48.7126 12.6351 49.0026 13.1423 49.634C13.5668 50.1722 13.7221 50.8659 13.7117 51.5388C13.7117 53.8576 13.7117 56.166 13.7117 58.4849C13.1941 58.4849 12.6765 58.4849 12.1486 58.4849C12.0968 58.1432 12.045 57.7915 12.0036 57.4394C11.4136 57.9052 10.7821 58.3503 10.0471 58.5367C9.2086 58.7541 8.28728 58.7334 7.46947 58.4126C6.838 58.1538 6.34111 57.5844 6.16513 56.9219C5.90633 55.9591 6.0409 54.8307 6.72413 54.0543C7.3349 53.3402 8.25622 52.9882 9.16719 52.8226C10.0057 52.6568 10.8649 52.6568 11.7241 52.6568C11.7034 52.0047 11.8276 51.2904 11.455 50.7107C11.1548 50.2655 10.6061 50.0896 10.0989 50.0585C8.99121 49.9653 7.8939 50.2449 6.84836 50.6072C6.74484 50.193 6.65167 49.779 6.5585 49.3649ZM9.12579 54.1682C8.6703 54.3129 8.24587 54.6444 8.12165 55.1205C7.97672 55.6484 8.01813 56.2695 8.35974 56.7147C8.691 57.1493 9.29142 57.2529 9.80901 57.1909C10.5337 57.1079 11.1651 56.6939 11.7241 56.2488C11.7241 55.4724 11.7138 54.7064 11.7241 53.93C10.8546 53.9301 9.96429 53.8783 9.12579 54.1682Z" fill="black" stroke="black" stroke-width="0.00971013" stroke-miterlimit="10"/>
<path d="M24.7572 49.3647C26.1651 48.7642 27.7178 48.4434 29.2499 48.6193C30.0158 48.7124 30.8027 48.9922 31.3098 49.5924C31.7862 50.1617 31.9309 50.9175 31.9205 51.6422C31.9102 53.9299 31.9309 56.2074 31.8999 58.495C31.3823 58.4744 30.8647 58.5054 30.3471 58.4744C30.2954 58.1225 30.254 57.7808 30.1919 57.4392C29.4672 58.0604 28.5977 58.5676 27.6142 58.6503C26.7137 58.7332 25.6991 58.6194 24.9951 57.9774C24.2601 57.2942 24.136 56.1867 24.3222 55.2445C24.4983 54.3752 25.1504 53.6608 25.9373 53.2777C27.169 52.6773 28.5771 52.6462 29.9228 52.6565C29.902 52.0251 30.0158 51.3522 29.695 50.7828C29.4465 50.3274 28.9186 50.1203 28.4218 50.0686C27.2725 49.9444 26.1235 50.2344 25.0468 50.607C24.954 50.1929 24.8505 49.7788 24.7572 49.3647ZM27.2934 54.1784C26.8585 54.3233 26.4549 54.6546 26.3203 55.1101C26.1754 55.638 26.2168 56.2591 26.548 56.7146C26.8897 57.1596 27.5005 57.2528 28.0284 57.1908C28.7427 57.0873 29.3948 56.6938 29.9332 56.2177C29.9124 55.4621 29.9228 54.6961 29.9228 53.9299C29.043 53.9299 28.1423 53.8782 27.2934 54.1784Z" fill="black" stroke="black" stroke-width="0.00971013" stroke-miterlimit="10"/>
<path d="M14.8916 48.7441C15.6162 48.7441 16.3409 48.7441 17.0655 48.7441C17.4898 50.1105 17.9039 51.4666 18.3286 52.8332C18.5768 53.6717 18.8874 54.4998 19.0635 55.359C19.1567 55.742 19.2394 56.1354 19.3533 56.5081C20.2438 53.9925 20.9269 51.3942 21.279 48.7441C21.9828 48.7441 22.6868 48.7441 23.3906 48.7441C22.78 52.0982 21.8172 55.4003 20.3679 58.4853C19.5397 58.4853 18.7116 58.4853 17.8834 58.4853C16.8895 55.2347 15.8854 51.9947 14.8916 48.7441Z" fill="black" stroke="black" stroke-width="0.00971013" stroke-miterlimit="10"/>
<path d="M32.3336 48.5558H32.0791V48.4639H32.6986V48.5558H32.4428V49.3007H32.3334V48.5558H32.3336Z" fill="black" stroke="black" stroke-width="0.00971013" stroke-miterlimit="10"/>
<path d="M33.4975 48.9333C33.4912 48.8166 33.4838 48.675 33.4838 48.572H33.4813C33.4516 48.6689 33.4181 48.7744 33.3759 48.8898L33.2281 49.2959H33.1462L33.0097 48.8973C32.9699 48.7782 32.9376 48.6712 32.914 48.5719H32.9115C32.9092 48.6763 32.9028 48.8153 32.8955 48.9419L32.8731 49.3007H32.77L32.8284 48.4639H32.9662L33.1089 48.8686C33.1437 48.9716 33.1711 49.0636 33.1933 49.1505H33.1958C33.2182 49.0661 33.248 48.9742 33.2851 48.8686L33.4342 48.4639H33.572L33.6242 49.3007H33.5174L33.4975 48.9333Z" fill="black" stroke="black" stroke-width="0.00971013" stroke-miterlimit="10"/>
</g>
<defs>
<clipPath id="clip0_506_143">
<rect width="34" height="62" fill="white"/>
</clipPath>
</defs>
</svg>
