<svg width="63" height="60" viewBox="0 0 63 60" fill="none" xmlns="http://www.w3.org/2000/svg">
<g clip-path="url(#clip0_506_191)">
<path d="M52.7135 31.4768C52.7135 31.3713 52.6845 31.2958 52.625 31.2465C52.559 31.1934 52.445 31.1651 52.2861 31.1651H52.0578V31.7926H52.3334C52.5878 31.7926 52.7135 31.687 52.7135 31.4768ZM53.0695 32.7852H52.7557L52.5557 32.3437C52.454 32.1225 52.3454 32.0118 52.2268 32.0118H52.0578V32.7852H51.7993V30.9448H52.3173C52.5476 30.9448 52.7205 30.9947 52.8393 31.0987C52.9398 31.1882 52.9901 31.3029 52.9901 31.4457C52.9901 31.5724 52.9491 31.679 52.8664 31.7674C52.7859 31.857 52.6702 31.9173 52.5224 31.9485V31.9565C52.625 31.9806 52.7276 32.0933 52.8271 32.2964L53.0695 32.7862V32.7852ZM53.6427 31.8831C53.6427 31.5211 53.5191 31.2154 53.2726 30.973C53.0253 30.7306 52.7236 30.609 52.3676 30.609C52.0005 30.609 51.6948 30.7306 51.4524 30.9751C51.21 31.2204 51.0894 31.524 51.0894 31.8831C51.0894 32.2502 51.2151 32.5569 51.4645 32.8013C51.7109 33.0456 52.0126 33.1663 52.3676 33.1663C52.7205 33.1663 53.0222 33.0447 53.2706 32.7972C53.5191 32.5538 53.6427 32.2482 53.6427 31.8831ZM53.8167 31.8751C53.8167 32.2815 53.6769 32.6224 53.3964 32.8969C53.1158 33.1735 52.7718 33.3112 52.3605 33.3112C51.9462 33.3112 51.6023 33.1755 51.3287 32.9089C51.0552 32.6385 50.9194 32.2986 50.9194 31.8863C50.9194 31.4829 51.0582 31.1441 51.3358 30.8656C51.6133 30.588 51.9593 30.4492 52.3726 30.4492C52.7779 30.4492 53.1178 30.582 53.3933 30.8464C53.6759 31.1179 53.8167 31.4599 53.8167 31.8751Z" fill="black"/>
<path d="M14.4833 37.0069H13.5913V31.9022C13.5913 31.499 13.6179 31.0083 13.6653 30.429H13.6452C13.5617 30.7679 13.4853 31.0133 13.4179 31.1652L10.8254 37.0069H10.3909L7.7933 31.2074C7.72009 31.0454 7.6435 30.785 7.56602 30.429H7.54672C7.57408 30.7337 7.58936 31.2275 7.58936 31.9123V37.0069H6.72949V29.4053H7.9061L10.2382 34.706C10.4142 35.1053 10.5279 35.409 10.5831 35.6161H10.6201C10.772 35.2008 10.8926 34.889 10.9842 34.6839L13.3665 29.4053H14.4828V37.0069H14.4833Z" fill="black"/>
<path d="M17.2273 37.0068H16.3605V31.5783H17.2273V37.0068ZM17.3772 29.6324C17.3772 29.7923 17.3209 29.926 17.2092 30.0357C17.0996 30.1452 16.9639 30.2006 16.8049 30.2006C16.6501 30.2006 16.5153 30.1475 16.4048 30.0417C16.2941 29.9351 16.2397 29.7993 16.2397 29.6324C16.2397 29.4755 16.2944 29.3418 16.4048 29.2332C16.5153 29.1246 16.6501 29.0723 16.8049 29.0723C16.9638 29.0723 17.0996 29.1246 17.2092 29.2332C17.3209 29.3418 17.3772 29.4755 17.3772 29.6324Z" fill="black"/>
<path d="M22.6445 36.7551C22.2282 37.0106 21.7314 37.1373 21.1571 37.1373C20.3788 37.1373 19.7523 36.8789 19.2736 36.3629C18.809 35.8621 18.5747 35.2155 18.5747 34.4231C18.5747 33.534 18.8291 32.814 19.342 32.267C19.8519 31.7188 20.5377 31.4453 21.4006 31.4453C21.8722 31.4453 22.2905 31.5378 22.6566 31.7209V32.6129C22.2514 32.3283 21.8229 32.1875 21.3633 32.1875C20.8102 32.1875 20.3607 32.3806 20.0117 32.7658C19.6487 33.16 19.4647 33.6869 19.4647 34.3446C19.4647 34.9762 19.6326 35.476 19.9665 35.8451C20.3014 36.2121 20.7469 36.3962 21.309 36.3962C21.7837 36.3962 22.2282 36.2402 22.6445 35.9295V36.7551Z" fill="black"/>
<path d="M26.7908 32.4589C26.638 32.3413 26.4178 32.2839 26.1271 32.2839C25.7742 32.2839 25.4775 32.4418 25.2371 32.7606C24.9646 33.1166 24.8288 33.6093 24.8288 34.2389V37.0064H23.96V31.5779H24.8288V32.6973H24.8498C24.9775 32.301 25.1746 31.9963 25.4381 31.7801C25.6845 31.583 25.9631 31.4834 26.2697 31.4834C26.501 31.4834 26.673 31.5083 26.7907 31.5574V32.4585L26.7908 32.4589Z" fill="black"/>
<path d="M31.6336 34.3017C31.6336 33.6069 31.4767 33.0759 31.163 32.7119C30.8583 32.3619 30.4329 32.1869 29.8848 32.1869C29.3447 32.1869 28.9114 32.3639 28.5875 32.7179C28.2446 33.096 28.0736 33.63 28.0736 34.3229C28.0736 34.9726 28.2365 35.4824 28.5654 35.8464C28.8922 36.2125 29.3327 36.3955 29.8848 36.3955C30.456 36.3955 30.8934 36.2095 31.1931 35.8394C31.4868 35.4774 31.6336 34.9655 31.6336 34.3017ZM32.5246 34.2712C32.5246 35.136 32.2803 35.831 31.7935 36.3519C31.3048 36.8748 30.6471 37.1363 29.8205 37.1363C29.0059 37.1363 28.3572 36.8748 27.8816 36.3519C27.4159 35.848 27.1816 35.1823 27.1816 34.3547C27.1816 33.4104 27.4461 32.6823 27.9771 32.1654C28.4678 31.6857 29.1245 31.4443 29.9472 31.4443C30.7567 31.4443 31.3893 31.6967 31.8448 32.1966C32.2964 32.6994 32.5246 33.3913 32.5246 34.2712Z" fill="black"/>
<path d="M36.8333 35.5544C36.8333 35.9989 36.6674 36.367 36.3345 36.6606C35.9715 36.9784 35.4727 37.1373 34.8451 37.1373C34.3312 37.1373 33.8807 37.0297 33.4985 36.8105V35.8762C33.924 36.2221 34.3936 36.3962 34.9095 36.3962C35.5974 36.3962 35.9423 36.1427 35.9423 35.6379C35.9423 35.4257 35.8666 35.2497 35.714 35.1139C35.5612 34.9751 35.2644 34.8092 34.823 34.6151C34.3685 34.416 34.0446 34.2119 33.8536 33.9997C33.6243 33.7482 33.5086 33.4215 33.5086 33.0192C33.5086 32.5686 33.6886 32.1935 34.0446 31.8949C34.4016 31.5952 34.8602 31.4453 35.4233 31.4453C35.8548 31.4453 36.241 31.5298 36.5839 31.6998V32.5747C36.2259 32.3162 35.8166 32.1875 35.352 32.1875C35.0644 32.1875 34.8331 32.2591 34.6611 32.3987C34.4871 32.5415 34.3996 32.7235 34.3996 32.9457C34.3996 33.1861 34.4728 33.3732 34.6179 33.5069C34.7466 33.6306 35.0201 33.7815 35.4324 33.9574C35.896 34.1515 36.2309 34.3527 36.435 34.5588C36.6995 34.8193 36.8333 35.1512 36.8333 35.5544Z" fill="black"/>
<path d="M42.1434 34.3017C42.1434 33.6069 41.9865 33.0759 41.6718 32.7119C41.3681 32.3619 40.9417 32.1869 40.3946 32.1869C39.8545 32.1869 39.4211 32.3639 39.0953 32.7179C38.7534 33.096 38.5834 33.63 38.5834 34.3229C38.5834 34.9726 38.7463 35.4824 39.0721 35.8464C39.403 36.2125 39.8435 36.3955 40.3946 36.3955C40.9668 36.3955 41.4032 36.2095 41.7029 35.8394C41.9965 35.4774 42.1434 34.9655 42.1434 34.3017ZM43.0364 34.2712C43.0364 35.136 42.79 35.831 42.3023 36.3519C41.8155 36.8748 41.1578 37.1363 40.3312 37.1363C39.5157 37.1363 38.867 36.8748 38.3913 36.3519C37.9257 35.848 37.6914 35.1823 37.6914 34.3547C37.6914 33.4104 37.9579 32.6823 38.4859 32.1654C38.9766 31.6857 39.6343 31.4443 40.4579 31.4443C41.2675 31.4443 41.8991 31.6967 42.3536 32.1966C42.8061 32.6994 43.0364 33.3913 43.0364 34.2712Z" fill="black"/>
<path d="M46.8654 29.7334C46.6944 29.6389 46.5044 29.5906 46.2881 29.5906C45.6797 29.5906 45.378 29.9737 45.378 30.7411V31.5778H46.6502V32.3139H45.378V37.0063H44.5081V32.3139H43.585V31.5778H44.5081V30.6979C44.5081 30.1005 44.6912 29.6318 45.0633 29.2939C45.3821 29.0003 45.7722 28.8545 46.2358 28.8545C46.5044 28.8545 46.7136 28.8867 46.8654 28.949V29.7334Z" fill="black"/>
<path d="M50.2947 36.9518C50.0896 37.0695 49.816 37.1279 49.4781 37.1279C48.5308 37.1279 48.0572 36.5938 48.0572 35.5258V32.3148H47.126V31.5777H48.0572V30.2533C48.3348 30.1657 48.6233 30.0702 48.9281 29.9717V31.5777H50.2947V32.3148H48.9281V35.3781C48.9281 35.7421 48.9876 36.0025 49.1121 36.1534C49.2378 36.3093 49.443 36.3857 49.7326 36.3857C49.9488 36.3857 50.1358 36.3278 50.2947 36.2107V36.9518Z" fill="black"/>
<path d="M3.32304 58.1929C3.32304 58.6183 3.17123 58.9863 2.86447 59.2971C2.55875 59.6068 2.18762 59.7628 1.75222 59.7628C1.32679 59.7628 0.964755 59.6068 0.668129 59.2971C0.371424 58.9863 0.223633 58.6183 0.223633 58.1929C0.223633 57.7555 0.371424 57.3864 0.668129 57.0807C0.964755 56.7739 1.32679 56.6221 1.75222 56.6221C2.18762 56.6221 2.55875 56.776 2.86447 57.0867C3.17123 57.3975 3.32304 57.7665 3.32304 58.1929Z" fill="black"/>
<path d="M22.7778 59.4436H19.9439L9.65715 43.5574C9.41676 43.1753 9.2096 42.7599 9.03365 42.3064H8.94909C9.0223 42.7317 9.05979 43.6449 9.05979 45.0438V59.4436H6.72363V39.5127H9.7557L19.7347 55.1485C20.132 55.769 20.4034 56.2134 20.5412 56.481H20.5967C20.5042 55.9077 20.456 54.9302 20.456 53.5505V39.5127H22.7781V59.4436H22.7778Z" fill="black"/>
<path d="M37.7548 59.4436H27.1914V39.5127H37.2962V41.6246H29.5256V48.2548H36.726V50.3677H29.5256V57.3308H37.7548V59.4436Z" fill="black"/>
<path d="M53.7773 41.6245H48.0362V59.4437H45.701V41.6245H39.9487V39.5117H53.7773V41.6245Z" fill="black"/>
<path d="M21.9858 5.08712C24.2395 11.9788 25.0933 24.2729 31.6833 24.2729C32.1851 24.2729 32.692 24.2238 33.2008 24.127C27.2102 22.7302 26.5002 10.5698 22.8447 4.27246C22.558 4.53295 22.2734 4.80447 21.9858 5.08712Z" fill="url(#paint0_linear_506_191)"/>
<path d="M22.8447 4.27287C26.5003 10.5702 27.2102 22.7306 33.2009 24.1274C33.6715 24.0409 34.1432 23.9102 34.6158 23.7453C29.2386 21.1105 27.7523 9.30214 23.601 3.61719C23.3495 3.82644 23.0971 4.04567 22.8447 4.27287Z" fill="url(#paint1_linear_506_191)"/>
<path d="M28.1118 0.527344C27.611 0.527344 27.1031 0.57641 26.5933 0.673206C25.2598 0.924611 23.9052 1.4988 22.5396 2.36768C22.9126 2.73574 23.2676 3.15707 23.6014 3.6167C24.9903 2.46422 26.37 1.61247 27.7448 1.10055C28.2606 0.909491 28.7746 0.76572 29.2904 0.671194C28.9183 0.576569 28.5261 0.527344 28.1118 0.527344Z" fill="black"/>
<path d="M38.8135 21.3168C39.3636 20.8794 39.9147 20.3956 40.4668 19.8677C38.177 13.0081 37.3574 0.538086 30.7211 0.538086C30.2464 0.538086 29.7677 0.582331 29.29 0.670821C35.335 2.17431 36.1093 15.3262 38.8135 21.3168Z" fill="url(#paint2_linear_506_191)"/>
<path d="M29.2899 0.671095C28.9179 0.576569 28.5257 0.527344 28.1113 0.527344L30.721 0.536906C30.2463 0.536906 29.7676 0.581151 29.2899 0.670696" fill="black"/>
<path d="M38.6976 22.7734C38.4382 22.526 38.1918 22.2545 37.9494 21.9648C36.8331 22.7553 35.7209 23.3546 34.6157 23.7448C35.0089 23.937 35.4212 24.0798 35.8587 24.1683C36.1976 24.2374 36.5486 24.2728 36.9176 24.2728C38.1576 24.2728 39.1381 24.126 39.9728 23.7258C39.5132 23.4773 39.0918 23.1555 38.6976 22.7734Z" fill="black"/>
<path d="M27.7441 1.10237C33.1586 3.93426 33.6292 16.7583 37.9495 21.9655C38.2391 21.7614 38.5257 21.5452 38.8123 21.3169C36.1081 15.3262 35.3348 2.17333 29.2908 0.670898C28.7749 0.767436 28.26 0.910331 27.7441 1.10237Z" fill="url(#paint3_linear_506_191)"/>
<path d="M23.6011 3.61665C27.7524 9.3016 29.2387 21.1099 34.6159 23.7447C35.7211 23.3545 36.8334 22.7552 37.9497 21.9647C33.6294 16.7575 33.1588 3.93345 27.7443 1.10156C26.3696 1.61242 24.9899 2.46417 23.6011 3.61665Z" fill="url(#paint4_linear_506_191)"/>
<path d="M19.3299 4.9215C18.6792 6.39282 18.0145 8.32662 17.2109 10.8508C18.8089 8.59913 20.4019 6.65926 21.9858 5.08749C21.7675 4.41668 21.5332 3.79823 21.2808 3.24707C20.6332 3.74289 19.9805 4.30106 19.3299 4.9215Z" fill="url(#paint5_linear_506_191)"/>
<path d="M21.8579 2.82227C21.6669 2.95902 21.4748 3.09885 21.2817 3.24665C21.5341 3.79774 21.7674 4.41626 21.9857 5.08698C22.2732 4.8054 22.5588 4.53289 22.8444 4.27241C22.5377 3.74543 22.2119 3.2587 21.8579 2.82227Z" fill="black"/>
<path d="M22.5392 2.36816C22.312 2.51201 22.0857 2.66381 21.8574 2.8227C22.2114 3.25916 22.5372 3.74589 22.845 4.2739C23.0974 4.04558 23.3498 3.82538 23.6012 3.61718C23.2673 3.15764 22.9124 2.73623 22.5392 2.36816Z" fill="black"/>
<path d="M59.4702 0.00276904C56.4079 11.8121 50.012 21.2973 44.6499 23.6888H44.6397C44.5422 23.733 44.4456 23.7733 44.3501 23.8124C44.337 23.8204 44.325 23.8214 44.3149 23.8262C44.2867 23.8375 44.2606 23.8463 44.2324 23.8575C44.2193 23.8655 44.2073 23.8681 44.1952 23.8729C44.15 23.889 44.1057 23.9027 44.0615 23.9204C44.0424 23.9283 44.0243 23.9333 44.0061 23.9397C43.986 23.9476 43.9628 23.955 43.9398 23.9614C43.9197 23.9694 43.8986 23.9752 43.8754 23.9839C43.8563 23.9919 43.8361 23.9953 43.8181 24.0032C43.7789 24.0146 43.7427 24.0242 43.7035 24.0378C43.6873 24.0378 43.6723 24.0466 43.6552 24.0508C43.6311 24.0587 43.6039 24.0645 43.5777 24.0717C43.5596 24.0797 43.5446 24.0823 43.5254 24.0862C43.4982 24.0942 43.4681 24.1016 43.441 24.108C43.4048 24.1159 43.3726 24.1233 43.3384 24.1305C43.5807 24.22 43.8332 24.2652 44.1057 24.2652C49.1903 24.2652 54.317 15.1531 62.7996 0H59.469L59.4702 0.00276904Z" fill="url(#paint6_linear_506_191)"/>
<path d="M16.1067 1.00674C16.1099 1.00674 16.1139 0.998775 16.1159 0.998775C16.1199 0.998775 16.126 0.998776 16.128 0.990807H16.1344C16.1625 0.981245 16.1887 0.96989 16.2169 0.959431C16.224 0.959431 16.2278 0.959431 16.233 0.951463C16.2402 0.951463 16.2471 0.943494 16.2541 0.942498C16.2843 0.932936 16.3145 0.921581 16.3427 0.911122H16.3474C16.4148 0.891022 16.4772 0.866081 16.5425 0.842753C16.5517 0.842753 16.5606 0.834785 16.5716 0.834785C16.5988 0.826019 16.627 0.816258 16.6551 0.809843C16.6683 0.801875 16.6813 0.801875 16.6933 0.797691C16.7224 0.788926 16.7507 0.779165 16.7778 0.77275C16.79 0.77275 16.801 0.764782 16.81 0.763985C16.9035 0.738247 16.996 0.714102 17.0896 0.691572C17.1027 0.691572 17.1137 0.683603 17.1278 0.682806C17.1549 0.674838 17.1801 0.670654 17.2092 0.66667C17.2214 0.658702 17.2354 0.658702 17.2495 0.654518C17.2766 0.64655 17.3027 0.645753 17.3319 0.639179H17.351C17.4074 0.627824 17.4647 0.618262 17.521 0.607803H17.5552C17.5823 0.599835 17.6064 0.599038 17.6336 0.594058C17.6486 0.594058 17.6638 0.586089 17.6779 0.586089C17.703 0.586089 17.7282 0.578121 17.7533 0.574734C17.7664 0.574734 17.7794 0.574734 17.7945 0.566766C17.8538 0.558797 17.9152 0.55561 17.9776 0.550629C17.8016 0.533696 17.6206 0.522461 17.4365 0.522461C11.7104 0.522461 3.82105 11.1471 0.26709 24.9064H0.951937C2.08932 22.878 3.11106 20.9592 4.04531 19.1581C6.53429 9.41239 11.6038 2.76602 16.1071 1.00517" fill="url(#paint7_linear_506_191)"/>
<path d="M19.3301 4.92107C19.9808 4.30063 20.6334 3.74246 21.281 3.24672C21.1332 2.9229 20.9804 2.62321 20.8164 2.34863C20.2925 2.9842 19.8138 3.82292 19.3301 4.92107Z" fill="black"/>
<path d="M19.8004 1.08698C20.1745 1.40074 20.5094 1.83219 20.8161 2.3491C20.9127 2.23043 21.0103 2.12079 21.1118 2.01821C20.6865 1.621 20.2268 1.29517 19.728 1.0498C19.7481 1.06096 19.7682 1.06993 19.7892 1.07877C19.7892 1.07877 19.7971 1.08674 19.8005 1.08674" fill="black"/>
<path d="M4.04492 19.1589C9.26625 9.09731 11.7401 2.72954 16.1067 1.00586C11.6044 2.76782 6.5339 9.41412 4.04492 19.1589Z" fill="url(#paint8_linear_506_191)"/>
<path d="M21.1111 2.01855C21.0096 2.12218 20.913 2.23079 20.8154 2.34946C20.9794 2.62396 21.1322 2.92268 21.2811 3.24747C21.4742 3.09968 21.6662 2.95985 21.8573 2.82309C21.621 2.53144 21.3716 2.26096 21.1111 2.01855Z" fill="black"/>
<path d="M6.41546 24.8624C6.38328 24.8703 6.3511 24.8703 6.32093 24.8737H6.30282C6.27563 24.8737 6.24747 24.8817 6.22237 24.8817H6.20926C6.14394 24.8897 6.07953 24.8897 6.01718 24.8946H5.99707C11.2818 24.7468 13.6973 22.1009 14.8961 18.2633C15.8072 15.354 16.5554 12.9032 17.2111 10.8467C14.9976 13.9622 12.7741 17.676 10.5386 21.8364C9.46052 23.8417 7.82132 24.6793 6.41542 24.8584" fill="url(#paint9_linear_506_191)"/>
<path d="M6.41553 24.86C7.82142 24.6809 9.46063 23.8442 10.5387 21.838C12.7742 17.6786 14.9987 13.9638 17.2102 10.8483C18.0147 8.32303 18.6784 6.39026 19.3301 4.91895C14.9223 9.11452 10.4975 16.0907 6.41553 24.858" fill="url(#paint10_linear_506_191)"/>
<path d="M4.04504 19.1592C3.11083 20.9603 2.08909 22.8791 0.95166 24.9075H2.94389C3.20737 22.8931 3.58147 20.9723 4.04504 19.1601" fill="black"/>
<path d="M17.7941 0.571625C17.778 0.571625 17.7659 0.579594 17.7519 0.579594C17.7277 0.587562 17.7025 0.587562 17.6774 0.590152C17.6625 0.590152 17.6483 0.590152 17.6332 0.59812C17.606 0.606089 17.5809 0.606886 17.5547 0.611866C17.5426 0.611866 17.5306 0.611866 17.5206 0.619834C17.4632 0.629396 17.4069 0.639955 17.3506 0.649597H17.3315C17.3023 0.657565 17.2761 0.661748 17.249 0.665733C17.2349 0.673701 17.2208 0.673701 17.2077 0.676888C17.1806 0.684857 17.1534 0.688243 17.1273 0.693025C17.1132 0.700993 17.1022 0.700993 17.0891 0.70179C16.9956 0.724321 16.903 0.748465 16.8095 0.774203C16.7995 0.774203 16.7894 0.782172 16.7773 0.783765C16.7492 0.791734 16.722 0.799902 16.6929 0.808707C16.6807 0.816675 16.6667 0.816675 16.6546 0.819863C16.6265 0.827831 16.5983 0.835999 16.5712 0.844804C16.5602 0.844804 16.5511 0.852772 16.541 0.852772C16.4766 0.876897 16.4133 0.901041 16.3469 0.921162C16.3188 0.929927 16.2886 0.941262 16.2584 0.951721C16.2463 0.959689 16.2352 0.961482 16.2212 0.96706C16.1931 0.975825 16.1649 0.98718 16.1388 0.997639C16.1288 1.00561 16.1187 1.0064 16.1117 1.01059C11.7451 2.73426 9.27124 9.10204 4.04992 19.1636C3.58631 20.9758 3.2112 22.8966 2.94873 24.9108H3.2283C4.01572 24.9108 4.23797 24.9029 5.14406 24.9029H5.19032H5.32508H5.37134H5.38445H5.4307H5.45685H5.47496H5.51116H5.6238H5.73643H5.83096H5.85606H6.02199C6.08434 24.8949 6.1487 24.8949 6.21407 24.8899H6.22614C6.25334 24.8899 6.28045 24.882 6.30659 24.882H6.32566C6.35478 24.882 6.38801 24.874 6.42019 24.8706C10.5021 16.1034 14.927 9.12714 19.3347 4.93157C19.8194 3.83341 20.2971 2.99469 20.8201 2.36017C20.5143 1.84327 20.1795 1.41084 19.8054 1.09701C19.8054 1.09701 19.7952 1.09701 19.7944 1.08904C19.7733 1.08027 19.7532 1.06971 19.7321 1.05927C19.7109 1.04792 19.6928 1.03915 19.6708 1.0279C19.6516 1.01993 19.6295 1.00937 19.6104 0.998934C19.5843 0.990965 19.5631 0.97961 19.54 0.969152C19.5209 0.961183 19.5038 0.953015 19.4847 0.945027C19.4454 0.929688 19.4063 0.913651 19.369 0.896758C19.3519 0.88879 19.3359 0.884606 19.3197 0.878231C19.2926 0.86847 19.2614 0.855701 19.2332 0.843628C19.2191 0.83566 19.2031 0.834066 19.187 0.828289C19.1458 0.814544 19.1055 0.800141 19.0673 0.787252H19.0573C19.0111 0.771912 18.9658 0.760717 18.9185 0.747828C18.9076 0.739859 18.8984 0.739859 18.8874 0.738265C18.8461 0.72691 18.8099 0.715735 18.7708 0.705276C18.7608 0.705276 18.7516 0.697308 18.7436 0.697308C18.6491 0.672366 18.5516 0.652266 18.453 0.633759C18.4428 0.633759 18.4329 0.625791 18.4228 0.625791C18.3806 0.617822 18.3394 0.610451 18.2971 0.60567C18.287 0.597702 18.281 0.597702 18.272 0.597702C18.2218 0.589733 18.1725 0.583956 18.1232 0.578378H18.0971C18.0568 0.57041 18.0197 0.569613 17.9824 0.56543C17.919 0.573398 17.8587 0.576785 17.7994 0.582363" fill="url(#paint11_linear_506_191)"/>
<path d="M47.5091 6.54012C46.5044 9.7582 45.6909 12.4131 44.9829 14.5974C47.7394 10.8041 50.4546 6.03223 53.0402 0.525391C50.0242 1.47262 48.4152 3.64088 47.5091 6.54012Z" fill="url(#paint12_linear_506_191)"/>
<path d="M45.0703 23.4878C44.9295 23.5594 44.7887 23.6276 44.6499 23.6889C50.012 21.2975 56.4079 11.8122 59.4702 0.00292969H58.8497C51.8141 12.5705 49.5514 20.9837 45.0703 23.4878Z" fill="url(#paint13_linear_506_191)"/>
<path d="M41.569 22.4316C42.7355 21.0077 43.6858 18.5871 44.9832 14.5977C43.4867 16.6532 41.9803 18.4202 40.4728 19.8612C40.4728 19.8692 40.4728 19.8692 40.4648 19.8742C40.7937 20.8597 41.1547 21.7295 41.5661 22.4315" fill="black"/>
<path d="M41.5691 22.4316C41.1719 22.9164 40.7516 23.2855 40.2839 23.559C40.1813 23.6186 40.0778 23.6746 39.9722 23.726C40.466 23.9924 41.0049 24.1705 41.6083 24.2418C41.6967 24.2506 41.7843 24.2587 41.8758 24.2651H41.892C41.933 24.2651 41.9765 24.2651 42.0207 24.2731H42.0384H42.1702H42.312H42.3563H42.4569C42.473 24.2731 42.4898 24.2731 42.5059 24.2651C42.5373 24.2651 42.5703 24.2651 42.6025 24.2572H42.6138H42.65C42.683 24.2572 42.7192 24.2492 42.7546 24.2458H42.7626C42.7731 24.2458 42.7843 24.2379 42.7948 24.2379C42.8318 24.2299 42.8704 24.2265 42.9064 24.2209H42.9394C42.9804 24.213 43.0229 24.208 43.0651 24.2H43.0731H43.0852C43.1697 24.1839 43.2521 24.1678 43.3356 24.1469C42.6437 23.8935 42.0644 23.2961 41.5656 22.4453" fill="black"/>
<path d="M31.6836 24.2731C32.1854 24.2731 32.6923 24.2241 33.2011 24.1263C33.6718 24.0409 34.1434 23.91 34.6161 23.7451C35.0093 23.9372 35.4216 24.0801 35.8581 24.1685C36.1969 24.2377 36.5489 24.2731 36.918 24.2731H31.6836Z" fill="black"/>
<path d="M36.9181 24.2736C38.1571 24.2736 39.1386 24.1268 39.9723 23.7266C40.466 23.993 41.0051 24.1711 41.6084 24.2425C41.6969 24.2513 41.7845 24.2594 41.876 24.2658H41.8921C41.9331 24.2658 41.9766 24.2658 42.0208 24.2738H42.0393H42.1711H36.9146L36.9181 24.2736Z" fill="black"/>
<path d="M42.1743 24.2728H42.3171H42.3614H42.461C42.4779 24.2728 42.4939 24.2728 42.51 24.2649C42.5414 24.2649 42.5744 24.2649 42.6076 24.2569H42.6182H42.6552C42.6882 24.2569 42.7244 24.2489 42.7588 24.2457H42.7676C42.7781 24.2457 42.7885 24.2378 42.799 24.2378C42.836 24.2298 42.8746 24.2266 42.9106 24.2208C42.9227 24.2208 42.9323 24.2208 42.9451 24.2129C42.9862 24.2049 43.0287 24.2007 43.0709 24.1928H43.0789H43.091C43.1755 24.1766 43.258 24.1606 43.3414 24.1396C43.5837 24.2291 43.8362 24.2744 44.1087 24.2744L42.1758 24.2824L42.1743 24.2728Z" fill="black"/>
<path d="M40.4683 19.8742V19.8662C39.9162 20.3941 39.3651 20.8779 38.815 21.3153C38.5274 21.5436 38.2408 21.7598 37.9512 21.964C38.1935 22.2536 38.4399 22.5251 38.6994 22.7725C39.0936 23.1546 39.5149 23.4765 39.9745 23.7249C40.0791 23.6734 40.1837 23.6172 40.2852 23.5579C40.7539 23.2844 41.1742 22.9153 41.5715 22.4306C41.1601 21.7287 40.7992 20.8587 40.4703 19.8732" fill="black"/>
<path d="M56.885 0.00292969H54.2763H54.0169H53.7715H53.7619C53.593 0.0108981 53.4291 0.0166753 53.2672 0.0270741C53.1907 0.191045 53.1123 0.354996 53.0368 0.519923C50.4513 6.02677 47.7361 10.7986 44.9796 14.5919C43.6833 18.5813 42.732 21.0019 41.5654 22.4259C42.0642 23.2767 42.6445 23.875 43.3344 24.1285C43.3545 24.1205 43.3706 24.1205 43.3887 24.1163H43.3998C43.412 24.1163 43.4249 24.1083 43.4381 24.1083C43.4662 24.1004 43.4964 24.0954 43.5245 24.0866C43.5427 24.0786 43.5577 24.0779 43.5759 24.0721C43.602 24.0641 43.6291 24.0583 43.6533 24.052C43.6694 24.044 43.6854 24.0414 43.7015 24.0382C43.7418 24.0253 43.778 24.0157 43.8162 24.0036C43.8343 23.9956 43.8534 23.9891 43.8735 23.9843C43.8957 23.9763 43.9178 23.9705 43.9379 23.961C43.9611 23.953 43.9842 23.9488 44.0043 23.94C44.0224 23.9321 44.0414 23.9271 44.0586 23.9199C44.1038 23.9038 44.1481 23.8902 44.1933 23.8724C44.2055 23.8724 44.2175 23.8613 44.2306 23.8587C44.2577 23.8473 44.2859 23.8386 44.3131 23.8265C44.323 23.8185 44.3352 23.8177 44.3482 23.8136C44.4427 23.7741 44.5403 23.7339 44.6378 23.6899H44.648C44.7868 23.6288 44.9276 23.5601 45.0673 23.4888C49.5495 20.9847 51.8123 12.5715 58.8478 0.00390582H56.8827L56.885 0.00292969Z" fill="url(#paint14_linear_506_191)"/>
<path d="M17.9775 0.555143C17.9887 0.555143 17.9987 0.555143 18.0097 0.563112C18.0368 0.563112 18.064 0.563112 18.0912 0.571877H18.1184C18.1676 0.579845 18.2169 0.584029 18.2672 0.5912C18.2764 0.5912 18.2843 0.5912 18.2923 0.599169C18.3335 0.607137 18.3758 0.613711 18.418 0.620086C18.4272 0.620086 18.4392 0.628055 18.4492 0.628055C18.5458 0.647378 18.6443 0.667478 18.7388 0.69242C18.7478 0.69242 18.757 0.700388 18.765 0.700388C18.8052 0.70995 18.8414 0.722102 18.8816 0.733358C18.8938 0.733358 18.9027 0.741326 18.9138 0.743119C18.9611 0.755271 19.0054 0.767264 19.0516 0.782543C19.0536 0.782543 19.0564 0.782543 19.0618 0.790511C19.1009 0.802464 19.1412 0.817863 19.1824 0.831529C19.1986 0.839498 19.2136 0.842884 19.2287 0.846868C19.2569 0.85902 19.2881 0.870993 19.3152 0.882268C19.3313 0.882268 19.3474 0.893424 19.3644 0.899201C19.4016 0.916134 19.4408 0.931374 19.4791 0.94747C19.4992 0.955439 19.5162 0.964403 19.5354 0.971595C19.5575 0.98295 19.5806 0.993329 19.6047 1.00138C19.6248 1.01094 19.647 1.02148 19.666 1.03032C19.6872 1.04168 19.7072 1.05044 19.7274 1.0617C20.2262 1.30709 20.6858 1.63395 21.1112 2.03018C21.2681 1.86526 21.432 1.71738 21.602 1.58465C20.6717 0.924939 19.6178 0.548828 18.402 0.548828C18.2612 0.548828 18.1204 0.556797 17.9776 0.567355" fill="black"/>
<path d="M21.1113 2.01878C21.3718 2.2611 21.6212 2.53167 21.8575 2.82331C22.0858 2.66442 22.3121 2.51155 22.5394 2.36875C22.2417 2.07107 21.9279 1.80357 21.6011 1.57324C21.4311 1.70502 21.2682 1.85385 21.1113 2.01878Z" fill="black"/>
<path d="M17.9771 0.554549C18.1199 0.542482 18.2607 0.537453 18.4015 0.537453C19.6173 0.537453 20.6712 0.913566 21.6014 1.57227C22.5829 0.797916 23.7696 0.527397 25.4179 0.527397H17.436C17.6201 0.527397 17.8001 0.538459 17.9771 0.554549Z" fill="url(#paint15_linear_506_191)"/>
<path d="M25.418 0.527827C23.7697 0.527827 22.5831 0.798347 21.6016 1.5727C21.9274 1.80299 22.2412 2.07049 22.5388 2.36816C23.9055 1.49928 25.2591 0.924053 26.5936 0.672641C27.1025 0.577104 27.6103 0.527827 28.1111 0.527827H25.418Z" fill="url(#paint16_linear_506_191)"/>
<path d="M44.983 14.6001C45.6919 12.4138 46.5035 9.75992 47.5101 6.54078C48.4172 3.6405 50.0233 1.47233 53.0392 0.526052C53.1189 0.364093 53.1941 0.197154 53.2716 0.0332031C48.3549 0.327897 46.057 2.8289 44.9005 6.53276C42.8781 12.9991 41.6532 17.1906 40.4736 19.8616C41.9801 18.4215 43.4865 16.6536 44.983 14.6001Z" fill="url(#paint17_linear_506_191)"/>
<path d="M52.1961 22.5508H51.6389V24.2826H51.4117V22.5508H50.8525V22.3447H52.1961V22.5508Z" fill="black"/>
<path d="M54.4772 24.2826H54.2509V22.9812C54.2509 22.8787 54.2589 22.753 54.2695 22.6051C54.2461 22.6936 54.2268 22.755 54.2091 22.7942L53.5494 24.2826H53.4388L52.7771 22.8053C52.7578 22.7643 52.7385 22.6977 52.7176 22.6051H52.7096C52.7176 22.6832 52.7201 22.8093 52.7201 22.9843V24.2826H52.5029V22.3447H52.8026L53.3969 23.6973C53.442 23.7989 53.4701 23.8773 53.4844 23.9296H53.4932C53.5326 23.823 53.5648 23.7435 53.5868 23.6912L54.1931 22.3447H54.4787V24.2826H54.4772Z" fill="black"/>
</g>
<defs>
<linearGradient id="paint0_linear_506_191" x1="582.704" y1="-386.056" x2="582.704" y2="2596.83" gradientUnits="userSpaceOnUse">
<stop offset="1"/>
</linearGradient>
<linearGradient id="paint1_linear_506_191" x1="611.409" y1="-396.664" x2="611.409" y2="2662.24" gradientUnits="userSpaceOnUse">
<stop offset="1"/>
</linearGradient>
<linearGradient id="paint2_linear_506_191" x1="588.12" y1="2305.35" x2="588.12" y2="-128.58" gradientUnits="userSpaceOnUse">
<stop offset="1"/>
</linearGradient>
<linearGradient id="paint3_linear_506_191" x1="581.163" y1="-414.894" x2="581.163" y2="2761.04" gradientUnits="userSpaceOnUse">
<stop offset="1"/>
</linearGradient>
<linearGradient id="paint4_linear_506_191" x1="741.009" y1="-440.919" x2="741.009" y2="2936.27" gradientUnits="userSpaceOnUse">
<stop offset="1"/>
</linearGradient>
<linearGradient id="paint5_linear_506_191" x1="17.2124" y1="383.438" x2="494.694" y2="383.438" gradientUnits="userSpaceOnUse">
<stop offset="1"/>
</linearGradient>
<linearGradient id="paint6_linear_506_191" x1="1016.59" y1="2297.59" x2="1016.59" y2="-73.3922" gradientUnits="userSpaceOnUse">
<stop offset="1"/>
</linearGradient>
<linearGradient id="paint7_linear_506_191" x1="0.253615" y1="1219.71" x2="1771.3" y2="1219.71" gradientUnits="userSpaceOnUse">
<stop offset="1"/>
</linearGradient>
<linearGradient id="paint8_linear_506_191" x1="607.112" y1="2257.67" x2="607.112" y2="-170.02" gradientUnits="userSpaceOnUse">
<stop offset="1"/>
</linearGradient>
<linearGradient id="paint9_linear_506_191" x1="566.681" y1="1292.02" x2="566.681" y2="-1067.83" gradientUnits="userSpaceOnUse">
<stop offset="1"/>
</linearGradient>
<linearGradient id="paint10_linear_506_191" x1="652.143" y1="1999.23" x2="652.143" y2="5.12219" gradientUnits="userSpaceOnUse">
<stop offset="1"/>
</linearGradient>
<linearGradient id="paint11_linear_506_191" x1="1071.73" y1="2302.86" x2="395.777" y2="237.108" gradientUnits="userSpaceOnUse">
<stop offset="1"/>
</linearGradient>
<linearGradient id="paint12_linear_506_191" x1="447.804" y1="1084.04" x2="447.804" y2="-45.8972" gradientUnits="userSpaceOnUse">
<stop offset="1"/>
</linearGradient>
<linearGradient id="paint13_linear_506_191" x1="1011.87" y1="-98.5649" x2="-41.2368" y2="2239.63" gradientUnits="userSpaceOnUse">
<stop offset="1"/>
</linearGradient>
<linearGradient id="paint14_linear_506_191" x1="905.972" y1="-7.13282" x2="905.972" y2="2457.96" gradientUnits="userSpaceOnUse">
<stop offset="1"/>
</linearGradient>
<linearGradient id="paint15_linear_506_191" x1="150.524" y1="-213.216" x2="161.205" y2="45.3168" gradientUnits="userSpaceOnUse">
<stop offset="1"/>
</linearGradient>
<linearGradient id="paint16_linear_506_191" x1="66.4535" y1="-9.22666" x2="114.737" y2="-283.084" gradientUnits="userSpaceOnUse">
<stop offset="1"/>
</linearGradient>
<linearGradient id="paint17_linear_506_191" x1="680.327" y1="126.198" x2="680.327" y2="2537.3" gradientUnits="userSpaceOnUse">
<stop offset="1"/>
</linearGradient>
<clipPath id="clip0_506_191">
<rect width="63" height="60" fill="white"/>
</clipPath>
</defs>
</svg>
