<svg width="85" height="52" viewBox="0 0 85 52" fill="none" xmlns="http://www.w3.org/2000/svg">
<g clip-path="url(#clip0_506_159)">
<path d="M42.0392 52.0004C41.7512 52.0004 41.4825 51.9237 41.233 51.7893L38.68 50.273C38.296 50.0619 38.488 49.985 38.6033 49.9466C39.1216 49.7739 39.2175 49.7355 39.7551 49.4283C39.8127 49.3899 39.8894 49.409 39.9471 49.4475L41.905 50.6184C41.9818 50.6568 42.0778 50.6568 42.1354 50.6184L49.7944 46.1843C49.8711 46.146 49.9095 46.0692 49.9095 45.9732V37.1243C49.9095 37.0283 49.8711 36.9515 49.7944 36.9132L42.1354 32.4983C42.0587 32.46 41.9627 32.46 41.905 32.4983L34.246 36.9132C34.1693 36.9515 34.131 37.0475 34.131 37.1243V45.9732C34.131 46.05 34.1693 46.146 34.246 46.1843L36.3384 47.3936C37.4709 47.9694 38.1811 47.2976 38.1811 46.6258V37.8919C38.1811 37.7768 38.2771 37.6615 38.4114 37.6615H39.3903C39.5054 37.6615 39.6207 37.7575 39.6207 37.8919V46.6258C39.6207 48.1421 38.7953 49.0252 37.3556 49.0252C36.9142 49.0252 36.5686 49.0252 35.5897 48.5454L33.5742 47.3936C33.0752 47.1056 32.7681 46.5681 32.7681 45.9923V37.1434C32.7681 36.5675 33.0752 36.0301 33.5742 35.7421L41.2332 31.308C41.713 31.0393 42.3657 31.0393 42.8456 31.308L50.5045 35.7421C51.0036 36.0301 51.3107 36.5675 51.3107 37.1434V45.9923C51.3107 46.5681 51.0036 47.1056 50.5045 47.3936L42.8456 51.8277C42.5959 51.943 42.3081 52.0004 42.0392 52.0004ZM44.4003 45.9156C41.0411 45.9156 40.3501 44.38 40.3501 43.0747C40.3501 42.9596 40.4461 42.8444 40.5805 42.8444H41.5787C41.6938 42.8444 41.7898 42.9211 41.7898 43.0364C41.9434 44.0538 42.3848 44.5527 44.4195 44.5527C46.0319 44.5527 46.723 44.188 46.723 43.3242C46.723 42.8251 46.531 42.4604 44.0165 42.2109C41.9241 41.9998 40.6189 41.5391 40.6189 39.8691C40.6189 38.3143 41.9241 37.393 44.1125 37.393C46.5695 37.393 47.7788 38.2375 47.9324 40.0804C47.9324 40.138 47.9131 40.1955 47.8748 40.2531C47.8364 40.2915 47.7788 40.3299 47.7211 40.3299H46.723C46.627 40.3299 46.531 40.2531 46.5119 40.1571C46.2815 39.1013 45.6864 38.7559 44.1125 38.7559C42.3465 38.7559 42.1354 39.3701 42.1354 39.8308C42.1354 40.3875 42.3848 40.5602 44.7652 40.8673C47.1262 41.1744 48.2395 41.6158 48.2395 43.2667C48.2202 44.9558 46.8381 45.9156 44.4003 45.9156Z" fill="black"/>
<path d="M18.2756 17.391C18.2756 17.0455 18.0836 16.7192 17.7765 16.5465L9.63772 11.8629C9.50336 11.7861 9.34973 11.7478 9.19627 11.7285H9.11954C8.96591 11.7285 8.81245 11.7861 8.67808 11.8629L0.539288 16.5465C0.232033 16.719 0.0400391 17.0454 0.0400391 17.391L0.0593048 29.9832C0.0593048 30.1559 0.155302 30.3286 0.308763 30.4055C0.462391 30.5015 0.654219 30.5015 0.788581 30.4055L5.62579 27.6414C5.93288 27.4687 6.12487 27.1423 6.12487 26.7968V20.9038C6.12487 20.5584 6.31686 20.232 6.62395 20.0593L8.67792 18.8691C8.83155 18.7731 9.00427 18.7348 9.177 18.7348C9.34973 18.7348 9.52246 18.7731 9.65682 18.8691L11.7108 20.0593C12.0179 20.232 12.2099 20.5584 12.2099 20.9038V26.7968C12.2099 27.1423 12.4019 27.4687 12.7089 27.6414L17.5462 30.4055C17.6998 30.5015 17.8916 30.5015 18.0452 30.4055C18.1989 30.3288 18.2947 30.1561 18.2947 29.9832L18.2756 17.391Z" fill="black"/>
<path d="M57.3955 0.0575482C57.2419 -0.0191827 57.0501 -0.0191827 56.9157 0.0575482C56.7621 0.153545 56.6662 0.307007 56.6662 0.479901V12.9568C56.6662 13.0719 56.6086 13.1872 56.4935 13.2639C56.3784 13.3215 56.2632 13.3215 56.1481 13.2639L54.1134 12.093C53.8063 11.9203 53.4416 11.9203 53.1345 12.093L44.9957 16.7959C44.6886 16.9686 44.4966 17.2949 44.4966 17.6404V27.0268C44.4966 27.3723 44.6886 27.6986 44.9957 27.8714L53.1345 32.5742C53.4416 32.7469 53.8063 32.7469 54.1134 32.5742L62.2522 27.8714C62.5592 27.6986 62.7512 27.3723 62.7512 27.0268V3.62786C62.7512 3.26314 62.5592 2.93679 62.2522 2.76406L57.3955 0.0575482ZM56.647 23.9365C56.647 24.0325 56.6086 24.1092 56.5319 24.1476L53.7486 25.7599C53.6719 25.7983 53.5759 25.7983 53.4992 25.7599L50.7159 24.1476C50.6392 24.1092 50.6008 24.0132 50.6008 23.9365V20.7116C50.6008 20.6156 50.6392 20.5389 50.7159 20.5005L53.4992 18.8882C53.5759 18.8498 53.6719 18.8498 53.7486 18.8882L56.5319 20.5005C56.6086 20.5389 56.647 20.6349 56.647 20.7116V23.9365Z" fill="black"/>
<path d="M84.4803 20.6352C84.7874 20.4624 84.9602 20.1361 84.9602 19.7906V17.5063C84.9602 17.1608 84.7682 16.8345 84.4803 16.6618L76.3992 11.9782C76.0921 11.8055 75.7274 11.8055 75.4203 11.9782L67.2813 16.6809C66.9742 16.8536 66.7822 17.1799 66.7822 17.5254V26.9118C66.7822 27.2573 66.9742 27.5836 67.2813 27.7564L75.3625 32.3632C75.6696 32.5359 76.0343 32.5359 76.3223 32.3632L81.2171 29.6374C81.3707 29.5607 81.4666 29.388 81.4666 29.2151C81.4666 29.0423 81.3706 28.8696 81.2171 28.7927L73.04 24.0902C72.8863 23.9942 72.7905 23.8408 72.7905 23.6679V20.7312C72.7905 20.5584 72.8865 20.3857 73.04 20.3088L75.593 18.8499C75.7466 18.7539 75.9385 18.7539 76.0921 18.8499L78.6451 20.3088C78.7988 20.4048 78.8946 20.5583 78.8946 20.7312V23.0346C78.8946 23.2073 78.9906 23.38 79.144 23.4569C79.2977 23.5529 79.4895 23.5529 79.6431 23.4569L84.4803 20.6352Z" fill="black"/>
<path d="M75.7847 20.1938C75.8423 20.1554 75.919 20.1554 75.9767 20.1938L77.5315 21.096C77.5892 21.1343 77.6275 21.192 77.6275 21.2687V23.0731C77.6275 23.1498 77.5892 23.2074 77.5315 23.2458L75.9767 24.1479C75.919 24.1863 75.8423 24.1863 75.7847 24.1479L74.2298 23.2458C74.1722 23.2074 74.1338 23.1498 74.1338 23.0731V21.2689C74.1338 21.1921 74.1722 21.1345 74.2298 21.0961L75.7847 20.1938Z" fill="black"/>
<path d="M31.8851 12.0163C31.578 11.8435 31.2133 11.8435 30.9062 12.0163L22.825 16.6807C22.5179 16.8535 22.3452 17.1798 22.3452 17.5253V26.8733C22.3452 27.2188 22.5372 27.5451 22.825 27.7179L30.9062 32.3824C31.2133 32.5551 31.578 32.5551 31.8851 32.3824L39.9664 27.718C40.2735 27.5453 40.4462 27.219 40.4462 26.8735V17.5253C40.4462 17.1798 40.2543 16.8535 39.9664 16.6807L31.8851 12.0163Z" fill="url(#paint0_linear_506_159)"/>
<mask id="mask0_506_159" style="mask-type:luminance" maskUnits="userSpaceOnUse" x="22" y="11" width="19" height="22">
<path d="M31.8851 12.0163C31.578 11.8435 31.2133 11.8435 30.9062 12.0163L22.825 16.6807C22.5179 16.8535 22.3452 17.1798 22.3452 17.5253V26.8733C22.3452 27.2188 22.5372 27.5451 22.825 27.7179L30.9062 32.3824C31.2133 32.5551 31.578 32.5551 31.8851 32.3824L39.9664 27.718C40.2735 27.5453 40.4462 27.219 40.4462 26.8735V17.5253C40.4462 17.1798 40.2543 16.8535 39.9664 16.6807L31.8851 12.0163Z" fill="white"/>
</mask>
<g mask="url(#mask0_506_159)">
<path d="M39.9853 16.6804L31.8658 12.0159C31.7891 11.9776 31.6931 11.9392 31.6163 11.9199L22.5176 27.5066C22.5943 27.6026 22.6903 27.6793 22.7863 27.737L30.9058 32.4014C31.1362 32.5358 31.4049 32.5742 31.6544 32.4974L40.1963 16.8724C40.139 16.7957 40.0621 16.738 39.9853 16.6804Z" fill="url(#paint1_linear_506_159)"/>
</g>
<mask id="mask1_506_159" style="mask-type:luminance" maskUnits="userSpaceOnUse" x="22" y="11" width="19" height="22">
<path d="M31.8851 12.0163C31.578 11.8435 31.2133 11.8435 30.9062 12.0163L22.825 16.6807C22.5179 16.8535 22.3452 17.1798 22.3452 17.5253V26.8733C22.3452 27.2188 22.5372 27.5451 22.825 27.7179L30.9062 32.3824C31.2133 32.5551 31.578 32.5551 31.8851 32.3824L39.9664 27.718C40.2735 27.5453 40.4462 27.219 40.4462 26.8735V17.5253C40.4462 17.1798 40.2543 16.8535 39.9664 16.6807L31.8851 12.0163Z" fill="black"/>
</mask>
<g mask="url(#mask1_506_159)">
<path fill-rule="evenodd" clip-rule="evenodd" d="M40.0045 27.7181C40.2348 27.5838 40.4076 27.3534 40.4843 27.104L31.5777 11.9013C31.3473 11.8629 31.0979 11.882 30.8866 12.0164L22.8247 16.6617L31.5202 32.517C31.6353 32.4977 31.7697 32.4593 31.8849 32.4019L40.0045 27.7181Z" fill="url(#paint2_linear_506_159)"/>
<path fill-rule="evenodd" clip-rule="evenodd" d="M40.0047 27.7174L31.9043 32.3819C31.7892 32.4395 31.6739 32.4779 31.5396 32.497L31.6932 32.785L40.6765 27.5831V27.468L40.4462 27.084C40.4078 27.3527 40.2351 27.5831 40.0047 27.7174Z" fill="black"/>
<path fill-rule="evenodd" clip-rule="evenodd" d="M40.0047 27.7174L31.9043 32.3819C31.7892 32.4395 31.6739 32.4779 31.5396 32.497L31.6932 32.785L40.6765 27.5831V27.468L40.4462 27.084C40.4078 27.3527 40.2351 27.5831 40.0047 27.7174Z" fill="black"/>
</g>
</g>
<defs>
<linearGradient id="paint0_linear_506_159" x1="34.6853" y1="15.4908" x2="25.8263" y2="29.4092" gradientUnits="userSpaceOnUse">
<stop offset="1"/>
</linearGradient>
<linearGradient id="paint1_linear_506_159" x1="30.167" y1="23.2914" x2="52.3508" y2="11.2399" gradientUnits="userSpaceOnUse">
<stop offset="0.9081"/>
</linearGradient>
<linearGradient id="paint2_linear_506_159" x1="22.0488" y1="22.1994" x2="40.7487" y2="22.1994" gradientUnits="userSpaceOnUse">
<stop offset="0.8624"/>
</linearGradient>
<clipPath id="clip0_506_159">
<rect width="85" height="52" fill="white"/>
</clipPath>
</defs>
</svg>
