<svg width="82" height="41" viewBox="0 0 82 41" fill="none" xmlns="http://www.w3.org/2000/svg">
<g clip-path="url(#clip0_506_98)">
<path d="M41.0001 41C63.3529 41 81.4734 31.8218 81.4734 20.5C81.4734 9.17816 63.3529 0 41.0001 0C18.6474 0 0.526855 9.17816 0.526855 20.5C0.526855 31.8218 18.6474 41 41.0001 41Z" fill="black"/>
<path d="M24.3746 13.9596C26.1841 13.9596 27.3798 14.2827 27.9937 14.9613C28.6077 15.6399 28.737 16.7709 28.4138 18.3866C28.0907 20.0669 27.4444 21.2948 26.5073 22.0057C25.5702 22.7166 24.1484 23.0721 22.2418 23.0721H19.3659L21.1432 13.9596H24.3746ZM12.8062 32.3139H17.5563L18.6873 26.5297H22.7589C24.5684 26.5297 26.0226 26.3358 27.1859 25.948C28.3492 25.5603 29.3832 24.9463 30.3527 24.0415C31.1605 23.2983 31.8068 22.4904 32.2915 21.618C32.7762 20.7455 33.1317 19.7761 33.3255 18.7097C33.8426 16.1246 33.4548 14.1211 32.1946 12.667C30.9343 11.2129 28.9308 10.502 26.1841 10.502H17.0393L12.8062 32.3139Z" fill="white"/>
<path d="M36.8157 4.71777H41.5335L40.4025 10.502H44.6033C47.2531 10.502 49.0627 10.9544 50.0644 11.8915C51.0661 12.8286 51.357 14.315 50.9692 16.3831L48.998 26.5297H44.2156L46.0898 16.8678C46.316 15.7692 46.219 15.0259 45.8636 14.6382C45.5081 14.2504 44.7003 14.0242 43.5047 14.0242H39.7239L37.3004 26.5297H32.5825L36.8157 4.71777Z" fill="white"/>
<path d="M61.4385 13.9596C63.2481 13.9596 64.4437 14.2827 65.0577 14.9613C65.6717 15.6399 65.8009 16.7709 65.4778 18.3866C65.1546 20.0669 64.5084 21.2948 63.5713 22.0057C62.6341 22.7166 61.2123 23.0721 59.3058 23.0721H56.4299L58.2071 13.9596H61.4385ZM49.8701 32.3139H54.6203L55.7513 26.5297H59.8228C61.6324 26.5297 63.0865 26.3358 64.2498 25.948C65.4131 25.5603 66.4472 24.9463 67.4166 24.0415C68.2245 23.2983 68.8707 22.4904 69.3555 21.618C69.8402 20.7455 70.1956 19.7761 70.3895 18.7097C70.9065 16.1246 70.5188 14.1211 69.2585 12.667C67.9983 11.2129 65.9948 10.502 63.2481 10.502H54.1033L49.8701 32.3139Z" fill="white"/>
</g>
<defs>
<clipPath id="clip0_506_98">
<rect width="82" height="41" fill="white"/>
</clipPath>
</defs>
</svg>
