<svg width="100" height="36" viewBox="0 0 100 36" fill="none" xmlns="http://www.w3.org/2000/svg">
<g clip-path="url(#clip0_506_139)">
<path d="M42.8608 29.8948C42.8608 29.8948 47.2755 29.5163 47.2755 23.8151C47.2755 18.1139 41.9274 17.584 41.9274 17.584H32.2905V35.5709H37.1342V31.232L41.322 35.5709H48.4865L42.8608 29.8948ZM40.9941 26.2117H37.1344V22.0996H41.0193C41.0193 22.0996 42.1042 22.5031 42.1042 24.1429C42.1042 25.7827 40.9941 26.2117 40.9941 26.2117ZM59.2332 17.7102H54.3139C50.8074 17.7102 49.6216 20.8888 49.6216 22.4024V35.5709H54.541V32.4173H59.1575V35.5707H63.9255V22.4022C63.9255 18.5677 60.4442 17.7102 59.2332 17.7102ZM59.1575 27.3216H54.5157V22.9573C54.5157 22.9573 54.5157 21.9734 56.0546 21.9734H57.7448C59.107 21.9734 59.1323 22.9573 59.1323 22.9573V27.3216H59.1575ZM66.1707 17.7102H71.2917V35.5709H66.1707V17.7102ZM78.4815 30.9542V17.7102H73.3857V30.9544V35.5709H78.4815H85.3684V30.9542H78.4815ZM87.0587 31.0047V35.5707H95.3079C96.9981 35.5707 99.8992 34.3347 100 30.8785V29.1125C100 26.161 97.5783 24.4203 95.3079 24.4203H91.1958V22.3013H99.344V17.7102H91.5236C89.5055 17.7102 86.8061 19.3752 86.8061 22.4781V24.0674C86.8061 27.1704 89.4803 28.7597 91.5236 28.7597C97.1998 28.7849 90.1614 28.7597 95.4086 28.7597V30.9796L87.0587 31.0047Z" fill="black"/>
<path d="M1.76595 35.5457H21.6953C21.6953 35.5457 17.886 18.1643 30.4996 11.1259C33.2493 9.78895 42.0031 4.7939 56.332 15.3892C56.786 15.0107 57.215 14.7081 57.215 14.7081C57.215 14.7081 44.0969 1.61527 29.4905 3.07861C22.1495 3.73449 13.1181 10.4196 7.82042 19.2492C2.52276 28.0787 1.76595 35.5457 1.76595 35.5457ZM43.2897 4.4913L43.3906 2.80105C43.1635 2.67488 42.5329 2.37227 40.9435 1.91807L40.8426 3.58309C41.6751 3.86066 42.4824 4.16326 43.2897 4.4913ZM40.8931 9.83942L40.7921 11.4287C41.6246 11.454 42.4572 11.5549 43.2897 11.7315L43.3906 10.1675C42.5329 9.99082 41.7003 9.88989 40.8931 9.83942ZM31.559 1.96854H31.8114L31.3067 0.429688C30.5247 0.429688 29.7174 0.480154 28.8849 0.581088L29.3641 2.06947C30.0959 1.99377 30.8275 1.96854 31.559 1.96854ZM32.7699 11.2521L33.35 12.9928C34.0816 12.6396 34.8132 12.3369 35.5447 12.1098L34.9898 10.4448C34.1323 10.6972 33.4007 10.9745 32.7699 11.2521ZM21.3168 4.61746L20.1815 2.87675C19.5508 3.20478 18.895 3.55785 18.2139 3.96159L19.3742 5.72754C20.0303 5.3238 20.6609 4.9453 21.3168 4.61746ZM26.4885 15.9696L27.6993 17.786C28.1281 17.1554 28.6327 16.5752 29.1877 15.9948L28.0524 14.2793C27.4722 14.809 26.9425 15.3894 26.4885 15.9696ZM22.8304 24.0926L24.8737 25.7072C24.9747 24.7232 25.1513 23.7395 25.4034 22.7556L23.587 21.3177C23.2594 22.2512 23.0323 23.1844 22.8304 24.0926ZM11.7811 12.1098L9.98991 10.5458C9.33403 11.1764 8.70339 11.807 8.12302 12.4379L10.0654 14.1029C10.5953 13.4216 11.1755 12.7405 11.7811 12.1098ZM4.16254 23.3863L1.26148 22.3267C0.782042 23.4115 0.252335 24.673 0 25.3541L2.90107 26.4137C3.2291 25.5558 3.75881 24.3197 4.16254 23.3863ZM22.4521 30.5003C22.5026 31.8373 22.6287 32.9222 22.7549 33.679L25.7821 34.7638C25.555 33.7799 25.3281 32.67 25.1767 31.4843L22.4521 30.5003Z" fill="black"/>
</g>
<defs>
<clipPath id="clip0_506_139">
<rect width="100" height="36" fill="white"/>
</clipPath>
</defs>
</svg>
