<svg width="105" height="36" viewBox="0 0 105 36" fill="none" xmlns="http://www.w3.org/2000/svg">
<g clip-path="url(#clip0_506_24)">
<path d="M33.2 11.7004C32.8 11.6004 32.3 11.4004 31.9 11.3004C32 11.0004 32 10.7004 32.1 10.4004C33.1 5.60039 32.4 1.80039 30.2 0.500391C28.1 -0.699609 24.6 0.600391 21.2 3.60039C20.9 3.90039 20.5 4.20039 20.2 4.50039C20 4.30039 19.8 4.10039 19.5 3.90039C15.9 0.700391 12.2 -0.699609 10 0.600391C7.9 1.70039 7.3 5.40039 8.2 9.90039C8.3 10.3004 8.4 10.8004 8.5 11.2004C8 11.3004 7.5 11.5004 7 11.7004C2.7 13.2004 0 15.5004 0 18.0004C0 20.5004 2.9 23.0004 7.4 24.5004C7.8 24.6004 8.1 24.7004 8.5 24.8004C8.4 25.3004 8.3 25.8004 8.2 26.2004C7.4 30.7004 8 34.2004 10.1 35.4004C12.3 36.7004 15.9 35.4004 19.5 32.3004C19.8 32.1004 20.1 31.8004 20.3 31.5004C20.7 31.9004 21 32.2004 21.4 32.5004C24.8 35.5004 28.2 36.6004 30.3 35.4004C32.5 34.1004 33.2 30.3004 32.3 25.7004C32.2 25.3004 32.1 25.0004 32.1 24.6004C32.4 24.5004 32.6 24.4004 32.9 24.4004C37.5 22.9004 40.5 20.4004 40.5 17.8004C40.4 15.5004 37.6 13.2004 33.2 11.7004ZM22.4 4.90039C25.4 2.30039 28.2 1.30039 29.4 2.00039C30.8 2.80039 31.3 5.90039 30.4 10.1004C30.3 10.4004 30.3 10.6004 30.2 10.9004C28.5 10.5004 26.7 10.2004 24.8 10.0004C23.7 8.40039 22.5 7.00039 21.4 5.70039C21.7 5.40039 22.1 5.10039 22.4 4.90039ZM12.8 18.0004C13.3 16.9004 13.9 15.8004 14.5 14.7004C15.1 13.6004 15.8 12.6004 16.5 11.6004C17.7 11.5004 18.9 11.5004 20.2 11.5004C21.5 11.5004 22.7 11.5004 23.9 11.6004C24.6 12.6004 25.2 13.6004 25.8 14.7004C26.4 15.8004 27 16.9004 27.5 17.9004C27 19.0004 26.4 20.1004 25.8 21.2004C25.2 22.3004 24.5 23.3004 23.9 24.3004C22.7 24.4004 21.5 24.4004 20.2 24.4004C18.9 24.4004 17.7 24.4004 16.5 24.3004C15.8 23.3004 15.2 22.3004 14.5 21.2004C13.9 20.2004 13.4 19.1004 12.8 18.0004ZM11.9 20.0004C12.3 20.7004 12.6 21.4004 13 22.1004C13.4 22.8004 13.8 23.5004 14.3 24.2004C13 24.1004 11.7 23.9004 10.6 23.6004C11 22.5004 11.4 21.3004 11.9 20.0004ZM11.9 16.0004C11.4 14.8004 11 13.6004 10.6 12.5004C11.8 12.2004 13 12.0004 14.3 11.9004C13.9 12.6004 13.5 13.2004 13.1 13.9004C12.7 14.6004 12.3 15.3004 11.9 16.0004ZM27.3 22.1004C27.7 21.4004 28.1 20.7004 28.5 20.0004C29 21.2004 29.5 22.4004 29.9 23.6004C28.7 23.9004 27.5 24.1004 26.1 24.2004C26.5 23.5004 26.9 22.8004 27.3 22.1004ZM28.5 16.0004C28.1 15.3004 27.7 14.6004 27.3 13.9004C26.9 13.2004 26.5 12.5004 26.1 11.9004C27.4 12.1004 28.6 12.3004 29.8 12.5004C29.4 13.6004 29 14.8004 28.5 16.0004ZM20.2 7.00039C21 7.90039 21.8 8.80039 22.6 9.90039C21.8 9.90039 21 9.80039 20.2 9.80039C19.4 9.80039 18.6 9.80039 17.8 9.90039C18.6 8.80039 19.4 7.80039 20.2 7.00039ZM10.9 2.00039C12.3 1.20039 15.2 2.30039 18.4 5.10039C18.6 5.30039 18.8 5.50039 19 5.70039C17.8 7.00039 16.7 8.40039 15.6 10.0004C13.7 10.2004 11.9 10.5004 10.2 10.8004C10.1 10.4004 10 10.0004 9.9 9.60039C9.1 5.70039 9.6 2.80039 10.9 2.00039ZM8.9 23.2004C8.6 23.1004 8.2 23.0004 7.9 22.9004C5.9 22.2004 4.3 21.4004 3.2 20.4004C2.2 19.5004 1.7 18.7004 1.7 18.0004C1.7 16.5004 3.9 14.7004 7.6 13.4004C8 13.2004 8.5 13.0004 9 12.9004C9.5 14.5004 10.2 16.3004 11 18.0004C10.1 19.8004 9.5 21.5004 8.9 23.2004ZM18.3 31.1004C16.7 32.5004 15.2 33.4004 13.8 33.9004C12.6 34.3004 11.6 34.4004 11 34.0004C9.7 33.3004 9.2 30.4004 9.9 26.6004C10 26.2004 10.1 25.7004 10.2 25.3004C11.9 25.7004 13.7 25.9004 15.6 26.1004C16.7 27.7004 17.9 29.1004 19.1 30.4004C18.8 30.6004 18.6 30.8004 18.3 31.1004ZM20.3 29.1004C19.5 28.2004 18.7 27.2004 17.9 26.2004C18.7 26.2004 19.5 26.2004 20.3 26.2004C21.1 26.2004 21.9 26.2004 22.7 26.1004C21.9 27.3004 21.1 28.2004 20.3 29.1004ZM30.8 31.5004C30.6 32.8004 30.1 33.7004 29.5 34.0004C28.2 34.7004 25.5 33.8004 22.6 31.3004C22.3 31.0004 21.9 30.7004 21.6 30.4004C22.7 29.2004 23.9 27.7004 25 26.1004C27 25.9004 28.8 25.6004 30.5 25.3004C30.6 25.6004 30.7 26.0004 30.7 26.3004C31 28.2004 31 30.1004 30.8 31.5004ZM32.2 22.9004C32 23.0004 31.8 23.0004 31.5 23.1004C31 21.5004 30.3 19.8004 29.5 18.0004C30.3 16.3004 31 14.6004 31.5 13.0004C31.9 13.1004 32.3 13.2004 32.7 13.4004C36.4 14.7004 38.7 16.6004 38.7 18.1004C38.7 19.5004 36.2 21.6004 32.2 22.9004Z" fill="black"/>
<path d="M20.2001 14.4004C22.2001 14.4004 23.8001 16.0004 23.8001 18.0004C23.8001 20.0004 22.2001 21.6004 20.2001 21.6004C18.2001 21.6004 16.6001 20.0004 16.6001 18.0004C16.6001 16.0004 18.2001 14.4004 20.2001 14.4004Z" fill="black"/>
<path d="M47.1001 19.3002V26.5002H45.1001V9.2002H49.8001C51.9001 9.2002 53.5001 9.6002 54.5001 10.4002C55.5001 11.2002 56.0001 12.4002 56.0001 14.1002C56.0001 16.4002 54.8001 17.9002 52.5001 18.7002L57.2001 26.5002H54.8001L50.6001 19.3002H47.1001ZM47.1001 17.6002H49.9001C51.3001 17.6002 52.4001 17.3002 53.0001 16.8002C53.7001 16.2002 54.0001 15.4002 54.0001 14.3002C54.0001 13.2002 53.7001 12.3002 53.0001 11.8002C52.3001 11.3002 51.2001 11.0002 49.8001 11.0002H47.2001L47.1001 17.6002Z" fill="black"/>
<path d="M65.2 26.7998C63.3 26.7998 61.8 26.1998 60.7 24.9998C59.6 23.7998 59 22.1998 59 20.0998C59 17.9998 59.5 16.2998 60.5 15.0998C61.5 13.8998 62.9 13.2998 64.6 13.2998C66.2 13.2998 67.5 13.7998 68.5 14.8998C69.4 15.9998 69.9 17.3998 69.9 19.0998V20.2998H61C61 21.7998 61.4 22.9998 62.2 23.7998C62.9 24.5998 64 24.9998 65.3 24.9998C66.7 24.9998 68.1 24.6998 69.4 24.0998V25.8998C68.7 26.1998 68 26.3998 67.4 26.4998C66.8 26.6998 66.1 26.7998 65.2 26.7998ZM64.7 14.9998C63.7 14.9998 62.8 15.2998 62.2 15.9998C61.6 16.6998 61.2 17.5998 61.1 18.7998H67.9C67.9 17.5998 67.6 16.5998 67.1 15.9998C66.5 15.2998 65.7 14.9998 64.7 14.9998Z" fill="black"/>
<path d="M81.2999 26.5004L80.8999 24.7004H80.7999C80.1999 25.5004 79.4999 26.1004 78.8999 26.4004C78.2999 26.7004 77.4999 26.8004 76.4999 26.8004C75.1999 26.8004 74.1999 26.5004 73.4999 25.8004C72.7999 25.1004 72.3999 24.2004 72.3999 23.0004C72.3999 20.4004 74.4999 19.0004 78.6999 18.9004L80.8999 18.8004V18.0004C80.8999 17.0004 80.6999 16.2004 80.1999 15.7004C79.7999 15.2004 79.0999 15.0004 78.0999 15.0004C76.9999 15.0004 75.7999 15.3004 74.3999 16.0004L73.7999 14.5004C74.3999 14.2004 75.0999 13.9004 75.8999 13.7004C76.6999 13.5004 77.3999 13.4004 78.1999 13.4004C79.6999 13.4004 80.8999 13.7004 81.5999 14.4004C82.2999 15.1004 82.6999 16.2004 82.6999 17.7004V26.6004L81.2999 26.5004ZM76.8999 25.1004C78.0999 25.1004 79.0999 24.8004 79.7999 24.1004C80.4999 23.4004 80.7999 22.5004 80.7999 21.3004V20.1004L78.7999 20.2004C77.1999 20.3004 76.0999 20.5004 75.3999 20.9004C74.6999 21.3004 74.3999 22.0004 74.3999 22.9004C74.3999 23.6004 74.5999 24.2004 74.9999 24.5004C75.4999 25.0004 76.0999 25.1004 76.8999 25.1004Z" fill="black"/>
<path d="M92.0001 26.8004C90.1001 26.8004 88.7001 26.2004 87.6001 25.1004C86.6001 23.9004 86.1001 22.3004 86.1001 20.2004C86.1001 18.0004 86.6001 16.4004 87.7001 15.2004C88.7001 14.0004 90.2001 13.4004 92.2001 13.4004C92.8001 13.4004 93.4001 13.5004 94.1001 13.6004C94.7001 13.7004 95.2001 13.9004 95.6001 14.1004L95.0001 15.8004C94.6001 15.6004 94.1001 15.5004 93.6001 15.4004C93.1001 15.3004 92.6001 15.2004 92.2001 15.2004C89.6001 15.2004 88.2001 16.9004 88.2001 20.2004C88.2001 21.8004 88.5001 23.0004 89.2001 23.9004C89.8001 24.8004 90.8001 25.2004 92.1001 25.2004C93.2001 25.2004 94.3001 25.0004 95.4001 24.5004V26.2004C94.4001 26.5004 93.3001 26.8004 92.0001 26.8004Z" fill="black"/>
<path d="M102.5 25.1C102.8 25.1 103.2 25.1 103.5 25C103.8 24.9 104.1 24.9 104.3 24.8V26.3C104.1 26.4 103.8 26.5 103.4 26.6C103 26.7 102.6 26.7 102.3 26.7C99.8001 26.7 98.5001 25.4 98.5001 22.7V15H96.6001V14.1L98.5001 13.3L99.3001 10.5H100.4V13.5H104.2V15H100.4V22.6C100.4 23.4 100.6 24 101 24.4C101.4 24.9 101.9 25.1 102.5 25.1Z" fill="black"/>
</g>
<defs>
<clipPath id="clip0_506_24">
<rect width="105" height="36" fill="white"/>
</clipPath>
</defs>
</svg>
