<svg width="116" height="117" viewBox="0 0 116 117" fill="none" xmlns="http://www.w3.org/2000/svg">
<path d="M58 87.7812V111.328" stroke="#0A2149" stroke-width="10" stroke-linecap="round" stroke-linejoin="round"/>
<path d="M66.2774 69.5258C67.5868 69.5258 68.8425 70.0458 69.7684 70.9713C70.6942 71.8969 71.2144 73.1522 71.2144 74.4611C71.2144 75.77 70.6942 77.0253 69.7684 77.9508C68.8425 78.8763 67.5868 79.3963 66.2774 79.3963C64.968 79.3963 63.7123 78.8763 62.7864 77.9508C61.8605 77.0253 61.3404 75.77 61.3404 74.4611C61.3404 71.722 63.5374 69.5258 66.2774 69.5258ZM26.7815 30.0439H34.8535L37.1738 34.9792H73.6829C74.3375 34.9792 74.9654 35.2392 75.4284 35.7019C75.8913 36.1647 76.1514 36.7923 76.1514 37.4468C76.1514 37.8663 76.0279 38.2858 75.8551 38.6806L67.0179 54.6461C66.1786 56.1513 64.5494 57.1877 62.6981 57.1877H44.3078L42.0862 61.21L42.0121 61.5061C42.0121 61.6697 42.0771 61.8266 42.1928 61.9423C42.3086 62.058 42.4655 62.123 42.6292 62.123H71.2144V67.0582H41.5925C40.2831 67.0582 39.0273 66.5383 38.1015 65.6127C37.1756 64.6872 36.6555 63.4319 36.6555 62.123C36.6555 61.2593 36.8776 60.445 37.2479 59.7541L40.6051 53.7084L31.7185 34.9792H26.7815V30.0439ZM41.5925 69.5258C42.9018 69.5258 44.1576 70.0458 45.0834 70.9713C46.0093 71.8969 46.5294 73.1522 46.5294 74.4611C46.5294 75.77 46.0093 77.0253 45.0834 77.9508C44.1576 78.8763 42.9018 79.3963 41.5925 79.3963C40.2831 79.3963 39.0273 78.8763 38.1015 77.9508C37.1756 77.0253 36.6555 75.77 36.6555 74.4611C36.6555 71.722 38.8524 69.5258 41.5925 69.5258ZM63.8089 52.2525L70.6713 39.9144H39.4695L45.2952 52.2525H63.8089Z" fill="#051C45"/>
<path d="M60.9443 5.36816H13.8333C8.95482 5.36816 5 9.32158 5 14.1983V78.953C5 83.8299 8.95482 87.7832 13.8333 87.7832H102.166C107.045 87.7832 111 83.8299 111 78.953V55.4059" stroke="#051C45" stroke-width="10" stroke-linecap="round" stroke-linejoin="round"/>
<path d="M75.666 23.0303H110.999" stroke="#0A2149" stroke-width="10" stroke-linecap="round" stroke-linejoin="round"/>
<path d="M93.3335 5.36816V40.6889" stroke="#0A2149" stroke-width="10" stroke-linecap="round" stroke-linejoin="round"/>
<path d="M28.5581 111.331H87.4469" stroke="#0A2149" stroke-width="10" stroke-linecap="round" stroke-linejoin="round"/>
</svg>
