<svg width="125" height="113" viewBox="0 0 125 113" fill="none" xmlns="http://www.w3.org/2000/svg">
<g filter="url(#filter0_d_411_272)">
<path d="M48.2936 18.1797H73.7638C74.7288 18.1797 75.6543 18.557 76.3366 19.2287C77.019 19.9004 77.4023 20.8115 77.4023 21.7614V64.7418C77.4023 65.6918 77.019 66.6028 76.3366 67.2745C75.6543 67.9462 74.7288 68.3235 73.7638 68.3235H48.2936C47.3286 68.3235 46.4031 67.9462 45.7207 67.2745C45.0384 66.6028 44.655 65.6918 44.655 64.7418V21.7614C44.655 20.8115 45.0384 19.9004 45.7207 19.2287C46.4031 18.557 47.3286 18.1797 48.2936 18.1797ZM59.2094 64.7418H62.848V61.1601H59.2094V64.7418ZM73.7638 57.5784V21.7614H48.2936V57.5784H73.7638Z" fill="#051C45"/>
</g>
<path d="M12.4986 77.0868H112.485V12.2677H12.4986V77.0868ZM68.7409 88.8721V100.657H93.7375V112.443H31.246V100.657H56.2426V88.8721H6.19947C5.37833 88.8675 4.56625 88.7101 3.80982 88.4088C3.05339 88.1075 2.36751 87.6683 1.79153 87.1164C1.21556 86.5645 0.76083 85.9108 0.453446 85.1928C0.146061 84.4748 -0.00792829 83.7066 0.000314229 82.9324V6.42221C0.000314229 3.14001 2.84368 0.482422 6.19947 0.482422H118.784C122.209 0.482422 124.983 3.12822 124.983 6.41632V82.9324C124.983 86.2146 122.14 88.8721 118.784 88.8721H68.7409Z" fill="#051C45"/>
<g filter="url(#filter1_d_411_272)">
<path d="M84.8749 42.3606C84.7292 42.1991 84.6488 41.9916 84.6488 41.7766C84.6488 41.5617 84.7292 41.3542 84.8749 41.1927L86.0385 39.9186C86.1667 39.7794 86.2464 39.6043 86.266 39.4183C86.2856 39.2323 86.2441 39.0451 86.1476 38.8834L84.3295 35.8221C84.2339 35.6607 84.0885 35.5327 83.9138 35.4565C83.7391 35.3802 83.5442 35.3595 83.3568 35.3974L81.6477 35.7337C81.4303 35.7774 81.2039 35.7421 81.0113 35.6346C80.8187 35.527 80.6732 35.3545 80.6023 35.1497L80.0478 33.5306C79.9868 33.3548 79.8706 33.2022 79.7156 33.0943C79.5606 32.9863 79.3747 32.9285 79.1841 32.9289H75.5479C75.3496 32.9189 75.1535 32.9722 74.9893 33.0809C74.8251 33.1895 74.702 33.3475 74.6388 33.5306L74.1297 35.1497C74.0588 35.3545 73.9133 35.527 73.7207 35.6346C73.5281 35.7421 73.3018 35.7774 73.0843 35.7337L71.3298 35.3974C71.1521 35.373 70.971 35.4003 70.8092 35.4759C70.6474 35.5514 70.5123 35.6719 70.4207 35.8221L68.6026 38.8834C68.5036 39.0433 68.4591 39.2295 68.4755 39.4154C68.4918 39.6013 68.5681 39.7775 68.6935 39.9186L69.848 41.1927C69.9937 41.3542 70.0741 41.5617 70.0741 41.7766C70.0741 41.9916 69.9937 42.1991 69.848 42.3606L68.6935 43.6347C68.5681 43.7758 68.4918 43.952 68.4755 44.1379C68.4591 44.3238 68.5036 44.51 68.6026 44.6699L70.4207 47.7312C70.5163 47.8926 70.6617 48.0206 70.8364 48.0968C71.011 48.1731 71.206 48.1938 71.3934 48.1558L73.1025 47.8196C73.3199 47.7759 73.5463 47.8112 73.7389 47.9187C73.9315 48.0263 74.077 48.1988 74.1479 48.4036L74.7024 50.0227C74.7657 50.2058 74.8888 50.3638 75.0529 50.4724C75.2171 50.5811 75.4133 50.6344 75.6115 50.6244H79.2478C79.4384 50.6248 79.6243 50.567 79.7792 50.459C79.9342 50.3511 80.0504 50.1985 80.1114 50.0227L80.6659 48.4036C80.7368 48.1988 80.8823 48.0263 81.0749 47.9187C81.2675 47.8112 81.4939 47.7759 81.7114 47.8196L83.4204 48.1558C83.6078 48.1938 83.8028 48.1731 83.9774 48.0968C84.1521 48.0206 84.2976 47.8926 84.3931 47.7312L86.2112 44.6699C86.3078 44.5082 86.3492 44.321 86.3296 44.135C86.31 43.949 86.2304 43.7739 86.1022 43.6347L84.8749 42.3606ZM83.5204 43.5462L84.2477 44.3425L83.0841 46.3067L82.0113 46.0943C81.3566 45.9641 80.6755 46.0723 80.0974 46.3985C79.5192 46.7247 79.0843 47.2462 78.8751 47.8639L78.5296 48.8548H76.2024L75.8751 47.8462C75.6659 47.2285 75.2309 46.707 74.6528 46.3808C74.0747 46.0546 73.3936 45.9464 72.7388 46.0766L71.6661 46.289L70.4843 44.3336L71.2116 43.5373C71.6588 43.0507 71.9061 42.4207 71.9061 41.7678C71.9061 41.1149 71.6588 40.4849 71.2116 39.9983L70.4843 39.202L71.648 37.2555L72.7207 37.4678C73.3754 37.5981 74.0565 37.4898 74.6346 37.1636C75.2128 36.8374 75.6477 36.316 75.8569 35.6983L76.2024 34.6985H78.5296L78.8751 35.7071C79.0843 36.3248 79.5192 36.8463 80.0974 37.1725C80.6755 37.4987 81.3566 37.6069 82.0113 37.4767L83.0841 37.2643L84.2477 39.2285L83.5204 40.0248C83.0782 40.5103 82.834 41.1367 82.834 41.7855C82.834 42.4343 83.0782 43.0607 83.5204 43.5462ZM77.366 38.2376C76.6468 38.2376 75.9438 38.4451 75.3458 38.834C74.7478 39.2229 74.2817 39.7756 74.0065 40.4223C73.7313 41.069 73.6593 41.7806 73.7996 42.4671C73.9399 43.1536 74.2862 43.7842 74.7948 44.2792C75.3033 44.7741 75.9512 45.1112 76.6566 45.2477C77.362 45.3843 78.0931 45.3142 78.7575 45.0463C79.422 44.7785 79.9899 44.3249 80.3895 43.7429C80.789 43.1609 81.0023 42.4766 81.0023 41.7766C81.0023 40.838 80.6192 39.9378 79.9372 39.2741C79.2553 38.6104 78.3304 38.2376 77.366 38.2376ZM77.366 43.5462C77.0064 43.5462 76.6549 43.4424 76.3559 43.248C76.0569 43.0535 75.8239 42.7772 75.6863 42.4538C75.5487 42.1305 75.5126 41.7747 75.5828 41.4314C75.653 41.0882 75.8261 40.7729 76.0804 40.5254C76.3347 40.2779 76.6586 40.1094 77.0113 40.0411C77.364 39.9728 77.7296 40.0079 78.0618 40.1418C78.394 40.2757 78.678 40.5025 78.8777 40.7935C79.0775 41.0845 79.1841 41.4267 79.1841 41.7766C79.1841 42.246 78.9926 42.6961 78.6516 43.0279C78.3107 43.3598 77.8482 43.5462 77.366 43.5462Z" fill="#051C45"/>
</g>
<defs>
<filter id="filter0_d_411_272" x="40.655" y="18.1797" width="40.7473" height="58.1436" filterUnits="userSpaceOnUse" color-interpolation-filters="sRGB">
<feFlood flood-opacity="0" result="BackgroundImageFix"/>
<feColorMatrix in="SourceAlpha" type="matrix" values="0 0 0 0 0 0 0 0 0 0 0 0 0 0 0 0 0 0 127 0" result="hardAlpha"/>
<feOffset dy="4"/>
<feGaussianBlur stdDeviation="2"/>
<feComposite in2="hardAlpha" operator="out"/>
<feColorMatrix type="matrix" values="0 0 0 0 0 0 0 0 0 0 0 0 0 0 0 0 0 0 0.25 0"/>
<feBlend mode="normal" in2="BackgroundImageFix" result="effect1_dropShadow_411_272"/>
<feBlend mode="normal" in="SourceGraphic" in2="effect1_dropShadow_411_272" result="shape"/>
</filter>
<filter id="filter1_d_411_272" x="64.4722" y="32.9277" width="25.8622" height="25.6982" filterUnits="userSpaceOnUse" color-interpolation-filters="sRGB">
<feFlood flood-opacity="0" result="BackgroundImageFix"/>
<feColorMatrix in="SourceAlpha" type="matrix" values="0 0 0 0 0 0 0 0 0 0 0 0 0 0 0 0 0 0 127 0" result="hardAlpha"/>
<feOffset dy="4"/>
<feGaussianBlur stdDeviation="2"/>
<feComposite in2="hardAlpha" operator="out"/>
<feColorMatrix type="matrix" values="0 0 0 0 0 0 0 0 0 0 0 0 0 0 0 0 0 0 0.25 0"/>
<feBlend mode="normal" in2="BackgroundImageFix" result="effect1_dropShadow_411_272"/>
<feBlend mode="normal" in="SourceGraphic" in2="effect1_dropShadow_411_272" result="shape"/>
</filter>
</defs>
</svg>
