<svg width="151" height="114" viewBox="0 0 151 114" fill="none" xmlns="http://www.w3.org/2000/svg">
<path d="M78.6978 92.6577C72.0951 89.6803 66.4246 85.1679 62.2318 79.5544H12.1074V11.7784H121.074V24.5429C125.975 27.7567 130.099 31.8934 133.181 36.6861V11.7784C133.181 8.78253 131.905 5.90935 129.635 3.79094C127.364 1.67253 124.285 0.482422 121.074 0.482422H12.1074C8.89629 0.482422 5.81673 1.67253 3.54616 3.79094C1.27559 5.90935 0 8.78253 0 11.7784V79.5544C0 82.5503 1.27559 85.4235 3.54616 87.5419C5.81673 89.6603 8.89629 90.8504 12.1074 90.8504H54.4831V102.146H42.3757V113.442H90.8052V102.146H78.6978V92.6577Z" fill="#051C45"/>
<path d="M94.6443 59.6891C102.318 59.6891 108.529 53.9745 108.529 46.9139C108.529 39.8533 102.318 34.1387 94.6443 34.1387C86.9705 34.1387 80.7595 39.8533 80.7595 46.9139C80.7595 53.9745 86.9705 59.6891 94.6443 59.6891ZM104.165 63.3392H103.136C100.558 64.4799 97.6941 65.1642 94.6443 65.1642C91.5946 65.1642 88.7433 64.4799 86.1523 63.3392H85.1233C77.2387 63.3392 70.8418 69.2249 70.8418 76.4794V79.7645C70.8418 82.7872 73.5072 85.2396 76.7924 85.2396H112.496C115.782 85.2396 118.447 82.7872 118.447 79.7645V76.4794C118.447 69.2249 112.05 63.3392 104.165 63.3392ZM130.348 59.6891C136.919 59.6891 142.249 54.7844 142.249 48.7389C142.249 42.6935 136.919 37.7887 130.348 37.7887C123.778 37.7887 118.447 42.6935 118.447 48.7389C118.447 54.7844 123.778 59.6891 130.348 59.6891ZM136.299 63.3392H135.828C134.105 63.8867 132.282 64.2517 130.348 64.2517C128.414 64.2517 126.592 63.8867 124.869 63.3392H124.398C121.869 63.3392 119.538 64.0122 117.492 65.0958C120.517 68.0957 122.414 72.0766 122.414 76.4794V80.8595C122.414 81.1105 122.352 81.35 122.34 81.5895H144.233C147.518 81.5895 150.184 79.1372 150.184 76.1144C150.184 69.0538 143.973 63.3392 136.299 63.3392Z" fill="#051C45"/>
</svg>
