<svg width="118" height="114" viewBox="0 0 118 114" fill="none" xmlns="http://www.w3.org/2000/svg">
<path d="M36.5099 7.68012C37.616 4.94442 36.1873 1.87779 33.33 0.840866C30.4726 -0.196054 27.2696 1.14974 26.1866 3.88544L18.6976 22.55C16.8772 27.1169 18.0063 32.2794 21.624 35.7211L34.8508 48.3847L16.3241 42.4721C15.7711 42.2956 15.3333 41.8764 15.1489 41.3469L10.7938 28.8156C9.82596 26.0358 6.69209 24.5356 3.78866 25.4622C0.885226 26.3888 -0.681707 29.3893 0.286105 32.1691L4.64126 44.7004C5.93167 48.3847 8.95032 51.2749 12.7985 52.5104L26.7627 56.9669L12.8216 61.4235C8.97336 62.6589 5.95471 65.5491 4.6643 69.2334L0.286105 81.7647C-0.681707 84.5446 0.885226 87.545 3.78866 88.4716C6.69209 89.3982 9.82596 87.898 10.7938 85.1182L15.1489 72.5869C15.3333 72.0574 15.7711 71.6382 16.3241 71.4617L34.8508 65.5491L21.601 78.2127C18.0063 81.6765 16.8541 86.839 18.6976 91.3838L26.1866 110.048C27.2927 112.784 30.4726 114.13 33.33 113.093C36.1873 112.056 37.5929 108.989 36.5099 106.254L29.0209 87.5891C28.7674 86.9273 28.9287 86.1992 29.4357 85.7138L36.8786 78.5657C37.109 90.0601 46.9254 99.3262 59 99.3262C71.0746 99.3262 80.891 90.0821 81.1214 78.5657L88.5643 85.6918C89.0713 86.1772 89.2326 86.9273 88.9791 87.5671L81.4901 106.232C80.384 108.967 81.8127 112.034 84.67 113.071C87.5274 114.108 90.7304 112.762 91.8134 110.026L99.3024 91.3838C101.123 86.817 99.9937 81.6544 96.376 78.2127L83.1492 65.5491L101.676 71.4617C102.229 71.6382 102.667 72.0574 102.851 72.5869L107.206 85.1182C108.174 87.898 111.308 89.3982 114.211 88.4716C117.115 87.545 118.682 84.5446 117.714 81.7647L113.359 69.2334C112.068 65.5491 109.05 62.6589 105.201 61.4235L91.2373 56.9669L105.178 52.5104C109.027 51.2749 112.045 48.3847 113.336 44.7004L117.691 32.1691C118.659 29.3893 117.092 26.3888 114.188 25.4622C111.285 24.5356 108.151 26.0358 107.183 28.8156L102.828 41.3469C102.644 41.8764 102.206 42.2956 101.653 42.4721L83.1262 48.3847L96.3529 35.7211C99.9476 32.2794 101.1 27.1169 99.2794 22.55L91.8134 3.88544C90.7073 1.14974 87.5274 -0.218116 84.67 0.840866C81.8127 1.89985 80.4071 4.94442 81.4901 7.68012L88.9791 26.3447C89.2326 27.0065 89.0713 27.7346 88.5643 28.22L77.4345 38.898V35.7873C77.4345 28.7715 73.1485 22.7044 66.9499 19.8584C64.8529 18.8877 62.6869 20.5865 62.6869 22.8147V25.1974C62.6869 27.1389 61.0278 28.7274 59 28.7274C56.9722 28.7274 55.3131 27.1389 55.3131 25.1974V22.8147C55.3131 20.5865 53.147 18.9097 51.0501 19.8584C44.8515 22.7044 40.5655 28.7715 40.5655 35.7873V38.898L29.4357 28.242C28.9287 27.7567 28.7674 27.0065 29.0209 26.3667L36.5099 7.70219V7.68012Z" fill="#051C45"/>
</svg>
