<svg width="114" height="115" viewBox="0 0 114 115" fill="none" xmlns="http://www.w3.org/2000/svg">
<path d="M110 20.6701V12.5191C110 10.3574 109.141 8.28412 107.612 6.75552C106.083 5.22692 104.009 4.36816 101.846 4.36816H93.6923M69.2308 4.36816H44.7692M4 20.6701V12.5191C4 10.3574 4.85906 8.28412 6.38821 6.75552C7.91735 5.22692 9.99131 4.36816 12.1538 4.36816H20.3077M4 77.7268V102.18C4 104.341 4.85906 106.415 6.38821 107.943C7.91735 109.472 9.99131 110.331 12.1538 110.331H101.846C104.009 110.331 106.083 109.472 107.612 107.943C109.141 106.415 110 104.341 110 102.18V77.7268M4 45.1229V57.3494H110V45.1229" stroke="#051C45" stroke-width="8" stroke-linecap="round" stroke-linejoin="round"/>
<path d="M58.8582 23.0456H63.7786V38.1593C63.7786 39.8562 63.3733 41.3411 62.5627 42.6138C61.7597 43.8865 60.6347 44.879 59.1877 45.5911C57.7408 46.2956 56.0551 46.6479 54.1309 46.6479C52.1991 46.6479 50.5097 46.2956 49.0627 45.5911C47.6158 44.879 46.4908 43.8865 45.6877 42.6138C44.8847 41.3411 44.4832 39.8562 44.4832 38.1593V23.0456H49.4036V37.7388C49.4036 38.6252 49.5968 39.4131 49.9832 40.1024C50.3771 40.7918 50.9301 41.3335 51.6423 41.7275C52.3544 42.1214 53.1839 42.3184 54.1309 42.3184C55.0854 42.3184 55.915 42.1214 56.6195 41.7275C57.3317 41.3335 57.8809 40.7918 58.2673 40.1024C58.6612 39.4131 58.8582 38.6252 58.8582 37.7388V23.0456ZM72.7474 23.0456V46.3184H67.8269V23.0456H72.7474Z" fill="#051C45"/>
<path d="M53.2293 75.5779H58.1497V90.6915C58.1497 92.3885 57.7444 93.8733 56.9338 95.146C56.1308 96.4188 55.0058 97.4112 53.5588 98.1233C52.1118 98.8279 50.4262 99.1801 48.502 99.1801C46.5702 99.1801 44.8808 98.8279 43.4338 98.1233C41.9868 97.4112 40.8618 96.4188 40.0588 95.146C39.2558 93.8733 38.8543 92.3885 38.8543 90.6915V75.5779H43.7747V90.271C43.7747 91.1574 43.9679 91.9453 44.3543 92.6347C44.7482 93.3241 45.3012 93.8657 46.0134 94.2597C46.7255 94.6536 47.555 94.8506 48.502 94.8506C49.4565 94.8506 50.2861 94.6536 50.9906 94.2597C51.7028 93.8657 52.252 93.3241 52.6384 92.6347C53.0323 91.9453 53.2293 91.1574 53.2293 90.271V75.5779ZM66.8117 75.5779L71.5048 83.5097H71.6867L76.4026 75.5779H81.9594L74.8571 87.2142L82.1185 98.8506H76.4594L71.6867 90.9074H71.5048L66.7321 98.8506H61.0957L68.3798 87.2142L61.2321 75.5779H66.8117Z" fill="#051C45"/>
</svg>
