<svg width="87" height="33" viewBox="0 0 87 33" fill="none" xmlns="http://www.w3.org/2000/svg">
<g clip-path="url(#clip0_506_8)">
<path d="M27.9901 1.41113H34.9876L17.4938 31.588L0 1.41113H6.91006H13.3828L17.4938 8.40866L21.5174 1.41113H27.9901Z" fill="black"/>
<path d="M6.91016 1.41113L17.4939 19.6047L27.9902 1.41113H21.5175L17.4939 8.40866L13.3829 1.41113H6.91016Z" fill="white"/>
<path d="M47.0522 9.99316H48.6642L44.0219 22.8716H42.542L37.9263 9.99316H39.5119L42.4717 18.3262C42.8121 19.2836 43.0824 20.2143 43.2821 21.1187C43.4935 20.1673 43.7695 19.2191 44.1102 18.2735L47.0522 9.99316Z" fill="black"/>
<path d="M51.5888 13.2168V19.4799C51.5888 20.2669 51.7679 20.8541 52.1261 21.2417C52.4842 21.6293 53.0452 21.8231 53.8087 21.8231C54.8187 21.8231 55.5573 21.5471 56.0241 20.995C56.491 20.4431 56.7244 19.5415 56.7244 18.2907V13.2168H58.1867V22.8712H56.9799L56.7684 21.5762H56.6892C56.3897 22.0519 55.9742 22.4162 55.4427 22.6685C54.9111 22.9211 54.3049 23.0472 53.6236 23.0472C52.449 23.0472 51.5698 22.7684 50.9854 22.2104C50.401 21.6526 50.1089 20.76 50.1089 19.5325V13.2168H51.5888Z" fill="black"/>
<path d="M65.3659 23.0477C63.9389 23.0477 62.8126 22.6133 61.9877 21.744C61.1626 20.8751 60.75 19.6683 60.75 18.1237C60.75 16.5675 61.1332 15.3313 61.8995 14.4152C62.6658 13.4991 63.6951 13.041 64.9871 13.041C66.1969 13.041 67.154 13.439 67.8588 14.2346C68.5634 15.0304 68.9158 16.08 68.9158 17.3837V18.3087H62.2651C62.2945 19.4422 62.5808 20.3026 63.124 20.8897C63.6671 21.4771 64.432 21.7706 65.4187 21.7706C66.458 21.7706 67.4857 21.5534 68.5018 21.1186V22.4223C67.9851 22.6457 67.4962 22.8056 67.0352 22.9025C66.5741 22.9992 66.0178 23.0477 65.3659 23.0477ZM64.9696 14.2653C64.1944 14.2653 63.5763 14.5179 63.1154 15.0229C62.6542 15.528 62.3828 16.2268 62.3005 17.1193H67.348C67.348 16.1974 67.1423 15.4912 66.7314 15.0009C66.3203 14.5106 65.7329 14.2653 64.9696 14.2653Z" fill="black"/>
<path d="M71.1973 21.9373C71.1973 21.544 71.2866 21.2458 71.466 21.0432C71.6451 20.8407 71.9019 20.7393 72.2368 20.7393C72.5772 20.7393 72.8432 20.8405 73.034 21.0432C73.2248 21.2458 73.3203 21.544 73.3203 21.9373C73.3203 22.3192 73.2234 22.6127 73.0296 22.8182C72.8358 23.0237 72.5715 23.1265 72.2368 23.1265C71.9373 23.1265 71.6891 23.034 71.4925 22.849C71.2955 22.6641 71.1973 22.3602 71.1973 21.9373Z" fill="black"/>
<path d="M75.0377 27.2053C74.4799 27.2053 74.0277 27.1318 73.6812 26.9851V25.796C74.0864 25.9134 74.4859 25.9721 74.8792 25.9721C75.3373 25.9721 75.6734 25.8474 75.8878 25.5978C76.1021 25.3481 76.2094 24.968 76.2094 24.457V13.217H77.6717V24.3512C77.6717 26.2541 76.7937 27.2053 75.0377 27.2053ZM76.086 10.6008C76.086 10.2661 76.1683 10.0209 76.3327 9.86527C76.497 9.70974 76.7027 9.63184 76.9494 9.63184C77.1842 9.63184 77.3867 9.71111 77.5571 9.86964C77.7274 10.0282 77.8126 10.272 77.8126 10.6008C77.8126 10.9298 77.7274 11.175 77.5571 11.3364C77.3867 11.4979 77.1842 11.5786 76.9494 11.5786C76.7027 11.5786 76.497 11.4979 76.3327 11.3364C76.1683 11.1748 76.086 10.9298 76.086 10.6008Z" fill="black"/>
<path d="M87.0002 20.2378C87.0002 21.1363 86.6655 21.8295 85.996 22.3167C85.3265 22.8042 84.3869 23.0479 83.1771 23.0479C81.8968 23.0479 80.8986 22.8453 80.1821 22.4401V21.0835C80.646 21.3186 81.1436 21.5035 81.6753 21.6385C82.2068 21.7737 82.7192 21.8411 83.2124 21.8411C83.9757 21.8411 84.5631 21.7193 84.9742 21.4755C85.3852 21.2319 85.5909 20.8605 85.5909 20.3612C85.5909 19.9855 85.428 19.6639 85.102 19.3966C84.776 19.1295 84.1404 18.8138 83.1949 18.4496C82.2964 18.1149 81.6578 17.8228 81.2789 17.5731C80.9002 17.3237 80.6183 17.0403 80.4332 16.7231C80.2482 16.406 80.1558 16.0273 80.1558 15.5868C80.1558 14.8 80.4758 14.1789 81.1159 13.7237C81.7559 13.2686 82.6339 13.041 83.7496 13.041C84.789 13.041 85.805 13.2524 86.7975 13.6753L86.2778 14.8645C85.3088 14.4653 84.4308 14.2654 83.644 14.2654C82.9511 14.2654 82.4283 14.3741 82.076 14.5914C81.7237 14.8087 81.5475 15.1083 81.5475 15.4899C81.5475 15.7483 81.6135 15.9685 81.7456 16.1505C81.8778 16.3327 82.0905 16.5059 82.3843 16.6702C82.6779 16.8347 83.2416 17.0725 84.0756 17.3837C85.2208 17.8008 85.9945 18.2205 86.3967 18.6434C86.799 19.0663 87.0002 19.5978 87.0002 20.2378Z" fill="black"/>
</g>
<defs>
<clipPath id="clip0_506_8">
<rect width="87" height="33" fill="white"/>
</clipPath>
</defs>
</svg>
