<svg width="18" height="18" viewBox="0 0 18 18" fill="none" xmlns="http://www.w3.org/2000/svg">
<path d="M3.62 7.41256C5.06 10.1054 7.38 12.3035 10.21 13.6833L12.41 11.5898C12.68 11.3329 13.08 11.2473 13.43 11.3615C14.55 11.7135 15.76 11.9039 17 11.9039C17.55 11.9039 18 12.3321 18 12.8554V16.1763C18 16.6997 17.55 17.1279 17 17.1279C7.61 17.1279 0 9.88658 0 0.951548C0 0.428196 0.45 0 1 0H4.5C5.05 0 5.5 0.428196 5.5 0.951548C5.5 2.14098 5.7 3.28284 6.07 4.34857C6.18 4.68161 6.1 5.05272 5.82 5.31915L3.62 7.41256Z" fill="white"/>
</svg>
