<svg width="14" height="20" viewBox="0 0 14 20" fill="none" xmlns="http://www.w3.org/2000/svg">
<path d="M14 6.81708C14 5.94237 13.8189 5.07622 13.4672 4.26809C13.1154 3.45996 12.5998 2.72568 11.9497 2.10716C11.2997 1.48865 10.5281 0.998014 9.67878 0.663276C8.8295 0.328537 7.91925 0.15625 7 0.15625C6.08075 0.15625 5.17049 0.328537 4.32122 0.663276C3.47194 0.998014 2.70026 1.48865 2.05025 2.10716C1.40024 2.72568 0.884626 3.45996 0.532843 4.26809C0.18106 5.07622 -1.36979e-08 5.94237 0 6.81708C0 8.13688 0.409 9.36438 1.105 10.3997H1.097L7 19.1872L12.903 10.3997H12.896C13.6169 9.33067 14.0001 8.08722 14 6.81708ZM7 9.67173C6.20435 9.67173 5.44129 9.37097 4.87868 8.83562C4.31607 8.30027 4 7.57418 4 6.81708C4 6.05998 4.31607 5.33389 4.87868 4.79855C5.44129 4.2632 6.20435 3.96244 7 3.96244C7.79565 3.96244 8.55871 4.2632 9.12132 4.79855C9.68393 5.33389 10 6.05998 10 6.81708C10 7.57418 9.68393 8.30027 9.12132 8.83562C8.55871 9.37097 7.79565 9.67173 7 9.67173Z" fill="white"/>
</svg>
