<svg width="20" height="20" viewBox="0 0 20 20" fill="none" xmlns="http://www.w3.org/2000/svg">
<path d="M14.36 11.4186C14.44 10.7905 14.5 10.1625 14.5 9.51548C14.5 8.86842 14.44 8.2404 14.36 7.61238H17.74C17.9 8.22137 18 8.85891 18 9.51548C18 10.172 17.9 10.8096 17.74 11.4186M12.59 16.7092C13.19 15.653 13.65 14.5111 13.97 13.3217H16.92C15.9512 14.9091 14.4141 16.1116 12.59 16.7092ZM12.34 11.4186H7.66C7.56 10.7905 7.5 10.1625 7.5 9.51548C7.5 8.86842 7.56 8.23089 7.66 7.61238H12.34C12.43 8.23089 12.5 8.86842 12.5 9.51548C12.5 10.1625 12.43 10.7905 12.34 11.4186ZM10 17.0898C9.17 15.9479 8.5 14.6824 8.09 13.3217H11.91C11.5 14.6824 10.83 15.9479 10 17.0898ZM6 5.70928H3.08C4.03886 4.11755 5.5748 2.91315 7.4 2.32178C6.8 3.37799 6.35 4.51985 6 5.70928ZM3.08 13.3217H6C6.35 14.5111 6.8 15.653 7.4 16.7092C5.57862 16.1113 4.04485 14.9086 3.08 13.3217ZM2.26 11.4186C2.1 10.8096 2 10.172 2 9.51548C2 8.85891 2.1 8.22137 2.26 7.61238H5.64C5.56 8.2404 5.5 8.86842 5.5 9.51548C5.5 10.1625 5.56 10.7905 5.64 11.4186M10 1.93164C10.83 3.0735 11.5 4.34857 11.91 5.70928H8.09C8.5 4.34857 9.17 3.0735 10 1.93164ZM16.92 5.70928H13.97C13.657 4.53075 13.1936 3.39312 12.59 2.32178C14.43 2.92125 15.96 4.12972 16.92 5.70928ZM10 0C4.47 0 0 4.28196 0 9.51548C0 12.0391 1.05357 14.4594 2.92893 16.2439C3.85752 17.1275 4.95991 17.8284 6.17317 18.3066C7.38642 18.7848 8.68678 19.031 10 19.031C12.6522 19.031 15.1957 18.0284 17.0711 16.2439C18.9464 14.4594 20 12.0391 20 9.51548C20 8.26589 19.7413 7.02853 19.2388 5.87406C18.7362 4.71959 17.9997 3.67061 17.0711 2.78702C16.1425 1.90342 15.0401 1.20252 13.8268 0.724322C12.6136 0.246125 11.3132 0 10 0Z" fill="white"/>
</svg>
