<svg width="50" height="50" viewBox="0 0 50 50" fill="none" xmlns="http://www.w3.org/2000/svg">
<g clip-path="url(#clip0_1069_2)">
<mask id="mask0_1069_2" style="mask-type:luminance" maskUnits="userSpaceOnUse" x="0" y="0" width="50" height="50">
<path d="M50 0H0V50H50V0Z" fill="white"/>
</mask>
<g mask="url(#mask0_1069_2)">
<path d="M22.4602 1.48457C10.1826 2.15812 1 11.2441 1 21.4926V36.25C1 39.5573 4.19172 42.3824 8.35374 42.3824H10.9614C13.6631 42.3824 15.7075 40.5278 15.7075 38.4559V29.6323C15.7075 27.5604 13.6631 25.7058 10.9614 25.7058H5.74604H5.27665V25.2205V21.4485C5.27665 12.6544 13.2611 5.12989 23.4411 4.88247C25.9349 4.81889 28.4196 5.17949 30.7487 5.94418C33.0778 6.70889 35.2069 7.86321 37.0081 9.34246C38.8095 10.8218 40.2477 12.5975 41.2318 14.5677C42.2162 16.5384 42.7249 18.6612 42.7233 20.8091V25.2205V25.7058H42.2539H37.0386C34.3369 25.7058 32.2925 27.5604 32.2925 29.6323V38.4559C32.2925 40.5278 34.3369 42.3824 37.0386 42.3824H42.2539H42.7233V42.8677V45.0735V45.5588H42.2539H26.6077C25.3403 45.5588 24.4694 46.4207 24.4694 47.2794C24.4694 48.1381 25.3403 49 26.6077 49H39.6463C43.8083 49 47 46.1749 47 42.8677V20.8088C47 9.77445 35.954 0.743938 22.4602 1.48457ZM22.4602 1.48457L22.4353 1" stroke="#051C45" stroke-width="2"/>
<path d="M19.6637 35.1448C19.528 35.0808 19.4058 34.9897 19.3041 34.8767C19.2025 34.7638 19.1234 34.6313 19.0713 34.4867C19.0193 34.3421 18.9953 34.1883 19.0008 34.034C19.0063 33.8798 19.0411 33.7282 19.1032 33.5878L20.8446 29.6511C20.1992 29.0375 19.783 28.209 19.6684 27.31C19.5695 26.5121 19.717 25.7021 20.0898 24.9956C20.4625 24.2891 21.0416 23.7223 21.7442 23.376C22.3581 23.0695 23.0426 22.9466 23.7203 23.0212L22.2448 26.3164L23.0062 27.5892L24.436 27.3512L25.8661 24.0486C26.369 24.5254 26.7325 25.1385 26.9155 25.8183C27.1218 26.5938 27.0859 27.4171 26.8128 28.1707C26.5396 28.9243 26.0433 29.5695 25.3947 30.0144C24.6665 30.5052 23.7962 30.719 22.9329 30.6191L21.1914 34.5556C21.1302 34.6995 21.0416 34.8292 20.931 34.9371C20.8204 35.0451 20.69 35.129 20.5476 35.1839C20.4051 35.2389 20.2535 35.2637 20.1016 35.257C19.9497 35.2503 19.801 35.2121 19.6637 35.1448Z" stroke="#051C45" stroke-width="2" stroke-linecap="round" stroke-linejoin="round"/>
<path d="M23.4998 6.96925L23.0033 10.0348L22.9568 10.3216L22.6923 10.4294C22.3395 10.5732 22.0167 10.7157 21.7144 10.8835C21.4126 11.0509 21.1297 11.2444 20.8406 11.4565L20.609 11.6263L20.3519 11.5101L17.5778 10.2567L17.5767 10.2562C17.5616 10.2494 17.5469 10.2493 17.5352 10.2532C17.5235 10.257 17.5131 10.2651 17.5059 10.2774L17.5029 10.2826L15.1276 14.2479L15.121 14.2586C15.1181 14.2632 15.1129 14.2742 15.1165 14.297C15.1202 14.3205 15.1317 14.342 15.1448 14.3557L17.465 16.3498L17.6765 16.5316L17.6314 16.8136C17.5827 17.1181 17.6002 17.5133 17.6503 17.9629C17.6749 18.1833 17.7059 18.4061 17.737 18.6284L17.7403 18.6521C17.7657 18.8335 17.7913 19.016 17.8119 19.1892L19.0082 21.7315C19.3887 21.4402 19.798 21.1374 20.2215 20.8799C20.6285 20.6324 21.0686 20.4136 21.5376 20.2783C20.4213 18.064 21.2315 15.3027 23.3845 14.1079C25.5523 12.9049 28.2445 13.7547 29.3953 15.9765C30.5296 18.1665 29.7624 20.9097 27.6642 22.1399C28.2318 22.6834 28.7228 23.3281 29.1104 24.0763C29.2995 24.4414 29.4547 24.8219 29.5827 25.2134C29.7688 25.0948 29.9553 24.9649 30.1486 24.8254L30.3817 24.657L30.6382 24.7757L33.3778 26.0435L33.3789 26.044C33.3898 26.0486 33.4015 26.0493 33.4149 26.0449C33.4285 26.0404 33.4446 26.0302 33.458 26.0103L35.8287 22.0527L35.8353 22.0419C35.8411 22.0328 35.8459 22.0177 35.8428 21.9965C35.8394 21.9741 35.8293 21.9601 35.8226 21.9543L35.8202 21.9523L33.5 19.9441L33.2929 19.7648L33.3339 19.4875C33.4408 18.7646 33.4864 18.0693 33.4059 17.3421L33.3735 17.0488L33.6076 16.8719L36.0371 15.0356C36.0561 15.0183 36.0723 14.9769 36.0488 14.9315L33.9188 10.8191C33.8953 10.7738 33.853 10.7648 33.8285 10.7716L31.0064 11.8497L30.7344 11.9535L30.5164 11.7632C29.9758 11.2914 29.3911 10.9458 28.7503 10.6378L28.5044 10.5197L28.4748 10.242L28.1432 7.1302L28.1429 7.12702C28.142 7.11809 28.1363 7.10155 28.1201 7.08628C28.1048 7.07184 28.09 7.06766 28.0795 7.06759L28.0671 7.06735L23.5619 6.92021L23.556 6.91998C23.5422 6.91936 23.5299 6.92386 23.5204 6.93177C23.5109 6.93965 23.5027 6.95287 23.4998 6.96925ZM23.4998 6.96925V6.96925Z" stroke="#051C45" stroke-width="2"/>
</g>
</g>
<defs>
<clipPath id="clip0_1069_2">
<rect width="50" height="50" fill="white"/>
</clipPath>
</defs>
</svg>
