<svg width="49" height="49" viewBox="0 0 49 49" fill="none" xmlns="http://www.w3.org/2000/svg">
<g clip-path="url(#clip0_1069_10)">
<mask id="mask0_1069_10" style="mask-type:luminance" maskUnits="userSpaceOnUse" x="0" y="-1" width="51" height="50">
<path d="M50.0208 -1H0V49H50.0208V-1Z" fill="white"/>
</mask>
<g mask="url(#mask0_1069_10)">
<path d="M16.588 9.45824C16.6201 9.40964 16.6479 9.38677 16.6624 9.37767C16.6664 9.37519 16.6692 9.37379 16.6709 9.37305H21.1783C21.1799 9.37379 21.1827 9.37519 21.1867 9.37767C21.2011 9.38677 21.2291 9.40964 21.2612 9.45824C21.3277 9.55934 21.3803 9.72499 21.3803 9.92106C21.3803 10.1171 21.3277 10.2828 21.2612 10.3839C21.2291 10.4325 21.2011 10.4554 21.1867 10.4645C21.1827 10.4669 21.1799 10.4683 21.1783 10.4691H16.6709C16.6692 10.4683 16.6664 10.4669 16.6624 10.4645C16.6479 10.4554 16.6201 10.4325 16.588 10.3839C16.5214 10.2828 16.4688 10.1171 16.4688 9.92106C16.4688 9.72499 16.5214 9.55934 16.588 9.45824ZM19.2981 13.5703C19.3301 13.5217 19.358 13.4989 19.3725 13.4897C19.3764 13.4872 19.3792 13.4859 19.3809 13.4851H23.4367C23.4384 13.4859 23.4412 13.4872 23.4451 13.4897C23.4596 13.4989 23.4875 13.5217 23.5195 13.5703C23.5862 13.6714 23.6388 13.8371 23.6388 14.0331C23.6388 14.2292 23.5862 14.3948 23.5195 14.4959C23.4875 14.5446 23.4596 14.5674 23.4451 14.5766C23.4412 14.579 23.4384 14.5804 23.4367 14.5812H19.3809C19.3792 14.5804 19.3764 14.579 19.3725 14.5766C19.358 14.5674 19.3301 14.5446 19.2981 14.4959C19.2314 14.3948 19.1788 14.2292 19.1788 14.0331C19.1788 13.8371 19.2314 13.6714 19.2981 13.5703ZM18.2755 18.1452C18.2755 17.9491 18.3281 17.7834 18.3947 17.6823C18.4268 17.6338 18.4547 17.6109 18.4691 17.6018C18.4731 17.5993 18.4759 17.5979 18.4776 17.5972H27.0501C27.0517 17.5979 27.0546 17.5993 27.0585 17.6018C27.073 17.6109 27.1009 17.6338 27.133 17.6823C27.1996 17.7834 27.2521 17.9491 27.2521 18.1452C27.2521 18.3413 27.1996 18.5069 27.133 18.608C27.1009 18.6566 27.073 18.6795 27.0585 18.6886C27.0546 18.691 27.0517 18.6925 27.0501 18.6932H18.4776C18.4759 18.6925 18.4731 18.691 18.4691 18.6886C18.4547 18.6795 18.4268 18.6566 18.3947 18.608C18.3281 18.5069 18.2755 18.3413 18.2755 18.1452ZM16.588 21.7944C16.6201 21.7458 16.6479 21.723 16.6624 21.7139C16.6664 21.7114 16.6692 21.7099 16.6709 21.7093H23.8883C23.8901 21.7099 23.8929 21.7114 23.8968 21.7139C23.9112 21.723 23.9391 21.7458 23.9712 21.7944C24.0379 21.8955 24.0904 22.0612 24.0904 22.2572C24.0904 22.4534 24.0379 22.619 23.9712 22.72C23.9391 22.7686 23.9112 22.7916 23.8968 22.8007C23.8929 22.8031 23.8901 22.8045 23.8883 22.8053H16.6709C16.6692 22.8045 16.6664 22.8031 16.6624 22.8007C16.6479 22.7916 16.6201 22.7686 16.588 22.72C16.5214 22.619 16.4688 22.4534 16.4688 22.2572C16.4688 22.0612 16.5214 21.8955 16.588 21.7944ZM25.954 14.0331C25.954 13.8371 26.0066 13.6714 26.0733 13.5703C26.1052 13.5217 26.1332 13.4989 26.1477 13.4897C26.1516 13.4872 26.1544 13.4859 26.1561 13.4851H28.8568C28.8585 13.4859 28.8613 13.4872 28.8652 13.4897C28.8797 13.4989 28.9077 13.5217 28.9396 13.5703C29.0063 13.6714 29.0589 13.8371 29.0589 14.0331C29.0589 14.2292 29.0063 14.3948 28.9396 14.4959C28.9077 14.5446 28.8797 14.5674 28.8652 14.5766C28.8613 14.579 28.8585 14.5804 28.8568 14.5812H26.1561C26.1544 14.5804 26.1516 14.579 26.1477 14.5766C26.1332 14.5674 26.1052 14.5446 26.0733 14.4959C26.0066 14.3948 25.954 14.2292 25.954 14.0331ZM28.8549 14.5819C28.8545 14.582 28.8548 14.5819 28.8549 14.5819ZM23.8149 9.45824C23.8469 9.40964 23.8748 9.38677 23.8893 9.37767C23.8932 9.37519 23.896 9.37379 23.8977 9.37305H29.7602C29.7619 9.37379 29.7647 9.37519 29.7686 9.37767C29.783 9.38677 29.811 9.40964 29.843 9.45824C29.9097 9.55934 29.9623 9.72499 29.9623 9.92106C29.9623 10.1171 29.9097 10.2828 29.843 10.3839C29.811 10.4325 29.783 10.4554 29.7686 10.4645C29.7647 10.4669 29.7619 10.4683 29.7602 10.4691H23.8977C23.896 10.4683 23.8932 10.4669 23.8893 10.4645C23.8748 10.4554 23.8469 10.4325 23.8149 10.3839C23.7483 10.2828 23.6956 10.1171 23.6956 9.92106C23.6956 9.72499 23.7483 9.55934 23.8149 9.45824Z" fill="#051C45" stroke="#051C45"/>
<path d="M31.4393 13.7668C31.4626 13.7308 31.4821 13.7133 31.4919 13.7061H35.1739C35.1836 13.7133 35.2031 13.7308 35.2264 13.7668C35.2834 13.8546 35.3305 14.0026 35.3305 14.1806C35.3305 14.3586 35.2834 14.5066 35.2264 14.5943C35.2031 14.6303 35.1836 14.6479 35.1739 14.6552H31.4919C31.4821 14.6479 31.4626 14.6303 31.4393 14.5943C31.3824 14.5066 31.3352 14.3586 31.3352 14.1806C31.3352 14.0026 31.3824 13.8546 31.4393 13.7668ZM30.5093 17.999C30.5093 17.8209 30.5565 17.6729 30.6134 17.5852C30.6367 17.5492 30.6562 17.5316 30.666 17.5244H38.4776C38.4873 17.5316 38.5068 17.5492 38.5301 17.5852C38.587 17.6729 38.6343 17.8209 38.6343 17.999C38.6343 18.177 38.587 18.325 38.5301 18.4126C38.5068 18.4486 38.4873 18.4663 38.4776 18.4735H30.666C30.6562 18.4663 30.6367 18.4486 30.6134 18.4126C30.5565 18.325 30.5093 18.177 30.5093 17.999ZM28.9615 21.4035C28.9848 21.3675 29.0044 21.35 29.0141 21.3427H35.5868C35.5966 21.35 35.6161 21.3675 35.6394 21.4035C35.6964 21.4913 35.7435 21.6393 35.7435 21.8173C35.7435 21.9953 35.6964 22.1433 35.6394 22.231C35.6161 22.267 35.5966 22.2846 35.5868 22.2919H29.0141C29.0044 22.2846 28.9849 22.267 28.9615 22.231C28.9047 22.1433 28.8574 21.9953 28.8574 21.8173C28.8574 21.6393 28.9047 21.4913 28.9615 21.4035ZM37.5296 14.1806C37.5296 14.0026 37.5769 13.8546 37.6337 13.7668C37.6571 13.7308 37.6766 13.7133 37.6863 13.7061H40.1295C40.1392 13.7133 40.1587 13.7308 40.182 13.7668C40.2389 13.8546 40.2861 14.0026 40.2861 14.1806C40.2861 14.3586 40.2389 14.5066 40.182 14.5943C40.1587 14.6303 40.1392 14.6479 40.1295 14.6552H37.6863C37.6766 14.6479 37.6571 14.6303 37.6337 14.5943C37.5769 14.5066 37.5296 14.3586 37.5296 14.1806Z" fill="#051C45" stroke="#051C45"/>
<path d="M26.1541 1H16.6995C15.3942 1 14.3359 2.27252 14.3359 3.84224V24.6854C14.3359 26.2552 15.3942 27.5277 16.6995 27.5277H40.3359C41.6413 27.5277 42.6995 26.2552 42.6995 24.6854V15.2113" stroke="#051C45" stroke-width="2" stroke-linecap="round" stroke-linejoin="round"/>
<path d="M28.5195 27.5293V35.1086" stroke="#051C45" stroke-width="2" stroke-linecap="round" stroke-linejoin="round"/>
<path d="M34.8234 1L31.6719 4.78967L34.8234 8.57933" stroke="#051C45" stroke-width="2" stroke-linecap="round" stroke-linejoin="round"/>
<path d="M39.5508 1L42.7023 4.78967L39.5508 8.57933" stroke="#051C45" stroke-width="2" stroke-linecap="round" stroke-linejoin="round"/>
<path d="M20.6406 35.1064H36.3982" stroke="#051C45" stroke-width="2" stroke-linecap="round" stroke-linejoin="round"/>
<path d="M45.2577 35.985L44.9488 35.735C44.9634 35.6501 44.971 35.5635 44.971 35.4769C44.971 35.3903 44.9634 35.3037 44.9488 35.2189L45.2577 34.9689C45.281 34.9499 45.2976 34.9248 45.3055 34.8968C45.3134 34.8687 45.312 34.839 45.3016 34.8117L45.2973 34.8001C45.2123 34.5751 45.0849 34.3665 44.9215 34.1844L44.9129 34.175C44.8931 34.153 44.8667 34.1371 44.8372 34.1296C44.8077 34.1219 44.7764 34.123 44.7474 34.1326L44.364 34.2616C44.2225 34.1519 44.0646 34.0653 43.8939 34.0045L43.8199 33.625C43.8142 33.5965 43.7997 33.5702 43.7779 33.5497C43.7562 33.5292 43.7284 33.5154 43.6982 33.5103L43.6854 33.5081C43.4398 33.4661 43.1813 33.4661 42.9357 33.5081L42.9229 33.5103C42.8927 33.5154 42.8649 33.5292 42.8432 33.5497C42.8214 33.5702 42.8068 33.5965 42.8012 33.625L42.7267 34.0063C42.5574 34.0671 42.3996 34.1536 42.2598 34.2626L41.8737 34.1326C41.8447 34.123 41.8134 34.1219 41.7839 34.1294C41.7543 34.137 41.7278 34.1529 41.7081 34.175L41.6996 34.1844C41.5363 34.3666 41.409 34.5752 41.3238 34.8001L41.3195 34.8117C41.2983 34.8675 41.3158 34.93 41.3633 34.9689L41.676 35.2215C41.6614 35.3055 41.6544 35.3912 41.6544 35.4765C41.6544 35.5622 41.6614 35.6479 41.676 35.7314L41.3633 35.9841C41.3401 36.003 41.3234 36.0281 41.3156 36.0562C41.3077 36.0843 41.3091 36.1139 41.3195 36.1413L41.3238 36.1529C41.4092 36.3778 41.5355 36.5855 41.6996 36.7686L41.7081 36.7779C41.7279 36.8 41.7544 36.8158 41.7839 36.8234C41.8134 36.831 41.8447 36.8299 41.8737 36.8203L42.2598 36.6904C42.4004 36.7998 42.5574 36.8864 42.7267 36.9466L42.8012 37.3279C42.8068 37.3565 42.8214 37.3827 42.8432 37.4032C42.8649 37.4237 42.8927 37.4375 42.9229 37.4427L42.9357 37.4449C43.1836 37.4871 43.4375 37.4871 43.6854 37.4449L43.6982 37.4427C43.7284 37.4375 43.7562 37.4237 43.7779 37.4032C43.7997 37.3827 43.8142 37.3565 43.8199 37.3279L43.8939 36.9485C44.0646 36.8879 44.2234 36.801 44.364 36.6913L44.7474 36.8203C44.7763 36.83 44.8077 36.8311 44.8372 36.8235C44.8668 36.816 44.8931 36.8 44.9129 36.7779L44.9215 36.7686C45.0856 36.5851 45.2119 36.3778 45.2973 36.1529L45.3016 36.1413C45.3228 36.0864 45.3053 36.0238 45.2577 35.985ZM44.614 35.2716C44.6257 35.3389 44.6319 35.4082 44.6319 35.4774C44.6319 35.5465 44.6257 35.6158 44.614 35.6832L44.5829 35.8622L44.9351 36.1475C44.8818 36.264 44.8143 36.3742 44.7343 36.4761L44.2967 36.3292L44.1485 36.4444C44.0358 36.5319 43.9104 36.6007 43.7745 36.6489L43.5949 36.7127L43.5105 37.1458C43.3773 37.1601 43.2429 37.1601 43.1096 37.1458L43.0252 36.7118L42.847 36.6471C42.7125 36.5989 42.5876 36.5301 42.4758 36.4431L42.3277 36.3274L41.8873 36.4757C41.8071 36.3734 41.7402 36.2631 41.6864 36.1471L42.0425 35.8591L42.0118 35.6805C42.0005 35.614 41.9944 35.5452 41.9944 35.4774C41.9944 35.4091 42.0001 35.3407 42.0118 35.2742L42.0425 35.0957L41.6864 34.8077C41.7396 34.6911 41.8071 34.5813 41.8873 34.4791L42.3277 34.6273L42.4758 34.5116C42.5876 34.4246 42.7125 34.3559 42.847 34.3076L43.0258 34.2438L43.1102 33.8098C43.2427 33.7955 43.378 33.7955 43.5109 33.8098L43.5953 34.2429L43.7751 34.3068C43.9104 34.355 44.0363 34.4237 44.149 34.5112L44.2971 34.6264L44.7347 34.4795C44.8149 34.5818 44.8819 34.6921 44.9356 34.8081L44.5833 35.0934L44.614 35.2716ZM43.311 34.6469C42.8526 34.6469 42.481 34.9988 42.481 35.4327C42.481 35.8667 42.8526 36.2185 43.311 36.2185C43.7694 36.2185 44.141 35.8667 44.141 35.4327C44.141 34.9988 43.7694 34.6469 43.311 34.6469ZM43.6845 35.7863C43.6355 35.8328 43.5773 35.8697 43.5132 35.8949C43.4491 35.92 43.3804 35.9329 43.311 35.9328C43.17 35.9328 43.0375 35.8805 42.9375 35.7863C42.8884 35.7399 42.8494 35.6848 42.8228 35.6241C42.7964 35.5634 42.7827 35.4984 42.7828 35.4327C42.7828 35.2992 42.838 35.1738 42.9375 35.0791C43.0375 34.9845 43.17 34.9327 43.311 34.9327C43.452 34.9327 43.5845 34.9845 43.6845 35.0791C43.7336 35.1255 43.7726 35.1806 43.7991 35.2413C43.8257 35.302 43.8392 35.367 43.8391 35.4327C43.8391 35.5662 43.784 35.6917 43.6845 35.7863Z" fill="#051C45"/>
<path opacity="0.4" d="M46.4277 40.8766L46.1188 40.6265C46.1334 40.5417 46.1409 40.4551 46.1409 40.3685C46.1409 40.2819 46.1334 40.1953 46.1188 40.1105L46.4277 39.8604C46.4509 39.8416 46.4676 39.8164 46.4755 39.7883C46.4833 39.7602 46.4819 39.7306 46.4715 39.7033L46.4673 39.6917C46.3822 39.4666 46.2549 39.2581 46.0914 39.076L46.0829 39.0667C46.0631 39.0445 46.0367 39.0287 46.0071 39.0211C45.9775 39.0135 45.9463 39.0147 45.9174 39.0242L45.534 39.1532C45.3925 39.0434 45.2346 38.9568 45.0638 38.8961L44.9898 38.5166C44.9842 38.4881 44.9696 38.4618 44.9478 38.4413C44.9261 38.4208 44.8983 38.4071 44.8681 38.4018L44.8554 38.3996C44.6097 38.3577 44.3513 38.3577 44.1055 38.3996L44.0928 38.4018C44.0626 38.4071 44.0348 38.4208 44.0131 38.4413C43.9914 38.4618 43.9767 38.4881 43.9711 38.5166L43.8966 38.8979C43.7273 38.9586 43.5696 39.0451 43.4298 39.1541L43.0435 39.0242C43.0146 39.0146 42.9834 39.0135 42.9538 39.021C42.9242 39.0286 42.8978 39.0445 42.878 39.0667L42.8695 39.076C42.7062 39.2582 42.5789 39.4668 42.4937 39.6917L42.4894 39.7033C42.4682 39.7591 42.4857 39.8216 42.5333 39.8604L42.8459 40.1132C42.8313 40.197 42.8242 40.2828 42.8242 40.3681C42.8242 40.4538 42.8313 40.5395 42.8459 40.623L42.5333 40.8757C42.51 40.8946 42.4933 40.9197 42.4855 40.9478C42.4777 40.9759 42.479 41.0055 42.4894 41.0329L42.4937 41.0444C42.5791 41.2695 42.7054 41.4771 42.8695 41.6601L42.878 41.6695C42.8978 41.6916 42.9243 41.7075 42.9538 41.715C42.9834 41.7226 43.0146 41.7215 43.0435 41.7119L43.4298 41.582C43.5703 41.6913 43.7273 41.778 43.8966 41.8383L43.9711 42.2195C43.9767 42.2481 43.9914 42.2744 44.0131 42.2948C44.0348 42.3154 44.0626 42.3291 44.0928 42.3343L44.1055 42.3365C44.3535 42.3787 44.6074 42.3787 44.8554 42.3365L44.8681 42.3343C44.8983 42.3291 44.9261 42.3154 44.9478 42.2948C44.9696 42.2744 44.9842 42.2481 44.9898 42.2195L45.0638 41.84C45.2345 41.7795 45.3933 41.6926 45.534 41.5829L45.9174 41.7119C45.9463 41.7216 45.9776 41.7227 46.0071 41.7151C46.0367 41.7075 46.0632 41.6916 46.0829 41.6695L46.0914 41.6601C46.2555 41.4766 46.3819 41.2695 46.4673 41.0444L46.4715 41.0329C46.4927 40.978 46.4753 40.9154 46.4277 40.8766ZM45.784 40.1631C45.7957 40.2305 45.8018 40.2998 45.8018 40.3689C45.8018 40.4381 45.7957 40.5074 45.784 40.5748L45.7528 40.7538L46.1051 41.0391C46.0516 41.1555 45.9843 41.2658 45.9042 41.3677L45.4665 41.2208L45.3185 41.336C45.2057 41.4235 45.0803 41.4922 44.9445 41.5404L44.7649 41.6043L44.6804 42.0374C44.5472 42.0517 44.4127 42.0517 44.2795 42.0374L44.1952 41.6034L44.0169 41.5387C43.8825 41.4905 43.7575 41.4217 43.6458 41.3346L43.4977 41.219L43.0572 41.3673C42.977 41.265 42.9101 41.1547 42.8563 41.0386L43.2124 40.7507L43.1818 40.5721C43.1704 40.5056 43.1643 40.4368 43.1643 40.3689C43.1643 40.3007 43.1699 40.2323 43.1818 40.1658L43.2124 39.9873L42.8563 39.6993C42.9096 39.5827 42.977 39.4729 43.0572 39.3706L43.4977 39.5189L43.6458 39.4033C43.7575 39.3162 43.8825 39.2474 44.0169 39.1993L44.1956 39.1354L44.28 38.7014C44.4125 38.6871 44.5479 38.6871 44.6809 38.7014L44.7653 39.1345L44.945 39.1984C45.0803 39.2465 45.2063 39.3153 45.3189 39.4028L45.467 39.518L45.9047 39.3711C45.9849 39.4734 46.0518 39.5836 46.1056 39.6997L45.7533 39.985L45.784 40.1631ZM44.4809 39.5385C44.0226 39.5385 43.651 39.8904 43.651 40.3243C43.651 40.7582 44.0226 41.11 44.4809 41.11C44.9393 41.11 45.3109 40.7582 45.3109 40.3243C45.3109 39.8904 44.9393 39.5385 44.4809 39.5385ZM44.8544 40.6779C44.8054 40.7244 44.7472 40.7613 44.6831 40.7864C44.619 40.8116 44.5503 40.8244 44.4809 40.8244C44.3399 40.8244 44.2075 40.7721 44.1075 40.6779C44.0583 40.6315 44.0194 40.5764 43.9928 40.5157C43.9663 40.455 43.9526 40.39 43.9528 40.3243C43.9528 40.1908 44.008 40.0653 44.1075 39.9707C44.2075 39.876 44.3399 39.8243 44.4809 39.8243C44.6219 39.8243 44.7544 39.876 44.8544 39.9707C44.9035 40.0171 44.9425 40.0722 44.9691 40.1329C44.9956 40.1936 45.0092 40.2586 45.0091 40.3243C45.0091 40.4578 44.9539 40.5833 44.8544 40.6779Z" fill="#051C45"/>
<path d="M40.0065 30H46.9443C47.4111 30 47.9509 30.5069 47.9509 31.3511V47.2212C47.9509 48.0654 47.4111 48.5723 46.9443 48.5723H40.0065C39.5396 48.5723 39 48.0654 39 47.2212V31.3511C39 30.5069 39.5396 30 40.0065 30Z" stroke="#051C45"/>
<path d="M6.71769 34.9334C6.5639 34.9923 6.44838 35.069 6.36857 35.1684C6.28746 35.2678 6.23166 35.397 6.20115 35.5618C6.17064 35.7241 6.15506 36.0109 6.15506 36.4236C6.15506 36.6772 6.14856 36.8549 6.13559 36.9567C6.11743 37.0932 6.08629 37.2055 6.04086 37.2959C5.99285 37.3872 5.93767 37.4518 5.87602 37.4906C5.81114 37.5278 5.71769 37.5512 5.5918 37.5593V38.3258C5.75013 38.3364 5.86694 38.3776 5.94288 38.4519C6.01815 38.5229 6.07524 38.6473 6.11483 38.8161C6.14143 38.9341 6.15506 39.1869 6.15506 39.5778C6.15506 39.9146 6.16998 40.1618 6.19853 40.3152C6.22837 40.472 6.28484 40.6028 6.3692 40.7103C6.4516 40.8161 6.55608 40.8928 6.67874 40.9389C6.80202 40.9857 6.97918 41.0067 7.20828 41.0067H7.34327V40.2442C7.16156 40.2442 7.04282 40.2281 6.98831 40.1981C6.93379 40.1714 6.89357 40.1311 6.86761 40.0753C6.83906 40.0197 6.82606 39.9227 6.82606 39.7829C6.82606 39.6836 6.81956 39.459 6.80593 39.1045C6.79489 38.8734 6.77284 38.6869 6.73975 38.5496C6.70407 38.4098 6.65602 38.2943 6.59179 38.1958C6.5269 38.0973 6.44447 38.0133 6.34323 37.9414C6.45743 37.8501 6.54182 37.7613 6.59892 37.6764C6.65344 37.5932 6.69886 37.485 6.73391 37.3541C6.77025 37.2233 6.79101 37.0529 6.80139 36.8428C6.81697 36.468 6.82669 36.2153 6.82669 36.0803C6.82669 35.9495 6.83903 35.8558 6.86498 35.8017C6.89029 35.7467 6.92924 35.708 6.98181 35.6805C7.03436 35.6539 7.15506 35.6401 7.3439 35.6401V34.876H7.20828C6.98442 34.876 6.82218 34.8954 6.71769 34.9334Z" fill="#051C45"/>
<path d="M13.4235 37.2967C13.3774 37.2063 13.3462 37.0941 13.3287 36.9575C13.3151 36.8557 13.3073 36.6781 13.3073 36.4236C13.3073 36.0109 13.2937 35.7241 13.2632 35.5618C13.2327 35.397 13.1769 35.2678 13.0958 35.1684C13.016 35.069 12.9005 34.9923 12.746 34.9334C12.6434 34.8954 12.4799 34.876 12.2554 34.876H12.1191V35.6409C12.3067 35.6409 12.4286 35.6546 12.4806 35.6813C12.5351 35.7088 12.574 35.7476 12.6007 35.8025C12.6247 35.8566 12.6383 35.9503 12.6383 36.0812C12.6383 36.216 12.648 36.4689 12.6636 36.8437C12.674 37.0536 12.6954 37.2241 12.7311 37.3541C12.7655 37.485 12.8109 37.594 12.8654 37.6765C12.9225 37.7613 13.0075 37.8502 13.1205 37.9414C13.0198 38.014 12.9387 38.0973 12.8732 38.1958C12.8076 38.2936 12.7603 38.4098 12.7246 38.5496C12.6902 38.6853 12.6688 38.8711 12.6571 39.1037C12.6434 39.4575 12.6382 39.6829 12.6382 39.7822C12.6382 39.9219 12.6246 40.0189 12.5973 40.0738C12.5707 40.1287 12.5305 40.1715 12.4761 40.1997C12.4202 40.2272 12.3021 40.2442 12.1211 40.2442V41.0075H12.2566C12.4858 41.0075 12.6622 40.9865 12.785 40.9396C12.9076 40.8919 13.0121 40.8168 13.0958 40.711C13.1795 40.6052 13.2366 40.4744 13.2658 40.316C13.2937 40.161 13.3073 39.9154 13.3073 39.5786C13.3073 39.1876 13.321 38.9332 13.3476 38.8153C13.3878 38.6465 13.4429 38.5237 13.5202 38.451C13.5974 38.38 13.7142 38.3364 13.8713 38.3275V37.5601C13.7473 37.5521 13.652 37.5286 13.587 37.4915C13.5247 37.4526 13.4702 37.388 13.4235 37.2967Z" fill="#051C45"/>
<path d="M10.9509 36.5107C10.4305 36.5107 9.84082 37.3203 9.65746 37.5773C9.5088 37.3653 8.89431 36.5107 8.36406 36.5107C7.70994 36.5107 7.17969 37.2047 7.17969 38.0528C7.17969 38.901 7.70994 39.5948 8.36406 39.5948C8.8844 39.5948 9.47411 38.7853 9.65746 38.5283C9.80613 38.7402 10.4206 39.5948 10.9509 39.5948C11.605 39.5948 12.1352 38.901 12.1352 38.0528C12.1352 37.2047 11.605 36.5107 10.9509 36.5107ZM8.36406 38.9587C8.27228 38.9588 8.18137 38.9355 8.09654 38.8901C8.01172 38.8446 7.93465 38.7779 7.86975 38.6937C7.80484 38.6096 7.75338 38.5097 7.7183 38.3996C7.68322 38.2897 7.66523 38.1718 7.66533 38.0528C7.66593 37.8128 7.73974 37.5828 7.87065 37.413C8.00156 37.2433 8.17893 37.1476 8.36406 37.1468C8.60689 37.1468 9.03306 37.6288 9.3304 38.0528C9.24615 38.1749 8.68122 38.9587 8.36406 38.9587ZM10.9509 38.9587C10.708 38.9587 10.2819 38.4768 9.98453 38.0528C10.0688 37.9307 10.6387 37.1468 10.9509 37.1468C11.0427 37.1467 11.1336 37.1701 11.2184 37.2156C11.3032 37.261 11.3803 37.3277 11.4452 37.4119C11.5101 37.4961 11.5616 37.5959 11.5966 37.7059C11.6317 37.816 11.6497 37.9338 11.6496 38.0528C11.6446 38.5539 11.3325 38.9587 10.9509 38.9587Z" fill="#051C45"/>
<path d="M1.11288 30.8699L1.00006 44.8853C0.997063 45.257 1.11601 45.6149 1.33072 45.8802C1.54544 46.1456 1.83834 46.2966 2.14499 46.3L16.0196 46.4591C16.3263 46.4626 16.6215 46.3183 16.8405 46.0579C17.0594 45.7976 17.1841 45.4425 17.1871 45.0708L17.2999 31.0553C17.3029 30.6836 17.1839 30.3257 16.9692 30.0604C16.7545 29.795 16.4617 29.644 16.155 29.6406L2.28037 29.4815C1.97372 29.478 1.67845 29.6223 1.4595 29.8827C1.24055 30.143 1.11587 30.4981 1.11288 30.8699Z" stroke="#051C45" stroke-width="2"/>
<path d="M39 45H48C48 47.7614 46.9314 50 45.6131 50H41.3869C40.0686 50 39 47.7614 39 45Z" fill="#051C45"/>
<path d="M43.7419 47.48C44.1517 47.48 44.4839 47.1487 44.4839 46.74C44.4839 46.3313 44.1517 46 43.7419 46C43.3322 46 43 46.3313 43 46.74C43 47.1487 43.3322 47.48 43.7419 47.48Z" stroke="white"/>
<path d="M3.11914 36.0215V39.2984" stroke="#051C45"/>
</g>
</g>
<defs>
<clipPath id="clip0_1069_10">
<rect width="49" height="49" fill="white"/>
</clipPath>
</defs>
</svg>
