<svg width="50" height="50" viewBox="0 0 50 50" fill="none" xmlns="http://www.w3.org/2000/svg">
<g clip-path="url(#clip0_1069_32)">
<mask id="mask0_1069_32" style="mask-type:luminance" maskUnits="userSpaceOnUse" x="0" y="0" width="50" height="50">
<path d="M50 0H0V50H50V0Z" fill="white"/>
</mask>
<g mask="url(#mask0_1069_32)">
<path d="M20.2758 29.2432H19.884L19.7903 29.6236L18.8537 33.4284H17.6055L21.8186 16.5713H24.0222L28.1431 33.4284H26.8162L25.9045 29.6266L25.8126 29.2432H25.4183H20.2758ZM20.0884 27.8424L19.9466 28.4552H20.5756H25.1208H25.7449L25.6087 27.8461L23.4261 18.0827L23.3387 17.6918H22.9381H22.836H22.4385L22.3488 18.079L20.0884 27.8424ZM31.3162 16.5713H32.5366V33.4284H31.3162V16.5713Z" fill="#051C45" stroke="#051C45"/>
<path d="M43.5578 16.8368V17.3266H44.0476H49V21.7891H44.0476H43.5578V22.2789V27.7211V28.2109H44.0476H49V32.6734H44.0476H43.5578V33.1632V38.604V38.6052C43.5536 39.9174 43.0305 41.1746 42.1026 42.1026C41.1746 43.0305 39.9174 43.5536 38.6052 43.5578H38.604H33.1632H32.6734V44.0476V49H28.2109V44.0476V43.5578H27.7211H22.2789H21.7891V44.0476V49H17.3266V44.0476V43.5578H16.8368H11.396H11.3948C10.0826 43.5536 8.82535 43.0305 7.89745 42.1026C6.96946 41.1745 6.4463 39.9171 6.44218 38.6048V33.1632V32.6734H5.95239H1V28.2109H5.95239H6.44218V27.7211V22.2789V21.7891H5.95239H1V17.3266H5.95239H6.44218V16.8368V11.3952C6.4463 10.0829 6.96946 8.82545 7.89745 7.89745C8.82545 6.96946 10.0829 6.4463 11.3952 6.44218H16.8368H17.3266V5.95239V1H21.7891V5.95239V6.44218H22.2789H27.7211H28.2109V5.95239V1H32.6734V5.95239V6.44218H33.1632H38.6048C39.9171 6.4463 41.1745 6.96946 42.1026 7.89745C43.0305 8.82535 43.5536 10.0826 43.5578 11.3948V11.396V16.8368ZM38.6055 39.0953H39.0953V38.6055V11.3945V10.9048H38.6055H11.3945H10.9048V11.3945V38.6055V39.0953H11.3945H38.6055Z" stroke="#051C45" stroke-width="2"/>
</g>
</g>
<defs>
<clipPath id="clip0_1069_32">
<rect width="50" height="50" fill="white"/>
</clipPath>
</defs>
</svg>
