<svg width="46" height="53" viewBox="0 0 46 53" fill="none" xmlns="http://www.w3.org/2000/svg">
<g clip-path="url(#clip0_1069_39)">
<mask id="mask0_1069_39" style="mask-type:luminance" maskUnits="userSpaceOnUse" x="-2" y="0" width="50" height="53">
<path d="M48 0.980469H-2V53H48V0.980469Z" fill="white"/>
</mask>
<g mask="url(#mask0_1069_39)">
<path d="M36.0119 2.00098L31.5703 7.6261H35.1667V17.0013H36.9649V7.6261H40.5614L36.0119 2.00098Z" fill="#051C45"/>
<path d="M36.0119 2.00098L31.5703 7.6261H35.1667V17.0013H36.9649V7.6261H40.5614L36.0119 2.00098Z" stroke="#051C45"/>
<path d="M12.6351 45.6025H7.18395C7.07094 45.6025 6.96484 45.6194 6.96484 45.724V50.907H12.9605V45.724C12.9605 45.6194 12.748 45.6025 12.6351 45.6025Z" fill="#051C45"/>
<path d="M12.9605 39.1579C12.9605 39.0533 12.8392 38.9502 12.7261 38.9502H7.20748C7.09448 38.9502 6.96484 39.0533 6.96484 39.1579V44.273C6.96484 44.3776 7.09448 44.4231 7.20748 44.4231H12.7261C12.8391 44.4231 12.9605 44.3776 12.9605 44.273V39.1579Z" fill="#051C45"/>
<path d="M24.3569 45.6025H18.9061C18.793 45.6025 18.6855 45.6194 18.6855 45.724V50.907H24.5903V45.724C24.5902 45.6194 24.4699 45.6025 24.3569 45.6025Z" fill="#051C45"/>
<path d="M24.5902 39.1579C24.5902 39.0533 24.4917 38.9502 24.3788 38.9502H18.86C18.7471 38.9502 18.6855 39.0533 18.6855 39.1579V44.273C18.6855 44.3776 18.7471 44.4231 18.86 44.4231H24.3788C24.4917 44.4231 24.5902 44.3776 24.5902 44.273V39.1579Z" fill="#051C45"/>
<path d="M24.5902 32.7166C24.5902 32.6121 24.4917 32.4668 24.3788 32.4668H18.86C18.7471 32.4668 18.6855 32.6121 18.6855 32.7166V37.8317C18.6855 37.9363 18.7471 38.0239 18.86 38.0239H24.3788C24.4917 38.0239 24.5902 37.9363 24.5902 37.8317V32.7166Z" fill="#051C45"/>
<path d="M36.0753 45.6025H30.6242C30.5112 45.6025 30.4941 45.6194 30.4941 45.724V50.907H36.2172V45.724C36.2172 45.6194 36.1881 45.6025 36.0753 45.6025Z" fill="#051C45"/>
<path d="M36.3989 39.1579C36.3989 39.0533 36.3458 38.9502 36.2328 38.9502H30.7141C30.6011 38.9502 30.4941 39.0533 30.4941 39.1579V44.273C30.4941 44.3776 30.6011 44.4231 30.7141 44.4231H36.2328C36.3458 44.4231 36.3989 44.3776 36.3989 44.273V39.1579Z" fill="#051C45"/>
<path d="M36.3989 32.7166C36.3989 32.6121 36.3458 32.4668 36.2328 32.4668H30.7141C30.6011 32.4668 30.4941 32.6121 30.4941 32.7166V37.8317C30.4941 37.9363 30.6011 38.0239 30.7141 38.0239H36.2328C36.3458 38.0239 36.3989 37.9363 36.3989 37.8317V32.7166Z" fill="#051C45"/>
<path d="M36.3989 26.2761C36.3989 26.1715 36.3458 26.0684 36.2328 26.0684H30.7141C30.6011 26.0684 30.4941 26.1715 30.4941 26.2761V31.3912C30.4941 31.4958 30.6011 31.5413 30.7141 31.5413H36.2328C36.3458 31.5413 36.3989 31.4958 36.3989 31.3912V26.2761Z" fill="#051C45"/>
<path d="M30.4941 23.7505V24.8884C30.4941 24.9929 30.5112 25.1411 30.6242 25.1411H36.0753C36.1881 25.1411 36.2173 24.9929 36.2173 24.8884V19.8359C36.2173 19.7314 36.1882 19.584 36.0753 19.584H35.2113C34.8373 21.8573 32.7652 23.5757 30.4941 23.7505Z" fill="#051C45"/>
<path d="M6.96484 36.6933V37.8285C6.96484 37.9328 7.07022 38.0239 7.18477 38.0239H12.636C12.7483 38.0239 12.9605 37.9328 12.9605 37.8285V32.7779C12.9605 32.6739 12.7484 32.4668 12.636 32.4668H11.7714C11.3976 34.7402 9.41759 36.5182 6.96484 36.6933Z" fill="#051C45"/>
<path d="M6.57214 35.5731C8.80278 35.5731 10.6109 33.8972 10.6109 31.8296C10.6109 29.762 8.80278 28.0859 6.57214 28.0859C4.34133 28.0859 2.5332 29.762 2.5332 31.8296C2.5332 33.8971 4.34133 35.5731 6.57214 35.5731ZM4.54381 31.6304C4.78064 31.4445 5.13538 31.4721 5.33605 31.6917L5.86412 32.2703L7.84012 30.4387C8.0596 30.2355 8.41534 30.2355 8.63499 30.4389C8.85446 30.6423 8.85446 30.9722 8.63499 31.1757L6.22694 33.4076C6.12139 33.5054 5.97821 33.56 5.82951 33.56C5.82169 33.56 5.81388 33.5599 5.80607 33.5597C5.64901 33.5535 5.50193 33.4869 5.40027 33.3755L4.47768 32.3647C4.27728 32.145 4.30672 31.8162 4.54381 31.6304Z" fill="#051C45"/>
<path d="M18.6855 30.2296V31.3627C18.6855 31.4675 18.793 31.5413 18.9061 31.5413H24.3569C24.4699 31.5413 24.5902 31.4675 24.5902 31.3627V26.3103C24.5902 26.2057 24.4699 26.0684 24.3569 26.0684H23.4956C23.1234 28.3417 21.1384 30.0552 18.6855 30.2296Z" fill="#051C45"/>
<path d="M18.2926 29.1081C20.5232 29.1081 22.3316 27.432 22.3316 25.3645C22.3316 23.297 20.5232 21.6211 18.2926 21.6211C16.062 21.6211 14.2539 23.297 14.2539 25.3645C14.2539 27.432 16.062 29.1081 18.2926 29.1081ZM16.2643 25.1653C16.5011 24.9797 16.8559 25.0068 17.0566 25.2267L17.5847 25.8054L19.5605 23.974C19.7802 23.7706 20.1358 23.7706 20.3554 23.974C20.5749 24.1773 20.5749 24.5072 20.3554 24.7107L17.9475 26.9425C17.842 27.0405 17.6988 27.0952 17.5501 27.0952C17.5423 27.0952 17.5344 27.0949 17.5269 27.0947C17.3697 27.0887 17.2226 27.0219 17.1208 26.9105L16.1983 25.8994C15.9978 25.6799 16.0273 25.3512 16.2643 25.1653Z" fill="#051C45"/>
<path d="M40.3093 13.3927C40.4422 13.6999 40.7498 13.7724 40.9826 13.7724H41.8728V17.5597C41.8728 17.8022 42.0092 17.9985 42.1701 18.1247C42.3318 18.2515 42.5445 18.3307 42.7587 18.3307C42.973 18.3307 43.1857 18.2516 43.3473 18.1247C43.5082 17.9985 43.6446 17.8022 43.6446 17.5597V13.7723H44.5216C44.7546 13.7723 45.062 13.6998 45.1951 13.3925L45.1952 13.3924C45.2501 13.2654 45.2681 13.1292 45.2308 12.9928C45.1945 12.8601 45.113 12.754 45.018 12.6698L45.018 12.6698L43.2484 11.1029L43.2482 11.1028C42.968 10.8553 42.5354 10.8547 42.2558 11.1033C42.2557 11.1034 42.2556 11.1035 42.2555 11.1036L40.4866 12.6698L40.4864 12.6699C40.3915 12.7541 40.31 12.8602 40.2736 12.9929C40.2362 13.1294 40.2542 13.2656 40.3093 13.3927ZM40.3093 13.3927C40.3093 13.3927 40.3092 13.3926 40.3092 13.3926L40.5386 13.2934L40.3093 13.3928C40.3093 13.3928 40.3093 13.3927 40.3093 13.3927Z" fill="#051C45" stroke="#051C45" stroke-width="0.5"/>
<path d="M42.7589 19.0742C42.5447 19.0742 42.332 19.1533 42.1703 19.2802C42.0094 19.4065 41.873 19.6027 41.873 19.8453V24.1761C41.873 24.4187 42.0094 24.6149 42.1703 24.7412C42.332 24.868 42.5447 24.9471 42.7589 24.9471C42.9732 24.9471 43.1859 24.868 43.3475 24.7412C43.5084 24.615 43.6448 24.4187 43.6448 24.1761V19.8453C43.6448 19.6027 43.5085 19.4065 43.3476 19.2802C43.1859 19.1533 42.9732 19.0742 42.7589 19.0742Z" fill="#051C45" stroke="#051C45" stroke-width="0.5"/>
<path d="M42.3701 25.75C42.1563 25.75 41.9445 25.8301 41.784 25.958C41.624 26.0855 41.4901 26.2824 41.4901 26.5243V49.7911C41.4901 50.2833 41.1263 50.648 40.5675 50.648H1.55691C1.10951 50.648 0.75 51.023 0.75 51.4488C0.75 51.8745 1.10951 52.2495 1.55691 52.2495H40.5675C41.9763 52.2495 43.25 51.1758 43.25 49.7911V26.5244C43.25 26.5243 43.25 26.5243 43.25 26.5243C43.25 26.2824 43.1162 26.0855 42.9562 25.958C42.7957 25.8301 42.5839 25.75 42.3701 25.75Z" fill="#051C45" stroke="#051C45" stroke-width="0.5"/>
<path d="M30.0094 22.6306C32.2401 22.6306 34.0484 20.9546 34.0484 18.8871C34.0484 16.8196 32.2401 15.1436 30.0094 15.1436C27.7788 15.1436 25.9707 16.8196 25.9707 18.8871C25.9707 20.9546 27.7788 22.6306 30.0094 22.6306ZM28.028 17.9005H28.9739C29.1432 17.9005 29.2934 17.8461 29.3455 17.6969L29.6379 16.8863C29.7549 16.5526 30.2643 16.5641 30.381 16.8978L30.6734 17.691C30.7257 17.8402 30.8759 17.9005 31.0452 17.9005H31.991C32.3695 17.9005 32.527 18.3961 32.2208 18.6022L31.4551 19.1409C31.3183 19.233 31.2611 19.4081 31.3135 19.5573L31.6057 20.3971C31.7227 20.7308 31.3107 21.011 31.0044 20.8049L30.2392 20.2909C30.1022 20.1986 29.9168 20.1995 29.7797 20.2916L29.0143 20.8074C28.7081 21.0135 28.2962 20.7364 28.4133 20.4027L28.7057 19.5688C28.7578 19.4195 28.7007 19.2562 28.5637 19.164L27.7981 18.6021C27.4921 18.396 27.6495 17.9005 28.028 17.9005Z" fill="#051C45"/>
</g>
</g>
<defs>
<clipPath id="clip0_1069_39">
<rect width="46" height="53" fill="white"/>
</clipPath>
</defs>
</svg>
