<svg width="39" height="50" viewBox="0 0 39 50" fill="none" xmlns="http://www.w3.org/2000/svg">
<g clip-path="url(#clip0_1069_64)">
<mask id="mask0_1069_64" style="mask-type:luminance" maskUnits="userSpaceOnUse" x="-1" y="0" width="42" height="50">
<path d="M41 0H-1V50H41V0Z" fill="white"/>
</mask>
<g mask="url(#mask0_1069_64)">
<path d="M22.2511 8.13086H33.7727C35.0047 8.13086 36.1105 8.57566 36.8991 9.27049C37.6885 9.96606 38.136 10.8853 38.136 11.8501V45.2813C38.136 46.2459 37.6885 47.1652 36.8991 47.8608C36.1105 48.5556 35.0047 49.0004 33.7727 49.0004H5.31642C4.08435 49.0004 2.97861 48.5556 2.19004 47.8608C1.40063 47.1652 0.953125 46.2459 0.953125 45.2813V11.8501C0.953125 10.8853 1.40063 9.96606 2.19004 9.27049C2.97861 8.57566 4.08435 8.13086 5.31642 8.13086H16.838C16.9474 8.69152 17.2509 9.16995 17.6466 9.51861C18.1475 9.95993 18.8203 10.2203 19.5446 10.2203C20.2689 10.2203 20.9417 9.95993 21.4425 9.51861C21.8382 9.16995 22.1417 8.69152 22.2511 8.13086Z" stroke="#051C45" stroke-width="2"/>
<path d="M19.7439 8.61089C20.4604 8.61089 21.126 8.33627 21.6215 7.87083C22.0129 7.50312 22.3132 6.99853 22.4214 6.40723H29.9253V10.3297C29.9253 10.7412 29.7464 11.1598 29.3907 11.494C29.0358 11.8274 28.5284 12.0486 27.9547 12.0486H11.5331C10.9593 12.0486 10.4519 11.8274 10.0971 11.494C9.74132 11.1598 9.5625 10.7412 9.5625 10.3297V6.40723H17.0663C17.1745 6.99853 17.4748 7.50312 17.8663 7.87083C18.3618 8.33627 19.0273 8.61089 19.7439 8.61089Z" stroke="#051C45" stroke-width="2"/>
<path d="M15.4277 5.92251C15.4277 4.90506 15.8704 3.93551 16.6514 3.20193C17.4315 2.46912 18.5254 2 19.7443 2C20.9631 2 22.057 2.46912 22.8372 3.20193C23.6181 3.93551 24.0608 4.90506 24.0608 5.92251C24.0608 6.93996 23.6181 7.90952 22.8372 8.6431C22.057 9.37591 20.9631 9.84503 19.7443 9.84503C18.5254 9.84503 17.4315 9.37591 16.6514 8.6431C15.8704 7.90952 15.4277 6.93996 15.4277 5.92251ZM17.023 5.92251C17.023 6.72307 17.372 7.40628 17.8667 7.87093C18.3621 8.33636 19.0277 8.61098 19.7443 8.61098C20.4608 8.61098 21.1264 8.33636 21.6218 7.87093C22.1165 7.40628 22.4656 6.72307 22.4656 5.92251C22.4656 5.12195 22.1165 4.43875 21.6218 3.9741C21.1264 3.50866 20.4608 3.23405 19.7443 3.23405C19.0277 3.23405 18.3621 3.50866 17.8667 3.9741C17.372 4.43875 17.023 5.12195 17.023 5.92251Z" stroke="#051C45" stroke-width="2"/>
<path d="M19.7447 37.0168C20.5345 37.0172 21.3219 36.9379 22.0944 36.7803V41.4542L19.856 40.5564L19.7447 40.5118L19.6333 40.5564L17.395 41.4543V36.7803C18.1674 36.9379 18.9549 37.0172 19.7447 37.0168ZM22.0593 29.6544L22.7216 29.99L22.5622 29.0945L22.1495 26.7756L23.9324 25.1008L24.7187 24.3622L23.7521 24.2268L21.1863 23.8674L20.0578 21.6636L19.7447 21.0521L19.4316 21.6636L18.3032 23.8674L15.7374 24.2268L14.7708 24.3622L15.5571 25.1008L17.3399 26.7756L16.9273 29.0945L16.7679 29.99L17.4301 29.6544L19.7447 28.4817L22.0593 29.6544ZM25.5983 39.7365L24.4028 39.2569V36.0509C24.8131 35.8719 25.2123 35.6694 25.5983 35.4443V39.7365ZM13.8912 39.6974V35.4443C14.2772 35.6694 14.6763 35.8719 15.0866 36.0509V39.218L13.8912 39.6974ZM10.6309 25.8853C10.6309 23.5522 11.6149 21.3979 13.2624 19.81C14.9099 18.2221 17.2017 17.2246 19.7447 17.2246C22.2877 17.2246 24.5795 18.2221 26.227 19.81C27.8746 21.3979 28.8585 23.5522 28.8585 25.8853C28.8585 28.2183 27.8746 30.3725 26.227 31.9605C24.5795 33.5483 22.2877 34.5459 19.7447 34.5459C17.2017 34.5459 14.9099 33.5484 13.2624 31.9605C11.6149 30.3726 10.6309 28.2183 10.6309 25.8853ZM11.8465 25.8478C11.8465 28.0352 12.7704 29.9798 14.2033 31.3607C15.6362 32.7418 17.5974 33.583 19.7447 33.583C21.892 33.583 23.8532 32.7418 25.2861 31.3607C26.719 29.9798 27.6429 28.0352 27.6429 25.8478C27.6429 23.6606 26.719 21.7158 25.2861 20.3349C23.8532 18.9538 21.8919 18.1127 19.7447 18.1127C17.5974 18.1127 15.6362 18.9538 14.2033 20.3349C12.7704 21.7158 11.8465 23.6606 11.8465 25.8478ZM14.1549 25.8478C14.1549 24.4512 14.7437 23.146 15.7532 22.1731C16.7626 21.2003 18.1733 20.5836 19.7447 20.5836C21.3161 20.5836 22.7268 21.2003 23.7362 22.1731C24.7457 23.146 25.3345 24.4511 25.3345 25.8478C25.3345 27.2445 24.7457 28.5496 23.7362 29.5225C22.7268 30.4954 21.3161 31.112 19.7447 31.112C18.1733 31.112 16.7626 30.4954 15.7532 29.5225C14.7437 28.5496 14.1549 27.2445 14.1549 25.8478Z" fill="#051C45"/>
<path d="M19.7447 37.0168C20.5345 37.0172 21.3219 36.9379 22.0944 36.7803V41.4542L19.856 40.5564L19.7447 40.5118L19.6333 40.5564L17.395 41.4543V36.7803C18.1674 36.9379 18.9549 37.0172 19.7447 37.0168ZM19.7447 37.0168V36.532M22.0593 29.6544L22.7216 29.99L22.5622 29.0945L22.1495 26.7756L23.9324 25.1008L24.7187 24.3622L23.7521 24.2268L21.1863 23.8674L20.0578 21.6636L19.7447 21.0521L19.4316 21.6636L18.3032 23.8674L15.7374 24.2268L14.7708 24.3622L15.5571 25.1008L17.3399 26.7756L16.9273 29.0945L16.7679 29.99L17.4301 29.6544L19.7447 28.4817L22.0593 29.6544ZM25.5983 39.7365L24.4028 39.2569V36.0509C24.8131 35.8719 25.2123 35.6694 25.5983 35.4443V39.7365ZM13.8912 39.6974V35.4443C14.2772 35.6694 14.6763 35.8719 15.0866 36.0509V39.218L13.8912 39.6974ZM10.6309 25.8853C10.6309 23.5522 11.6149 21.3979 13.2624 19.81C14.9099 18.2221 17.2017 17.2246 19.7447 17.2246C22.2877 17.2246 24.5795 18.2221 26.227 19.81C27.8746 21.3979 28.8585 23.5522 28.8585 25.8853C28.8585 28.2183 27.8746 30.3725 26.227 31.9605C24.5795 33.5483 22.2877 34.5459 19.7447 34.5459C17.2017 34.5459 14.9099 33.5484 13.2624 31.9605C11.6149 30.3726 10.6309 28.2183 10.6309 25.8853ZM11.8465 25.8478C11.8465 28.0352 12.7704 29.9798 14.2033 31.3607C15.6362 32.7418 17.5974 33.583 19.7447 33.583C21.892 33.583 23.8532 32.7418 25.2861 31.3607C26.719 29.9798 27.6429 28.0352 27.6429 25.8478C27.6429 23.6606 26.719 21.7158 25.2861 20.3349C23.8532 18.9538 21.8919 18.1127 19.7447 18.1127C17.5974 18.1127 15.6362 18.9538 14.2033 20.3349C12.7704 21.7158 11.8465 23.6606 11.8465 25.8478ZM14.1549 25.8478C14.1549 24.4512 14.7437 23.146 15.7532 22.1731C16.7626 21.2003 18.1733 20.5836 19.7447 20.5836C21.3161 20.5836 22.7268 21.2003 23.7362 22.1731C24.7457 23.146 25.3345 24.4511 25.3345 25.8478C25.3345 27.2445 24.7457 28.5496 23.7362 29.5225C22.7268 30.4954 21.3161 31.112 19.7447 31.112C18.1733 31.112 16.7626 30.4954 15.7532 29.5225C14.7437 28.5496 14.1549 27.2445 14.1549 25.8478Z" stroke="#051C45"/>
</g>
</g>
<defs>
<clipPath id="clip0_1069_64">
<rect width="39" height="50" fill="white"/>
</clipPath>
</defs>
</svg>
