<svg width="50" height="50" viewBox="0 0 50 50" fill="none" xmlns="http://www.w3.org/2000/svg">
<mask id="mask0_1069_73" style="mask-type:luminance" maskUnits="userSpaceOnUse" x="2" y="1" width="48" height="49">
<path d="M50 1H2V50H50V1Z" fill="white"/>
</mask>
<g mask="url(#mask0_1069_73)">
<path d="M15.6953 19.0964C16.2919 19.7786 17.1305 20.3681 18.1081 20.8453C20.1061 21.8205 22.8331 22.4099 25.82 22.4099C28.8071 22.4099 31.5341 21.8205 33.5321 20.8453C34.5096 20.3681 35.3483 19.7786 35.9449 19.0964V20.6411C35.9449 21.8628 34.833 23.1245 32.7318 24.0483H18.9084C16.8072 23.1245 15.6953 21.8628 15.6953 20.6411V19.0964ZM25.82 3C28.6922 3 31.2677 3.56871 33.1072 4.46657C34.9772 5.37927 35.9449 6.55122 35.9449 7.70122C35.9449 8.85121 34.9772 10.0232 33.1072 10.9359C31.2677 11.8337 28.6922 12.4024 25.82 12.4024C22.9479 12.4024 20.3725 11.8337 18.5329 10.9359C16.6629 10.0232 15.6953 8.85121 15.6953 7.70122C15.6953 6.55122 16.6629 5.37927 18.5329 4.46657C20.3725 3.56871 22.9479 3 25.82 3ZM35.9449 12.6264V14.1711C35.9449 15.3212 34.9772 16.4931 33.1072 17.4058C31.2677 18.3037 28.6922 18.8724 25.82 18.8724C22.9479 18.8724 20.3725 18.3037 18.5329 17.4058C16.6629 16.4931 15.6953 15.3212 15.6953 14.1711V12.6264C16.2919 13.3086 17.1305 13.8982 18.1081 14.3753C20.1061 15.3505 22.8331 15.9399 25.82 15.9399C28.8071 15.9399 31.5341 15.3505 33.5321 14.3753C34.5096 13.8982 35.3483 13.3086 35.9449 12.6264Z" stroke="#051C45" stroke-width="2"/>
<mask id="mask1_1069_73" style="mask-type:luminance" maskUnits="userSpaceOnUse" x="17" y="23" width="18" height="27">
<path d="M33.7128 45.2859C33.9319 45.2859 34.1093 45.0992 34.1093 44.8685V24.6488C34.1093 24.0503 33.6468 23.5635 33.0785 23.5635H31.2144H20.8265H18.9624C18.394 23.5635 17.9316 24.0503 17.9316 24.6488V48.9139C17.9316 49.5122 18.394 49.9992 18.9624 49.9992H33.0784C33.6468 49.9992 34.1093 49.5122 34.1093 48.9139V46.1488C34.1093 45.9183 33.9318 45.7314 33.7128 45.7314C33.4937 45.7314 33.3163 45.9183 33.3163 46.1488V48.9139C33.3163 49.0519 33.2097 49.1644 33.0784 49.1644H18.9624C18.8313 49.1644 18.7245 49.052 18.7245 48.9139V24.6488C18.7245 24.5107 18.8313 24.3983 18.9624 24.3983H20.43V26.1949C20.43 26.4255 20.6075 26.6123 20.8265 26.6123H28.3405C28.5595 26.6123 28.7369 26.4255 28.7369 26.1949C28.7369 25.9644 28.5595 25.7775 28.3405 25.7775H21.223V24.3983H30.8179V25.7774H29.6092C29.3901 25.7774 29.2127 25.9643 29.2127 26.1948C29.2127 26.4254 29.3901 26.6122 29.6092 26.6122H31.2144C31.4334 26.6122 31.6109 26.4254 31.6109 26.1948V24.3983H33.0785C33.2097 24.3983 33.3164 24.5106 33.3164 24.6488V44.8685C33.3164 45.0992 33.4938 45.2859 33.7128 45.2859Z" fill="white"/>
</mask>
<g mask="url(#mask1_1069_73)">
<path d="M20.4311 24.3995H21.3911V23.45H20.4311V24.3995ZM21.224 25.7788H20.264V26.7283H21.224V25.7788ZM21.224 24.3995V23.45H20.264V24.3995H21.224ZM30.8189 24.3995H31.7789V23.45H30.8189V24.3995ZM30.8189 25.7787V26.7282H31.7789V25.7787H30.8189ZM31.6119 24.3995V23.45H30.6519V24.3995H31.6119ZM33.7138 46.2367C34.5187 46.2367 35.0703 45.5681 35.0703 44.8698H33.1503C33.1503 44.6327 33.3471 44.3377 33.7138 44.3377V46.2367ZM35.0703 44.8698V24.65H33.1503V44.8698H35.0703ZM35.0703 24.65C35.0703 23.5839 34.2336 22.6152 33.0795 22.6152V24.5142C33.0814 24.5142 33.0826 24.5143 33.0857 24.5157C33.0896 24.5175 33.0981 24.5222 33.1083 24.533C33.1295 24.5553 33.1503 24.5947 33.1503 24.65H35.0703ZM33.0795 22.6152H31.2154V24.5142H33.0795V22.6152ZM31.2154 22.6152H20.8275V24.5142H31.2154V22.6152ZM20.8275 22.6152H18.9634V24.5142H20.8275V22.6152ZM18.9634 22.6152C17.8092 22.6152 16.9727 23.5839 16.9727 24.65H18.8927C18.8927 24.5947 18.9135 24.5553 18.9345 24.533C18.9449 24.5222 18.9533 24.5175 18.9573 24.5157C18.9603 24.5143 18.9616 24.5142 18.9634 24.5142V22.6152ZM16.9727 24.65V48.9151H18.8927V24.65H16.9727ZM16.9727 48.9151C16.9727 49.9812 17.8092 50.9499 18.9634 50.9499V49.0509C18.9616 49.0509 18.9603 49.0508 18.9573 49.0494C18.9533 49.0477 18.9449 49.0429 18.9345 49.032C18.9135 49.0099 18.8927 48.9705 18.8927 48.9151H16.9727ZM18.9634 50.9499H33.0794V49.0509H18.9634V50.9499ZM33.0794 50.9499C34.2336 50.9499 35.0703 49.9812 35.0703 48.9151H33.1503C33.1503 48.9705 33.1294 49.0099 33.1083 49.032C33.0981 49.0429 33.0895 49.0477 33.0856 49.0494C33.0826 49.0508 33.0814 49.0509 33.0794 49.0509V50.9499ZM35.0703 48.9151V46.1501H33.1503V48.9151H35.0703ZM35.0703 46.1501C35.0703 45.4519 34.5186 44.7832 33.7138 44.7832V46.6822C33.347 46.6822 33.1503 46.3872 33.1503 46.1501H35.0703ZM33.7138 44.7832C32.9089 44.7832 32.3573 45.452 32.3573 46.1501H34.2773C34.2773 46.3872 34.0806 46.6822 33.7138 46.6822V44.7832ZM32.3573 46.1501V48.9151H34.2773V46.1501H32.3573ZM32.3573 48.9151C32.3573 48.5857 32.6247 48.2161 33.0794 48.2161V50.1151C33.7966 50.1151 34.2773 49.5207 34.2773 48.9151H32.3573ZM33.0794 48.2161H18.9634V50.1151H33.0794V48.2161ZM18.9634 48.2161C19.418 48.2161 19.6855 48.5855 19.6855 48.9151H17.7655C17.7655 49.521 18.2466 50.1151 18.9634 50.1151V48.2161ZM19.6855 48.9151V24.65H17.7655V48.9151H19.6855ZM19.6855 24.65C19.6855 24.9795 19.4182 25.349 18.9634 25.349V23.45C18.2463 23.45 17.7655 24.0444 17.7655 24.65H19.6855ZM18.9634 25.349H20.4311V23.45H18.9634V25.349ZM19.4711 24.3995V26.1962H21.3911V24.3995H19.4711ZM19.4711 26.1962C19.4711 26.8945 20.0229 27.5631 20.8275 27.5631V25.6641C21.1943 25.6641 21.3911 25.959 21.3911 26.1962H19.4711ZM20.8275 27.5631H28.3416V25.6641H20.8275V27.5631ZM28.3416 27.5631C29.1464 27.5631 29.6979 26.8942 29.6979 26.1962H27.7779C27.7779 25.9591 27.9746 25.6641 28.3416 25.6641V27.5631ZM29.6979 26.1962C29.6979 25.4981 29.1464 24.8293 28.3416 24.8293V26.7283C27.9746 26.7283 27.7779 26.4332 27.7779 26.1962H29.6979ZM28.3416 24.8293H21.224V26.7283H28.3416V24.8293ZM22.184 25.7788V24.3995H20.264V25.7788H22.184ZM21.224 25.349H30.8189V23.45H21.224V25.349ZM29.8589 24.3995V25.7787H31.7789V24.3995H29.8589ZM30.8189 24.8292H29.6102V26.7282H30.8189V24.8292ZM29.6102 24.8292C28.8053 24.8292 28.2537 25.498 28.2537 26.1961H30.1737C30.1737 26.4332 29.977 26.7282 29.6102 26.7282V24.8292ZM28.2537 26.1961C28.2537 26.8942 28.8053 27.563 29.6102 27.563V25.664C29.977 25.664 30.1737 25.9591 30.1737 26.1961H28.2537ZM29.6102 27.563H31.2154V25.664H29.6102V27.563ZM31.2154 27.563C32.0203 27.563 32.5719 26.8942 32.5719 26.1961H30.6519C30.6519 25.9591 30.8485 25.664 31.2154 25.664V27.563ZM32.5719 26.1961V24.3995H30.6519V26.1961H32.5719ZM31.6119 25.349H33.0795V23.45H31.6119V25.349ZM33.0795 25.349C32.625 25.349 32.3574 24.9797 32.3574 24.65H34.2774C34.2774 24.044 33.7963 23.45 33.0795 23.45V25.349ZM32.3574 24.65V44.8698H34.2774V24.65H32.3574ZM32.3574 44.8698C32.3574 45.5681 32.909 46.2367 33.7138 46.2367V44.3377C34.0806 44.3377 34.2774 44.6328 34.2774 44.8698H32.3574Z" fill="#051C45"/>
</g>
<path d="M31.395 43.0269H31.0821L31.082 42.6667H31.395V43.0269ZM31.395 40.4527V40.8128H31.0821L31.082 40.4527H31.395ZM31.395 38.5988H31.0821L31.082 38.2386H31.395V38.5988ZM31.395 36.0246V36.3847H31.0821L31.082 36.0246H31.395ZM31.395 34.1707H31.0821L31.082 33.8105H31.395V34.1707Z" stroke="#051C45"/>
<mask id="mask2_1069_73" style="mask-type:luminance" maskUnits="userSpaceOnUse" x="24" y="27" width="4" height="4">
<path d="M27.6583 29.0906C27.6583 28.1392 26.9232 27.3652 26.0196 27.3652C25.1159 27.3652 24.3809 28.1392 24.3809 29.0906C24.3809 30.0419 25.1159 30.8158 26.0196 30.8158C26.9232 30.8158 27.6583 30.0419 27.6583 29.0906ZM25.1738 29.0906C25.1738 28.5996 25.5532 28.2001 26.0196 28.2001C26.4859 28.2001 26.8653 28.5996 26.8653 29.0906C26.8653 29.5815 26.4859 29.981 26.0196 29.981C25.5532 29.981 25.1738 29.5816 25.1738 29.0906Z" fill="white"/>
</mask>
<g mask="url(#mask2_1069_73)">
<path d="M28.6193 29.0918C28.6193 27.6728 27.51 26.417 26.0206 26.417V28.316C26.3384 28.316 26.6993 28.6081 26.6993 29.0918H28.6193ZM26.0206 26.417C24.5312 26.417 23.4219 27.6728 23.4219 29.0918H25.3419C25.3419 28.6081 25.7027 28.316 26.0206 28.316V26.417ZM23.4219 29.0918C23.4219 30.5109 24.5312 31.7666 26.0206 31.7666V29.8676C25.7027 29.8676 25.3419 29.5755 25.3419 29.0918H23.4219ZM26.0206 31.7666C27.51 31.7666 28.6193 30.5109 28.6193 29.0918H26.6993C26.6993 29.5755 26.3384 29.8676 26.0206 29.8676V31.7666ZM26.1348 29.0918C26.1348 29.0902 26.1349 29.0995 26.1225 29.1125C26.1091 29.1266 26.0735 29.1509 26.0206 29.1509V27.2519C24.9684 27.2519 24.2148 28.1331 24.2148 29.0918H26.1348ZM26.0206 29.1509C25.9677 29.1509 25.932 29.1266 25.9186 29.1125C25.9063 29.0995 25.9064 29.0902 25.9064 29.0918H27.8264C27.8264 28.1331 27.0728 27.2519 26.0206 27.2519V29.1509ZM25.9064 29.0918C25.9064 29.0933 25.9063 29.0841 25.9186 29.071C25.932 29.057 25.9677 29.0328 26.0206 29.0328V30.9318C27.0728 30.9318 27.8264 30.0504 27.8264 29.0918H25.9064ZM26.0206 29.0328C26.0735 29.0328 26.1091 29.057 26.1225 29.071C26.1349 29.0841 26.1348 29.0933 26.1348 29.0918H24.2148C24.2148 30.0505 24.9684 30.9318 26.0206 30.9318V29.0328Z" fill="#051C45"/>
</g>
<mask id="mask3_1069_73" style="mask-type:luminance" maskUnits="userSpaceOnUse" x="20" y="44" width="12" height="2">
<path d="M31.8754 45.0922C31.8754 44.8616 31.698 44.6748 31.479 44.6748H20.5625C20.3434 44.6748 20.166 44.8617 20.166 45.0922C20.166 45.3227 20.3435 45.5096 20.5625 45.5096H31.479C31.698 45.5096 31.8754 45.3227 31.8754 45.0922Z" fill="white"/>
</mask>
<g mask="url(#mask3_1069_73)">
<path d="M32.8345 45.0915C32.8345 44.3932 32.2828 43.7246 31.4781 43.7246V45.6236C31.1113 45.6236 30.9145 45.3287 30.9145 45.0915H32.8345ZM31.4781 43.7246H20.5616V45.6236H31.4781V43.7246ZM20.5616 43.7246C19.7566 43.7246 19.2051 44.3934 19.2051 45.0915H21.1251C21.1251 45.3285 20.9284 45.6236 20.5616 45.6236V43.7246ZM19.2051 45.0915C19.2051 45.7897 19.7568 46.4584 20.5616 46.4584V44.5594C20.9284 44.5594 21.1251 44.8544 21.1251 45.0915H19.2051ZM20.5616 46.4584H31.4781V44.5594H20.5616V46.4584ZM31.4781 46.4584C32.2829 46.4584 32.8345 45.7897 32.8345 45.0915H30.9145C30.9145 44.8544 31.1113 44.5594 31.4781 44.5594V46.4584Z" fill="#051C45"/>
</g>
<path d="M24.6358 47.2627C24.6355 47.2562 24.6324 47.2449 24.6215 47.2335C24.6093 47.2207 24.5848 47.2061 24.5524 47.2061C24.5188 47.2061 24.4942 47.2212 24.4825 47.2335C24.4713 47.2453 24.4688 47.2568 24.4688 47.2628C24.4688 47.2632 24.4688 47.2636 24.4688 47.264C24.4691 47.2704 24.4722 47.2814 24.4829 47.2927C24.4948 47.3052 24.5193 47.3201 24.5524 47.3201C24.5855 47.3201 24.6101 47.3051 24.6219 47.2927C24.6325 47.2814 24.6355 47.2705 24.6358 47.264C24.6359 47.2638 24.6358 47.2629 24.6358 47.2627ZM24.6358 47.2627C24.6359 47.2629 24.6358 47.2625 24.6358 47.2627Z" stroke="#051C45"/>
<path d="M23.1924 47.2627C23.192 47.2562 23.189 47.2449 23.178 47.2335C23.1659 47.2207 23.1414 47.2061 23.1089 47.2061C23.0754 47.2061 23.0507 47.2212 23.0391 47.2335C23.028 47.2453 23.0254 47.2568 23.0254 47.2628C23.0254 47.2632 23.0254 47.2636 23.0254 47.264C23.0258 47.2704 23.0288 47.2814 23.0394 47.2927C23.0513 47.3052 23.0759 47.3201 23.1089 47.3201C23.142 47.3201 23.1666 47.3051 23.1784 47.2927C23.1891 47.2814 23.192 47.2704 23.1924 47.264C23.1924 47.2638 23.1924 47.2629 23.1924 47.2627ZM23.1924 47.2627C23.1924 47.2629 23.1924 47.2625 23.1924 47.2627Z" stroke="#051C45"/>
<path d="M21.751 47.2627C21.7506 47.2562 21.7476 47.2449 21.7366 47.2335C21.7245 47.2207 21.7 47.2061 21.6675 47.2061C21.634 47.2061 21.6093 47.2212 21.5977 47.2335C21.5866 47.2453 21.584 47.2568 21.584 47.2628C21.584 47.2632 21.584 47.2636 21.584 47.264C21.5844 47.2704 21.5873 47.2814 21.598 47.2927C21.6099 47.3052 21.6345 47.3201 21.6675 47.3201C21.7006 47.3201 21.7252 47.3051 21.737 47.2927C21.7477 47.2814 21.7506 47.2704 21.751 47.264C21.751 47.2638 21.751 47.2629 21.751 47.2627ZM21.751 47.2627C21.751 47.2629 21.751 47.2625 21.751 47.2627Z" stroke="#051C45"/>
<path d="M25.9648 47.2634C25.9651 47.27 25.9683 47.2813 25.9792 47.2928C25.9913 47.3056 26.0159 47.3202 26.0484 47.3202C26.082 47.3202 26.1065 47.305 26.1182 47.2927C26.1293 47.281 26.1319 47.2696 26.1319 47.2634C26.1319 47.263 26.1319 47.2626 26.1319 47.2623C26.1315 47.2558 26.1285 47.2448 26.1179 47.2335C26.106 47.2211 26.0814 47.2061 26.0484 47.2061C26.0154 47.2061 25.9908 47.2211 25.9789 47.2335C25.9682 47.2448 25.9651 47.2558 25.9648 47.2623C25.9648 47.2625 25.9648 47.2632 25.9648 47.2634ZM25.9648 47.2634C25.9648 47.2632 25.9648 47.2636 25.9648 47.2634Z" stroke="#051C45"/>
<path d="M30.2892 47.2634C30.2894 47.27 30.2925 47.2814 30.3035 47.2928C30.3156 47.3055 30.3402 47.3202 30.3727 47.3202C30.4062 47.3202 30.4308 47.305 30.4425 47.2927C30.4536 47.281 30.4562 47.2696 30.4562 47.2634C30.4562 47.263 30.4562 47.2626 30.4561 47.2623C30.4558 47.2558 30.4528 47.2448 30.4421 47.2335C30.4302 47.2211 30.4056 47.2061 30.3727 47.2061C30.3397 47.2061 30.3151 47.2211 30.3032 47.2335C30.2924 47.2448 30.2894 47.2558 30.2892 47.2623C30.2892 47.2625 30.2892 47.2632 30.2892 47.2634ZM30.2892 47.2634C30.2892 47.2632 30.2892 47.2636 30.2892 47.2634Z" stroke="#051C45"/>
<path d="M28.8477 47.2634C28.848 47.27 28.8511 47.2813 28.8621 47.2928C28.8742 47.3056 28.8987 47.3202 28.9312 47.3202C28.9649 47.3202 28.9894 47.3049 29.001 47.2927C29.0121 47.281 29.0147 47.2697 29.0147 47.2634C29.0147 47.263 29.0147 47.2626 29.0147 47.2623C29.0144 47.2558 29.0113 47.2448 29.0007 47.2335C28.9888 47.2211 28.9642 47.2061 28.9312 47.2061C28.8982 47.2061 28.8736 47.2211 28.8617 47.2335C28.851 47.2448 28.848 47.2558 28.8477 47.2623C28.8477 47.2625 28.8477 47.2632 28.8477 47.2634ZM28.8477 47.2634C28.8477 47.2632 28.8477 47.2636 28.8477 47.2634Z" stroke="#051C45"/>
<path d="M27.4062 47.2634C27.4066 47.27 27.4097 47.2814 27.4207 47.2928C27.4327 47.3055 27.4573 47.3202 27.4898 47.3202C27.5234 47.3202 27.5479 47.305 27.5596 47.2927C27.5707 47.281 27.5733 47.2696 27.5733 47.2634C27.5733 47.263 27.5733 47.2626 27.5733 47.2623C27.573 47.2558 27.5699 47.2448 27.5593 47.2335C27.5474 47.2211 27.5228 47.2061 27.4898 47.2061C27.4568 47.2061 27.4322 47.2211 27.4203 47.2335C27.4096 47.2448 27.4066 47.2558 27.4062 47.2623C27.4062 47.2625 27.4062 47.2632 27.4062 47.2634ZM27.4062 47.2634C27.4062 47.2632 27.4062 47.2636 27.4062 47.2634Z" stroke="#051C45"/>
<path d="M30.0547 33.1209C30.0547 33.1206 30.0547 33.1211 30.0547 33.1209ZM30.0547 33.1209C30.0547 33.1207 30.0547 33.1199 30.0547 33.1197C30.055 33.1132 30.058 33.1022 30.0687 33.091C30.0806 33.0785 30.1052 33.0635 30.1382 33.0635C30.1712 33.0635 30.1958 33.0785 30.2077 33.091C30.2184 33.1022 30.2213 33.1132 30.2217 33.1197C30.2217 33.1201 30.2217 33.1205 30.2217 33.1209C30.2217 33.127 30.2191 33.1384 30.208 33.1501C30.1964 33.1624 30.1717 33.1776 30.1382 33.1776C30.1056 33.1776 30.0811 33.1629 30.069 33.1503C30.0581 33.1388 30.055 33.1275 30.0547 33.1209Z" stroke="#051C45"/>
<path d="M30.0547 35.3366C30.0547 35.3365 30.0547 35.3368 30.0547 35.3366ZM30.0547 35.3366C30.0547 35.3365 30.0547 35.3357 30.0547 35.3355C30.055 35.3291 30.058 35.318 30.0687 35.3067C30.0806 35.2942 30.1052 35.2793 30.1382 35.2793C30.1712 35.2793 30.1958 35.2942 30.2076 35.3067C30.2184 35.318 30.2213 35.329 30.2217 35.3355C30.2217 35.3359 30.2217 35.3363 30.2217 35.3366C30.2217 35.3427 30.2191 35.3542 30.208 35.3659C30.1964 35.3782 30.1717 35.3934 30.1382 35.3934C30.1058 35.3934 30.0812 35.3787 30.0691 35.366C30.0581 35.3545 30.0551 35.3431 30.0547 35.3366Z" stroke="#051C45"/>
<path d="M30.0547 37.5486C30.0547 37.5484 30.0547 37.5488 30.0547 37.5486ZM30.0547 37.5486C30.0547 37.5484 30.0547 37.5476 30.0547 37.5474C30.055 37.541 30.058 37.53 30.0687 37.5187C30.0806 37.5062 30.1052 37.4912 30.1382 37.4912C30.1712 37.4912 30.1958 37.5062 30.2077 37.5187C30.2184 37.5299 30.2213 37.541 30.2217 37.5474C30.2217 37.5478 30.2217 37.5482 30.2217 37.5486C30.2217 37.5547 30.2191 37.566 30.208 37.5778C30.1964 37.5902 30.1717 37.6053 30.1382 37.6053C30.1057 37.6053 30.0811 37.5906 30.0691 37.5779C30.0581 37.5664 30.055 37.5551 30.0547 37.5486Z" stroke="#051C45"/>
<path d="M30.0547 39.7634C30.0547 39.7632 30.0547 39.7636 30.0547 39.7634ZM30.0547 39.7634C30.0547 39.7632 30.0547 39.7624 30.0547 39.7622C30.055 39.7558 30.058 39.7448 30.0687 39.7335C30.0806 39.721 30.1052 39.7061 30.1382 39.7061C30.1712 39.7061 30.1958 39.721 30.2077 39.7335C30.2184 39.7448 30.2213 39.7558 30.2217 39.7622C30.2217 39.7626 30.2217 39.763 30.2217 39.7634C30.2217 39.7695 30.2191 39.7809 30.208 39.7926C30.1964 39.8049 30.1717 39.8201 30.1382 39.8201C30.1057 39.8201 30.0811 39.8054 30.0691 39.7927C30.0581 39.7813 30.055 39.77 30.0547 39.7634Z" stroke="#051C45"/>
<path d="M30.0547 41.9773C30.0547 41.9771 30.0547 41.9775 30.0547 41.9773ZM30.0547 41.9773C30.0547 41.9771 30.0547 41.9763 30.0547 41.9761C30.055 41.9697 30.058 41.9587 30.0687 41.9475C30.0806 41.9349 30.1052 41.9199 30.1382 41.9199C30.1711 41.9199 30.1957 41.9349 30.2076 41.9475C30.2184 41.9587 30.2213 41.9697 30.2217 41.9761C30.2217 41.9765 30.2217 41.9769 30.2217 41.9773C30.2217 41.9833 30.2191 41.9948 30.208 42.0066C30.1964 42.0189 30.1717 42.0341 30.1382 42.0341C30.1057 42.0341 30.0812 42.0194 30.0691 42.0067C30.0581 41.9952 30.0551 41.9838 30.0547 41.9773Z" stroke="#051C45"/>
<path d="M25.916 29.0908C25.916 29.0782 25.9211 29.0609 25.9363 29.0448C25.952 29.0283 25.982 29.0107 26.021 29.0107C26.06 29.0107 26.09 29.0283 26.1057 29.0448C26.1209 29.0609 26.1261 29.0782 26.1261 29.0908C26.1261 29.1033 26.1209 29.1206 26.1057 29.1366C26.09 29.1532 26.06 29.1707 26.021 29.1707C25.982 29.1707 25.952 29.1532 25.9363 29.1366C25.9211 29.1206 25.916 29.1033 25.916 29.0908Z" stroke="#051C45"/>
<mask id="mask4_1069_73" style="mask-type:luminance" maskUnits="userSpaceOnUse" x="28" y="28" width="2" height="2">
<path d="M29.4496 29.5096C29.6686 29.5096 29.846 29.3227 29.846 29.0922C29.846 28.8617 29.6685 28.6748 29.4496 28.6748H28.666C28.447 28.6748 28.2695 28.8617 28.2695 29.0922C28.2695 29.3227 28.447 29.5096 28.666 29.5096H29.4496Z" fill="white"/>
</mask>
<g mask="url(#mask4_1069_73)">
<path d="M29.4506 30.4584C30.2554 30.4584 30.8071 29.7897 30.8071 29.0915H28.8871C28.8871 28.8545 29.0838 28.5594 29.4506 28.5594V30.4584ZM30.8071 29.0915C30.8071 28.3933 30.2553 27.7246 29.4506 27.7246V29.6236C29.0838 29.6236 28.8871 29.3287 28.8871 29.0915H30.8071ZM29.4506 27.7246H28.667V29.6236H29.4506V27.7246ZM28.667 27.7246C27.8622 27.7246 27.3105 28.3934 27.3105 29.0915H29.2305C29.2305 29.3286 29.0338 29.6236 28.667 29.6236V27.7246ZM27.3105 29.0915C27.3105 29.7898 27.8623 30.4584 28.667 30.4584V28.5594C29.0338 28.5594 29.2305 28.8544 29.2305 29.0915H27.3105ZM28.667 30.4584H29.4506V28.5594H28.667V30.4584Z" fill="#051C45"/>
</g>
<mask id="mask5_1069_73" style="mask-type:luminance" maskUnits="userSpaceOnUse" x="35" y="21" width="15" height="25">
<path d="M49.641 41.1885C49.8383 41.1885 49.9981 41.0203 49.9981 40.8126V22.6043C49.9981 22.0653 49.5816 21.627 49.0698 21.627H47.3912H38.0367H36.358C35.8461 21.627 35.4297 22.0653 35.4297 22.6043V44.4556C35.4297 44.9944 35.8461 45.4329 36.358 45.4329H49.0698C49.5816 45.4329 49.9981 44.9944 49.9981 44.4556V41.9656C49.9981 41.758 49.8382 41.5897 49.641 41.5897C49.4438 41.5897 49.284 41.758 49.284 41.9656V44.4556C49.284 44.5799 49.1879 44.6811 49.0698 44.6811H36.358C36.2398 44.6811 36.1437 44.58 36.1437 44.4556V22.6043C36.1437 22.4799 36.2398 22.3787 36.358 22.3787H37.6796V23.9966C37.6796 24.2043 37.8395 24.3725 38.0367 24.3725H44.8031C45.0004 24.3725 45.1602 24.2042 45.1602 23.9966C45.1602 23.789 45.0004 23.6207 44.8031 23.6207H38.3937V22.3787H47.0342V23.6207H45.9456C45.7483 23.6207 45.5886 23.789 45.5886 23.9965C45.5886 24.2042 45.7483 24.3724 45.9456 24.3724H47.3912C47.5884 24.3724 47.7481 24.2042 47.7481 23.9965V22.3787H49.0698C49.1879 22.3787 49.284 22.4799 49.284 22.6043V40.8126C49.284 41.0203 49.4439 41.1885 49.641 41.1885Z" fill="white"/>
</mask>
<g mask="url(#mask5_1069_73)">
<mask id="path-26-outside-1_1069_73" maskUnits="userSpaceOnUse" x="33.4707" y="19.6768" width="19" height="28" fill="black">
<rect fill="white" x="33.4707" y="19.6768" width="19" height="28"/>
<path d="M37.6807 22.378H38.6407V21.4285H37.6807V22.378ZM38.3947 23.62H37.4347V24.5695H38.3947V23.62ZM38.3947 22.378V21.4285H37.4347V22.378H38.3947ZM47.0352 22.378H47.9952V21.4285H47.0352V22.378ZM47.0352 23.62V24.5695H47.9952V23.62H47.0352ZM47.7491 22.378V21.4285H46.7891V22.378H47.7491ZM49.6421 42.1373C50.4251 42.1373 50.9591 41.4873 50.9591 40.8119H49.0391C49.0391 40.552 49.2536 40.2383 49.6421 40.2383V42.1373ZM50.9591 40.8119V22.6036H49.0391V40.8119H50.9591ZM50.9591 22.6036C50.9591 21.597 50.1685 20.6768 49.0709 20.6768V22.5758C49.0586 22.5758 49.0464 22.5728 49.0372 22.5687C49.0288 22.565 49.0273 22.5629 49.0273 22.5629C49.0297 22.5655 49.0391 22.578 49.0391 22.6036H50.9591ZM49.0709 20.6768H47.3922V22.5758H49.0709V20.6768ZM47.3922 20.6768H38.0377V22.5758H47.3922V20.6768ZM38.0377 20.6768H36.359V22.5758H38.0377V20.6768ZM36.359 20.6768C35.2614 20.6768 34.4707 21.597 34.4707 22.6036H36.3907C36.3907 22.578 36.4001 22.5655 36.4026 22.5629C36.4026 22.5629 36.401 22.565 36.3927 22.5687C36.3834 22.5728 36.3712 22.5758 36.359 22.5758V20.6768ZM34.4707 22.6036V44.4549H36.3907V22.6036H34.4707ZM34.4707 44.4549C34.4707 45.4614 35.2614 46.3817 36.359 46.3817V44.4827C36.3712 44.4827 36.3834 44.4855 36.3927 44.4897C36.401 44.4934 36.4026 44.4955 36.4026 44.4955C36.4001 44.4929 36.3907 44.4804 36.3907 44.4549H34.4707ZM36.359 46.3817H49.0708V44.4827H36.359V46.3817ZM49.0708 46.3817C50.1684 46.3817 50.9591 45.4614 50.9591 44.4549H49.0391C49.0391 44.4804 49.0297 44.4929 49.0272 44.4955C49.0272 44.4955 49.0287 44.4934 49.0371 44.4897C49.0463 44.4855 49.0586 44.4827 49.0708 44.4827V46.3817ZM50.9591 44.4549V41.9649H49.0391V44.4549H50.9591ZM50.9591 41.9649C50.9591 41.2896 50.425 40.6395 49.6421 40.6395V42.5385C49.2535 42.5385 49.0391 42.2249 49.0391 41.9649H50.9591ZM49.6421 40.6395C48.8589 40.6395 48.325 41.2897 48.325 41.9649H50.245C50.245 42.2249 50.0307 42.5385 49.6421 42.5385V40.6395ZM48.325 41.9649V44.4549H50.245V41.9649H48.325ZM48.325 44.4549C48.325 44.1117 48.603 43.7309 49.0708 43.7309V45.6299C49.7748 45.6299 50.245 45.0467 50.245 44.4549H48.325ZM49.0708 43.7309H36.359V45.6299H49.0708V43.7309ZM36.359 43.7309C36.8265 43.7309 37.1048 44.1114 37.1048 44.4549H35.1848C35.1848 45.0471 35.6552 45.6299 36.359 45.6299V43.7309ZM37.1048 44.4549V22.6036H35.1848V44.4549H37.1048ZM37.1048 22.6036C37.1048 22.9467 36.8267 23.3275 36.359 23.3275V21.4285C35.655 21.4285 35.1848 22.0117 35.1848 22.6036H37.1048ZM36.359 23.3275H37.6807V21.4285H36.359V23.3275ZM36.7207 22.378V23.9959H38.6407V22.378H36.7207ZM36.7207 23.9959C36.7207 24.6713 37.2547 25.3213 38.0377 25.3213V23.4223C38.4262 23.4223 38.6407 23.7359 38.6407 23.9959H36.7207ZM38.0377 25.3213H44.8041V23.4223H38.0377V25.3213ZM44.8041 25.3213C45.5873 25.3213 46.1212 24.6711 46.1212 23.9959H44.2012C44.2012 23.7359 44.4155 23.4223 44.8041 23.4223V25.3213ZM46.1212 23.9959C46.1212 23.3207 45.5873 22.6705 44.8041 22.6705V24.5695C44.4155 24.5695 44.2012 24.2559 44.2012 23.9959H46.1212ZM44.8041 22.6705H38.3947V24.5695H44.8041V22.6705ZM39.3547 23.62V22.378H37.4347V23.62H39.3547ZM38.3947 23.3275H47.0352V21.4285H38.3947V23.3275ZM46.0752 22.378V23.62H47.9952V22.378H46.0752ZM47.0352 22.6705H45.9466V24.5695H47.0352V22.6705ZM45.9466 22.6705C45.1636 22.6705 44.6296 23.3207 44.6296 23.9958H46.5496C46.5496 24.2558 46.3352 24.5695 45.9466 24.5695V22.6705ZM44.6296 23.9958C44.6296 24.671 45.1636 25.3212 45.9466 25.3212V23.4222C46.3352 23.4222 46.5496 23.7359 46.5496 23.9958H44.6296ZM45.9466 25.3212H47.3922V23.4222H45.9466V25.3212ZM47.3922 25.3212C48.1753 25.3212 48.7091 24.671 48.7091 23.9958H46.7891C46.7891 23.7359 47.0035 23.4222 47.3922 23.4222V25.3212ZM48.7091 23.9958V22.378H46.7891V23.9958H48.7091ZM47.7491 23.3275H49.0709V21.4285H47.7491V23.3275ZM49.0709 23.3275C48.6032 23.3275 48.325 22.9469 48.325 22.6036H50.245C50.245 22.0114 49.7745 21.4285 49.0709 21.4285V23.3275ZM48.325 22.6036V40.8119H50.245V22.6036H48.325ZM48.325 40.8119C48.325 41.4872 48.8591 42.1373 49.6421 42.1373V40.2383C50.0307 40.2383 50.245 40.552 50.245 40.8119H48.325Z"/>
</mask>
<path d="M37.6807 22.378H38.6407V21.4285H37.6807V22.378ZM38.3947 23.62H37.4347V24.5695H38.3947V23.62ZM38.3947 22.378V21.4285H37.4347V22.378H38.3947ZM47.0352 22.378H47.9952V21.4285H47.0352V22.378ZM47.0352 23.62V24.5695H47.9952V23.62H47.0352ZM47.7491 22.378V21.4285H46.7891V22.378H47.7491ZM49.6421 42.1373C50.4251 42.1373 50.9591 41.4873 50.9591 40.8119H49.0391C49.0391 40.552 49.2536 40.2383 49.6421 40.2383V42.1373ZM50.9591 40.8119V22.6036H49.0391V40.8119H50.9591ZM50.9591 22.6036C50.9591 21.597 50.1685 20.6768 49.0709 20.6768V22.5758C49.0586 22.5758 49.0464 22.5728 49.0372 22.5687C49.0288 22.565 49.0273 22.5629 49.0273 22.5629C49.0297 22.5655 49.0391 22.578 49.0391 22.6036H50.9591ZM49.0709 20.6768H47.3922V22.5758H49.0709V20.6768ZM47.3922 20.6768H38.0377V22.5758H47.3922V20.6768ZM38.0377 20.6768H36.359V22.5758H38.0377V20.6768ZM36.359 20.6768C35.2614 20.6768 34.4707 21.597 34.4707 22.6036H36.3907C36.3907 22.578 36.4001 22.5655 36.4026 22.5629C36.4026 22.5629 36.401 22.565 36.3927 22.5687C36.3834 22.5728 36.3712 22.5758 36.359 22.5758V20.6768ZM34.4707 22.6036V44.4549H36.3907V22.6036H34.4707ZM34.4707 44.4549C34.4707 45.4614 35.2614 46.3817 36.359 46.3817V44.4827C36.3712 44.4827 36.3834 44.4855 36.3927 44.4897C36.401 44.4934 36.4026 44.4955 36.4026 44.4955C36.4001 44.4929 36.3907 44.4804 36.3907 44.4549H34.4707ZM36.359 46.3817H49.0708V44.4827H36.359V46.3817ZM49.0708 46.3817C50.1684 46.3817 50.9591 45.4614 50.9591 44.4549H49.0391C49.0391 44.4804 49.0297 44.4929 49.0272 44.4955C49.0272 44.4955 49.0287 44.4934 49.0371 44.4897C49.0463 44.4855 49.0586 44.4827 49.0708 44.4827V46.3817ZM50.9591 44.4549V41.9649H49.0391V44.4549H50.9591ZM50.9591 41.9649C50.9591 41.2896 50.425 40.6395 49.6421 40.6395V42.5385C49.2535 42.5385 49.0391 42.2249 49.0391 41.9649H50.9591ZM49.6421 40.6395C48.8589 40.6395 48.325 41.2897 48.325 41.9649H50.245C50.245 42.2249 50.0307 42.5385 49.6421 42.5385V40.6395ZM48.325 41.9649V44.4549H50.245V41.9649H48.325ZM48.325 44.4549C48.325 44.1117 48.603 43.7309 49.0708 43.7309V45.6299C49.7748 45.6299 50.245 45.0467 50.245 44.4549H48.325ZM49.0708 43.7309H36.359V45.6299H49.0708V43.7309ZM36.359 43.7309C36.8265 43.7309 37.1048 44.1114 37.1048 44.4549H35.1848C35.1848 45.0471 35.6552 45.6299 36.359 45.6299V43.7309ZM37.1048 44.4549V22.6036H35.1848V44.4549H37.1048ZM37.1048 22.6036C37.1048 22.9467 36.8267 23.3275 36.359 23.3275V21.4285C35.655 21.4285 35.1848 22.0117 35.1848 22.6036H37.1048ZM36.359 23.3275H37.6807V21.4285H36.359V23.3275ZM36.7207 22.378V23.9959H38.6407V22.378H36.7207ZM36.7207 23.9959C36.7207 24.6713 37.2547 25.3213 38.0377 25.3213V23.4223C38.4262 23.4223 38.6407 23.7359 38.6407 23.9959H36.7207ZM38.0377 25.3213H44.8041V23.4223H38.0377V25.3213ZM44.8041 25.3213C45.5873 25.3213 46.1212 24.6711 46.1212 23.9959H44.2012C44.2012 23.7359 44.4155 23.4223 44.8041 23.4223V25.3213ZM46.1212 23.9959C46.1212 23.3207 45.5873 22.6705 44.8041 22.6705V24.5695C44.4155 24.5695 44.2012 24.2559 44.2012 23.9959H46.1212ZM44.8041 22.6705H38.3947V24.5695H44.8041V22.6705ZM39.3547 23.62V22.378H37.4347V23.62H39.3547ZM38.3947 23.3275H47.0352V21.4285H38.3947V23.3275ZM46.0752 22.378V23.62H47.9952V22.378H46.0752ZM47.0352 22.6705H45.9466V24.5695H47.0352V22.6705ZM45.9466 22.6705C45.1636 22.6705 44.6296 23.3207 44.6296 23.9958H46.5496C46.5496 24.2558 46.3352 24.5695 45.9466 24.5695V22.6705ZM44.6296 23.9958C44.6296 24.671 45.1636 25.3212 45.9466 25.3212V23.4222C46.3352 23.4222 46.5496 23.7359 46.5496 23.9958H44.6296ZM45.9466 25.3212H47.3922V23.4222H45.9466V25.3212ZM47.3922 25.3212C48.1753 25.3212 48.7091 24.671 48.7091 23.9958H46.7891C46.7891 23.7359 47.0035 23.4222 47.3922 23.4222V25.3212ZM48.7091 23.9958V22.378H46.7891V23.9958H48.7091ZM47.7491 23.3275H49.0709V21.4285H47.7491V23.3275ZM49.0709 23.3275C48.6032 23.3275 48.325 22.9469 48.325 22.6036H50.245C50.245 22.0114 49.7745 21.4285 49.0709 21.4285V23.3275ZM48.325 22.6036V40.8119H50.245V22.6036H48.325ZM48.325 40.8119C48.325 41.4872 48.8591 42.1373 49.6421 42.1373V40.2383C50.0307 40.2383 50.245 40.552 50.245 40.8119H48.325Z" fill="#051C45"/>
<path d="M50.9591 40.3119H49.0391V41.3119H50.9591V40.3119ZM49.1421 40.2383V42.1373H50.1421V40.2383H49.1421ZM50.9591 22.1036H49.0391V23.1036H50.9591V22.1036ZM48.5709 20.6768V22.5758H49.5709V20.6768H48.5709ZM46.8922 20.6768V22.5758H47.8922V20.6768H46.8922ZM37.5377 20.6768V22.5758H38.5377V20.6768H37.5377ZM35.859 20.6768V22.5758H36.859V20.6768H35.859ZM34.4707 23.1036H36.3907V22.1036H34.4707V23.1036ZM34.4707 44.9549H36.3907V43.9549H34.4707V44.9549ZM36.859 46.3817V44.4827H35.859V46.3817H36.859ZM49.5708 46.3817V44.4827H48.5708V46.3817H49.5708ZM50.9591 43.9549H49.0391V44.9549H50.9591V43.9549ZM50.9591 41.4649H49.0391V42.4649H50.9591V41.4649ZM49.1421 40.6395V42.5385H50.1421V40.6395H49.1421ZM48.325 42.4649H50.245V41.4649H48.325V42.4649ZM48.325 44.9549H50.245V43.9549H48.325V44.9549ZM48.5708 43.7309V45.6299H49.5708V43.7309H48.5708ZM35.859 43.7309V45.6299H36.859V43.7309H35.859ZM37.1048 43.9549H35.1848V44.9549H37.1048V43.9549ZM37.1048 22.1036H35.1848V23.1036H37.1048V22.1036ZM36.859 23.3275V21.4285H35.859V23.3275H36.859ZM36.7207 24.4959H38.6407V23.4959H36.7207V24.4959ZM38.5377 25.3213V23.4223H37.5377V25.3213H38.5377ZM45.3041 25.3213V23.4223H44.3041V25.3213H45.3041ZM46.1212 23.4959H44.2012V24.4959H46.1212V23.4959ZM44.3041 22.6705V24.5695H45.3041V22.6705H44.3041ZM45.4466 22.6705V24.5695H46.4466V22.6705H45.4466ZM44.6296 24.4958H46.5496V23.4958H44.6296V24.4958ZM46.4466 25.3212V23.4222H45.4466V25.3212H46.4466ZM47.8922 25.3212V23.4222H46.8922V25.3212H47.8922ZM48.7091 23.4958H46.7891V24.4958H48.7091V23.4958ZM49.5709 23.3275V21.4285H48.5709V23.3275H49.5709ZM48.325 23.1036H50.245V22.1036H48.325V23.1036ZM48.325 41.3119H50.245V40.3119H48.325V41.3119ZM37.6807 22.378H36.6807V23.378H37.6807V22.378ZM38.6407 21.4285H39.6407V20.4285H38.6407V21.4285ZM38.3947 23.62H39.3947V22.62H38.3947V23.62ZM37.4347 24.5695H36.4347V25.5695H37.4347V24.5695ZM38.3947 22.378V23.378H39.3947V22.378H38.3947ZM37.4347 21.4285V20.4285H36.4347V21.4285H37.4347ZM47.0352 22.378H46.0352V23.378H47.0352V22.378ZM47.9952 21.4285H48.9952V20.4285H47.9952V21.4285ZM47.0352 23.62V22.62H46.0352V23.62H47.0352ZM47.9952 24.5695V25.5695H48.9952V24.5695H47.9952ZM47.7491 22.378V23.378H48.7491V22.378H47.7491ZM46.7891 21.4285V20.4285H45.7891V21.4285H46.7891ZM49.0372 22.5687L48.6318 23.4829L48.6321 23.483L49.0372 22.5687ZM49.0273 22.5629L49.7573 21.8795L48.2216 23.1553L49.0273 22.5629ZM36.4026 22.5629L37.1906 23.1786L35.6861 21.8653L36.4026 22.5629ZM36.3927 22.5687L36.7943 23.4846L36.802 23.4812L36.3927 22.5687ZM36.3927 44.4897L35.9834 45.4021L35.9835 45.4022L36.3927 44.4897ZM36.4026 44.4955L35.6736 45.18L37.1908 43.8801L36.4026 44.4955ZM49.0272 44.4955L48.2214 43.9033L49.7562 45.18L49.0272 44.4955ZM49.0371 44.4897L49.4424 45.4039L49.45 45.4005L49.0371 44.4897ZM37.6807 23.3275V24.3275H38.6807V23.3275H37.6807ZM36.7207 22.378V21.378H35.7207V22.378H36.7207ZM38.3947 22.6705V21.6705H37.3947V22.6705H38.3947ZM39.3547 23.62V24.62H40.3547V23.62H39.3547ZM39.3547 22.378H40.3547V21.378H39.3547V22.378ZM38.3947 23.3275H37.3947V24.3275H38.3947V23.3275ZM47.0352 23.3275V24.3275H48.0352V23.3275H47.0352ZM46.0752 22.378V21.378H45.0752V22.378H46.0752ZM46.0752 23.62H45.0752V24.62H46.0752V23.62ZM47.0352 22.6705H48.0352V21.6705H47.0352V22.6705ZM48.7091 22.378H49.7091V21.378H48.7091V22.378ZM47.7491 23.3275H46.7491V24.3275H47.7491V23.3275ZM37.6807 23.378H38.6407V21.378H37.6807V23.378ZM39.6407 22.378V21.4285H37.6407V22.378H39.6407ZM38.6407 20.4285H37.6807V22.4285H38.6407V20.4285ZM36.6807 21.4285V22.378H38.6807V21.4285H36.6807ZM38.3947 22.62H37.4347V24.62H38.3947V22.62ZM36.4347 23.62V24.5695H38.4347V23.62H36.4347ZM37.4347 25.5695H38.3947V23.5695H37.4347V25.5695ZM39.3947 24.5695V23.62H37.3947V24.5695H39.3947ZM39.3947 22.378V21.4285H37.3947V22.378H39.3947ZM38.3947 20.4285H37.4347V22.4285H38.3947V20.4285ZM36.4347 21.4285V22.378H38.4347V21.4285H36.4347ZM37.4347 23.378H38.3947V21.378H37.4347V23.378ZM47.0352 23.378H47.9952V21.378H47.0352V23.378ZM48.9952 22.378V21.4285H46.9952V22.378H48.9952ZM47.9952 20.4285H47.0352V22.4285H47.9952V20.4285ZM46.0352 21.4285V22.378H48.0352V21.4285H46.0352ZM46.0352 23.62V24.5695H48.0352V23.62H46.0352ZM47.0352 25.5695H47.9952V23.5695H47.0352V25.5695ZM48.9952 24.5695V23.62H46.9952V24.5695H48.9952ZM47.9952 22.62H47.0352V24.62H47.9952V22.62ZM48.7491 22.378V21.4285H46.7491V22.378H48.7491ZM47.7491 20.4285H46.7891V22.4285H47.7491V20.4285ZM45.7891 21.4285V22.378H47.7891V21.4285H45.7891ZM46.7891 23.378H47.7491V21.378H46.7891V23.378ZM49.6421 43.1373C51.0377 43.1373 51.9591 41.9773 51.9591 40.8119H49.9591C49.9591 40.8904 49.9258 40.9787 49.8645 41.0442C49.8113 41.101 49.7415 41.1373 49.6421 41.1373V43.1373ZM50.0391 40.8119C50.0391 40.9409 49.9928 41.0374 49.9303 41.1052C49.8509 41.1914 49.7385 41.2383 49.6421 41.2383V39.2383C48.6257 39.2383 48.0391 40.0784 48.0391 40.8119H50.0391ZM51.9591 40.8119V22.6036H49.9591V40.8119H51.9591ZM48.0391 22.6036V40.8119H50.0391V22.6036H48.0391ZM51.9591 22.6036C51.9591 21.103 50.7773 19.6768 49.0709 19.6768V21.6768C49.5597 21.6768 49.9591 22.091 49.9591 22.6036H51.9591ZM49.0709 21.5758C49.2054 21.5758 49.3308 21.6051 49.4422 21.6544L48.6321 23.483C48.762 23.5406 48.9117 23.5758 49.0709 23.5758V21.5758ZM49.4425 21.6546C49.4785 21.6705 49.534 21.6979 49.5969 21.7413C49.6292 21.7636 49.6668 21.7924 49.7064 21.8289C49.7263 21.8473 49.7472 21.8682 49.7684 21.8916C49.779 21.9033 49.7898 21.9157 49.8005 21.9288C49.8059 21.9354 49.8113 21.9422 49.8167 21.9491C49.8194 21.9526 49.8221 21.9561 49.8248 21.9597C49.8262 21.9615 49.8275 21.9633 49.8289 21.9651C49.8296 21.966 49.8302 21.9669 49.8309 21.9678C49.8313 21.9683 49.8318 21.969 49.8319 21.9692C49.8324 21.9699 49.8329 21.9706 49.0273 22.5629C48.2216 23.1553 48.2221 23.156 48.2226 23.1567C48.2228 23.1569 48.2233 23.1576 48.2236 23.1581C48.2243 23.159 48.225 23.1599 48.2257 23.1608C48.227 23.1626 48.2284 23.1644 48.2297 23.1662C48.2324 23.1698 48.2351 23.1733 48.2378 23.1768C48.2433 23.1837 48.2487 23.1905 48.2541 23.1971C48.2649 23.2103 48.2757 23.2227 48.2863 23.2345C48.3077 23.258 48.3287 23.279 48.3489 23.2977C48.389 23.3348 48.4276 23.3643 48.4613 23.3876C48.527 23.433 48.5875 23.4632 48.6318 23.4829L49.4425 21.6546ZM48.2973 23.2464C48.1295 23.0672 48.0391 22.8367 48.0391 22.6036H50.0391C50.0391 22.3194 49.9298 22.0638 49.7573 21.8795L48.2973 23.2464ZM49.0709 19.6768H47.3922V21.6768H49.0709V19.6768ZM47.3922 23.5758H49.0709V21.5758H47.3922V23.5758ZM47.3922 19.6768H38.0377V21.6768H47.3922V19.6768ZM38.0377 23.5758H47.3922V21.5758H38.0377V23.5758ZM38.0377 19.6768H36.359V21.6768H38.0377V19.6768ZM36.359 23.5758H38.0377V21.5758H36.359V23.5758ZM36.359 19.6768C34.6526 19.6768 33.4707 21.1029 33.4707 22.6036H35.4707C35.4707 22.0911 35.8701 21.6768 36.359 21.6768V19.6768ZM37.3907 22.6036C37.3907 22.8318 37.3031 23.0715 37.1191 23.2605L35.6861 21.8653C35.4971 22.0595 35.3907 22.3243 35.3907 22.6036H37.3907ZM36.4026 22.5629C35.6146 21.9473 35.6151 21.9467 35.6155 21.9461C35.6157 21.9459 35.6162 21.9453 35.6165 21.9449C35.6171 21.944 35.6178 21.9432 35.6184 21.9424C35.6197 21.9408 35.621 21.9392 35.6222 21.9376C35.6248 21.9344 35.6274 21.9313 35.6299 21.9282C35.635 21.922 35.6401 21.9159 35.6452 21.91C35.6553 21.8983 35.6654 21.8871 35.6754 21.8766C35.6952 21.8555 35.7148 21.8367 35.7334 21.8199C35.7705 21.7866 35.8056 21.76 35.8361 21.7391C35.8957 21.6983 35.9483 21.6721 35.9835 21.6563L36.802 23.4812C36.8454 23.4617 36.9029 23.4325 36.9654 23.3898C36.9973 23.368 37.0334 23.3406 37.071 23.3068C37.09 23.2897 37.1097 23.2707 37.1297 23.2495C37.1397 23.2389 37.1498 23.2277 37.16 23.2159C37.1651 23.21 37.1702 23.2039 37.1753 23.1977C37.1779 23.1946 37.1804 23.1915 37.183 23.1883C37.1842 23.1867 37.1855 23.1851 37.1868 23.1835C37.1874 23.1826 37.1881 23.1818 37.1887 23.181C37.189 23.1806 37.1895 23.18 37.1897 23.1798C37.1902 23.1792 37.1906 23.1786 36.4026 22.5629ZM35.9912 21.6529C36.0992 21.6055 36.2232 21.5758 36.359 21.5758V23.5758C36.5193 23.5758 36.6677 23.5401 36.7943 23.4846L35.9912 21.6529ZM33.4707 22.6036V44.4549H35.4707V22.6036H33.4707ZM37.3907 44.4549V22.6036H35.3907V44.4549H37.3907ZM33.4707 44.4549C33.4707 45.9555 34.6526 47.3817 36.359 47.3817V45.3817C35.8701 45.3817 35.4707 44.9674 35.4707 44.4549H33.4707ZM36.359 45.4827C36.2286 45.4827 36.1015 45.4551 35.9834 45.4021L36.8021 43.5773C36.6654 43.516 36.5138 43.4827 36.359 43.4827V45.4827ZM35.9835 45.4022C35.9483 45.3864 35.8957 45.3601 35.8361 45.3193C35.8055 45.2984 35.7703 45.2718 35.7333 45.2385C35.7146 45.2217 35.6951 45.2028 35.6752 45.1817C35.6653 45.1712 35.6552 45.16 35.645 45.1483C35.64 45.1424 35.6349 45.1363 35.6298 45.1301C35.6272 45.127 35.6247 45.1239 35.6221 45.1207C35.6208 45.1191 35.6196 45.1175 35.6183 45.1159C35.6176 45.1151 35.617 45.1142 35.6164 45.1134C35.616 45.113 35.6156 45.1124 35.6154 45.1122C35.6149 45.1116 35.6144 45.111 36.4026 44.4955C37.1908 43.8801 37.1903 43.8794 37.1898 43.8788C37.1897 43.8786 37.1892 43.878 37.1889 43.8776C37.1882 43.8768 37.1876 43.876 37.1869 43.8752C37.1857 43.8736 37.1844 43.872 37.1831 43.8704C37.1806 43.8672 37.178 43.864 37.1754 43.8609C37.1703 43.8547 37.1652 43.8486 37.1601 43.8427C37.15 43.8309 37.1398 43.8197 37.1298 43.8091C37.1098 43.7879 37.0901 43.7689 37.0712 43.7518C37.0336 43.718 36.9974 43.6906 36.9655 43.6687C36.903 43.626 36.8454 43.5968 36.802 43.5773L35.9835 45.4022ZM37.1317 43.8111C37.2984 43.9886 37.3907 44.2191 37.3907 44.4549H35.3907C35.3907 44.7417 35.5019 44.9971 35.6736 45.18L37.1317 43.8111ZM36.359 47.3817H49.0708V45.3817H36.359V47.3817ZM49.0708 43.4827H36.359V45.4827H49.0708V43.4827ZM49.0708 47.3817C50.7772 47.3817 51.9591 45.9555 51.9591 44.4549H49.9591C49.9591 44.9674 49.5597 45.3817 49.0708 45.3817V47.3817ZM48.0391 44.4549C48.0391 44.2193 48.1313 43.9887 48.2981 43.8111L49.7562 45.18C49.928 44.997 50.0391 44.7416 50.0391 44.4549H48.0391ZM49.0272 44.4955C49.833 45.0877 49.8325 45.0884 49.832 45.0891C49.8318 45.0893 49.8313 45.09 49.831 45.0905C49.8303 45.0914 49.8296 45.0923 49.8289 45.0932C49.8276 45.095 49.8262 45.0968 49.8249 45.0986C49.8222 45.1022 49.8195 45.1057 49.8168 45.1092C49.8114 45.1161 49.806 45.1229 49.8006 45.1295C49.7898 45.1426 49.779 45.155 49.7684 45.1667C49.7472 45.1902 49.7263 45.211 49.7064 45.2294C49.6669 45.266 49.6292 45.2948 49.5969 45.3171C49.534 45.3605 49.4784 45.3879 49.4424 45.4039L48.6318 43.5756C48.5874 43.5952 48.5269 43.6255 48.4611 43.6709C48.4274 43.6942 48.3888 43.7238 48.3487 43.7609C48.3285 43.7795 48.3074 43.8006 48.2861 43.8241C48.2754 43.8359 48.2646 43.8484 48.2538 43.8615C48.2484 43.8681 48.243 43.8749 48.2376 43.8819C48.2349 43.8853 48.2322 43.8889 48.2295 43.8924C48.2281 43.8942 48.2268 43.896 48.2254 43.8978C48.2248 43.8988 48.2241 43.8997 48.2234 43.9006C48.2231 43.901 48.2226 43.9017 48.2224 43.9019C48.2219 43.9026 48.2214 43.9033 49.0272 44.4955ZM49.45 45.4005C49.3831 45.4308 49.3197 45.4501 49.2628 45.4624C49.2051 45.4747 49.1408 45.4827 49.0708 45.4827V43.4827C48.9179 43.4827 48.7647 43.5153 48.6242 43.5789L49.45 45.4005ZM51.9591 44.4549V41.9649H49.9591V44.4549H51.9591ZM48.0391 41.9649V44.4549H50.0391V41.9649H48.0391ZM51.9591 41.9649C51.9591 40.7996 51.0376 39.6395 49.6421 39.6395V41.6395C49.7414 41.6395 49.8112 41.6759 49.8645 41.7327C49.9259 41.7982 49.9591 41.8865 49.9591 41.9649H51.9591ZM49.6421 41.5385C49.7384 41.5385 49.8509 41.5854 49.9303 41.6716C49.9929 41.7396 50.0391 41.8361 50.0391 41.9649H48.0391C48.0391 42.6984 48.6255 43.5385 49.6421 43.5385V41.5385ZM49.6421 39.6395C48.2462 39.6395 47.325 40.7999 47.325 41.9649H49.325C49.325 41.8865 49.3583 41.7982 49.4196 41.7327C49.4729 41.6759 49.5426 41.6395 49.6421 41.6395V39.6395ZM49.245 41.9649C49.245 41.8361 49.2912 41.7396 49.3538 41.6716C49.4333 41.5854 49.5457 41.5385 49.6421 41.5385V43.5385C50.6586 43.5385 51.245 42.6984 51.245 41.9649H49.245ZM47.325 41.9649V44.4549H49.325V41.9649H47.325ZM51.245 44.4549V41.9649H49.245V44.4549H51.245ZM49.325 44.4549C49.325 44.5419 49.2948 44.6019 49.256 44.6438C49.233 44.6686 49.2024 44.692 49.1651 44.7086C49.1264 44.7259 49.0922 44.7309 49.0708 44.7309V42.7309C47.9802 42.7309 47.325 43.6327 47.325 44.4549H49.325ZM49.0708 46.6299C50.389 46.6299 51.245 45.535 51.245 44.4549H49.245C49.245 44.4914 49.2279 44.5425 49.1916 44.5812C49.1758 44.5981 49.1594 44.6094 49.1434 44.6165C49.1287 44.623 49.1063 44.6299 49.0708 44.6299V46.6299ZM49.0708 42.7309H36.359V44.7309H49.0708V42.7309ZM36.359 46.6299H49.0708V44.6299H36.359V46.6299ZM36.359 44.7309C36.3375 44.7309 36.3033 44.7259 36.2647 44.7087C36.2274 44.692 36.1968 44.6687 36.1738 44.6439C36.135 44.602 36.1048 44.5419 36.1048 44.4549H38.1048C38.1048 43.6319 37.4488 42.7309 36.359 42.7309V44.7309ZM34.1848 44.4549C34.1848 45.5357 35.0414 46.6299 36.359 46.6299V44.6299C36.3235 44.6299 36.3011 44.623 36.2864 44.6165C36.2704 44.6093 36.254 44.5981 36.2382 44.5812C36.202 44.5425 36.1848 44.4915 36.1848 44.4549H34.1848ZM38.1048 44.4549V22.6036H36.1048V44.4549H38.1048ZM34.1848 22.6036V44.4549H36.1848V22.6036H34.1848ZM36.1048 22.6036C36.1048 22.5164 36.135 22.4563 36.1738 22.4145C36.1968 22.3897 36.2274 22.3664 36.2647 22.3497C36.3034 22.3324 36.3376 22.3275 36.359 22.3275V24.3275C37.4493 24.3275 38.1048 23.426 38.1048 22.6036H36.1048ZM36.359 20.4285C35.0407 20.4285 34.1848 21.5235 34.1848 22.6036H36.1848C36.1848 22.567 36.202 22.5159 36.2382 22.4771C36.254 22.4602 36.2705 22.449 36.2864 22.4419C36.3011 22.4353 36.3235 22.4285 36.359 22.4285V20.4285ZM36.359 24.3275H37.6807V22.3275H36.359V24.3275ZM38.6807 23.3275V21.4285H36.6807V23.3275H38.6807ZM37.6807 20.4285H36.359V22.4285H37.6807V20.4285ZM35.7207 22.378V23.9959H37.7207V22.378H35.7207ZM39.6407 23.9959V22.378H37.6407V23.9959H39.6407ZM38.6407 21.378H36.7207V23.378H38.6407V21.378ZM35.7207 23.9959C35.7207 25.1613 36.6422 26.3213 38.0377 26.3213V24.3213C37.9383 24.3213 37.8685 24.285 37.8153 24.2281C37.7539 24.1626 37.7207 24.0744 37.7207 23.9959H35.7207ZM38.0377 24.4223C37.9413 24.4223 37.8289 24.3754 37.7495 24.2892C37.6869 24.2213 37.6407 24.1248 37.6407 23.9959H39.6407C39.6407 23.2622 39.0539 22.4223 38.0377 22.4223V24.4223ZM38.0377 26.3213H44.8041V24.3213H38.0377V26.3213ZM44.8041 22.4223H38.0377V24.4223H44.8041V22.4223ZM44.8041 26.3213C46.2 26.3213 47.1212 25.161 47.1212 23.9959H45.1212C45.1212 24.0743 45.0879 24.1626 45.0266 24.2281C44.9733 24.285 44.9036 24.3213 44.8041 24.3213V26.3213ZM45.2012 23.9959C45.2012 24.1248 45.155 24.2213 45.0924 24.2892C45.013 24.3754 44.9005 24.4223 44.8041 24.4223V22.4223C43.7876 22.4223 43.2012 23.2625 43.2012 23.9959H45.2012ZM47.1212 23.9959C47.1212 22.8309 46.2 21.6705 44.8041 21.6705V23.6705C44.9036 23.6705 44.9733 23.7069 45.0266 23.7637C45.0879 23.8292 45.1212 23.9175 45.1212 23.9959H47.1212ZM44.8041 23.5695C44.9005 23.5695 45.013 23.6164 45.0924 23.7027C45.155 23.7706 45.2012 23.8671 45.2012 23.9959H43.2012C43.2012 24.7294 43.7876 25.5695 44.8041 25.5695V23.5695ZM44.8041 21.6705H38.3947V23.6705H44.8041V21.6705ZM37.3947 22.6705V24.5695H39.3947V22.6705H37.3947ZM38.3947 25.5695H44.8041V23.5695H38.3947V25.5695ZM40.3547 23.62V22.378H38.3547V23.62H40.3547ZM39.3547 21.378H37.4347V23.378H39.3547V21.378ZM36.4347 22.378V23.62H38.4347V22.378H36.4347ZM37.4347 24.62H39.3547V22.62H37.4347V24.62ZM38.3947 24.3275H47.0352V22.3275H38.3947V24.3275ZM48.0352 23.3275V21.4285H46.0352V23.3275H48.0352ZM47.0352 20.4285H38.3947V22.4285H47.0352V20.4285ZM37.3947 21.4285V23.3275H39.3947V21.4285H37.3947ZM45.0752 22.378V23.62H47.0752V22.378H45.0752ZM46.0752 24.62H47.9952V22.62H46.0752V24.62ZM48.9952 23.62V22.378H46.9952V23.62H48.9952ZM47.9952 21.378H46.0752V23.378H47.9952V21.378ZM47.0352 21.6705H45.9466V23.6705H47.0352V21.6705ZM45.9466 25.5695H47.0352V23.5695H45.9466V25.5695ZM48.0352 24.5695V22.6705H46.0352V24.5695H48.0352ZM45.9466 21.6705C44.5509 21.6705 43.6296 22.8308 43.6296 23.9958H45.6296C45.6296 23.9176 45.6628 23.8293 45.7242 23.7637C45.7775 23.7069 45.8473 23.6705 45.9466 23.6705V21.6705ZM45.5496 23.9958C45.5496 23.867 45.5958 23.7706 45.6583 23.7027C45.7377 23.6165 45.8502 23.5695 45.9466 23.5695V25.5695C46.9634 25.5695 47.5496 24.7291 47.5496 23.9958H45.5496ZM43.6296 23.9958C43.6296 25.1609 44.5509 26.3212 45.9466 26.3212V24.3212C45.8473 24.3212 45.7775 24.2849 45.7242 24.228C45.6628 24.1625 45.6296 24.0742 45.6296 23.9958H43.6296ZM45.9466 24.4222C45.8503 24.4222 45.7378 24.3753 45.6584 24.2891C45.5958 24.2212 45.5496 24.1247 45.5496 23.9958H47.5496C47.5496 23.2624 46.9632 22.4222 45.9466 22.4222V24.4222ZM45.9466 26.3212H47.3922V24.3212H45.9466V26.3212ZM47.3922 22.4222H45.9466V24.4222H47.3922V22.4222ZM47.3922 26.3212C48.788 26.3212 49.7091 25.1608 49.7091 23.9958H47.7091C47.7091 24.0742 47.6759 24.1625 47.6145 24.2281C47.5613 24.2849 47.4916 24.3212 47.3922 24.3212V26.3212ZM47.7891 23.9958C47.7891 24.1247 47.7429 24.2212 47.6803 24.2891C47.6009 24.3754 47.4884 24.4222 47.3922 24.4222V22.4222C46.3757 22.4222 45.7891 23.2623 45.7891 23.9958H47.7891ZM49.7091 23.9958V22.378H47.7091V23.9958H49.7091ZM48.7091 21.378H46.7891V23.378H48.7091V21.378ZM45.7891 22.378V23.9958H47.7891V22.378H45.7891ZM47.7491 24.3275H49.0709V22.3275H47.7491V24.3275ZM49.0709 20.4285H47.7491V22.4285H49.0709V20.4285ZM46.7491 21.4285V23.3275H48.7491V21.4285H46.7491ZM49.0709 22.3275C49.0923 22.3275 49.1265 22.3324 49.1651 22.3497C49.2023 22.3663 49.2329 22.3896 49.2559 22.4144C49.2947 22.4563 49.325 22.5164 49.325 22.6036H47.325C47.325 23.4267 47.9811 24.3275 49.0709 24.3275V22.3275ZM51.245 22.6036C51.245 21.5229 50.3885 20.4285 49.0709 20.4285V22.4285C49.1063 22.4285 49.1287 22.4353 49.1434 22.4419C49.1593 22.449 49.1757 22.4602 49.1916 22.4771C49.2278 22.5159 49.245 22.5669 49.245 22.6036H51.245ZM47.325 22.6036V40.8119H49.325V22.6036H47.325ZM51.245 40.8119V22.6036H49.245V40.8119H51.245ZM47.325 40.8119C47.325 41.9772 48.2465 43.1373 49.6421 43.1373V41.1373C49.5427 41.1373 49.4729 41.101 49.4197 41.0441C49.3583 40.9786 49.325 40.8903 49.325 40.8119H47.325ZM49.6421 41.2383C49.5457 41.2383 49.4333 41.1914 49.3538 41.1052C49.2912 41.0373 49.245 40.9408 49.245 40.8119H51.245C51.245 40.0785 50.6586 39.2383 49.6421 39.2383V41.2383Z" fill="black" mask="url(#path-26-outside-1_1069_73)"/>
</g>
<path d="M47.5075 39.1048H47.2734V38.8278H47.5075V39.1048ZM47.5075 36.834V37.1111H47.2734V36.834H47.5075ZM47.5075 35.1172H47.2734V34.8401H47.5075V35.1172ZM47.5075 32.8464V33.1235H47.2734V32.8464H47.5075ZM47.5075 31.1296H47.2734V30.8525H47.5075V31.1296Z" stroke="#051C45"/>
<mask id="mask6_1069_73" style="mask-type:luminance" maskUnits="userSpaceOnUse" x="41" y="25" width="4" height="4">
<path d="M44.1918 26.6035C44.1918 25.7467 43.5297 25.0498 42.716 25.0498C41.9023 25.0498 41.2402 25.7467 41.2402 26.6035C41.2402 27.4602 41.9023 28.1571 42.716 28.1571C43.5297 28.1571 44.1918 27.4602 44.1918 26.6035ZM41.9544 26.6035C41.9544 26.1614 42.296 25.8016 42.716 25.8016C43.1359 25.8016 43.4776 26.1614 43.4776 26.6035C43.4776 27.0457 43.1359 27.4053 42.716 27.4053C42.296 27.4053 41.9544 27.0457 41.9544 26.6035Z" fill="white"/>
</mask>
<g mask="url(#mask6_1069_73)">
<path d="M45.1508 26.6047C45.1508 25.2804 44.1146 24.1016 42.7151 24.1016V26.0006C42.943 26.0006 43.2308 26.2157 43.2308 26.6047H45.1508ZM42.7151 24.1016C41.3155 24.1016 40.2793 25.2804 40.2793 26.6047H42.1993C42.1993 26.2157 42.4871 26.0006 42.7151 26.0006V24.1016ZM40.2793 26.6047C40.2793 27.9292 41.3155 29.1079 42.7151 29.1079V27.2089C42.4871 27.2089 42.1993 26.9938 42.1993 26.6047H40.2793ZM42.7151 29.1079C44.1146 29.1079 45.1508 27.9292 45.1508 26.6047H43.2308C43.2308 26.9938 42.943 27.2089 42.7151 27.2089V29.1079ZM42.9134 26.6047C42.9134 26.6276 42.9041 26.659 42.8765 26.6882C42.8479 26.7182 42.7912 26.7524 42.7151 26.7524V24.8534C41.7093 24.8534 40.9934 25.695 40.9934 26.6047H42.9134ZM42.7151 26.7524C42.639 26.7524 42.5822 26.7182 42.5537 26.6882C42.526 26.659 42.5167 26.6276 42.5167 26.6047H44.4367C44.4367 25.695 43.7208 24.8534 42.7151 24.8534V26.7524ZM42.5167 26.6047C42.5167 26.5819 42.526 26.5505 42.5537 26.5214C42.5822 26.4913 42.639 26.4571 42.7151 26.4571V28.3561C43.7208 28.3561 44.4367 27.5145 44.4367 26.6047H42.5167ZM42.7151 26.4571C42.7911 26.4571 42.8479 26.4913 42.8764 26.5214C42.9041 26.5505 42.9134 26.5819 42.9134 26.6047H40.9934C40.9934 27.5146 41.7093 28.3561 42.7151 28.3561V26.4571Z" fill="#051C45"/>
</g>
<mask id="mask7_1069_73" style="mask-type:luminance" maskUnits="userSpaceOnUse" x="37" y="40" width="11" height="2">
<path d="M47.988 41.0116C47.988 40.804 47.8282 40.6357 47.631 40.6357H37.8004C37.6032 40.6357 37.4434 40.804 37.4434 41.0116C37.4434 41.2192 37.6032 41.3875 37.8004 41.3875H47.631C47.8282 41.3875 47.988 41.2192 47.988 41.0116Z" fill="white"/>
</mask>
<g mask="url(#mask7_1069_73)">
<path d="M48.9471 41.011C48.9471 40.3356 48.4129 39.6855 47.63 39.6855V41.5845C47.2415 41.5845 47.0271 41.271 47.0271 41.011H48.9471ZM47.63 39.6855H37.7994V41.5845H47.63V39.6855ZM37.7994 39.6855C37.0164 39.6855 36.4824 40.3358 36.4824 41.011H38.4024C38.4024 41.2709 38.1881 41.5845 37.7994 41.5845V39.6855ZM36.4824 41.011C36.4824 41.6861 37.0165 42.3363 37.7994 42.3363V40.4373C38.1881 40.4373 38.4024 40.7509 38.4024 41.011H36.4824ZM37.7994 42.3363H47.63V40.4373H37.7994V42.3363ZM47.63 42.3363C48.413 42.3363 48.9471 41.6861 48.9471 41.011H47.0271C47.0271 40.7509 47.2414 40.4373 47.63 40.4373V42.3363Z" fill="#051C45"/>
</g>
<path d="M41.5155 42.9674C41.5152 42.9498 41.508 42.928 41.4896 42.9086C41.4704 42.8884 41.4359 42.8691 41.3925 42.8691C41.3482 42.8691 41.3137 42.889 41.2949 42.9088C41.2765 42.9281 41.2695 42.9499 41.2695 42.9675C41.2695 42.9679 41.2695 42.9682 41.2696 42.9686C41.2699 42.986 41.277 43.0076 41.2952 43.0267C41.3142 43.0467 41.3486 43.0664 41.3925 43.0664C41.4366 43.0664 41.471 43.0467 41.4899 43.0267C41.5081 43.0077 41.5153 42.9861 41.5155 42.9686C41.5155 42.9684 41.5154 42.9676 41.5155 42.9674ZM41.5155 42.9674C41.5155 42.9676 41.5154 42.9673 41.5155 42.9674Z" stroke="#051C45"/>
<path d="M40.2167 42.9674C40.2164 42.9498 40.2091 42.928 40.1907 42.9086C40.1714 42.8884 40.1371 42.8691 40.0937 42.8691C40.0493 42.8691 40.0148 42.889 39.9959 42.9088C39.9777 42.9281 39.9707 42.9499 39.9707 42.9675C39.9707 42.9679 39.9707 42.9682 39.9707 42.9686C39.971 42.986 39.9782 43.0076 39.9963 43.0267C40.0153 43.0467 40.0498 43.0663 40.0937 43.0664C40.1377 43.0663 40.1721 43.0466 40.1911 43.0267C40.2093 43.0076 40.2164 42.986 40.2167 42.9686C40.2167 42.9684 40.2167 42.9676 40.2167 42.9674ZM40.2167 42.9674C40.2167 42.9676 40.2167 42.9673 40.2167 42.9674Z" stroke="#051C45"/>
<path d="M38.9198 42.9674C38.9195 42.9498 38.9122 42.928 38.8938 42.9086C38.8746 42.8884 38.8402 42.8691 38.7968 42.8691C38.7525 42.8691 38.7179 42.889 38.6991 42.9088C38.6808 42.9281 38.6738 42.9499 38.6738 42.9675C38.6738 42.9679 38.6738 42.9682 38.6738 42.9686C38.6741 42.986 38.6812 43.0076 38.6995 43.0267C38.7185 43.0467 38.7529 43.0663 38.7968 43.0664C38.8408 43.0663 38.8752 43.0466 38.8941 43.0267C38.9123 43.0076 38.9195 42.986 38.9198 42.9686C38.9198 42.9684 38.9198 42.9676 38.9198 42.9674ZM38.9198 42.9674C38.9198 42.9676 38.9198 42.9673 38.9198 42.9674Z" stroke="#051C45"/>
<path d="M42.6172 42.969C42.6175 42.9865 42.6248 43.0085 42.6431 43.0278C42.6624 43.0481 42.6969 43.0673 42.7402 43.0673C42.7847 43.0673 42.8192 43.0475 42.8379 43.0276C42.8561 43.0085 42.8631 42.9866 42.8631 42.969C42.8631 42.9687 42.8631 42.9683 42.8631 42.9679C42.8629 42.9504 42.8557 42.9289 42.8375 42.9097C42.8185 42.8897 42.784 42.8701 42.7402 42.8701C42.6963 42.8701 42.6618 42.8898 42.6428 42.9097C42.6247 42.9289 42.6175 42.9504 42.6172 42.9679C42.6172 42.9681 42.6172 42.9688 42.6172 42.969ZM42.6172 42.969C42.6172 42.9689 42.6172 42.9691 42.6172 42.969Z" stroke="#051C45"/>
<path d="M46.5117 42.969C46.512 42.9866 46.5193 43.0085 46.5377 43.0278C46.5569 43.0481 46.5913 43.0673 46.6347 43.0673C46.6791 43.0673 46.7136 43.0475 46.7324 43.0276C46.7507 43.0084 46.7577 42.9866 46.7577 42.969C46.7577 42.9687 46.7577 42.9683 46.7577 42.9679C46.7574 42.9504 46.7503 42.9289 46.7321 42.9097C46.713 42.8897 46.6787 42.8701 46.6347 42.8701C46.5908 42.8701 46.5564 42.8898 46.5374 42.9097C46.5192 42.9289 46.512 42.9504 46.5117 42.9679C46.5117 42.9681 46.5117 42.9688 46.5117 42.969ZM46.5117 42.969C46.5117 42.9689 46.5117 42.9691 46.5117 42.969Z" stroke="#051C45"/>
<path d="M45.213 42.969C45.2132 42.9865 45.2205 43.0085 45.2389 43.0278C45.2581 43.0481 45.2926 43.0673 45.3359 43.0673C45.3804 43.0673 45.4149 43.0474 45.4336 43.0276C45.4518 43.0085 45.4589 42.9867 45.4589 42.969C45.4589 42.9687 45.4588 42.9683 45.4588 42.9679C45.4586 42.9504 45.4514 42.9289 45.4333 42.9097C45.4142 42.8897 45.3798 42.8701 45.3359 42.8701C45.292 42.8701 45.2575 42.8898 45.2385 42.9097C45.2204 42.9289 45.2132 42.9504 45.213 42.9679C45.2129 42.9681 45.213 42.9688 45.213 42.969ZM45.213 42.969C45.2129 42.9689 45.213 42.9691 45.213 42.969Z" stroke="#051C45"/>
<path d="M43.916 42.969C43.9163 42.9866 43.9236 43.0085 43.9419 43.0278C43.9612 43.0481 43.9956 43.0673 44.039 43.0673C44.0835 43.0673 44.118 43.0475 44.1367 43.0276C44.155 43.0085 44.162 42.9866 44.162 42.969C44.162 42.9687 44.162 42.9683 44.162 42.9679C44.1617 42.9504 44.1545 42.9289 44.1363 42.9097C44.1173 42.8897 44.0829 42.8701 44.039 42.8701C43.9951 42.8701 43.9607 42.8898 43.9417 42.9097C43.9235 42.9289 43.9163 42.9504 43.916 42.9679C43.916 42.9681 43.916 42.9688 43.916 42.969ZM43.916 42.969C43.916 42.9689 43.916 42.9691 43.916 42.969Z" stroke="#051C45"/>
<path d="M46.3008 30.2317C46.3008 30.2315 46.3008 30.2318 46.3008 30.2317ZM46.3008 30.2317C46.3008 30.2315 46.3008 30.2308 46.3008 30.2306C46.3011 30.2131 46.3083 30.1915 46.3264 30.1724C46.3454 30.1525 46.3799 30.1328 46.4238 30.1328C46.4677 30.1328 46.5021 30.1524 46.5212 30.1724C46.5393 30.1916 46.5464 30.2131 46.5467 30.2306C46.5467 30.231 46.5467 30.2314 46.5467 30.2317C46.5467 30.2492 46.5397 30.2711 46.5215 30.2903C46.5027 30.3102 46.4682 30.33 46.4238 30.33C46.3803 30.33 46.3459 30.3107 46.3267 30.2905C46.3084 30.2712 46.3011 30.2493 46.3008 30.2317Z" stroke="#051C45"/>
<path d="M46.3008 32.2259C46.3008 32.2257 46.3008 32.2261 46.3008 32.2259ZM46.3008 32.2259C46.3008 32.2257 46.3008 32.2249 46.3008 32.2248C46.3011 32.2073 46.3083 32.1857 46.3264 32.1666C46.3454 32.1466 46.3799 32.127 46.4238 32.127C46.4677 32.127 46.5021 32.1466 46.5211 32.1666C46.5392 32.1857 46.5464 32.2073 46.5467 32.2248C46.5467 32.2251 46.5467 32.2255 46.5467 32.2259C46.5467 32.2435 46.5397 32.2653 46.5215 32.2846C46.5027 32.3043 46.4682 32.3243 46.4238 32.3243C46.3804 32.3243 46.346 32.3049 46.3268 32.2847C46.3084 32.2654 46.3012 32.2435 46.3008 32.2259Z" stroke="#051C45"/>
<path d="M46.3008 34.2199C46.3008 34.2197 46.3008 34.2201 46.3008 34.2199ZM46.3008 34.2199C46.3008 34.2197 46.3008 34.2191 46.3008 34.2189C46.3011 34.2014 46.3083 34.1798 46.3264 34.1607C46.3454 34.1407 46.3799 34.1211 46.4238 34.1211C46.4677 34.1211 46.5021 34.1407 46.5212 34.1607C46.5393 34.1799 46.5464 34.2014 46.5467 34.2189C46.5467 34.2193 46.5467 34.2197 46.5467 34.2199C46.5467 34.2375 46.5397 34.2593 46.5215 34.2786C46.5027 34.2984 46.4682 34.3183 46.4238 34.3183C46.3804 34.3183 46.346 34.2989 46.3268 34.2787C46.3084 34.2594 46.3011 34.2376 46.3008 34.2199Z" stroke="#051C45"/>
<path d="M46.3008 36.2131C46.3008 36.2129 46.3008 36.2133 46.3008 36.2131ZM46.3008 36.2131C46.3008 36.2129 46.3008 36.2122 46.3008 36.2121C46.3011 36.1946 46.3083 36.173 46.3264 36.1539C46.3454 36.1338 46.3799 36.1143 46.4238 36.1143C46.4677 36.1143 46.5021 36.1338 46.5212 36.1539C46.5393 36.173 46.5464 36.1946 46.5467 36.2121C46.5467 36.2124 46.5467 36.2128 46.5467 36.2131C46.5467 36.2307 46.5397 36.2525 46.5215 36.2718C46.5027 36.2916 46.4682 36.3115 46.4238 36.3115C46.3804 36.3115 46.346 36.2921 46.3268 36.272C46.3084 36.2526 46.3011 36.2308 46.3008 36.2131Z" stroke="#051C45"/>
<path d="M46.3008 38.2072C46.3008 38.2071 46.3008 38.2074 46.3008 38.2072ZM46.3008 38.2072C46.3008 38.2071 46.3008 38.2064 46.3008 38.2062C46.3011 38.1887 46.3083 38.1671 46.3264 38.148C46.3454 38.128 46.3799 38.1084 46.4238 38.1084C46.4676 38.1084 46.5021 38.128 46.5211 38.148C46.5393 38.1671 46.5464 38.1887 46.5467 38.2062C46.5467 38.2065 46.5467 38.2069 46.5467 38.2072C46.5467 38.2248 46.5397 38.2466 46.5215 38.2659C46.5027 38.2858 46.4682 38.3056 46.4238 38.3056C46.3804 38.3056 46.346 38.2863 46.3268 38.266C46.3084 38.2467 46.3012 38.2248 46.3008 38.2072Z" stroke="#051C45"/>
<path d="M42.5723 26.6036C42.5723 26.5802 42.5816 26.553 42.6036 26.53C42.626 26.5063 42.6652 26.4844 42.7145 26.4844C42.764 26.4844 42.8031 26.5063 42.8256 26.53C42.8476 26.553 42.8569 26.5802 42.8569 26.6036C42.8569 26.627 42.8476 26.6541 42.8256 26.6773C42.8031 26.701 42.764 26.7229 42.7145 26.7229C42.6652 26.7229 42.626 26.701 42.6036 26.6773C42.5816 26.6541 42.5723 26.627 42.5723 26.6036Z" stroke="#051C45"/>
<mask id="mask8_1069_73" style="mask-type:luminance" maskUnits="userSpaceOnUse" x="44" y="26" width="3" height="1">
<path d="M45.8048 26.9793C46.0021 26.9793 46.1618 26.811 46.1618 26.6034C46.1618 26.3958 46.0021 26.2275 45.8048 26.2275H45.0992C44.902 26.2275 44.7422 26.3958 44.7422 26.6034C44.7422 26.811 44.902 26.9793 45.0992 26.9793H45.8048Z" fill="white"/>
</mask>
<g mask="url(#mask8_1069_73)">
<path d="M45.8039 27.929C46.587 27.929 47.1209 27.2788 47.1209 26.6036H45.2009C45.2009 26.3437 45.4153 26.03 45.8039 26.03V27.929ZM47.1209 26.6036C47.1209 25.9284 46.5869 25.2783 45.8039 25.2783V27.1773C45.4154 27.1773 45.2009 26.8637 45.2009 26.6036H47.1209ZM45.8039 25.2783H45.0983V27.1773H45.8039V25.2783ZM45.0983 25.2783C44.3152 25.2783 43.7812 25.9284 43.7812 26.6036H45.7012C45.7012 26.8636 45.487 27.1773 45.0983 27.1773V25.2783ZM43.7812 26.6036C43.7812 27.2789 44.3153 27.929 45.0983 27.929V26.03C45.4869 26.03 45.7012 26.3437 45.7012 26.6036H43.7812ZM45.0983 27.929H45.8039V26.03H45.0983V27.929Z" fill="#051C45"/>
</g>
<mask id="mask9_1069_73" style="mask-type:luminance" maskUnits="userSpaceOnUse" x="2" y="22" width="15" height="24">
<path d="M16.2114 41.751C16.4086 41.751 16.5684 41.5828 16.5684 41.3751V23.1667C16.5684 22.6278 16.1519 22.1895 15.6402 22.1895H13.9614H4.60695H2.92828C2.41642 22.1895 2 22.6278 2 23.1667V45.0181C2 45.5569 2.41642 45.9953 2.92828 45.9953H15.6401C16.1519 45.9953 16.5684 45.5569 16.5684 45.0181V42.5281C16.5684 42.3205 16.4085 42.1522 16.2114 42.1522C16.0141 42.1522 15.8543 42.3205 15.8543 42.5281V45.0181C15.8543 45.1424 15.7582 45.2436 15.6401 45.2436H2.92828C2.81018 45.2436 2.71404 45.1425 2.71404 45.0181V23.1667C2.71404 23.0424 2.81014 22.9412 2.92828 22.9412H4.24992V24.5591C4.24992 24.7668 4.40975 24.9349 4.60695 24.9349H11.3735C11.5707 24.9349 11.7305 24.7667 11.7305 24.5591C11.7305 24.3515 11.5707 24.1832 11.3735 24.1832H4.96396V22.9412H13.6044V24.1831H12.5159C12.3187 24.1831 12.1589 24.3515 12.1589 24.559C12.1589 24.7667 12.3187 24.9349 12.5159 24.9349H13.9614C14.1587 24.9349 14.3184 24.7667 14.3184 24.559V22.9412H15.6402C15.7582 22.9412 15.8543 23.0423 15.8543 23.1667V41.3751C15.8543 41.5828 16.0142 41.751 16.2114 41.751Z" fill="white"/>
</mask>
<g mask="url(#mask9_1069_73)">
<path d="M4.24899 22.9405H5.20899V21.991H4.24899V22.9405ZM4.96302 24.1825H4.00302V25.132H4.96302V24.1825ZM4.96302 22.9405V21.991H4.00302V22.9405H4.96302ZM13.6034 22.9405H14.5634V21.991H13.6034V22.9405ZM13.6034 24.1824V25.1319H14.5634V24.1824H13.6034ZM14.3175 22.9405V21.991H13.3575V22.9405H14.3175ZM16.2104 42.6998C16.9935 42.6998 17.5274 42.0497 17.5274 41.3744H15.5562C15.5562 41.1145 15.8219 40.8008 16.2104 40.8008V42.6998ZM17.5274 41.3744V23.166H15.6074L15.5562 41.3744H17.5274ZM17.5274 23.166C17.5274 22.1595 16.7368 21.2393 15.6392 21.2393V23.1383C15.6269 23.1383 15.6147 23.1353 15.6055 23.1312C15.5972 23.1274 15.5956 23.1254 15.5956 23.1254C15.598 23.128 15.6074 23.1404 15.6074 23.166H17.5274ZM15.6392 21.2393H13.9605V23.1383H15.6392V21.2393ZM13.9605 21.2393H4.60601V23.1383H13.9605V21.2393ZM4.60601 21.2393H2.92734V23.1383H4.60601V21.2393ZM2.92734 21.2393C1.82968 21.2393 1.03906 22.1595 1.03906 23.166H2.95906C2.95906 23.1404 2.96845 23.128 2.97093 23.1254C2.97093 23.1254 2.96936 23.1274 2.96103 23.1312C2.9518 23.1353 2.93958 23.1383 2.92734 23.1383V21.2393ZM1.03906 23.166V45.0174H2.95906V23.166H1.03906ZM1.03906 45.0174C1.03906 46.0238 1.82968 46.9441 2.92734 46.9441V45.0451C2.93958 45.0451 2.95181 45.048 2.96103 45.0522C2.96936 45.0559 2.97093 45.0579 2.97093 45.0579C2.96845 45.0554 2.95906 45.0429 2.95906 45.0174H1.03906ZM2.92734 46.9441H15.6391V45.0451H2.92734V46.9441ZM15.6391 46.9441C16.7368 46.9441 17.5274 46.0238 17.5274 45.0174H15.6074C15.6074 45.0429 15.598 45.0554 15.5955 45.0579C15.5955 45.0579 15.5971 45.0559 15.6054 45.0522C15.6146 45.048 15.6269 45.0451 15.6391 45.0451V46.9441ZM17.5274 45.0174V42.5274H15.6074V45.0174H17.5274ZM17.5274 42.5274C17.5274 41.8521 16.9934 41.202 16.2104 41.202V43.101C15.8218 43.101 15.6074 42.7874 15.6074 42.5274H17.5274ZM16.2104 41.202C15.4273 41.202 14.8934 41.8522 14.8934 42.5274H16.8134C16.8134 42.7874 16.599 43.101 16.2104 43.101V41.202ZM14.8934 42.5274V45.0174H16.8134V42.5274H14.8934ZM14.8934 45.0174C14.8934 44.6741 15.1713 44.2934 15.6391 44.2934V46.1924C16.3432 46.1924 16.8134 45.6092 16.8134 45.0174H14.8934ZM15.6391 44.2934H2.92734V46.1924H15.6391V44.2934ZM2.92734 44.2934C3.39492 44.2934 3.6731 44.6739 3.6731 45.0174H1.7531C1.7531 45.6095 2.22357 46.1924 2.92734 46.1924V44.2934ZM3.6731 45.0174V23.166H1.7531V45.0174H3.6731ZM3.6731 23.166C3.6731 23.5092 3.39512 23.89 2.92734 23.89V21.991C2.22328 21.991 1.7531 22.5742 1.7531 23.166H3.6731ZM2.92734 23.89H4.24899V21.991H2.92734V23.89ZM3.28899 22.9405V24.5584H5.20899V22.9405H3.28899ZM3.28899 24.5584C3.28899 25.2338 3.82309 25.8837 4.60601 25.8837V23.9847C4.99454 23.9847 5.20899 24.2983 5.20899 24.5584H3.28899ZM4.60601 25.8837H11.3725V23.9847H4.60601V25.8837ZM11.3725 25.8837C12.1557 25.8837 12.6895 25.2336 12.6895 24.5584H10.7695C10.7695 24.2985 10.9839 23.9847 11.3725 23.9847V25.8837ZM12.6895 24.5584C12.6895 23.8832 12.1557 23.233 11.3725 23.233V25.132C10.9839 25.132 10.7695 24.8184 10.7695 24.5584H12.6895ZM11.3725 23.233H4.96302V25.132H11.3725V23.233ZM5.92302 24.1825V22.9405H4.00302V24.1825H5.92302ZM4.96302 23.89H13.6034V21.991H4.96302V23.89ZM12.6434 22.9405V24.1824H14.5634V22.9405H12.6434ZM13.6034 23.2329H12.515V25.1319H13.6034V23.2329ZM12.515 23.2329C11.7319 23.2329 11.198 23.8831 11.198 24.5583H13.118C13.118 24.8183 12.9036 25.1319 12.515 25.1319V23.2329ZM11.198 24.5583C11.198 25.2335 11.7319 25.8837 12.515 25.8837V23.9847C12.9036 23.9847 13.118 24.2984 13.118 24.5583H11.198ZM12.515 25.8837H13.9605V23.9847H12.515V25.8837ZM13.9605 25.8837C14.7436 25.8837 15.2775 25.2335 15.2775 24.5583H13.3575C13.3575 24.2984 13.5719 23.9847 13.9605 23.9847V25.8837ZM15.2775 24.5583V22.9405H13.3575V24.5583H15.2775ZM14.3175 23.89H15.6392V21.991H14.3175V23.89ZM15.6392 23.89C15.1716 23.89 14.8934 23.5094 14.8934 23.166H16.8134C16.8134 22.5739 16.3429 21.991 15.6392 21.991V23.89ZM14.8934 23.166V41.3744H16.8134V23.166H14.8934ZM14.8934 41.3744C14.8934 42.0497 15.4274 42.6998 16.2104 42.6998V40.8008C16.599 40.8008 16.8134 41.1145 16.8134 41.3744H14.8934Z" fill="#051C45"/>
</g>
<path d="M14.0758 39.6673H13.8418V39.3903H14.0758V39.6673ZM14.0758 37.3964V37.6735H13.8418V37.3964H14.0758ZM14.0758 35.6797H13.8418V35.4026H14.0758V35.6797ZM14.0758 33.4089V33.686H13.8418V33.4089H14.0758ZM14.0758 31.6921H13.8418V31.415H14.0758V31.6921Z" stroke="#051C45"/>
<mask id="mask10_1069_73" style="mask-type:luminance" maskUnits="userSpaceOnUse" x="7" y="25" width="4" height="4">
<path d="M10.7601 27.1669C10.7601 26.3102 10.0981 25.6133 9.28433 25.6133C8.47056 25.6133 7.80859 26.3102 7.80859 27.1669C7.80859 28.0237 8.47056 28.7206 9.28433 28.7206C10.0981 28.7206 10.7601 28.0237 10.7601 27.1669ZM8.52267 27.1669C8.52267 26.7249 8.86437 26.3651 9.28433 26.3651C9.70428 26.3651 10.046 26.7249 10.046 27.1669C10.046 27.609 9.70428 27.9688 9.28433 27.9688C8.86437 27.9688 8.52267 27.6091 8.52267 27.1669Z" fill="white"/>
</mask>
<g mask="url(#mask10_1069_73)">
<path d="M11.7211 27.1663C11.7211 25.8419 10.6849 24.6631 9.28534 24.6631V26.5621C9.5133 26.5621 9.80107 26.7771 9.80107 27.1663H11.7211ZM9.28534 24.6631C7.88578 24.6631 6.84961 25.8419 6.84961 27.1663H8.76961C8.76961 26.7771 9.05738 26.5621 9.28534 26.5621V24.6631ZM6.84961 27.1663C6.84961 28.4906 7.88578 29.6694 9.28534 29.6694V27.7704C9.05738 27.7704 8.76961 27.5554 8.76961 27.1663H6.84961ZM9.28534 29.6694C10.6849 29.6694 11.7211 28.4906 11.7211 27.1663H9.80107C9.80107 27.5554 9.5133 27.7704 9.28534 27.7704V29.6694ZM9.48369 27.1663C9.48369 27.1891 9.47438 27.2205 9.44671 27.2496C9.41814 27.2797 9.36146 27.3139 9.28534 27.3139V25.4149C8.27959 25.4149 7.56369 26.2564 7.56369 27.1663H9.48369ZM9.28534 27.3139C9.20922 27.3139 9.15254 27.2797 9.12397 27.2496C9.0963 27.2205 9.08699 27.1891 9.08699 27.1663H11.007C11.007 26.2564 10.2911 25.4149 9.28534 25.4149V27.3139ZM9.08699 27.1663C9.08699 27.1434 9.0963 27.112 9.12397 27.0829C9.15254 27.0528 9.20922 27.0186 9.28534 27.0186V28.9176C10.2911 28.9176 11.007 28.0761 11.007 27.1663H9.08699ZM9.28534 27.0186C9.36142 27.0186 9.4181 27.0528 9.4467 27.0829C9.47439 27.112 9.48369 27.1435 9.48369 27.1663H7.56369C7.56369 28.0762 8.27963 28.9176 9.28534 28.9176V27.0186Z" fill="#051C45"/>
</g>
<mask id="mask11_1069_73" style="mask-type:luminance" maskUnits="userSpaceOnUse" x="4" y="41" width="11" height="1">
<path d="M14.5564 41.575C14.5564 41.3674 14.3965 41.1992 14.1993 41.1992H4.36874C4.17151 41.1992 4.01172 41.3675 4.01172 41.575C4.01172 41.7827 4.17155 41.9509 4.36874 41.9509H14.1993C14.3965 41.9509 14.5564 41.7827 14.5564 41.575Z" fill="white"/>
</mask>
<g mask="url(#mask11_1069_73)">
<path d="M15.5174 41.5743C15.5174 40.899 14.9832 40.249 14.2004 40.249V42.148C13.8118 42.148 13.5974 41.8344 13.5974 41.5743H15.5174ZM14.2004 40.249H4.36976V42.148H14.2004V40.249ZM4.36976 40.249C3.58665 40.249 3.05273 40.8991 3.05273 41.5743H4.97273C4.97273 41.8343 4.7584 42.148 4.36976 42.148V40.249ZM3.05273 41.5743C3.05273 42.2496 3.58677 42.8997 4.36976 42.8997V41.0007C4.75836 41.0007 4.97273 41.3144 4.97273 41.5743H3.05273ZM4.36976 42.8997H14.2004V41.0007H4.36976V42.8997ZM14.2004 42.8997C14.9833 42.8997 15.5174 42.2496 15.5174 41.5743H13.5974C13.5974 41.3143 13.8117 41.0007 14.2004 41.0007V42.8997Z" fill="#051C45"/>
</g>
<path d="M8.08384 43.5299C8.08354 43.5123 8.0763 43.4905 8.05789 43.4711C8.03864 43.4509 8.00425 43.4316 7.96087 43.4316C7.91644 43.4316 7.88196 43.4515 7.86317 43.4713C7.8449 43.4906 7.83789 43.5124 7.83789 43.53C7.83789 43.5303 7.83789 43.5307 7.8379 43.5311C7.83819 43.5485 7.84536 43.5701 7.8635 43.5892C7.88253 43.6092 7.91697 43.6288 7.96087 43.6288C8.0049 43.6288 8.03932 43.6091 8.05828 43.5892C8.07637 43.5702 8.08356 43.5485 8.08384 43.5311C8.08384 43.5309 8.08384 43.5301 8.08384 43.5299ZM8.08384 43.5299C8.08384 43.53 8.08384 43.5297 8.08384 43.5299Z" stroke="#051C45"/>
<path d="M6.66205 43.4316C6.70543 43.4316 6.73982 43.4509 6.75908 43.4711C6.77748 43.4905 6.78473 43.5123 6.78501 43.5299M6.66205 43.4316C6.61765 43.4316 6.58314 43.4515 6.56435 43.4713C6.54607 43.4906 6.53906 43.5124 6.53906 43.53C6.53906 43.5303 6.53907 43.5307 6.53907 43.5311C6.53937 43.5485 6.54654 43.5701 6.56468 43.5892C6.58369 43.6092 6.6182 43.6288 6.66205 43.6288M6.66205 43.4316C6.66207 43.4316 6.66202 43.4316 6.66205 43.4316ZM6.78501 43.5299C6.78502 43.53 6.78501 43.5297 6.78501 43.5299ZM6.78501 43.5299C6.78501 43.5301 6.78502 43.5309 6.78501 43.5311C6.78474 43.5485 6.77757 43.5701 6.75947 43.5892C6.7405 43.6091 6.70606 43.6288 6.66205 43.6288M6.66205 43.6288C6.66203 43.6288 6.66207 43.6288 6.66205 43.6288Z" stroke="#051C45"/>
<path d="M5.36516 43.4316C5.40856 43.4316 5.44293 43.4509 5.46219 43.4711C5.48059 43.4905 5.48784 43.5123 5.48814 43.5299M5.36516 43.4316C5.32077 43.4316 5.28625 43.4515 5.26746 43.4713C5.2492 43.4906 5.24219 43.5124 5.24219 43.53C5.24219 43.5303 5.24219 43.5307 5.2422 43.5311C5.24249 43.5485 5.24966 43.5701 5.2678 43.5892C5.28682 43.6092 5.32132 43.6288 5.36516 43.6288M5.36516 43.4316C5.36519 43.4316 5.36514 43.4316 5.36516 43.4316ZM5.48814 43.5299C5.48814 43.53 5.48813 43.5297 5.48814 43.5299ZM5.48814 43.5299C5.48813 43.5301 5.48814 43.5309 5.48814 43.5311C5.48786 43.5485 5.4807 43.5701 5.46258 43.5892C5.44361 43.6091 5.40919 43.6288 5.36516 43.6288M5.36516 43.6288C5.36515 43.6288 5.36517 43.6288 5.36516 43.6288Z" stroke="#051C45"/>
<path d="M9.30853 43.4326C9.35243 43.4326 9.38687 43.4522 9.4059 43.4722C9.42406 43.4914 9.43122 43.5129 9.4315 43.5304C9.43151 43.5308 9.43151 43.5311 9.43151 43.5315C9.43151 43.5491 9.42448 43.5709 9.40623 43.5901C9.38748 43.6099 9.35303 43.6298 9.30853 43.6298M9.30853 43.4326C9.26466 43.4326 9.23019 43.4522 9.21117 43.4722C9.19301 43.4914 9.18583 43.5129 9.18556 43.5304C9.18556 43.5306 9.18557 43.5313 9.18556 43.5315M9.30853 43.4326C9.30855 43.4326 9.3085 43.4326 9.30853 43.4326ZM9.30853 43.6298C9.30851 43.6298 9.30855 43.6298 9.30853 43.6298ZM9.30853 43.6298C9.2652 43.6298 9.23074 43.6106 9.21151 43.5903C9.19308 43.571 9.18583 43.549 9.18556 43.5315M9.18556 43.5315C9.18556 43.5313 9.18557 43.5316 9.18556 43.5315Z" stroke="#051C45"/>
<path d="M13.082 43.5315C13.0823 43.5491 13.0896 43.571 13.108 43.5903C13.1272 43.6105 13.1616 43.6298 13.205 43.6298C13.2495 43.6298 13.2839 43.6099 13.3027 43.5901C13.321 43.5709 13.328 43.5491 13.328 43.5315C13.328 43.5311 13.328 43.5308 13.328 43.5304C13.3277 43.5129 13.3206 43.4913 13.3024 43.4722C13.2833 43.4522 13.249 43.4326 13.205 43.4326C13.1611 43.4326 13.1267 43.4522 13.1077 43.4722C13.0895 43.4914 13.0823 43.5129 13.082 43.5304C13.082 43.5306 13.082 43.5313 13.082 43.5315ZM13.082 43.5315C13.082 43.5313 13.082 43.5316 13.082 43.5315Z" stroke="#051C45"/>
<path d="M11.7812 43.5315C11.7815 43.549 11.7888 43.571 11.8073 43.5903C11.8265 43.6106 11.8609 43.6298 11.9042 43.6298C11.9488 43.6298 11.9832 43.6099 12.002 43.5901C12.0202 43.571 12.0272 43.5491 12.0272 43.5315C12.0272 43.5311 12.0272 43.5308 12.0272 43.5304C12.0269 43.5129 12.0198 43.4913 12.0016 43.4722C11.9826 43.4522 11.9482 43.4326 11.9042 43.4326C11.8604 43.4326 11.8259 43.4522 11.8069 43.4722C11.7887 43.4914 11.7815 43.5129 11.7812 43.5304C11.7812 43.5306 11.7812 43.5313 11.7812 43.5315ZM11.7812 43.5315C11.7812 43.5313 11.7812 43.5316 11.7812 43.5315Z" stroke="#051C45"/>
<path d="M10.6074 43.4326C10.6513 43.4326 10.6857 43.4522 10.7047 43.4722C10.7229 43.4913 10.73 43.5129 10.7303 43.5304C10.7303 43.5308 10.7303 43.5311 10.7303 43.5315C10.7303 43.5491 10.7233 43.5709 10.7051 43.5901C10.6863 43.6099 10.6519 43.6298 10.6074 43.6298M10.6074 43.4326C10.5635 43.4326 10.529 43.4522 10.51 43.4722C10.4918 43.4914 10.4847 43.5129 10.4844 43.5304C10.4844 43.5306 10.4844 43.5313 10.4844 43.5315M10.6074 43.4326C10.6074 43.4326 10.6073 43.4326 10.6074 43.4326ZM10.6074 43.6298C10.6073 43.6298 10.6074 43.6298 10.6074 43.6298ZM10.6074 43.6298C10.564 43.6298 10.5295 43.6105 10.5103 43.5903C10.4919 43.571 10.4847 43.5491 10.4844 43.5315M10.4844 43.5315C10.4844 43.5313 10.4844 43.5316 10.4844 43.5315Z" stroke="#051C45"/>
<path d="M12.8691 30.7932C12.8691 30.793 12.8691 30.7934 12.8691 30.7932ZM12.8691 30.7932C12.8691 30.793 12.8691 30.7923 12.8691 30.7921C12.8694 30.7747 12.8766 30.753 12.8948 30.7339C12.9138 30.7139 12.9481 30.6943 12.9921 30.6943C13.0361 30.6943 13.0705 30.7139 13.0895 30.7339C13.1077 30.7531 13.1148 30.7747 13.1151 30.7921C13.1151 30.7925 13.1151 30.7929 13.1151 30.7932C13.1151 30.8107 13.1081 30.8326 13.0898 30.8519C13.071 30.8717 13.0366 30.8915 12.9921 30.8915C12.9486 30.8915 12.9143 30.8722 12.8951 30.852C12.8767 30.8327 12.8694 30.8108 12.8691 30.7932Z" stroke="#051C45"/>
<path d="M12.8691 32.7883C12.8691 32.7882 12.8691 32.7885 12.8691 32.7883ZM12.8691 32.7883C12.8691 32.7881 12.8691 32.7874 12.8691 32.7873C12.8694 32.7698 12.8766 32.7482 12.8948 32.729C12.9138 32.709 12.9482 32.6895 12.9921 32.6895C13.0361 32.6895 13.0705 32.709 13.0895 32.729C13.1076 32.7481 13.1148 32.7698 13.1151 32.7873C13.1151 32.7876 13.1151 32.788 13.1151 32.7883C13.1151 32.8059 13.1081 32.8277 13.0898 32.847C13.071 32.8668 13.0366 32.8867 12.9921 32.8867C12.9487 32.8867 12.9144 32.8674 12.8952 32.8472C12.8767 32.8278 12.8694 32.8059 12.8691 32.7883Z" stroke="#051C45"/>
<path d="M12.8691 34.7815C12.8691 34.7813 12.8691 34.7816 12.8691 34.7815ZM12.8691 34.7815C12.8691 34.7813 12.8691 34.7806 12.8691 34.7804C12.8694 34.7629 12.8766 34.7413 12.8948 34.7222C12.9138 34.7022 12.9481 34.6826 12.9921 34.6826C13.0361 34.6826 13.0705 34.7022 13.0895 34.7222C13.1077 34.7414 13.1148 34.7629 13.1151 34.7804C13.1151 34.7808 13.1151 34.7812 13.1151 34.7815C13.1151 34.799 13.1081 34.8209 13.0898 34.8401C13.071 34.8599 13.0366 34.8798 12.9921 34.8798C12.9486 34.8798 12.9143 34.8605 12.8951 34.8402C12.8767 34.821 12.8694 34.7991 12.8691 34.7815Z" stroke="#051C45"/>
<path d="M12.8691 36.7756C12.8691 36.7754 12.8691 36.7758 12.8691 36.7756ZM12.8691 36.7756C12.8691 36.7755 12.8691 36.7747 12.8691 36.7746C12.8694 36.7571 12.8766 36.7354 12.8948 36.7164C12.9138 36.6963 12.9482 36.6768 12.9921 36.6768C13.0361 36.6768 13.0705 36.6963 13.0895 36.7164C13.1077 36.7354 13.1148 36.7571 13.1151 36.7746C13.1151 36.7749 13.1151 36.7752 13.1151 36.7756C13.1151 36.7932 13.1081 36.8149 13.0898 36.8342C13.071 36.854 13.0366 36.874 12.9921 36.874C12.9486 36.874 12.9143 36.8546 12.8951 36.8344C12.8767 36.8151 12.8694 36.7932 12.8691 36.7756Z" stroke="#051C45"/>
<path d="M12.8691 38.7698C12.8691 38.7696 12.8691 38.77 12.8691 38.7698ZM12.8691 38.7698C12.8691 38.7696 12.8691 38.7689 12.8691 38.7687C12.8694 38.7512 12.8766 38.7297 12.8948 38.7106C12.9138 38.6906 12.9482 38.6709 12.9921 38.6709C13.036 38.6709 13.0705 38.6905 13.0895 38.7106C13.1076 38.7297 13.1148 38.7512 13.1151 38.7687C13.1151 38.7691 13.1151 38.7695 13.1151 38.7698C13.1151 38.7874 13.1081 38.8092 13.0898 38.8285C13.071 38.8483 13.0366 38.8682 12.9921 38.8682C12.9487 38.8682 12.9144 38.8488 12.8952 38.8286C12.8767 38.8093 12.8694 38.7874 12.8691 38.7698Z" stroke="#051C45"/>
<path d="M9.14258 27.1661C9.14258 27.1427 9.15186 27.1155 9.17384 27.0925C9.1963 27.0688 9.23554 27.0469 9.2849 27.0469C9.33425 27.0469 9.3735 27.0688 9.39596 27.0925C9.41793 27.1155 9.42722 27.1427 9.42722 27.1661C9.42722 27.1895 9.41793 27.2166 9.39596 27.2398C9.3735 27.2635 9.33425 27.2853 9.2849 27.2853C9.23554 27.2853 9.1963 27.2635 9.17384 27.2398C9.15186 27.2166 9.14258 27.1895 9.14258 27.1661Z" stroke="#051C45"/>
<mask id="mask12_1069_73" style="mask-type:luminance" maskUnits="userSpaceOnUse" x="11" y="26" width="2" height="2">
<path d="M12.3751 27.5418C12.5723 27.5418 12.7322 27.3735 12.7322 27.1659C12.7322 26.9583 12.5723 26.79 12.3751 26.79H11.6695C11.4723 26.79 11.3125 26.9583 11.3125 27.1659C11.3125 27.3735 11.4723 27.5418 11.6695 27.5418H12.3751Z" fill="white"/>
</mask>
<g mask="url(#mask12_1069_73)">
<path d="M12.3742 28.4915C13.1573 28.4915 13.6912 27.8413 13.6912 27.1661H11.7712C11.7712 26.9062 11.9856 26.5925 12.3742 26.5925V28.4915ZM13.6912 27.1661C13.6912 26.4909 13.1572 25.8408 12.3742 25.8408V27.7398C11.9856 27.7398 11.7712 27.4262 11.7712 27.1661H13.6912ZM12.3742 25.8408H11.6686V27.7398H12.3742V25.8408ZM11.6686 25.8408C10.8855 25.8408 10.3516 26.4909 10.3516 27.1661H12.2716C12.2716 27.4261 12.0572 27.7398 11.6686 27.7398V25.8408ZM10.3516 27.1661C10.3516 27.8414 10.8856 28.4915 11.6686 28.4915V26.5925C12.0572 26.5925 12.2716 26.9062 12.2716 27.1661H10.3516ZM11.6686 28.4915H12.3742V26.5925H11.6686V28.4915Z" fill="#051C45"/>
</g>
</g>
</svg>
