<svg width="50" height="50" viewBox="0 0 50 50" fill="none" xmlns="http://www.w3.org/2000/svg">
<g clip-path="url(#clip0_1069_169)">
<mask id="mask0_1069_169" style="mask-type:luminance" maskUnits="userSpaceOnUse" x="0" y="0" width="50" height="50">
<path d="M50 0H0V50H50V0Z" fill="white"/>
</mask>
<g mask="url(#mask0_1069_169)">
<path d="M33.593 23.5945L34.0618 23.9063C33.2799 24.3757 32.0306 24.6875 30.3112 24.9993V24.2188C31.7181 22.8119 32.4993 20.9376 32.4993 18.9064H33.4389V15.1565H30.6258V18.9064H31.5633C31.5633 20.6258 30.9383 22.0306 30.0008 23.2806L27.5009 20.4682H22.1878L19.8448 23.1258C18.9074 22.032 18.2824 20.4682 18.2824 18.7509H19.2198V15.001H16.4081V18.9078H17.3456C17.3456 20.939 18.1268 22.8147 19.533 24.2202V25.0007C17.9706 24.6889 16.7206 24.3757 15.7831 23.9077L16.2519 23.5959L14.3769 20.3147L11.877 21.7209L13.7519 25.0021L14.6894 24.3771C15.7831 25.1576 17.5018 25.6271 19.533 25.9396V27.6576C18.5956 28.5964 17.8143 29.8471 17.5018 31.2505H16.4088V34.9997H19.2205V31.4082H18.5956C18.9081 30.4707 19.3768 29.5332 20.0018 28.7506L22.1892 31.4082H27.5023L29.6904 28.7506C30.3154 29.5311 30.7827 30.4707 31.0973 31.4082H30.4674V35.1588H33.2792V31.4082H32.1854C31.8737 29.9999 31.0938 28.7506 30.1556 27.8159V26.0965C32.1854 25.7847 33.9048 25.1576 34.9986 24.5334L35.936 25.1583L37.811 21.8786L35.3111 20.471L33.593 23.5945Z" fill="#051C45"/>
<path d="M43.6423 41.071C43.6423 42.4839 42.483 43.6416 41.0717 43.6416H8.92902C7.51583 43.6416 6.35767 42.4834 6.35767 41.071V13.5208C6.35767 12.1078 7.51637 10.9501 8.92902 10.9501H21.9389H21.9548C22.6685 10.9501 23.2345 10.9501 23.6715 10.9254C24.0998 10.9012 24.4759 10.8514 24.7702 10.7113C25.1127 10.5482 25.3086 10.2825 25.402 9.94587C25.4825 9.65561 25.4891 9.30092 25.4891 8.93038C25.4891 8.05507 25.7884 7.42543 26.2323 7.01215C26.6818 6.59367 27.3209 6.35904 28.0604 6.35904H41.0696C42.4839 6.35904 43.6409 7.51773 43.6409 8.93038L43.6423 41.071ZM41.0717 44.6212C43.0235 44.6212 44.6219 43.0254 44.6219 41.071L44.6205 8.93038C44.6205 6.97715 43.0254 5.37945 41.0696 5.37945H28.0604C27.1164 5.37945 26.225 5.68053 25.5647 6.29518C24.899 6.91503 24.5095 7.81596 24.5095 8.93038C24.5095 9.32479 24.497 9.54381 24.4581 9.68384C24.4321 9.77752 24.4081 9.79867 24.3491 9.82682C24.2417 9.87793 24.0345 9.92373 23.6163 9.94735C23.2102 9.97029 22.6718 9.97048 21.9389 9.97048H8.92902C6.97578 9.97048 5.37808 11.5664 5.37808 13.5208V41.071C5.37808 43.0245 6.97495 44.6212 8.92902 44.6212H41.0717ZM5.10191 1H44.8967C47.075 1 48.9988 2.92347 49 5.10287V44.8981C49 47.2296 47.231 49 44.8967 49H5.10191C2.77045 49 1 47.2296 1 44.8981V5.1026C1 2.77041 2.77049 1 5.10191 1Z" stroke="#051C45" stroke-width="2"/>
<path d="M10.1747 5.52454C10.1747 6.38885 9.50218 7.05983 8.70848 7.05983C7.91478 7.05983 7.24219 6.38885 7.24219 5.52454C7.24219 4.66024 7.91478 3.98926 8.70848 3.98926C9.50218 3.98926 10.1747 4.66024 10.1747 5.52454Z" stroke="#051C45"/>
<path d="M15.2313 5.52454C15.2313 6.38885 14.5587 7.05983 13.765 7.05983C12.9713 7.05983 12.2988 6.38885 12.2988 5.52454C12.2988 4.66024 12.9713 3.98926 13.765 3.98926C14.5587 3.98926 15.2313 4.66024 15.2313 5.52454Z" stroke="#051C45"/>
<path d="M20.8486 5.52454C20.8486 6.38885 20.176 7.05983 19.3823 7.05983C18.5886 7.05983 17.916 6.38885 17.916 5.52454C17.916 4.66024 18.5886 3.98926 19.3823 3.98926C20.176 3.98926 20.8486 4.66024 20.8486 5.52454Z" stroke="#051C45"/>
</g>
</g>
<defs>
<clipPath id="clip0_1069_169">
<rect width="50" height="50" fill="white"/>
</clipPath>
</defs>
</svg>
