<svg width="215" height="216" viewBox="0 0 215 216" fill="none" xmlns="http://www.w3.org/2000/svg">
<path d="M68.5 49.333V52.833H72H190.333H193.833V49.333V25.667V22.167H190.333H72H68.5V25.667V49.333ZM24.667 22.167H21.167V25.667V49.333V52.833H24.667H48.333H51.833V49.333V25.667V22.167H48.333H24.667ZM8.674 9.674C11.346 7.001 14.971 5.5 18.75 5.5H196.25C200.029 5.5 203.654 7.001 206.326 9.674C208.999 12.346 210.5 15.971 210.5 19.75V197.25C210.5 201.029 208.999 204.654 206.326 207.326C203.654 209.999 200.029 211.5 196.25 211.5H18.75C14.971 211.5 11.346 209.999 8.674 207.326C6.001 204.654 4.5 201.029 4.5 197.25V19.75C4.5 15.971 6.001 12.346 8.674 9.674ZM96.658 85.824C93.782 88.7 92.167 92.6 92.167 96.667V116.833H72C67.933 116.833 64.033 118.449 61.158 121.324C58.282 124.2 56.667 128.1 56.667 132.167C56.667 136.233 58.282 140.133 61.158 143.009C64.033 145.885 67.933 147.5 72 147.5H92.167V167.667C92.167 171.733 93.782 175.633 96.658 178.509C99.533 181.385 103.433 183 107.5 183C111.567 183 115.467 181.385 118.342 178.509C121.218 175.633 122.833 171.733 122.833 167.667V147.5H143C147.067 147.5 150.967 145.885 153.842 143.009C156.718 140.133 158.333 136.233 158.333 132.167C158.333 128.1 156.718 124.2 153.842 121.324C150.967 118.449 147.067 116.833 143 116.833H122.833V96.667C122.833 92.6 121.218 88.7 118.342 85.824C115.467 82.949 111.567 81.333 107.5 81.333C103.433 81.333 99.533 82.949 96.658 85.824Z" stroke="#051C45" stroke-width="7"/>
</svg>
