<svg width="214" height="215" viewBox="0 0 214 215" fill="none" xmlns="http://www.w3.org/2000/svg">
<path d="M67.5 48.333V51.833H71H189.333H192.833V48.333V24.667V21.167H189.333H71H67.5V24.667V48.333ZM23.667 21.167H20.167V24.667V48.333V51.833H23.667H47.333H50.833V48.333V24.667V21.167H47.333H23.667ZM7.674 8.674C10.346 6.001 13.971 4.5 17.75 4.5H195.25C199.029 4.5 202.654 6.001 205.326 8.674C207.999 11.346 209.5 14.971 209.5 18.75V196.25C209.5 200.029 207.999 203.654 205.326 206.326C202.654 208.999 199.029 210.5 195.25 210.5H17.75C13.971 210.5 10.346 208.999 7.674 206.326C5.001 203.654 3.5 200.029 3.5 196.25V18.75C3.5 14.971 5.001 11.346 7.674 8.674ZM95.658 84.824C92.782 87.7 91.167 91.6 91.167 95.667V115.833H71C66.933 115.833 63.033 117.449 60.158 120.324C57.282 123.2 55.667 127.1 55.667 131.167C55.667 135.233 57.282 139.133 60.158 142.009C63.033 144.885 66.933 146.5 71 146.5H91.167V166.667C91.167 170.733 92.782 174.633 95.658 177.509C98.533 180.385 102.433 182 106.5 182C110.567 182 114.467 180.385 117.342 177.509C120.218 174.633 121.833 170.733 121.833 166.667V146.5H142C146.067 146.5 149.967 144.885 152.842 142.009C155.718 139.133 157.333 135.233 157.333 131.167C157.333 127.1 155.718 123.2 152.842 120.324C149.967 117.449 146.067 115.833 142 115.833H121.833V95.667C121.833 91.6 120.218 87.7 117.342 84.824C114.467 81.949 110.567 80.333 106.5 80.333C102.433 80.333 98.533 81.949 95.658 84.824Z" stroke="#8AC0E1" stroke-width="7"/>
</svg>
