<svg width="251" height="252" viewBox="0 0 251 252" fill="none" xmlns="http://www.w3.org/2000/svg">
<path d="M60.4999 27.112C60.4789 28.419 60.0949 29.68 59.4089 30.737C58.7219 31.795 57.7689 32.593 56.6879 33.052C55.6079 33.51 54.4329 33.619 53.3039 33.369C52.1729 33.119 51.1159 32.517 50.2749 31.613C49.4329 30.708 48.8479 29.543 48.6139 28.258C48.3789 26.973 48.5099 25.644 48.9839 24.444C49.4579 23.246 50.2469 22.245 51.2309 21.551C52.2079 20.862 53.3399 20.503 54.4859 20.5C56.0429 20.521 57.5599 21.191 58.6989 22.414C59.8429 23.644 60.5039 25.33 60.4999 27.112Z" fill="#8AC0E1" stroke="#8AC0E1" stroke-width="5"/>
<path d="M34.5 27.111C34.478 28.387 34.081 29.629 33.358 30.682C32.632 31.738 31.61 32.556 30.421 33.033C29.231 33.51 27.927 33.625 26.673 33.363C25.418 33.101 24.269 32.475 23.37 31.562C22.47 30.649 21.861 29.491 21.618 28.233C21.375 26.975 21.509 25.673 22.004 24.491C22.499 23.309 23.332 22.299 24.399 21.589C25.462 20.881 26.71 20.503 27.987 20.5C29.724 20.522 31.383 21.228 32.603 22.466C33.823 23.704 34.504 25.373 34.5 27.111Z" fill="#8AC0E1" stroke="#8AC0E1" stroke-width="5"/>
<path d="M86.4999 27.112C86.4789 28.419 86.0949 29.68 85.4089 30.737C84.7219 31.795 83.7689 32.593 82.6879 33.052C81.6079 33.51 80.4329 33.619 79.3039 33.369C78.1729 33.119 77.1159 32.517 76.2749 31.613C75.4329 30.708 74.8479 29.543 74.6139 28.258C74.3789 26.973 74.5099 25.644 74.9839 24.444C75.4579 23.246 76.2469 22.245 77.2309 21.551C78.2079 20.862 79.3399 20.503 80.4859 20.5C82.0429 20.521 83.5599 21.191 84.6989 22.414C85.8429 23.644 86.5039 25.33 86.4999 27.112Z" fill="#8AC0E1" stroke="#8AC0E1" stroke-width="5"/>
<path d="M241.298 244.798H243.798V242.298V51.599V49.099H241.298H10.702H8.202V51.599V242.298V244.798H10.702H241.298ZM241.298 45.398H243.798V42.898V11.702V9.202H241.298H10.702H8.202V11.702V42.898V45.398H10.702H241.298ZM6.32401 7.324C7.48701 6.161 9.06199 5.506 10.706 5.5H241.294C242.938 5.506 244.513 6.161 245.676 7.324C246.838 8.486 247.494 10.061 247.5 11.705V11.709V242.291V242.295C247.494 243.939 246.838 245.514 245.676 246.676C244.514 247.838 242.939 248.494 241.295 248.5H241.291H10.709H10.705C9.061 248.494 7.48601 247.838 6.32401 246.676C5.16101 245.513 4.506 243.938 4.5 242.294V11.706C4.506 10.062 5.16101 8.487 6.32401 7.324Z" fill="#8AC0E1" stroke="#8AC0E1" stroke-width="5"/>
<path d="M229.955 32.3591L229.959 32.3631C230.308 32.7151 230.496 33.1821 230.493 33.6611C230.489 34.1401 230.294 34.6051 229.94 34.9521L229.925 34.9671L229.91 34.9821C229.747 35.1471 229.551 35.2791 229.332 35.3681C229.113 35.4581 228.877 35.5031 228.638 35.5001H228.615H228.591C228.343 35.5011 228.097 35.4531 227.87 35.3581C227.643 35.2631 227.44 35.1241 227.272 34.9521L227.26 34.9391L227.248 34.9271L223.768 31.4461L222 29.6771L220.232 31.4461L216.752 34.9271L216.74 34.9391L216.728 34.9521C216.56 35.1241 216.357 35.2631 216.13 35.3581C215.903 35.4531 215.657 35.5011 215.409 35.5001H215.385H215.362C215.123 35.5031 214.887 35.4581 214.668 35.3681C214.449 35.2791 214.253 35.1471 214.09 34.9821L214.075 34.9671L214.06 34.9521C213.706 34.6051 213.511 34.1401 213.507 33.6611C213.504 33.1821 213.692 32.7151 214.041 32.3631L214.045 32.3591L217.612 28.7481L219.358 26.9801L217.602 25.2231L214.039 21.6601C213.687 21.3031 213.497 20.8281 213.5 20.3421C213.504 19.8571 213.7 19.3861 214.056 19.0341C214.412 18.6921 214.897 18.4961 215.407 18.5001C215.917 18.5041 216.399 18.7061 216.75 19.0531L220.221 22.5681L222 24.3701L223.779 22.5681L227.25 19.0531C227.601 18.7061 228.083 18.5041 228.593 18.5001C229.103 18.4961 229.588 18.6921 229.944 19.0341C230.3 19.3861 230.496 19.8571 230.5 20.3421C230.503 20.8281 230.313 21.3021 229.961 21.6601L229.957 21.6631L226.398 25.2231L224.642 26.9801L226.388 28.7481L229.955 32.3591Z" fill="#8AC0E1" stroke="#8AC0E1" stroke-width="5"/>
<path d="M199.5 27.5C199.5 28.06 199.285 28.579 198.93 28.948C198.578 29.313 198.122 29.5 197.667 29.5H180.333C179.878 29.5 179.422 29.313 179.07 28.948C178.715 28.579 178.5 28.06 178.5 27.5C178.5 26.94 178.715 26.421 179.07 26.052C179.422 25.687 179.878 25.5 180.333 25.5H197.667C198.122 25.5 198.578 25.687 198.93 26.052C199.285 26.421 199.5 26.94 199.5 27.5Z" fill="#8AC0E1" stroke="#8AC0E1" stroke-width="5"/>
<path d="M72.916 171.806L72.698 171.931L72.509 172.098C71.674 172.836 71.007 173.745 70.554 174.764C70.103 175.778 69.874 176.878 69.882 177.988V179.151C69.82 181.057 70.504 182.913 71.789 184.324C73.087 185.748 74.895 186.602 76.819 186.7L76.883 186.703H76.946H186.435C186.923 186.703 187.393 186.897 187.739 187.245C188.086 187.592 188.282 188.064 188.282 188.557C188.282 189.05 188.086 189.522 187.739 189.869C187.393 190.217 186.923 190.411 186.435 190.411H178.568H173.937L176.478 194.283C178.391 197.198 179.412 200.612 179.415 204.102V204.147L179.416 204.192C179.499 206.435 179.129 208.672 178.33 210.768C177.53 212.864 176.316 214.777 174.762 216.393C173.208 218.008 171.345 219.293 169.284 220.17C167.223 221.048 165.007 221.5 162.768 221.5C160.529 221.5 158.313 221.048 156.253 220.17C154.192 219.293 152.329 218.008 150.774 216.393C149.22 214.777 148.007 212.864 147.207 210.768C146.407 208.672 146.037 206.435 146.12 204.192L146.122 204.14V204.088C146.105 200.604 147.125 197.194 149.051 194.294L151.63 190.411H146.969H107.546H102.915L105.456 194.283C107.369 197.198 108.39 200.612 108.393 204.102V204.147L108.394 204.192C108.477 206.435 108.107 208.672 107.307 210.768C106.508 212.864 105.294 214.777 103.74 216.393C102.186 218.008 100.322 219.293 98.262 220.17C96.201 221.048 93.985 221.5 91.746 221.5C89.507 221.5 87.291 221.048 85.231 220.17C83.17 219.293 81.307 218.008 79.752 216.393C78.198 214.777 76.985 212.864 76.185 210.768C75.385 208.672 75.015 206.435 75.098 204.192L75.1 204.143V204.094C75.091 200.576 76.126 197.135 78.072 194.208L80.393 190.716L76.218 190.334C73.46 190.082 70.897 188.8 69.039 186.741C67.18 184.682 66.163 181.997 66.189 179.22V179.208V179.196V177.977V177.963C66.179 176.148 66.607 174.358 67.437 172.745C68.251 171.163 69.427 169.798 70.869 168.761L85.415 160.33L86.812 159.52L86.649 157.914L78.916 81.938C78.792 80.175 78.028 78.517 76.766 77.277C75.491 76.025 73.799 75.289 72.014 75.21L71.959 75.208H71.904H47.347C46.858 75.208 46.389 75.013 46.042 74.666C45.696 74.319 45.5 73.847 45.5 73.354C45.5 72.861 45.696 72.389 46.042 72.041C46.389 71.694 46.858 71.5 47.347 71.5H71.886C74.578 71.541 77.161 72.578 79.136 74.412C81.115 76.251 82.344 78.761 82.584 81.456L82.585 81.466L82.586 81.476L83.238 88.181L83.458 90.445L85.733 90.439L188.174 90.178H188.177H188.205C189.799 90.195 191.367 90.588 192.782 91.327C194.198 92.066 195.42 93.131 196.348 94.435L196.35 94.438L199.474 98.871L199.479 98.877C200.646 100.523 201.337 102.46 201.475 104.475C201.612 106.488 201.192 108.5 200.26 110.288C200.259 110.29 200.258 110.292 200.257 110.294L175.619 156.912L175.613 156.922L175.608 156.931C174.764 158.564 173.491 159.933 171.926 160.892C170.363 161.85 168.569 162.361 166.738 162.372H89.942H89.273L88.693 162.706L72.916 171.806ZM166.745 158.664H166.78L166.816 158.663C167.981 158.631 169.115 158.284 170.099 157.66C171.077 157.04 171.871 156.169 172.398 155.139L194.557 113.139L196.493 109.471L192.345 109.473L88.203 109.516L85.438 109.517L85.717 112.268L90.193 156.416L90.421 158.664H92.681H166.745ZM188.174 93.886H188.167L86.633 94.147L83.883 94.154L84.151 96.891L84.803 103.552L85.024 105.81L87.293 105.808L194.869 105.721L198.908 105.718L197.104 102.105L197.087 102.071C196.969 101.835 196.802 101.498 196.621 101.197L196.569 101.11L196.51 101.028L193.352 96.607C192.784 95.782 192.027 95.104 191.144 94.63C190.251 94.152 189.256 93.896 188.243 93.886H188.23H188.217H188.174ZM170.445 192.254C168.076 190.871 165.348 190.23 162.612 190.414C159.104 190.556 155.794 192.076 153.398 194.646C151.003 197.215 149.716 200.625 149.815 204.137C149.818 206.881 150.642 209.561 152.181 211.833C153.728 214.116 155.925 215.88 158.488 216.895C161.051 217.91 163.86 218.128 166.548 217.522C169.237 216.915 171.681 215.512 173.561 213.495C175.441 211.478 176.671 208.942 177.091 206.216C177.511 203.49 177.102 200.7 175.917 198.21C174.732 195.72 172.825 193.644 170.445 192.254ZM99.422 192.254C97.054 190.871 94.326 190.23 91.59 190.414C88.082 190.556 84.772 192.076 82.376 194.646C79.981 197.215 78.694 200.625 78.793 204.137C78.796 206.881 79.62 209.561 81.159 211.833C82.705 214.116 84.903 215.88 87.466 216.895C90.029 217.91 92.838 218.128 95.526 217.522C98.215 216.915 100.659 215.512 102.539 213.495C104.419 211.478 105.649 208.942 106.069 206.216C106.489 203.49 106.08 200.7 104.895 198.21C103.71 195.72 101.803 193.644 99.422 192.254Z" fill="#8AC0E1" stroke="#8AC0E1" stroke-width="5"/>
</svg>
