<svg width="251" height="214" viewBox="0 0 251 214" fill="none" xmlns="http://www.w3.org/2000/svg">
<g clip-path="url(#clip0_1139_57)">
<path d="M242.366 0H8.34048C3.74152 0 0 3.74152 0 8.34049V205.414C0 210.014 3.74152 213.755 8.34048 213.755H242.366C246.965 213.755 250.707 210.014 250.707 205.414V8.34049C250.707 3.74152 246.965 0 242.366 0ZM4.36254 119.994C8.7931 116.4 13.6965 113.415 18.9651 111.131C34.3465 104.461 51.404 104.18 66.9968 110.34C82.5895 116.5 94.8505 128.363 101.521 143.745C108.195 159.136 108.342 176.877 101.973 192.624H4.36254V119.994ZM105.523 142.009C98.3888 125.558 85.276 112.871 68.5999 106.282C51.9238 99.694 33.6793 99.9952 17.2291 107.128C12.6666 109.107 8.35425 111.572 4.36254 114.48V77.661L23.4993 69.3626L28.8512 81.7054C29.2439 82.6114 30.1985 83.1434 31.1742 82.9944C38.6864 81.8722 46.32 81.7475 53.8638 82.626C54.8492 82.7385 55.7819 82.1798 56.1446 81.2608L61.091 68.7432L99.7385 84.0113L94.793 96.5281C94.4294 97.4479 94.7306 98.4964 95.5249 99.0835C101.64 103.606 107.129 108.916 111.841 114.867C112.505 115.707 113.668 115.929 114.587 115.433L126.758 110.156L143.289 148.28L131.143 153.547C131.127 153.552 131.113 153.557 131.098 153.563C130.106 153.906 129.501 154.908 129.655 155.946C130.781 163.463 130.905 171.1 130.026 178.647C129.912 179.629 130.472 180.565 131.392 180.928L143.91 185.871L141.242 192.624H106.656C112.804 176.213 112.429 157.939 105.523 142.009ZM145.622 181.858L134.538 177.48C135.204 170.656 135.092 163.773 134.204 156.974L145.132 152.235C147.28 151.304 148.267 148.797 147.335 146.646L130.715 108.316C129.782 106.167 127.278 105.175 125.13 106.105L114.201 110.844C109.849 105.554 104.902 100.769 99.4608 96.5872L103.839 85.5036C104.698 83.3288 103.624 80.8576 101.444 79.9937L62.5881 64.6438C60.4084 63.784 57.9349 64.8543 57.0758 67.03L52.697 78.1128C45.8731 77.4473 38.9908 77.5582 32.1928 78.4456L27.4529 67.5158C26.5202 65.3685 24.0126 64.3823 21.8629 65.3159L4.36254 72.9058V34.289H246.344V56.7859H200.726C199.522 56.7859 198.545 57.7624 198.545 58.9672C198.545 60.1712 199.522 61.1485 200.726 61.1485H246.344V192.624H145.931L148.007 187.372C148.866 185.191 147.798 182.718 145.622 181.858ZM8.34048 4.36254H242.366C244.56 4.36254 246.344 6.14626 246.344 8.34049V16.0689H87.3002C86.0954 16.0689 85.1182 17.0453 85.1182 18.2501C85.1182 19.4541 86.0954 20.4314 87.3002 20.4314H246.344V29.9265H4.36254V8.34049C4.36254 6.14707 6.14707 4.36254 8.34048 4.36254ZM242.366 209.392H8.34048C6.14707 209.392 4.36254 207.608 4.36254 205.414V196.986H246.344V205.414C246.344 207.609 244.56 209.392 242.366 209.392Z" fill="#8AC0E1"/>
<path d="M242.366 0H8.34048C3.74152 0 0 3.74152 0 8.34049V205.414C0 210.014 3.74152 213.755 8.34048 213.755H242.366C246.965 213.755 250.707 210.014 250.707 205.414V8.34049C250.707 3.74152 246.965 0 242.366 0ZM4.36254 119.994C8.7931 116.4 13.6965 113.415 18.9651 111.131C34.3465 104.461 51.404 104.18 66.9968 110.34C82.5895 116.5 94.8505 128.363 101.521 143.745C108.195 159.136 108.342 176.877 101.973 192.624H4.36254V119.994ZM105.523 142.009C98.3888 125.558 85.276 112.871 68.5999 106.282C51.9238 99.694 33.6793 99.9952 17.2291 107.128C12.6666 109.107 8.35425 111.572 4.36254 114.48V77.661L23.4993 69.3626L28.8512 81.7054C29.2439 82.6114 30.1985 83.1434 31.1742 82.9944C38.6864 81.8722 46.32 81.7475 53.8638 82.626C54.8492 82.7385 55.7819 82.1798 56.1446 81.2608L61.091 68.7432L99.7385 84.0113L94.793 96.5281C94.4294 97.4479 94.7306 98.4964 95.5249 99.0835C101.64 103.606 107.129 108.916 111.841 114.867C112.505 115.707 113.668 115.929 114.587 115.433L126.758 110.156L143.289 148.28L131.143 153.547C131.127 153.552 131.113 153.557 131.098 153.563C130.106 153.906 129.501 154.908 129.655 155.946C130.781 163.463 130.905 171.1 130.026 178.647C129.912 179.629 130.472 180.565 131.392 180.928L143.91 185.871L141.242 192.624H106.656C112.804 176.213 112.429 157.939 105.523 142.009ZM145.622 181.858L134.538 177.48C135.204 170.656 135.092 163.773 134.204 156.974L145.132 152.235C147.28 151.304 148.267 148.797 147.335 146.646L130.715 108.316C129.782 106.167 127.278 105.175 125.13 106.105L114.201 110.844C109.849 105.554 104.902 100.769 99.4608 96.5872L103.839 85.5036C104.698 83.3288 103.624 80.8576 101.444 79.9937L62.5881 64.6438C60.4084 63.784 57.9349 64.8543 57.0758 67.03L52.697 78.1128C45.8731 77.4473 38.9908 77.5582 32.1928 78.4456L27.4529 67.5158C26.5202 65.3685 24.0126 64.3823 21.8629 65.3159L4.36254 72.9058V34.289H246.344V56.7859H200.726C199.522 56.7859 198.545 57.7624 198.545 58.9672C198.545 60.1712 199.522 61.1485 200.726 61.1485H246.344V192.624H145.931L148.007 187.372C148.866 185.191 147.798 182.718 145.622 181.858ZM8.34048 4.36254H242.366C244.56 4.36254 246.344 6.14626 246.344 8.34049V16.0689H87.3002C86.0954 16.0689 85.1182 17.0453 85.1182 18.2501C85.1182 19.4541 86.0954 20.4314 87.3002 20.4314H246.344V29.9265H4.36254V8.34049C4.36254 6.14707 6.14707 4.36254 8.34048 4.36254ZM242.366 209.392H8.34048C6.14707 209.392 4.36254 207.608 4.36254 205.414V196.986H246.344V205.414C246.344 207.609 244.56 209.392 242.366 209.392Z" stroke="#8AC0E1"/>
<path d="M19.5498 25.0508C23.8662 25.0508 27.377 21.54 27.377 17.2236C27.377 12.9081 23.8662 9.39648 19.5498 9.39648C15.2342 9.39648 11.7227 12.9081 11.7227 17.2236C11.7227 21.54 15.2342 25.0508 19.5498 25.0508ZM19.5498 13.759C21.4607 13.759 23.0144 15.3136 23.0144 17.2236C23.0144 19.1345 21.4607 20.6882 19.5498 20.6882C17.6398 20.6882 16.0852 19.1345 16.0852 17.2236C16.0852 15.3136 17.6398 13.759 19.5498 13.759Z" fill="#8AC0E1"/>
<path d="M19.5498 25.0508C23.8662 25.0508 27.377 21.54 27.377 17.2236C27.377 12.9081 23.8662 9.39648 19.5498 9.39648C15.2342 9.39648 11.7227 12.9081 11.7227 17.2236C11.7227 21.54 15.2342 25.0508 19.5498 25.0508ZM19.5498 13.759C21.4607 13.759 23.0144 15.3136 23.0144 17.2236C23.0144 19.1345 21.4607 20.6882 19.5498 20.6882C17.6398 20.6882 16.0852 19.1345 16.0852 17.2236C16.0852 15.3136 17.6398 13.759 19.5498 13.759Z" stroke="#8AC0E1"/>
<path d="M41.3662 25.0508C45.6818 25.0508 49.1926 21.54 49.1926 17.2236C49.1926 12.9081 45.6818 9.39648 41.3662 9.39648C37.0498 9.39648 33.5391 12.9081 33.5391 17.2236C33.5391 21.54 37.0498 25.0508 41.3662 25.0508ZM41.3662 13.759C43.2762 13.759 44.83 15.3136 44.83 17.2236C44.83 19.1345 43.2762 20.6882 41.3662 20.6882C39.4554 20.6882 37.9016 19.1345 37.9016 17.2236C37.9016 15.3136 39.4554 13.759 41.3662 13.759Z" fill="#8AC0E1"/>
<path d="M41.3662 25.0508C45.6818 25.0508 49.1926 21.54 49.1926 17.2236C49.1926 12.9081 45.6818 9.39648 41.3662 9.39648C37.0498 9.39648 33.5391 12.9081 33.5391 17.2236C33.5391 21.54 37.0498 25.0508 41.3662 25.0508ZM41.3662 13.759C43.2762 13.759 44.83 15.3136 44.83 17.2236C44.83 19.1345 43.2762 20.6882 41.3662 20.6882C39.4554 20.6882 37.9016 19.1345 37.9016 17.2236C37.9016 15.3136 39.4554 13.759 41.3662 13.759Z" stroke="#8AC0E1"/>
<path d="M63.1748 25.0508C67.4904 25.0508 71.002 21.54 71.002 17.2236C71.002 12.9081 67.4904 9.39648 63.1748 9.39648C58.8592 9.39648 55.3477 12.9081 55.3477 17.2236C55.3477 21.54 58.8592 25.0508 63.1748 25.0508ZM63.1748 13.759C65.0848 13.759 66.6394 15.3136 66.6394 17.2236C66.6394 19.1345 65.0848 20.6882 63.1748 20.6882C61.2648 20.6882 59.7102 19.1345 59.7102 17.2236C59.7102 15.3136 61.2648 13.759 63.1748 13.759Z" fill="#8AC0E1"/>
<path d="M63.1748 25.0508C67.4904 25.0508 71.002 21.54 71.002 17.2236C71.002 12.9081 67.4904 9.39648 63.1748 9.39648C58.8592 9.39648 55.3477 12.9081 55.3477 17.2236C55.3477 21.54 58.8592 25.0508 63.1748 25.0508ZM63.1748 13.759C65.0848 13.759 66.6394 15.3136 66.6394 17.2236C66.6394 19.1345 65.0848 20.6882 63.1748 20.6882C61.2648 20.6882 59.7102 19.1345 59.7102 17.2236C59.7102 15.3136 61.2648 13.759 63.1748 13.759Z" stroke="#8AC0E1"/>
<path d="M27.0134 129.694C25.9082 130.173 25.4005 131.458 25.8798 132.562C26.36 133.668 27.6449 134.174 28.7493 133.696C48.0601 125.322 70.5821 134.221 78.9558 153.531C79.3129 154.353 80.1153 154.845 80.9581 154.845C81.2472 154.845 81.5419 154.786 81.8253 154.664C82.9297 154.185 83.4374 152.9 82.958 151.795C73.6273 130.278 48.5306 120.364 27.0134 129.694Z" fill="#8AC0E1"/>
<path d="M27.0134 129.694C25.9082 130.173 25.4005 131.458 25.8798 132.562C26.36 133.668 27.6449 134.174 28.7493 133.696C48.0601 125.322 70.5821 134.221 78.9558 153.531C79.3129 154.353 80.1153 154.845 80.9581 154.845C81.2472 154.845 81.5419 154.786 81.8253 154.664C82.9297 154.185 83.4374 152.9 82.958 151.795C73.6273 130.278 48.5306 120.364 27.0134 129.694Z" stroke="#8AC0E1"/>
</g>
<defs>
<clipPath id="clip0_1139_57">
<rect width="251" height="213.755" fill="white"/>
</clipPath>
</defs>
</svg>
