<svg width="354" height="259" viewBox="0 0 354 259" fill="none" xmlns="http://www.w3.org/2000/svg">
<g clip-path="url(#clip0_1139_72)">
<path d="M330.72 0H23.28C10.444 0 0 10.444 0 23.28V236.123C0 248.96 10.444 259.402 23.28 259.402H330.72C343.557 259.402 354 248.959 354 236.123V23.28C354 10.444 343.556 0 330.72 0ZM82.772 248.317H23.28C16.556 248.317 11.085 242.847 11.085 236.123V23.28C11.085 16.556 16.556 11.085 23.28 11.085H82.772V248.317ZM342.915 236.124C342.915 242.847 337.444 248.318 330.72 248.318H93.858V11.086H330.72C337.444 11.086 342.915 16.556 342.915 23.28V236.124Z" fill="#8AC0E1"/>
<path d="M330.72 0H23.28C10.444 0 0 10.444 0 23.28V236.123C0 248.96 10.444 259.402 23.28 259.402H330.72C343.557 259.402 354 248.959 354 236.123V23.28C354 10.444 343.556 0 330.72 0ZM82.772 248.317H23.28C16.556 248.317 11.085 242.847 11.085 236.123V23.28C11.085 16.556 16.556 11.085 23.28 11.085H82.772V248.317ZM342.915 236.124C342.915 242.847 337.444 248.318 330.72 248.318H93.858V11.086H330.72C337.444 11.086 342.915 16.556 342.915 23.28V236.124Z" stroke="#8AC0E1"/>
<path d="M135.614 23.6484H111.965C108.904 23.6484 106.422 26.1304 106.422 29.1914C106.422 32.2534 108.903 34.7344 111.965 34.7344H135.614C138.675 34.7344 141.157 32.2534 141.157 29.1914C141.157 26.1304 138.675 23.6484 135.614 23.6484Z" fill="#8AC0E1"/>
<path d="M135.614 23.6484H111.965C108.904 23.6484 106.422 26.1304 106.422 29.1914C106.422 32.2534 108.903 34.7344 111.965 34.7344H135.614C138.675 34.7344 141.157 32.2534 141.157 29.1914C141.157 26.1304 138.675 23.6484 135.614 23.6484Z" stroke="#8AC0E1"/>
<path d="M64.6654 23.6484H29.1914C26.1314 23.6484 23.6484 26.1304 23.6484 29.1914C23.6484 32.2534 26.1304 34.7344 29.1914 34.7344H64.6654C67.7264 34.7344 70.2084 32.2534 70.2084 29.1914C70.2084 26.1304 67.7274 23.6484 64.6654 23.6484Z" fill="#8AC0E1"/>
<path d="M64.6654 23.6484H29.1914C26.1314 23.6484 23.6484 26.1304 23.6484 29.1914C23.6484 32.2534 26.1304 34.7344 29.1914 34.7344H64.6654C67.7264 34.7344 70.2084 32.2534 70.2084 29.1914C70.2084 26.1304 67.7274 23.6484 64.6654 23.6484Z" stroke="#8AC0E1"/>
<path d="M64.6654 82.7715H29.1914C26.1314 82.7715 23.6484 85.2535 23.6484 88.3145C23.6484 91.3765 26.1304 93.8575 29.1914 93.8575H64.6654C67.7264 93.8575 70.2084 91.3765 70.2084 88.3145C70.2084 85.2535 67.7274 82.7715 64.6654 82.7715Z" fill="#8AC0E1"/>
<path d="M64.6654 82.7715H29.1914C26.1314 82.7715 23.6484 85.2535 23.6484 88.3145C23.6484 91.3765 26.1304 93.8575 29.1914 93.8575H64.6654C67.7264 93.8575 70.2084 91.3765 70.2084 88.3145C70.2084 85.2535 67.7274 82.7715 64.6654 82.7715Z" stroke="#8AC0E1"/>
<path d="M64.6654 130.072H29.1914C26.1314 130.072 23.6484 132.554 23.6484 135.615C23.6484 138.677 26.1304 141.158 29.1914 141.158H64.6654C67.7264 141.158 70.2084 138.677 70.2084 135.615C70.2084 132.554 67.7274 130.072 64.6654 130.072Z" fill="#8AC0E1"/>
<path d="M64.6654 130.072H29.1914C26.1314 130.072 23.6484 132.554 23.6484 135.615C23.6484 138.677 26.1304 141.158 29.1914 141.158H64.6654C67.7264 141.158 70.2084 138.677 70.2084 135.615C70.2084 132.554 67.7274 130.072 64.6654 130.072Z" stroke="#8AC0E1"/>
<path d="M64.6654 177.369H29.1914C26.1314 177.369 23.6484 179.851 23.6484 182.912C23.6484 185.974 26.1304 188.455 29.1914 188.455H64.6654C67.7264 188.455 70.2084 185.974 70.2084 182.912C70.2084 179.851 67.7274 177.369 64.6654 177.369Z" fill="#8AC0E1"/>
<path d="M64.6654 177.369H29.1914C26.1314 177.369 23.6484 179.851 23.6484 182.912C23.6484 185.974 26.1304 188.455 29.1914 188.455H64.6654C67.7264 188.455 70.2084 185.974 70.2084 182.912C70.2084 179.851 67.7274 177.369 64.6654 177.369Z" stroke="#8AC0E1"/>
<path d="M64.6654 106.424H29.1914C26.1314 106.424 23.6484 108.905 23.6484 111.967C23.6484 115.028 26.1304 117.51 29.1914 117.51H64.6654C67.7264 117.51 70.2084 115.028 70.2084 111.967C70.2084 108.905 67.7274 106.424 64.6654 106.424Z" fill="#8AC0E1"/>
<path d="M64.6654 106.424H29.1914C26.1314 106.424 23.6484 108.905 23.6484 111.967C23.6484 115.028 26.1304 117.51 29.1914 117.51H64.6654C67.7264 117.51 70.2084 115.028 70.2084 111.967C70.2084 108.905 67.7274 106.424 64.6654 106.424Z" stroke="#8AC0E1"/>
<path d="M64.6654 153.721H29.1914C26.1314 153.721 23.6484 156.202 23.6484 159.264C23.6484 162.325 26.1304 164.807 29.1914 164.807H64.6654C67.7264 164.807 70.2084 162.325 70.2084 159.264C70.2084 156.202 67.7274 153.721 64.6654 153.721Z" fill="#8AC0E1"/>
<path d="M64.6654 153.721H29.1914C26.1314 153.721 23.6484 156.202 23.6484 159.264C23.6484 162.325 26.1304 164.807 29.1914 164.807H64.6654C67.7264 164.807 70.2084 162.325 70.2084 159.264C70.2084 156.202 67.7274 153.721 64.6654 153.721Z" stroke="#8AC0E1"/>
<path d="M52.8414 212.846H29.1914C26.1314 212.846 23.6484 215.327 23.6484 218.389C23.6484 221.45 26.1304 223.932 29.1914 223.932H52.8414C55.9024 223.932 58.3844 221.45 58.3844 218.389C58.3844 215.327 55.9024 212.846 52.8414 212.846Z" fill="#8AC0E1"/>
<path d="M52.8414 212.846H29.1914C26.1314 212.846 23.6484 215.327 23.6484 218.389C23.6484 221.45 26.1304 223.932 29.1914 223.932H52.8414C55.9024 223.932 58.3844 221.45 58.3844 218.389C58.3844 215.327 55.9024 212.846 52.8414 212.846Z" stroke="#8AC0E1"/>
<path d="M52.8414 47.2988H29.1914C26.1314 47.2988 23.6484 49.7798 23.6484 52.8418C23.6484 55.9028 26.1304 58.3848 29.1914 58.3848H52.8414C55.9024 58.3848 58.3844 55.9028 58.3844 52.8418C58.3844 49.7798 55.9024 47.2988 52.8414 47.2988Z" fill="#8AC0E1"/>
<path d="M52.8414 47.2988H29.1914C26.1314 47.2988 23.6484 49.7798 23.6484 52.8418C23.6484 55.9028 26.1304 58.3848 29.1914 58.3848H52.8414C55.9024 58.3848 58.3844 55.9028 58.3844 52.8418C58.3844 49.7798 55.9024 47.2988 52.8414 47.2988Z" stroke="#8AC0E1"/>
<path d="M182.911 23.6484H159.262C156.201 23.6484 153.719 26.1304 153.719 29.1914C153.719 32.2534 156.2 34.7344 159.262 34.7344H182.911C185.972 34.7344 188.454 32.2534 188.454 29.1914C188.454 26.1304 185.973 23.6484 182.911 23.6484Z" fill="#8AC0E1"/>
<path d="M182.911 23.6484H159.262C156.201 23.6484 153.719 26.1304 153.719 29.1914C153.719 32.2534 156.2 34.7344 159.262 34.7344H182.911C185.972 34.7344 188.454 32.2534 188.454 29.1914C188.454 26.1304 185.973 23.6484 182.911 23.6484Z" stroke="#8AC0E1"/>
<path d="M230.212 23.6484H206.563C203.502 23.6484 201.02 26.1304 201.02 29.1914C201.02 32.2534 203.501 34.7344 206.563 34.7344H230.212C233.273 34.7344 235.755 32.2534 235.755 29.1914C235.755 26.1304 233.274 23.6484 230.212 23.6484Z" fill="#8AC0E1"/>
<path d="M230.212 23.6484H206.563C203.502 23.6484 201.02 26.1304 201.02 29.1914C201.02 32.2534 203.501 34.7344 206.563 34.7344H230.212C233.273 34.7344 235.755 32.2534 235.755 29.1914C235.755 26.1304 233.274 23.6484 230.212 23.6484Z" stroke="#8AC0E1"/>
<path d="M277.509 23.6484H253.859C250.799 23.6484 248.316 26.1304 248.316 29.1914C248.316 32.2534 250.798 34.7344 253.859 34.7344H277.509C280.57 34.7344 283.052 32.2534 283.052 29.1914C283.052 26.1304 280.57 23.6484 277.509 23.6484Z" fill="#8AC0E1"/>
<path d="M277.509 23.6484H253.859C250.799 23.6484 248.316 26.1304 248.316 29.1914C248.316 32.2534 250.798 34.7344 253.859 34.7344H277.509C280.57 34.7344 283.052 32.2534 283.052 29.1914C283.052 26.1304 280.57 23.6484 277.509 23.6484Z" stroke="#8AC0E1"/>
<path d="M324.806 23.6484H301.156C298.095 23.6484 295.613 26.1304 295.613 29.1914C295.613 32.2534 298.095 34.7344 301.156 34.7344H324.806C327.867 34.7344 330.349 32.2534 330.349 29.1914C330.349 26.1304 327.867 23.6484 324.806 23.6484Z" fill="#8AC0E1"/>
<path d="M324.806 23.6484H301.156C298.095 23.6484 295.613 26.1304 295.613 29.1914C295.613 32.2534 298.095 34.7344 301.156 34.7344H324.806C327.867 34.7344 330.349 32.2534 330.349 29.1914C330.349 26.1304 327.867 23.6484 324.806 23.6484Z" stroke="#8AC0E1"/>
<path d="M174.417 148.922C171.969 147.083 168.494 147.577 166.657 150.025C162.068 156.132 155.063 159.635 147.437 159.635C134.193 159.635 123.418 148.86 123.418 135.616C123.418 122.372 134.193 111.597 147.437 111.597C155.069 111.597 162.078 115.105 166.665 121.219C168.502 123.668 171.976 124.165 174.424 122.327C176.873 120.489 177.368 117.016 175.532 114.567C168.83 105.634 158.591 100.512 147.436 100.512C128.08 100.512 112.332 116.26 112.332 135.616C112.332 154.972 128.08 170.72 147.436 170.72C158.582 170.72 168.817 165.603 175.519 156.682C177.359 154.235 176.865 150.76 174.417 148.922Z" fill="#8AC0E1"/>
<path d="M174.417 148.922C171.969 147.083 168.494 147.577 166.657 150.025C162.068 156.132 155.063 159.635 147.437 159.635C134.193 159.635 123.418 148.86 123.418 135.616C123.418 122.372 134.193 111.597 147.437 111.597C155.069 111.597 162.078 115.105 166.665 121.219C168.502 123.668 171.976 124.165 174.424 122.327C176.873 120.489 177.368 117.016 175.532 114.567C168.83 105.634 158.591 100.512 147.436 100.512C128.08 100.512 112.332 116.26 112.332 135.616C112.332 154.972 128.08 170.72 147.436 170.72C158.582 170.72 168.817 165.603 175.519 156.682C177.359 154.235 176.865 150.76 174.417 148.922Z" stroke="#8AC0E1"/>
<path d="M229.094 146.57C239.636 144.351 247.576 134.982 247.576 123.789C247.576 110.953 237.132 100.51 224.296 100.51H194.734C191.674 100.51 189.191 102.991 189.191 106.053V165.176C189.191 168.236 191.673 170.719 194.734 170.719C197.796 170.719 200.277 168.237 200.277 165.176V147.069H215.613L231.687 168.501C232.776 169.953 234.44 170.719 236.125 170.719C237.283 170.719 238.45 170.357 239.447 169.61C241.895 167.774 242.392 164.299 240.555 161.851L229.094 146.57ZM200.277 135.984V111.596H224.295C231.019 111.596 236.49 117.067 236.49 123.791C236.49 130.515 231.019 135.985 224.295 135.985L200.277 135.984Z" fill="#8AC0E1"/>
<path d="M229.094 146.57C239.636 144.351 247.576 134.982 247.576 123.789C247.576 110.953 237.132 100.51 224.296 100.51H194.734C191.674 100.51 189.191 102.991 189.191 106.053V165.176C189.191 168.236 191.673 170.719 194.734 170.719C197.796 170.719 200.277 168.237 200.277 165.176V147.069H215.613L231.687 168.501C232.776 169.953 234.44 170.719 236.125 170.719C237.283 170.719 238.45 170.357 239.447 169.61C241.895 167.774 242.392 164.299 240.555 161.851L229.094 146.57ZM200.277 135.984V111.596H224.295C231.019 111.596 236.49 117.067 236.49 123.791C236.49 130.515 231.019 135.985 224.295 135.985L200.277 135.984Z" stroke="#8AC0E1"/>
<path d="M324.409 164.624L318.496 105.502C318.242 102.961 316.285 100.922 313.757 100.565C311.231 100.207 308.783 101.623 307.835 103.995L289.331 150.252L270.828 103.995C269.879 101.624 267.435 100.21 264.906 100.565C262.378 100.922 260.421 102.961 260.167 105.502L254.254 164.624C253.95 167.671 256.172 170.387 259.219 170.691C262.262 170.996 264.98 168.773 265.286 165.727L268.945 129.133L284.186 167.234C285.028 169.338 287.065 170.718 289.332 170.718C291.599 170.718 293.637 169.338 294.478 167.234L309.719 129.133L313.379 165.727C313.665 168.585 316.074 170.718 318.888 170.718C319.072 170.718 319.258 170.709 319.446 170.69C322.491 170.387 324.713 167.67 324.409 164.624Z" fill="#8AC0E1"/>
<path d="M324.409 164.624L318.496 105.502C318.242 102.961 316.285 100.922 313.757 100.565C311.231 100.207 308.783 101.623 307.835 103.995L289.331 150.252L270.828 103.995C269.879 101.624 267.435 100.21 264.906 100.565C262.378 100.922 260.421 102.961 260.167 105.502L254.254 164.624C253.95 167.671 256.172 170.387 259.219 170.691C262.262 170.996 264.98 168.773 265.286 165.727L268.945 129.133L284.186 167.234C285.028 169.338 287.065 170.718 289.332 170.718C291.599 170.718 293.637 169.338 294.478 167.234L309.719 129.133L313.379 165.727C313.665 168.585 316.074 170.718 318.888 170.718C319.072 170.718 319.258 170.709 319.446 170.69C322.491 170.387 324.713 167.67 324.409 164.624Z" stroke="#8AC0E1"/>
</g>
<defs>
<clipPath id="clip0_1139_72">
<rect width="354" height="259" fill="white"/>
</clipPath>
</defs>
</svg>
