<svg width="251" height="251" viewBox="0 0 251 251" fill="none" xmlns="http://www.w3.org/2000/svg">
<path d="M60.4999 26.112C60.4789 27.419 60.0949 28.68 59.4089 29.737C58.7219 30.795 57.7689 31.593 56.6879 32.052C55.6079 32.51 54.4329 32.619 53.3039 32.369C52.1729 32.119 51.1159 31.517 50.2749 30.613C49.4329 29.708 48.8479 28.543 48.6139 27.258C48.3789 25.973 48.5099 24.644 48.9839 23.444C49.4579 22.246 50.2469 21.245 51.2309 20.551C52.2079 19.862 53.3399 19.503 54.4859 19.5C56.0429 19.521 57.5599 20.191 58.6989 21.414C59.8429 22.644 60.5039 24.33 60.4999 26.112Z" fill="#051C45" stroke="#051C45" stroke-width="5"/>
<path d="M34.5 26.111C34.478 27.387 34.081 28.629 33.358 29.682C32.632 30.738 31.61 31.556 30.421 32.033C29.231 32.51 27.927 32.625 26.673 32.363C25.418 32.101 24.269 31.475 23.37 30.562C22.47 29.649 21.861 28.491 21.618 27.233C21.375 25.975 21.509 24.673 22.004 23.491C22.499 22.309 23.332 21.299 24.399 20.589C25.462 19.881 26.71 19.503 27.987 19.5C29.724 19.522 31.383 20.228 32.603 21.466C33.823 22.704 34.504 24.373 34.5 26.111Z" fill="#051C45" stroke="#051C45" stroke-width="5"/>
<path d="M86.4999 26.112C86.4789 27.419 86.0949 28.68 85.4089 29.737C84.7219 30.795 83.7689 31.593 82.6879 32.052C81.6079 32.51 80.4329 32.619 79.3039 32.369C78.1729 32.119 77.1159 31.517 76.2749 30.613C75.4329 29.708 74.8479 28.543 74.6139 27.258C74.3789 25.973 74.5099 24.644 74.9839 23.444C75.4579 22.246 76.2469 21.245 77.2309 20.551C78.2079 19.862 79.3399 19.503 80.4859 19.5C82.0429 19.521 83.5599 20.191 84.6989 21.414C85.8429 22.644 86.5039 24.33 86.4999 26.112Z" fill="#051C45" stroke="#051C45" stroke-width="5"/>
<path d="M241.298 243.798H243.798V241.298V50.599V48.099H241.298H10.702H8.202V50.599V241.298V243.798H10.702H241.298ZM241.298 44.398H243.798V41.898V10.702V8.202H241.298H10.702H8.202V10.702V41.898V44.398H10.702H241.298ZM6.32401 6.324C7.48701 5.161 9.06199 4.506 10.706 4.5H241.294C242.938 4.506 244.513 5.161 245.676 6.324C246.838 7.486 247.494 9.061 247.5 10.705V10.709V241.291V241.295C247.494 242.939 246.838 244.514 245.676 245.676C244.514 246.838 242.939 247.494 241.295 247.5H241.291H10.709H10.705C9.061 247.494 7.48601 246.838 6.32401 245.676C5.16101 244.513 4.506 242.938 4.5 241.294V10.706C4.506 9.062 5.16101 7.487 6.32401 6.324Z" fill="#051C45" stroke="#051C45" stroke-width="5"/>
<path d="M229.955 31.3591L229.959 31.3631C230.308 31.7151 230.496 32.1821 230.493 32.6611C230.489 33.1401 230.294 33.6051 229.94 33.9521L229.925 33.9671L229.91 33.9821C229.747 34.1471 229.551 34.2791 229.332 34.3681C229.113 34.4581 228.877 34.5031 228.638 34.5001H228.615H228.591C228.343 34.5011 228.097 34.4531 227.87 34.3581C227.643 34.2631 227.44 34.1241 227.272 33.9521L227.26 33.9391L227.248 33.9271L223.768 30.4461L222 28.6771L220.232 30.4461L216.752 33.9271L216.74 33.9391L216.728 33.9521C216.56 34.1241 216.357 34.2631 216.13 34.3581C215.903 34.4531 215.657 34.5011 215.409 34.5001H215.385H215.362C215.123 34.5031 214.887 34.4581 214.668 34.3681C214.449 34.2791 214.253 34.1471 214.09 33.9821L214.075 33.9671L214.06 33.9521C213.706 33.6051 213.511 33.1401 213.507 32.6611C213.504 32.1821 213.692 31.7151 214.041 31.3631L214.045 31.3591L217.612 27.7481L219.358 25.9801L217.602 24.2231L214.039 20.6601C213.687 20.3031 213.497 19.8281 213.5 19.3421C213.504 18.8571 213.7 18.3861 214.056 18.0341C214.412 17.6921 214.897 17.4961 215.407 17.5001C215.917 17.5041 216.399 17.7061 216.75 18.0531L220.221 21.5681L222 23.3701L223.779 21.5681L227.25 18.0531C227.601 17.7061 228.083 17.5041 228.593 17.5001C229.103 17.4961 229.588 17.6921 229.944 18.0341C230.3 18.3861 230.496 18.8571 230.5 19.3421C230.503 19.8281 230.313 20.3021 229.961 20.6601L229.957 20.6631L226.398 24.2231L224.642 25.9801L226.388 27.7481L229.955 31.3591Z" fill="#051C45" stroke="#051C45" stroke-width="5"/>
<path d="M199.5 26.5C199.5 27.06 199.285 27.579 198.93 27.948C198.578 28.313 198.122 28.5 197.667 28.5H180.333C179.878 28.5 179.422 28.313 179.07 27.948C178.715 27.579 178.5 27.06 178.5 26.5C178.5 25.94 178.715 25.421 179.07 25.052C179.422 24.687 179.878 24.5 180.333 24.5H197.667C198.122 24.5 198.578 24.687 198.93 25.052C199.285 25.421 199.5 25.94 199.5 26.5Z" fill="#051C45" stroke="#051C45" stroke-width="5"/>
<path d="M72.916 170.806L72.698 170.931L72.509 171.098C71.674 171.836 71.007 172.745 70.554 173.764C70.103 174.778 69.874 175.878 69.882 176.988V178.151C69.82 180.057 70.504 181.913 71.789 183.324C73.087 184.748 74.895 185.602 76.819 185.7L76.883 185.703H76.946H186.435C186.923 185.703 187.393 185.897 187.739 186.245C188.086 186.592 188.282 187.064 188.282 187.557C188.282 188.05 188.086 188.522 187.739 188.869C187.393 189.217 186.923 189.411 186.435 189.411H178.568H173.937L176.478 193.283C178.391 196.198 179.412 199.612 179.415 203.102V203.147L179.416 203.192C179.499 205.435 179.129 207.672 178.33 209.768C177.53 211.864 176.316 213.777 174.762 215.393C173.208 217.008 171.345 218.293 169.284 219.17C167.223 220.048 165.007 220.5 162.768 220.5C160.529 220.5 158.313 220.048 156.253 219.17C154.192 218.293 152.329 217.008 150.774 215.393C149.22 213.777 148.007 211.864 147.207 209.768C146.407 207.672 146.037 205.435 146.12 203.192L146.122 203.14V203.088C146.105 199.604 147.125 196.194 149.051 193.294L151.63 189.411H146.969H107.546H102.915L105.456 193.283C107.369 196.198 108.39 199.612 108.393 203.102V203.147L108.394 203.192C108.477 205.435 108.107 207.672 107.307 209.768C106.508 211.864 105.294 213.777 103.74 215.393C102.186 217.008 100.322 218.293 98.262 219.17C96.201 220.048 93.985 220.5 91.746 220.5C89.507 220.5 87.291 220.048 85.231 219.17C83.17 218.293 81.307 217.008 79.752 215.393C78.198 213.777 76.985 211.864 76.185 209.768C75.385 207.672 75.015 205.435 75.098 203.192L75.1 203.143V203.094C75.091 199.576 76.126 196.135 78.072 193.208L80.393 189.716L76.218 189.334C73.46 189.082 70.897 187.8 69.039 185.741C67.18 183.682 66.163 180.997 66.189 178.22V178.208V178.196V176.977V176.963C66.179 175.148 66.607 173.358 67.437 171.745C68.251 170.163 69.427 168.798 70.869 167.761L85.415 159.33L86.812 158.52L86.649 156.914L78.916 80.938C78.792 79.175 78.028 77.517 76.766 76.277C75.491 75.025 73.799 74.289 72.014 74.21L71.959 74.208H71.904H47.347C46.858 74.208 46.389 74.013 46.042 73.666C45.696 73.319 45.5 72.847 45.5 72.354C45.5 71.861 45.696 71.389 46.042 71.041C46.389 70.694 46.858 70.5 47.347 70.5H71.886C74.578 70.541 77.161 71.578 79.136 73.412C81.115 75.251 82.344 77.761 82.584 80.456L82.585 80.466L82.586 80.476L83.238 87.181L83.458 89.445L85.733 89.439L188.174 89.178H188.177H188.205C189.799 89.195 191.367 89.588 192.782 90.327C194.198 91.066 195.42 92.131 196.348 93.435L196.35 93.438L199.474 97.871L199.479 97.877C200.646 99.523 201.337 101.46 201.475 103.475C201.612 105.488 201.192 107.5 200.26 109.288C200.259 109.29 200.258 109.292 200.257 109.294L175.619 155.912L175.613 155.922L175.608 155.931C174.764 157.564 173.491 158.933 171.926 159.892C170.363 160.85 168.569 161.361 166.738 161.372H89.942H89.273L88.693 161.706L72.916 170.806ZM166.745 157.664H166.78L166.816 157.663C167.981 157.631 169.115 157.284 170.099 156.66C171.077 156.04 171.871 155.169 172.398 154.139L194.557 112.139L196.493 108.471L192.345 108.473L88.203 108.516L85.438 108.517L85.717 111.268L90.193 155.416L90.421 157.664H92.681H166.745ZM188.174 92.886H188.167L86.633 93.147L83.883 93.154L84.151 95.891L84.803 102.552L85.024 104.81L87.293 104.808L194.869 104.721L198.908 104.718L197.104 101.105L197.087 101.071C196.969 100.835 196.802 100.498 196.621 100.197L196.569 100.11L196.51 100.028L193.352 95.607C192.784 94.782 192.027 94.104 191.144 93.63C190.251 93.152 189.256 92.896 188.243 92.886H188.23H188.217H188.174ZM170.445 191.254C168.076 189.871 165.348 189.23 162.612 189.414C159.104 189.556 155.794 191.076 153.398 193.646C151.003 196.215 149.716 199.625 149.815 203.137C149.818 205.881 150.642 208.561 152.181 210.833C153.728 213.116 155.925 214.88 158.488 215.895C161.051 216.91 163.86 217.128 166.548 216.522C169.237 215.915 171.681 214.512 173.561 212.495C175.441 210.478 176.671 207.942 177.091 205.216C177.511 202.49 177.102 199.7 175.917 197.21C174.732 194.72 172.825 192.644 170.445 191.254ZM99.422 191.254C97.054 189.871 94.326 189.23 91.59 189.414C88.082 189.556 84.772 191.076 82.376 193.646C79.981 196.215 78.694 199.625 78.793 203.137C78.796 205.881 79.62 208.561 81.159 210.833C82.705 213.116 84.903 214.88 87.466 215.895C90.029 216.91 92.838 217.128 95.526 216.522C98.215 215.915 100.659 214.512 102.539 212.495C104.419 210.478 105.649 207.942 106.069 205.216C106.489 202.49 106.08 199.7 104.895 197.21C103.71 194.72 101.803 192.644 99.422 191.254Z" fill="#051C45" stroke="#051C45" stroke-width="5"/>
</svg>
