<svg width="251" height="251" viewBox="0 0 251 251" fill="none" xmlns="http://www.w3.org/2000/svg">
<g clip-path="url(#clip0_1139_129)">
<path d="M92.2464 65.9172C102.789 61.5504 114.089 59.3027 125.5 59.3027C136.911 59.3027 148.211 61.5504 158.754 65.9172C169.297 70.2842 178.876 76.6849 186.945 84.7538C190.248 88.0571 190.248 93.4127 186.945 96.7156L186.945 96.7157C183.642 100.019 178.286 100.019 174.983 96.7157L174.983 96.7156C168.485 90.2176 160.771 85.0631 152.279 81.5461C143.79 78.0295 134.69 76.2194 125.5 76.2194C116.31 76.2194 107.211 78.0295 98.7204 81.5461L98.7203 81.5462C90.2301 85.063 82.5156 90.2175 76.0175 96.7156C72.7143 100.019 67.3587 100.019 64.0554 96.7156C60.7524 93.4127 60.7523 88.057 64.0554 84.7537C72.1245 76.6849 81.7039 70.2842 92.2464 65.9172ZM92.2464 65.9172L91.4822 64.0721L92.2464 65.9172Z" fill="#051C45" stroke="white" stroke-width="4"/>
<path d="M81.1838 122.976C78.2721 120.278 78.2721 115.902 81.1838 113.203C87.0692 107.749 94.0562 103.423 101.746 100.471C109.435 97.5193 117.677 96 126 96C134.323 96 142.564 97.5193 150.254 100.471C157.944 103.423 164.931 107.749 170.816 113.203C173.728 115.902 173.728 120.278 170.816 122.976C167.904 125.675 163.183 125.675 160.271 122.976C155.771 118.805 150.428 115.497 144.547 113.239C138.667 110.982 132.365 109.82 126 109.82C119.635 109.82 113.333 110.982 107.453 113.239C101.572 115.497 96.2295 118.805 91.729 122.976C88.817 125.675 84.0958 125.675 81.1838 122.976Z" fill="#051C45"/>
<path d="M81.1838 122.976C78.2721 120.278 78.2721 115.902 81.1838 113.203C87.0692 107.749 94.0562 103.423 101.746 100.471C109.435 97.5193 117.677 96 126 96C134.323 96 142.564 97.5193 150.254 100.471C157.944 103.423 164.931 107.749 170.816 113.203C173.728 115.902 173.728 120.278 170.816 122.976C167.904 125.675 163.183 125.675 160.271 122.976C155.771 118.805 150.428 115.497 144.547 113.239C138.667 110.982 132.365 109.82 126 109.82C119.635 109.82 113.333 110.982 107.453 113.239C101.572 115.497 96.2295 118.805 91.729 122.976C88.817 125.675 84.0958 125.675 81.1838 122.976Z" stroke="white"/>
<path d="M115.042 165.333H113.042V167.333V198.708C113.042 214.932 99.8901 228.083 83.6667 228.083H60.9646H59.5502L59.0789 229.417C55.0456 240.829 44.1619 249 31.375 249C15.1516 249 2 235.849 2 219.625C2 203.401 15.1516 190.25 31.375 190.25C44.1619 190.25 55.0456 198.421 59.0789 209.833L59.5502 211.167H60.9646H83.6667C90.5473 211.167 96.125 205.589 96.125 198.708V167.333V165.333H94.125H73.2083C33.881 165.333 2 133.452 2 94.125C2 54.7976 33.881 22.9167 73.2083 22.9167C74.5377 22.9167 75.859 22.9532 77.1718 23.0253L78.0216 23.0721L78.6445 22.492C92.2881 9.78626 110.604 2 130.729 2C156.143 2 178.651 14.4064 192.541 33.4622L193.023 34.1242L193.831 34.2575C225.132 39.419 249 66.5959 249 99.3542C249 135.794 219.459 165.333 183.021 165.333H156.875H154.875V167.333V198.708C154.875 205.589 160.453 211.167 167.333 211.167H190.035H191.45L191.921 209.833C195.954 198.421 206.838 190.25 219.625 190.25C235.849 190.25 249 203.401 249 219.625C249 235.849 235.849 249 219.625 249C206.838 249 195.954 240.829 191.921 229.417L191.45 228.083H190.035H167.333C151.109 228.083 137.958 214.932 137.958 198.708V167.333V165.333H135.958H115.042ZM87.3585 37.673L88.8155 39.0431L87.3585 37.673L84.4062 40.8127L80.1306 40.2696C77.8674 39.982 75.5571 39.8333 73.2083 39.8333C43.224 39.8333 18.9167 64.1406 18.9167 94.125C18.9167 124.109 43.224 148.417 73.2083 148.417H183.021C210.118 148.417 232.083 126.451 232.083 99.3542C232.083 73.742 212.451 52.7047 187.42 50.4855L183.261 50.1169L181.025 46.5928L181.025 46.5926C170.455 29.9388 151.876 18.9167 130.729 18.9167C113.63 18.9167 98.2261 26.1158 87.3585 37.673ZM43.8333 219.625C43.8333 212.744 38.2556 207.167 31.375 207.167C24.4945 207.167 18.9167 212.744 18.9167 219.625C18.9167 226.506 24.4945 232.083 31.375 232.083C38.2556 232.083 43.8333 226.506 43.8333 219.625ZM207.167 219.625C207.167 226.506 212.744 232.083 219.625 232.083C226.506 232.083 232.083 226.506 232.083 219.625C232.083 212.744 226.506 207.167 219.625 207.167C212.744 207.167 207.167 212.744 207.167 219.625Z" fill="#051C45" stroke="white" stroke-width="4"/>
</g>
<defs>
<clipPath id="clip0_1139_129">
<rect width="251" height="251" fill="white"/>
</clipPath>
</defs>
</svg>
