<svg width="85" height="85" viewBox="0 0 85 85" fill="none" xmlns="http://www.w3.org/2000/svg">
<path d="M72.8928 61.1109V63.435L75.1432 64.0158C77.2981 64.5719 79.1758 65.8945 80.4246 67.7351C81.6733 69.5757 82.2074 71.8081 81.9271 74.0139C81.6468 76.2198 80.5712 78.248 78.9016 79.7183C77.2319 81.1886 75.0828 82 72.8571 82C70.6314 82 68.4823 81.1886 66.8127 79.7183C65.143 78.248 64.0674 76.2198 63.7871 74.0139C63.5068 71.8081 64.041 69.5757 65.2897 67.7351C66.5384 65.8945 68.4161 64.5719 70.5711 64.0158L72.8214 63.435V61.1109V48.5489V47.8909C72.8685 48.1054 72.8928 48.3259 72.8928 48.5489V61.1109ZM70.4674 45.5489H69.8214H45.5357H42.5357V48.5489V60.6861V63.6861H45.5357H51.6428V81.9606H33.3572V63.6861H39.4643H42.4643V60.6861V48.5489V45.5489H39.4643H15.1786H14.5326C14.7433 45.5036 14.9597 45.4803 15.1786 45.4803H39.4643H42.4643V42.4803V30.3431V27.3431H39.4643H12.1429C11.924 27.3431 11.7076 27.3197 11.4969 27.2745H12.1429H72.8571H73.5031C73.2924 27.3197 73.076 27.3431 72.8571 27.3431H45.5357H42.5357V30.3431V42.4803V45.4803H45.5357H69.8214C70.0403 45.4803 70.2567 45.5036 70.4674 45.5489ZM75.9286 24.2745C75.9286 24.4974 75.9043 24.7179 75.8571 24.9324V24.2745V6.06861V5.41064C75.9043 5.62513 75.9286 5.84563 75.9286 6.06861V24.2745ZM72.8571 3C73.076 3 73.2924 3.02333 73.5031 3.06861H72.8571H12.1429H11.4969C11.7076 3.02333 11.924 3 12.1429 3H72.8571ZM9.07145 6.06861C9.07145 5.84563 9.09575 5.62513 9.14288 5.41065V6.06861V24.2745V24.9324C9.09575 24.7179 9.07145 24.4974 9.07145 24.2745V6.06861ZM12.1786 47.8909V48.5489V61.1109V63.435L14.4289 64.0158C16.5839 64.5719 18.4616 65.8945 19.7103 67.7351C20.959 69.5757 21.4932 71.8081 21.2129 74.0139C20.9326 76.2198 19.857 78.248 18.1874 79.7183C16.5177 81.1886 14.3686 82 12.1429 82C9.91717 82 7.76808 81.1886 6.09841 79.7183C4.42877 78.248 3.35319 76.2198 3.07288 74.0139C2.79257 71.8081 3.32672 69.5757 4.57543 67.7351C5.82417 65.8945 7.70189 64.5719 9.85684 64.0158L12.1072 63.435V61.1109V48.5489C12.1072 48.3259 12.1315 48.1054 12.1786 47.8909ZM51.5714 66.7548V63.7548H48.5714H36.4286H33.4286V66.7548V78.892V81.892H36.4286H48.5714H51.5714V78.892V66.7548ZM15.6139 81.2019L14.4663 78.43L15.6139 81.2019C17.2713 80.5157 18.6882 79.3535 19.6851 77.8622C20.6821 76.3708 21.2143 74.6173 21.2143 72.8234C21.2143 70.4178 20.2582 68.111 18.5569 66.4104C16.8555 64.7099 14.5483 63.7548 12.1429 63.7548C10.349 63.7548 8.59535 64.2864 7.1036 65.2827C5.61183 66.279 4.44893 67.6953 3.76216 69.3525C3.07539 71.0098 2.89568 72.8334 3.24581 74.5928C3.59594 76.3522 4.46013 77.9682 5.72891 79.2363C6.99766 80.5045 8.61397 81.368 10.3734 81.7178C12.1328 82.0676 13.9565 81.8881 15.6139 81.2019ZM67.8178 80.364C69.3096 81.3603 71.0633 81.892 72.8571 81.892C75.2626 81.892 77.5698 80.9369 79.2711 79.2363C80.9725 77.5358 81.9286 75.229 81.9286 72.8234C81.9286 71.0295 81.3963 69.2759 80.3994 67.7846C79.4024 66.2932 77.9856 65.1311 76.3282 64.4449C74.6707 63.7587 72.847 63.5792 71.0876 63.929C69.3282 64.2788 67.7119 65.1422 66.4432 66.4104C65.1744 67.6786 64.3102 69.2945 63.9601 71.0539C63.6099 72.8133 63.7896 74.637 64.4764 76.2942C65.1632 77.9515 66.3261 79.3677 67.8178 80.364Z" fill="#051C45" stroke="#051C45" stroke-width="6"/>
</svg>
