<svg width="97" height="97" viewBox="0 0 97 97" fill="none" xmlns="http://www.w3.org/2000/svg">
<path d="M34.5938 42.9375H9.5625C8.08723 42.9375 6.67239 43.5235 5.62922 44.5667C4.58605 45.6099 4 47.0247 4 48.5V87.4375C4 88.9128 4.58605 90.3276 5.62922 91.3708C6.67239 92.414 8.08723 93 9.5625 93H34.5938M20.6875 42.9375V20.6875C20.6875 16.2617 22.4456 12.0172 25.5752 8.88766C28.7047 5.75814 32.9492 4 37.375 4C41.8008 4 46.0453 5.75814 49.1748 8.88766C52.3044 12.0172 54.0625 16.2617 54.0625 20.6875V29.0312M67.9688 59.625V67.9688L73.5312 73.5312M93 67.9688C93 74.6075 90.3628 80.9742 85.6685 85.6685C80.9742 90.3628 74.6075 93 67.9688 93C61.33 93 54.9633 90.3628 50.269 85.6685C45.5747 80.9742 42.9375 74.6075 42.9375 67.9688C42.9375 61.33 45.5747 54.9633 50.269 50.269C54.9633 45.5747 61.33 42.9375 67.9688 42.9375C74.6075 42.9375 80.9742 45.5747 85.6685 50.269C90.3628 54.9633 93 61.33 93 67.9688Z" stroke="#051C45" stroke-width="8" stroke-linecap="round" stroke-linejoin="round"/>
</svg>
